<?xml version="1.0" encoding="UTF-8"?>
<svg id="_레이어_1" data-name="레이어_1" xmlns="http://www.w3.org/2000/svg" viewBox="0 0 962.75 169.98">
  <defs>
    <style>
      .cls-1 {
        fill: #fff;
      }

      .cls-2 {
        fill: #fcffff;
      }
    </style>
  </defs>
  <g>
    <path class="cls-1" d="M379.82,89.82c-1.21,3.31-3.39,5.62-6.83,5.62-5.73,0-8-6.51-8-13.3s2.26-13.18,8-13.18c3.35,0,5.54,2.22,6.75,5.38h4.45v-7.49h4.52v34.55h-4.52v-11.58h-4.37ZM373.03,73.16c-2.42,0-3.43,4.06-3.43,9.01s1.01,8.97,3.43,8.97,3.47-4.02,3.47-8.97-.98-9.01-3.47-9.01ZM380.75,85.92h3.43v-7.68h-3.43c.2,1.29.27,2.61.27,3.94s-.08,2.54-.27,3.74ZM391.48,103.12v-36.97h4.6v36.97h-4.6Z"/>
    <path class="cls-1" d="M415.98,93.48h-14.98v-22.89h14.98v22.89ZM411.42,74.33h-5.85v15.44h5.85v-15.44ZM426.67,103.12v-18.53h-2.96v16.81h-4.56v-34.59h4.56v13.88h2.96v-14.55h4.64v36.97h-4.64Z"/>
    <path class="cls-1" d="M463.87,92.24c-1.95.58-7.88,1.09-12.29,1.09h-3.31v-22.85h4.8v18.84c3.59,0,7.92-.31,10.18-.98l.62,3.9ZM473.47,103.12v-18.49h-3.55v16.77h-4.52v-34.59h4.52v13.92h3.55v-14.59h4.6v36.97h-4.6Z"/>
    <path class="cls-1" d="M491.48,68.06c5.3,0,9.52,3.86,9.52,9.05s-4.13,8.74-9.52,8.74-9.48-3.51-9.48-8.74,4.13-9.05,9.48-9.05ZM512.27,89.23v13.92h-4.88v-10.06h-20.91v-3.86h25.78ZM491.48,82.06c2.89,0,4.84-2.18,4.84-4.99s-1.76-4.99-4.84-4.99c-2.89,0-4.76,2.34-4.76,4.99,0,2.89,1.87,4.99,4.76,4.99ZM502.25,79.25h5.15v-4.49h-5.15l-.16-4.1h5.3v-4.52h4.88v21.18h-4.88v-3.98h-5.3l.16-4.09Z"/>
    <path class="cls-1" d="M528.49,98.48v-3.78h14.16v-8.27h4.88v8.27h14.35v3.78h-33.39ZM558.45,87.48c-5.03-1.17-11.15-4.52-13.26-9.4-1.91,4.99-8.31,8.31-13.34,9.44l-2.3-3.94c5.77-.82,12.48-4.72,13.07-10.76h-11.27v-3.82h27.69v3.82h-11.23c.62,6.01,7.72,10.06,13.1,10.88l-2.46,3.78Z"/>
    <path class="cls-1" d="M579.11,90.56v2.81c3.47-.2,6.71-.43,9.44-.74l.39,3.71c-6.32.7-16.73,1.29-23.63,1.29-.23-1.29-.43-2.61-.62-3.94,3.16,0,6.4-.04,9.59-.12v-3.04c-3.78-.7-6.32-3-6.32-6.12,0-3.74,3.74-6.32,8.85-6.32s8.89,2.57,8.89,6.32c0,3.2-2.69,5.54-6.59,6.16ZM565.89,77.06v-3.67h21.57v3.67h-21.57ZM571.39,68.09h10.76v3.67h-10.76v-3.67ZM576.81,81.78c-2.34,0-4.02,1.21-4.02,2.61s1.68,2.65,4.02,2.65,4.02-1.25,4.02-2.65-1.68-2.61-4.02-2.61ZM595.49,103.12h-4.84v-36.97h4.84v36.97Z"/>
  </g>
  <path class="cls-2" d="M877.76,0v1c46.31,0,83.99,37.68,83.99,83.99s-37.68,83.99-83.99,83.99H84.99C38.68,168.98,1,131.3,1,84.99S38.68,1,84.99,1h792.77V0M877.76,0H84.99C38.05,0,0,38.05,0,84.99h0c0,46.94,38.05,84.99,84.99,84.99h792.77c46.94,0,84.99-38.05,84.99-84.99h0c0-46.94-38.05-84.99-84.99-84.99h0Z"/>
</svg>