<?xml version="1.0" encoding="UTF-8"?>
<svg xmlns="http://www.w3.org/2000/svg" viewBox="0 0 980 109.27">
  <defs>
    <style>
      .cls-1 {
        fill: #fff;
      }
    </style>
  </defs>
  <g id="_레이어_2" data-name="레이어_2">
    <rect x="0" y="-328.66" width="980" height="328.66"/>
    <rect x="0" y="0" width="980" height="109.27"/>
  </g>
  <g id="_레이어_1" data-name="레이어_1">
    <g>
      <path class="cls-1" d="M43.79,47.71c-.14,6.41-2.68,10.76-7.53,13.87l-1.2-1.38c4.38-2.37,6.63-6.61,6.9-10.96h-6.11v-1.53h7.94ZM47.13,65.01v-7.29h-3.56v-1.51h3.56v-3.83h-3.09v-1.53h3.09v-5.25h1.78v19.42h-1.78ZM51.1,66.07v-20.97h1.8v20.97h-1.8Z"/>
      <path class="cls-1" d="M69.12,60.83c-1.65.2-4.53.45-7.06.61-2.32.14-4.38.18-6.13.18l-.32-1.6c1.53,0,3.56,0,5.68-.09v-4.4h1.83v4.31c2.34-.13,4.46-.31,5.82-.52l.18,1.51ZM56.51,47.33h11.46v1.53h-4.89c.05,3.09,3.11,5.32,5.32,6.02l-.97,1.4c-2.03-.81-4.4-2.71-5.23-4.58-.68,2.05-2.8,4.08-5.3,5.23l-.97-1.44c2.68-.9,5.28-3.52,5.32-6.63h-4.74v-1.53ZM72.12,55.4v10.67h-1.83v-20.97h1.83v8.77h3.36v1.53h-3.36Z"/>
      <path class="cls-1" d="M77.26,46.83h11.34v1.53h-4.71c0,.43,0,.9.02,1.15.16,2.84,2.84,5.12,5.41,5.89l-1.08,1.47c-2.19-.86-4.44-2.82-5.3-4.71-.56,1.96-3.09,4.49-5.35,5.46l-.99-1.46c2.64-1.02,5.3-3.68,5.41-6.65.02-.22.02-.72.02-1.13h-4.78v-1.53ZM86.96,66.07c-4.49,0-7.01-1.53-7.01-3.99s2.53-4.01,7.01-4.01,7.04,1.53,7.04,4.01-2.53,3.99-7.04,3.99ZM81.79,62.08c0,1.56,1.94,2.46,5.16,2.46s5.19-.9,5.19-2.46-1.92-2.48-5.19-2.48-5.16.9-5.16,2.48ZM87.79,52.06v-1.53h4.22v-5.43h1.83v13.01h-1.83v-6.04h-4.22Z"/>
      <path class="cls-1" d="M107.79,57.63v4.29h8.59v1.53h-18.94v-1.53h8.52v-4.29h-6.22v-11.1h1.83v3.86h10.69v-3.86h1.83v11.1h-6.29ZM112.26,51.9h-10.69v4.22h10.69v-4.22Z"/>
      <path class="cls-1" d="M119.68,50.91h2.08v2.16h-2.08v-2.16ZM119.68,59.73h2.08v2.17h-2.08v-2.17Z"/>
      <path class="cls-1" d="M140.85,48.9h-9.09v-1.62h11.23v1.2l-6.61,14.88h-2.08l6.54-14.46Z"/>
      <path class="cls-1" d="M156.78,54.2v1.15c0,5.8-2.55,8.3-6.22,8.3-1.74,0-3.47-.56-4.2-1.04l.5-1.53c.81.47,2.23.92,3.56.92,2.71,0,4.42-1.94,4.42-6.11-.61.61-1.96,1.71-3.92,1.71-2.98,0-5.12-1.71-5.12-5.12,0-2.98,1.83-5.48,5.25-5.48,4.26,0,5.73,3.63,5.73,7.19ZM147.73,52.38c0,1.83.86,3.63,3.43,3.63,1.49,0,2.84-.92,3.68-2.03v-.32c0-2.82-1.26-5.07-3.81-5.07-1.44,0-3.29.77-3.29,3.79Z"/>
      <path class="cls-1" d="M167.08,59.93h-8.03v-1.33l8.43-11.39h1.4v11.16h2.71v1.56h-2.71v3.43h-1.8v-3.43ZM167.1,58.38v-8.05l-5.95,8.05h5.95Z"/>
      <path class="cls-1" d="M173.92,62.23l3.83-3.97c2.71-2.75,3.81-4.15,3.81-6.5,0-2.17-1.15-3.11-3.25-3.11-1.38,0-2.66.63-3.65,1.33l-.54-1.51c1.17-.77,2.73-1.47,4.56-1.47,3.27,0,4.89,1.96,4.89,4.58,0,2.84-1.71,4.85-4.26,7.42l-2.71,2.73h7.37v1.62h-10.06v-1.13Z"/>
      <path class="cls-1" d="M187.47,55.78v-.9c0-5.1,1.87-7.87,5.5-7.87s5.48,2.75,5.48,7.85v.92c0,5.12-1.85,7.87-5.48,7.87s-5.5-2.75-5.5-7.87ZM196.42,55.76v-.83c0-4.33-.97-6.34-3.45-6.34s-3.47,1.98-3.47,6.31v.81c0,4.31.97,6.36,3.47,6.36s3.45-2.01,3.45-6.32Z"/>
      <path class="cls-1" d="M201.54,56.32v-1.06c0-5.71,2.95-8.25,6.22-8.25,1.56,0,3.2.41,4.15.97l-.47,1.53c-.7-.41-2.19-.88-3.47-.88-2.41,0-4.33,1.6-4.46,6.27,1.04-1.01,2.39-1.62,4.04-1.62,2.98,0,5.01,1.78,5.01,4.96,0,2.55-1.69,5.41-5.46,5.41-4.33,0-5.55-4.13-5.55-7.33ZM210.61,58.47c0-2.21-.86-3.59-3.38-3.59-1.51,0-2.91.88-3.72,1.94v.23c0,2.23.86,5.03,3.68,5.03,1.96,0,3.43-1.35,3.43-3.61Z"/>
      <path class="cls-1" d="M215.66,62.59l.41-1.53c1.1.7,2.62.99,3.88.99,2.66,0,4.33-1.49,4.33-3.56,0-2.48-1.35-3.52-4.24-3.52-1.17,0-2.64.5-3.59.97l.56-8.66h8.37v1.62h-6.83l-.32,5.05c.54-.23,1.65-.5,2.57-.5,3.25,0,5.5,1.49,5.5,4.89,0,2.59-1.87,5.3-5.95,5.3-1.96,0-3.61-.41-4.69-1.06Z"/>
      <path class="cls-1" d="M229.53,62.62l.52-1.53c.92.56,2.59.92,3.77.92,2.66,0,4.33-1.17,4.33-3.18s-1.69-3.02-4.24-3.02h-1.6v-1.62h1.47c2.23,0,3.79-1.01,3.79-2.91s-1.56-2.64-3.52-2.64c-1.29,0-2.48.38-3.5.97l-.52-1.47c1.08-.68,2.66-1.13,4.38-1.13,3.2,0,5.12,1.47,5.12,3.99,0,1.98-1.1,3.38-3.09,3.86v.02c2.1.29,3.72,1.47,3.72,3.95,0,2.82-1.96,4.83-6.07,4.83-1.87,0-3.56-.43-4.56-1.04Z"/>
      <path class="cls-1" d="M243.31,59.26c0-1.98,1.2-3.45,3.65-4.24-1.71-.63-3.09-1.78-3.09-3.97s2.03-4.04,5.03-4.04c3.47,0,4.96,1.96,4.96,3.95,0,1.53-.72,2.8-3.16,3.92,2.34.79,3.79,1.94,3.79,4.31,0,2.57-2.39,4.47-5.66,4.47-3.61,0-5.53-1.99-5.53-4.4ZM252.46,59.32c0-1.92-1.08-2.71-4.01-3.56-2.44.79-3.2,1.96-3.2,3.36,0,1.76,1.33,2.95,3.61,2.95,1.92,0,3.61-1.08,3.61-2.75ZM251.95,51.07c0-1.24-.77-2.5-3.02-2.5-1.89,0-3.04,1.06-3.04,2.48,0,1.31.75,2.37,3.36,3.09,2.17-.9,2.71-1.78,2.71-3.07Z"/>
      <path class="cls-1" d="M257.47,56.32v-1.06c0-5.71,2.95-8.25,6.22-8.25,1.56,0,3.2.41,4.15.97l-.47,1.53c-.7-.41-2.19-.88-3.47-.88-2.41,0-4.33,1.6-4.46,6.27,1.04-1.01,2.39-1.62,4.04-1.62,2.98,0,5.01,1.78,5.01,4.96,0,2.55-1.69,5.41-5.46,5.41-4.33,0-5.55-4.13-5.55-7.33ZM266.54,58.47c0-2.21-.86-3.59-3.38-3.59-1.51,0-2.91.88-3.72,1.94v.23c0,2.23.86,5.03,3.68,5.03,1.96,0,3.43-1.35,3.43-3.61Z"/>
      <path class="cls-1" d="M271.43,62.23l3.83-3.97c2.71-2.75,3.81-4.15,3.81-6.5,0-2.17-1.15-3.11-3.25-3.11-1.38,0-2.66.63-3.65,1.33l-.54-1.51c1.17-.77,2.73-1.47,4.56-1.47,3.27,0,4.89,1.96,4.89,4.58,0,2.84-1.71,4.85-4.26,7.42l-2.71,2.73h7.37v1.62h-10.06v-1.13Z"/>
      <path class="cls-1" d="M301.74,47.24c-.13,7.6-3.81,12.11-9.56,14.88l-1.13-1.38c3.45-1.46,6.11-3.83,7.58-6.95l-7.08.63-.38-1.67,8.05-.47c.34-1.11.54-2.28.61-3.52h-7.76v-1.53h9.67ZM306.95,53.69h3.43v1.56h-3.43v10.82h-1.83v-20.97h1.83v8.59Z"/>
      <path class="cls-1" d="M322.49,47.24c-.13,7.6-3.81,12.11-9.56,14.88l-1.13-1.38c3.45-1.46,6.11-3.83,7.58-6.95l-7.08.63-.38-1.67,8.05-.47c.34-1.11.54-2.28.61-3.52h-7.76v-1.53h9.67ZM327.7,53.69h3.43v1.56h-3.43v10.82h-1.83v-20.97h1.83v8.59Z"/>
      <path class="cls-1" d="M342.67,57.56v4.2h8.59v1.53h-18.94v-1.53h8.52v-4.2c-4.01-.29-6.63-2.37-6.63-5.48,0-3.31,3.02-5.5,7.55-5.5s7.58,2.19,7.58,5.5c0,3.11-2.64,5.21-6.68,5.48ZM341.77,48.12c-3.5,0-5.77,1.6-5.77,4.01s2.28,3.99,5.77,3.99,5.82-1.6,5.82-3.99-2.28-4.01-5.82-4.01Z"/>
      <path class="cls-1" d="M354.04,56.05v-9.5h1.78v3.16h4.65v-3.16h1.78v9.5h-8.21ZM360.47,51.23h-4.65v3.32h4.65v-3.32ZM363.8,66c-4.58,0-7.24-1.54-7.24-3.97s2.66-3.97,7.24-3.97,7.24,1.53,7.24,3.97-2.68,3.97-7.24,3.97ZM358.46,62.03c0,1.6,2.05,2.53,5.34,2.53s5.37-.93,5.37-2.53-2.05-2.53-5.37-2.53-5.34.95-5.34,2.53ZM368.95,57.86v-5.68h-2.53v4.98h-1.76v-11.68h1.76v5.16h2.53v-5.55h1.8v12.76h-1.8Z"/>
      <path class="cls-1" d="M373.82,63v-1.53h18.94v1.53h-18.94ZM390.33,50.08c-.02,2.82-.34,7.6-.95,10.26l-1.76-.22c.23-.99.47-3.16.63-5.32l-12.4.63-.36-1.6,12.85-.45c.04-.83.09-1.62.09-2.3v-2.17h-12.29v-1.51h14.19v2.68Z"/>
      <path class="cls-1" d="M402.57,45.86h1.58v19.96h-1.58v-19.96Z"/>
      <path class="cls-1" d="M422.78,50.08h3v-4.58h1.78v19.51h-1.78v-6.83h-3c-.72,2.01-2.05,3.22-4.01,3.22-3.07,0-4.62-3-4.62-7.31s1.56-7.31,4.62-7.31c1.96,0,3.32,1.26,4.01,3.29ZM418.76,48.36c-1.76,0-2.84,2.23-2.84,5.73s1.08,5.73,2.84,5.73,2.86-2.19,2.86-5.73-1.11-5.73-2.86-5.73ZM423.18,51.61c.14.77.2,1.6.2,2.48,0,.92-.09,1.78-.23,2.55h2.62v-5.03h-2.59ZM429.86,66.07v-20.97h1.8v20.97h-1.8Z"/>
      <path class="cls-1" d="M451.17,46.33c0,2.82-.23,5.75-.72,7.87h3.2v1.53h-18.94v-1.53h13.94c.41-1.58.65-4.6.65-6.36h-12.16v-1.51h14.03ZM436.98,65.62v-7.28h14.39v7.28h-14.39ZM449.55,59.84h-10.73v4.26h10.73v-4.26Z"/>
      <path class="cls-1" d="M463.98,66.07v-7.51h-8.52v-1.53h18.94v1.53h-8.59v7.51h-1.83ZM472.64,55.06c-3.43-.59-6.77-2.71-7.71-4.67-.86,1.96-4.1,4.13-7.69,4.71l-.83-1.53c3.43-.36,7.49-2.55,7.58-5.48h-6.79v-1.51h15.45v1.51h-6.74c.09,2.95,4.4,5.07,7.6,5.43l-.86,1.53Z"/>
      <path class="cls-1" d="M477.69,50.91h2.08v2.16h-2.08v-2.16ZM477.69,59.73h2.08v2.17h-2.08v-2.17Z"/>
      <path class="cls-1" d="M494.22,66.07v-7.44h-4.89v-1.53h18.94v1.53h-4.96v7.44h-1.83v-7.44h-5.43v7.44h-1.83ZM498.8,55.15c-4.65,0-7.44-1.83-7.44-4.56s2.8-4.55,7.44-4.55,7.44,1.83,7.44,4.55-2.8,4.56-7.44,4.56ZM493.16,50.6c0,1.78,2.14,2.93,5.64,2.93s5.66-1.15,5.66-2.93-2.14-2.93-5.66-2.93-5.64,1.15-5.64,2.93Z"/>
      <path class="cls-1" d="M509.99,50.53v-1.51h12.29v1.51h-12.29ZM516.14,59.01c-2.8,0-4.94-1.47-4.94-3.68s2.12-3.68,4.94-3.68,4.94,1.42,4.94,3.68-2.12,3.68-4.94,3.68ZM516.14,53.1c-1.69,0-3.2.83-3.2,2.23s1.51,2.21,3.2,2.21,3.2-.83,3.2-2.21-1.51-2.23-3.2-2.23ZM512.99,47.44v-1.6h6.04v1.6h-6.04ZM513.05,65.39v-5.39h1.83v3.86h12.13v1.53h-13.96ZM526.2,53.73v6.83h-1.83v-15.47h1.83v7.1h3.2v1.53h-3.2Z"/>
      <path class="cls-1" d="M541.56,46.24c-.43,5.53-4.33,8.86-9.54,10.37l-.92-1.47c4.6-1.17,7.69-3.95,8.37-7.37h-7.46v-1.53h9.56ZM534.41,65.93v-5.28h11.73v-2.3h-11.79v-1.44h13.62v5.07h-11.73v2.5h12.52v1.44h-14.34ZM541.78,48.18h4.35v-3.09h1.83v10.67h-1.83v-2.25h-4.62v-1.47h4.62v-2.41h-4.35v-1.44Z"/>
    </g>
  </g>
</svg>