<?xml version="1.0" encoding="UTF-8"?>
<svg xmlns="http://www.w3.org/2000/svg" viewBox="0 0 980 302.75">
  <defs>
    <style>
      .cls-1 {
        fill: #fff;
      }
    </style>
  </defs>
  <g id="_레이어_2" data-name="레이어_2">
    <rect x="0" y="-.67" width="980" height="303.42"/>
    <rect x="0" y="302.75" width="980" height="328.66"/>
  </g>
  <g id="_레이어_1" data-name="레이어_1">
    <g>
      <path class="cls-1" d="M478.01,40.21h10.28c0,8.57-2.75,12.83-8.91,16.46-.68-.88-1.6-1.87-2.48-2.62,4.65-1.31,7.85-6.22,7.85-11h-6.74v-2.84ZM493.87,38.39c1.44,0,1.8.09,1.8.36s-.38.74-.38,1.49v7.4h2.82v2.86h-2.82v9.02h-3.25v-21.13h1.83Z"/>
      <path class="cls-1" d="M499.35,47.52h21.13v2.75h-21.13v-2.75ZM518.95,55.78c0,2.1-2.62,4.01-9.04,4.01s-8.91-1.92-8.91-4.01,2.64-4.01,8.91-4.01,9.04,1.94,9.04,4.01ZM503.65,38.64c1.17,0,1.44.07,1.44.29,0,.2-.2.54-.2,1.06v2.73h13.64v2.71h-16.91v-6.79h2.03ZM504.35,55.8c0,.97,1.51,1.83,5.55,1.83s5.68-.86,5.68-1.83-1.46-1.67-5.68-1.67-5.55.72-5.55,1.67Z"/>
      <path class="cls-1" d="M529.57,38.93c1.1,0,1.38.11,1.38.38s-.32.7-.32,1.33c0,2.37,1.74,6.09,5.35,7.69-.83.65-1.67,1.51-2.35,2.37-1.87-1.15-3.86-3.31-4.42-5.16-.52,1.96-2.1,4.06-4.74,5.73-.61-.68-1.65-1.58-2.53-2.19,3.43-1.65,5.62-4.49,5.62-10.15h2.01ZM526.48,52.21c1.29,0,1.6.11,1.6.38,0,.25-.27.61-.27,1.15v2.48h13.8v2.75h-17.05v-6.77h1.92ZM539.9,38.39c1.51,0,1.87.09,1.87.36s-.38.74-.38,1.53v13.46h-3.27v-7.76h-3.65v-2.68h3.65v-4.92h1.78Z"/>
      <path class="cls-1" d="M572.94,50.59c2.38-1.55,3.59-2.59,3.59-4.31,0-1.51-.99-2.48-2.47-2.48-1.76,0-2.76,1.33-2.79,2.9h-2.97c.09-2.95,2.32-5.28,5.79-5.28,3.27,0,5.38,2.05,5.38,4.86s-1.81,4.24-4.79,6.21c-.98.65-1.57,1.17-2.08,1.65-.32.28-.56.31-.91.31h-.1c-.67,0-1.12.51-1.12,1.07s.46,1.04,1.05,1.04,1.06-.46,1.06-1.02v-.14c0-.24.19-.4.43-.4h6.87v2.53h-11.7c.08-3.2,1.88-5.02,4.78-6.94Z"/>
      <path class="cls-1" d="M581.85,49.64c0-5.01,2.27-8.21,6.06-8.21s6.05,3.19,6.05,8.21-2.28,8.22-6.05,8.22-6.06-3.21-6.06-8.22ZM583.33,50.65c.58,0,1.02-.45,1.02-1.02s-.44-1.04-1.02-1.04-1.03.45-1.03,1.04.45,1.02,1.03,1.02ZM587.91,55.42c1.98,0,3.1-1.9,3.1-5.78s-1.11-5.77-3.1-5.77-3.12,1.88-3.12,5.77,1.12,5.78,3.12,5.78ZM592.48,50.65c.57,0,1.03-.45,1.03-1.02s-.45-1.04-1.03-1.04-1.02.45-1.02,1.04.45,1.02,1.02,1.02Z"/>
      <path class="cls-1" d="M600.67,50.59c2.38-1.55,3.59-2.59,3.59-4.31,0-1.51-.99-2.48-2.47-2.48-1.76,0-2.76,1.33-2.79,2.9h-2.97c.09-2.95,2.32-5.28,5.79-5.28,3.27,0,5.38,2.05,5.38,4.86s-1.81,4.24-4.79,6.21c-.98.65-1.57,1.17-2.08,1.65-.32.28-.56.31-.91.31h-.1c-.67,0-1.12.51-1.12,1.07s.46,1.04,1.05,1.04,1.06-.46,1.06-1.02v-.14c0-.24.19-.4.43-.4h6.87v2.53h-11.7c.08-3.2,1.88-5.02,4.78-6.94Z"/>
      <path class="cls-1" d="M616.8,54.14h-7.73v-2.35l6.91-10.06h3.57v10.01h2.5v2.39h-2.5v3.39h-2.74v-3.39ZM616.2,51.75c.31,0,.46.15.46.46v.2c0,.61.5,1.09,1.09,1.09s1.12-.45,1.12-1.09-.51-1.1-1.12-1.1h-.5c-.3,0-.46-.17-.46-.46v-6.31l-4.92,7.22h4.33Z"/>
      <path class="cls-1" d="M623.59,54.46h3.03v3.07h-3.03v-3.07Z"/>
      <path class="cls-1" d="M636.21,46.89h.38c.63,0,1.11-.48,1.11-1.1s-.48-1.11-1.11-1.11-1.1.48-1.1,1.11v.21c0,.29-.15.43-.52.43h-2.5v-2.17c2.19-.06,3.5-.94,3.63-2.52h2.45v15.8h-2.82v-10.14c0-.33.13-.51.48-.51Z"/>
      <path class="cls-1" d="M641.36,49.64c0-5.01,2.27-8.21,6.06-8.21s6.05,3.19,6.05,8.21-2.28,8.22-6.05,8.22-6.06-3.21-6.06-8.22ZM642.84,50.65c.58,0,1.03-.45,1.03-1.02s-.44-1.04-1.03-1.04-1.02.45-1.02,1.04.45,1.02,1.02,1.02ZM647.42,55.42c1.98,0,3.1-1.9,3.1-5.78s-1.11-5.77-3.1-5.77-3.12,1.88-3.12,5.77,1.12,5.78,3.12,5.78ZM651.99,50.65c.57,0,1.02-.45,1.02-1.02s-.45-1.04-1.02-1.04-1.03.45-1.03,1.04.45,1.02,1.03,1.02Z"/>
      <path class="cls-1" d="M655.16,54.46h3.03v3.07h-3.03v-3.07Z"/>
      <path class="cls-1" d="M667.78,46.89h.38c.63,0,1.11-.48,1.11-1.1s-.48-1.11-1.11-1.11-1.1.48-1.1,1.11v.21c0,.29-.15.43-.52.43h-2.5v-2.17c2.19-.06,3.5-.94,3.63-2.52h2.45v15.8h-2.82v-10.14c0-.33.13-.51.48-.51Z"/>
      <path class="cls-1" d="M673.03,53.28h2.94c.12,1.28,1.04,2.17,2.6,2.17,1.66,0,3.02-1.16,3.32-4.19.04-.4.23-.59.63-.59h.3c.65,0,1.11-.45,1.11-1.07s-.47-1.07-1.07-1.07-1,.42-1.19,1.16c-.43,1.55-2.07,2.36-3.76,2.36-3.01,0-4.99-2.07-4.99-5.15,0-3.28,2.33-5.52,5.73-5.52,4.06,0,6.22,3.15,6.22,7.9,0,5.35-2.18,8.53-6.46,8.53-3.06,0-5.2-1.69-5.39-4.53ZM678.62,49.7c1.64,0,2.8-1.2,2.8-2.93s-1.14-2.93-2.8-2.93-2.78,1.22-2.78,2.93,1.11,2.93,2.78,2.93Z"/>
      <path class="cls-1" d="M686.55,54.46h3.03v3.07h-3.03v-3.07Z"/>
      <path class="cls-1" d="M477.77,71.34h6.18c3.26,0,5.25,1.93,5.25,4.99s-2.09,5.01-5.24,5.01h-2.46c-.68,0-1.25-.53-1.25-1.21s.56-1.23,1.25-1.23h1.89c1.86,0,2.94-.87,2.94-2.57s-1.08-2.54-2.95-2.54h-2.05c-.29,0-.46-.18-.46-.45v-.1c0-.62-.51-1.11-1.11-1.11s-1.11.49-1.11,1.11.49,1.1,1.12,1.1h.36c.31,0,.51.21.51.5v3.63c0,.31-.2.5-.51.5h-.32c-.66,0-1.19.53-1.19,1.19s.53,1.17,1.19,1.17h.36c.3,0,.46.19.46.46v5.35h-2.88v-15.8Z"/>
      <path class="cls-1" d="M491.21,75.57h2.6v1.09c0,.19-.15.36-.36.36h-.43c-.56,0-1.06.41-1.06,1.01,0,.57.42,1.03.99,1.03s.87-.42,1.01-1.03c.12-.5.32-.94.57-1.3.6-.89,1.55-1.39,2.81-1.39.22,0,.43.02.57.05v2.72c-.29-.07-.57-.1-.89-.1-1.71,0-3.02,1.11-3.02,3.5v5.61h-2.8v-11.57Z"/>
      <path class="cls-1" d="M499.15,81.34c0-3.82,2.39-6.09,5.59-6.09s5.28,2.08,5.28,5.92c0,.3,0,.58-.01.86h-6.97c-.6,0-1.01-.41-1.01-.97s.42-.97,1.01-.97h4.09c-.11-1.9-.97-2.77-2.39-2.77-1.32,0-2.28.86-2.57,2.39-.05.25-.2.36-.48.36h-.2c-.56,0-.99.39-.99.95s.43.95.99.95h.21c.25,0,.38.1.41.37.13,2.01,1.21,3.01,2.74,3.01,1.24,0,2.12-.73,2.3-2.06h2.82c-.3,2.53-2.23,4.16-5.22,4.16-3.27,0-5.59-1.96-5.59-6.11Z"/>
      <path class="cls-1" d="M511.7,83.47h2.93c.04,1.26,1,1.95,2.38,1.95,1.22,0,1.99-.54,1.99-1.42,0-.75-.52-1.1-1.65-1.33l-2.01-.4c-2.39-.47-3.4-1.55-3.4-3.24,0-2.17,1.79-3.78,4.87-3.78s4.78,1.7,4.88,3.82h-2.88c-.04-1.13-.81-1.82-2.06-1.82-1.17,0-1.94.58-1.94,1.42,0,.65.46,1.02,1.46,1.22l2.16.41c2.32.45,3.45,1.52,3.45,3.31,0,2.57-2.16,3.84-4.91,3.84-3.21,0-5.21-1.48-5.27-3.99ZM516.99,82.18c.48,0,.89-.41.89-.9s-.43-.9-.9-.9c-.5,0-.91.41-.91.9s.44.9.93.9Z"/>
      <path class="cls-1" d="M523.55,81.34c0-3.82,2.39-6.09,5.59-6.09s5.28,2.08,5.28,5.92c0,.3,0,.58-.01.86h-6.97c-.6,0-1.01-.41-1.01-.97s.42-.97,1.01-.97h4.09c-.11-1.9-.97-2.77-2.39-2.77-1.32,0-2.28.86-2.57,2.39-.05.25-.2.36-.48.36h-.2c-.56,0-.99.39-.99.95s.43.95.99.95h.21c.25,0,.38.1.41.37.13,2.01,1.21,3.01,2.74,3.01,1.24,0,2.12-.73,2.3-2.06h2.82c-.3,2.53-2.23,4.16-5.22,4.16-3.27,0-5.59-1.96-5.59-6.11Z"/>
      <path class="cls-1" d="M536.78,75.57h2.59v1.08c0,.24-.14.38-.36.38h-.53c-.58,0-1.05.43-1.05,1.01s.42,1.03.99,1.03.89-.36,1.06-1.03c.5-1.77,1.58-2.79,3.55-2.79,2.29,0,3.66,1.59,3.66,3.97v7.92h-2.8v-7.68c0-1.28-.65-2.02-1.88-2.02-1.52,0-2.42,1.2-2.42,3.43v6.27h-2.8v-11.57Z"/>
      <path class="cls-1" d="M550.41,83.99v-6.27h-1.97v-2.16h.23c1.46,0,2.1-.62,2.19-2.3l.05-1.13h2.28v2.58c0,.26-.14.42-.41.42h-.58c-.61,0-1.07.45-1.07,1.02,0,.61.46,1.07,1.07,1.07.57,0,1.02-.46,1.02-1.07v-.19c0-.25.15-.4.42-.4h2.07v2.16h-2.52v5.97c0,1.06.58,1.39,1.44,1.39.29,0,.6-.03.88-.1v2.15c-.46.13-.99.21-1.59.21-2.1,0-3.53-.89-3.53-3.35Z"/>
      <path class="cls-1" d="M557.25,81.34c0-3.82,2.39-6.09,5.59-6.09s5.28,2.08,5.28,5.92c0,.3,0,.58-.01.86h-6.97c-.6,0-1.01-.41-1.01-.97s.42-.97,1.01-.97h4.09c-.11-1.9-.97-2.77-2.39-2.77-1.32,0-2.28.86-2.57,2.39-.05.25-.2.36-.48.36h-.2c-.56,0-.99.39-.99.95s.43.95.99.95h.21c.25,0,.38.1.41.37.13,2.01,1.21,3.01,2.74,3.01,1.24,0,2.12-.73,2.3-2.06h2.82c-.3,2.53-2.23,4.16-5.22,4.16-3.27,0-5.59-1.96-5.59-6.11Z"/>
      <path class="cls-1" d="M580.75,71.34v15.8h-2.74v-1.72c-.66,1.31-1.87,2.04-3.41,2.04-2.92,0-4.67-2.35-4.67-6.09s1.8-6.11,4.71-6.11c.95,0,1.69.29,2.25.87.43.44.76,1.04.99,1.81.18.59.48,1.05,1.08,1.05.56,0,1-.44,1-1.01s-.43-1-1.03-1h-.52c-.24,0-.4-.15-.4-.43v-5.19h2.73ZM575.36,85.25c1.7,0,2.6-1.6,2.6-3.92s-.9-3.9-2.6-3.9-2.56,1.59-2.56,3.9.86,3.92,2.56,3.92Z"/>
      <path class="cls-1" d="M591.14,85.43v1.71h-2.74v-15.8h2.74v5.19c0,.28-.15.43-.4.43h-.52c-.61,0-1.04.44-1.04,1s.44,1,1.01,1,.89-.44,1.07-1.04c.15-.49.34-.9.6-1.27.63-.91,1.57-1.41,2.83-1.41,2.82,0,4.54,2.34,4.54,6.1s-1.82,6.1-4.73,6.1c-1.5,0-2.69-.67-3.37-2.03ZM593.78,85.25c1.7,0,2.57-1.58,2.57-3.89s-.87-3.92-2.57-3.92-2.59,1.61-2.59,3.92.9,3.89,2.59,3.89Z"/>
      <path class="cls-1" d="M600.93,91.3v-2.4c.41.17.86.21,1.21.21,1.08,0,1.7-.51,2.28-1.93l-4.3-11.61h3.02l2.37,7.12c.09.28.06.5-.13.71l-.24.25c-.22.24-.35.52-.35.79,0,.62.48,1.1,1.08,1.1s1.09-.48,1.09-1.1c0-.28-.12-.54-.35-.79l-.25-.25c-.21-.22-.24-.43-.16-.71l2.18-7.12h2.92l-4.16,12.06c-.91,2.67-2.34,3.89-4.55,3.89-.63,0-1.18-.08-1.64-.22Z"/>
      <path class="cls-1" d="M616.75,82.2h2.96c.07,1.67,1.3,2.85,3.3,2.85,1.56,0,2.74-.78,2.74-2.24,0-1.08-.61-1.66-2.24-2.04l-2.11-.47c-2.94-.67-4.35-1.96-4.35-4.51,0-2.73,2.28-4.77,5.76-4.77s5.53,2.04,5.66,4.71h-2.95c-.05-1.31-.97-2.35-2.8-2.35-1.53,0-2.71.85-2.71,2.16,0,.99.64,1.62,2.28,1.99l2.34.54c2.29.52,4.06,1.7,4.06,4.36,0,3.08-2.21,5-5.74,5-3.71,0-6.17-1.92-6.22-5.25ZM622.97,80.28c.62,0,1.1-.5,1.1-1.12s-.5-1.11-1.1-1.11-1.1.48-1.1,1.11.49,1.12,1.1,1.12Z"/>
      <path class="cls-1" d="M631,83.55v-7.99h2.8v7.66c0,1.26.65,2.03,1.93,2.03,1.49,0,2.39-1.21,2.39-3.35v-6.33h2.79v11.57h-2.58v-1.09c0-.24.13-.38.35-.38h.53c.59,0,1.06-.44,1.06-1.01s-.42-1.01-1-1.01-.89.35-1.07,1.01c-.5,1.73-1.52,2.8-3.46,2.8-2.35,0-3.73-1.48-3.73-3.9Z"/>
      <path class="cls-1" d="M643.83,75.57h2.59v1.08c0,.24-.14.38-.36.38h-.53c-.58,0-1.05.43-1.05,1.01s.42,1.03.99,1.03.89-.36,1.06-1.03c.5-1.77,1.58-2.79,3.55-2.79,2.29,0,3.66,1.59,3.66,3.97v7.92h-2.8v-7.68c0-1.28-.65-2.02-1.88-2.02-1.52,0-2.42,1.2-2.42,3.43v6.27h-2.8v-11.57Z"/>
    </g>
    <g>
      <path class="cls-1" d="M44.18,43.46v-4.76h1.8c1.26,0,1.56.11,1.56.36,0,.2-.23.52-.23.95v19.17h-3.13v-7.04h-2.35v-.43c-.65,2.66-2.12,4.28-4.38,4.28-3.22,0-4.89-3.34-4.89-8.32s1.67-8.21,4.89-8.21c2.23,0,3.68,1.65,4.38,4.24v-.25h2.35ZM35.68,47.68c0,3.77.63,5.59,1.76,5.59s1.78-1.83,1.78-5.59-.68-5.44-1.78-5.44-1.76,1.83-1.76,5.44ZM42.24,46.21c.04.47.07.97.07,1.47,0,.59-.02,1.15-.09,1.69h1.94v-3.16h-1.92ZM50.76,38.39c1.17,0,1.47.09,1.47.34s-.27.63-.27,1.22v19.58h-3.2v-21.13h2.01Z"/>
      <path class="cls-1" d="M55.55,40.21h9.07v14.82h-9.07v-14.82ZM58.79,42.97v9.34h2.57v-9.34h-2.57ZM73.32,38.39c1.17,0,1.47.09,1.47.34s-.27.63-.27,1.22v19.58h-3.2v-9.27h-1.62v8.46h-3.13v-19.94h2.17c1.04,0,1.33.07,1.33.27,0,.23-.36.61-.36,1.22v7.24h1.62v-9.11h2.01Z"/>
      <path class="cls-1" d="M89.31,38.93c1.1,0,1.38.11,1.38.38s-.32.7-.32,1.33c0,2.37,1.74,6.09,5.35,7.69-.83.65-1.67,1.51-2.35,2.37-1.87-1.15-3.86-3.31-4.42-5.16-.52,1.96-2.1,4.06-4.74,5.73-.61-.68-1.65-1.58-2.53-2.19,3.43-1.65,5.62-4.49,5.62-10.15h2.01ZM86.22,52.21c1.29,0,1.6.11,1.6.38,0,.25-.27.61-.27,1.15v2.48h13.8v2.75h-17.05v-6.77h1.92ZM99.82,38.39c1.26,0,1.58.09,1.58.32s-.27.59-.27,1.15v14.12h-3.27v-15.58h1.96Z"/>
      <path class="cls-1" d="M104.64,41.73h12.76v2.62h-4.62c0,1.04,2.46,3.88,5.21,4.08-.61.54-1.42,1.62-1.89,2.37-2.17-.7-4.33-2.44-4.92-3.79-.86,1.53-3.29,3.27-5.5,3.95-.36-.68-1.13-1.71-1.89-2.53,3.11-.16,5.82-2.84,5.82-4.08h-4.96v-2.62ZM123.86,55.46c0,2.26-2.62,4.33-8.39,4.33s-8.48-2.07-8.48-4.33,2.62-4.26,8.48-4.26,8.39,2.03,8.39,4.26ZM107.57,38.64h6.77v2.32h-6.77v-2.32ZM110.35,55.48c0,1.13,1.51,2.01,5.12,2.01s5.03-.88,5.03-2.01c0-1.06-1.49-1.92-5.01-1.92s-5.14.86-5.14,1.92ZM122.01,38.39c1.65,0,2.05.09,2.05.38,0,.27-.38.74-.38,1.51v11.43h-3.27v-4.08h-3.43v-2.77h3.43v-6.47h1.6Z"/>
      <path class="cls-1" d="M143.99,44.63c0,3.04-1.83,5.73-5.73,5.73s-5.89-2.68-5.89-5.73,1.85-5.71,5.89-5.71,5.73,2.66,5.73,5.71ZM136.26,52.17c1.31,0,1.6.11,1.6.41,0,.25-.25.63-.25,1.15v2.5h13.12v2.75h-16.42v-6.81h1.94ZM135.65,44.63c0,1.8.81,3.07,2.62,3.07,1.69,0,2.5-1.26,2.5-3.07s-.81-3.02-2.5-3.02c-1.8,0-2.62,1.26-2.62,3.02ZM148.37,38.39c1.67,0,2.07.09,2.07.41,0,.27-.34.72-.34,1.44v5.39h2.82v2.89h-2.82v5.46h-3.25v-15.58h1.51Z"/>
      <path class="cls-1" d="M158.04,39.99c1.15,0,1.42.11,1.42.36s-.27.63-.27,1.2v10.69h.97c1.51,0,3.16-.07,5.37-.38.09.92.22,2.01.29,2.75-2.28.32-5.48.52-8.12.52h-1.76v-15.13h2.1ZM173.27,38.39c1.17,0,1.47.09,1.47.34s-.27.63-.27,1.22v19.58h-3.2v-9.27h-1.62v8.46h-3.13v-19.94h2.17c1.04,0,1.33.07,1.33.27,0,.23-.36.61-.36,1.22v7.24h1.62v-9.11h2.01Z"/>
      <path class="cls-1" d="M32.64,71.34h6.63c3.08,0,5.04,1.66,5.04,4.25,0,2.2-1.15,3.69-3.17,4.32,1.73.29,2.63,1.31,2.92,3.36l.53,3.87h-2.95l-.39-3.33c-.22-1.82-1.01-2.59-2.92-2.59h-1.98c-.69,0-1.22-.54-1.22-1.19s.53-1.21,1.22-1.21h1.89c1.97,0,3.18-1,3.18-2.69,0-1.54-.99-2.35-2.72-2.35h-2.42c-.29,0-.46-.19-.46-.47v-.08c0-.61-.49-1.08-1.07-1.08-.62,0-1.09.47-1.09,1.08s.47,1.07,1.09,1.07h.29c.31,0,.47.19.47.48v3.58c0,.31-.17.47-.47.47h-.28c-.65,0-1.16.51-1.16,1.17s.51,1.13,1.16,1.13h.28c.31,0,.47.18.47.48v5.51h-2.88v-15.8Z"/>
      <path class="cls-1" d="M46.4,81.34c0-3.82,2.39-6.09,5.59-6.09s5.28,2.08,5.28,5.92c0,.3,0,.58-.01.86h-6.97c-.59,0-1.01-.41-1.01-.97s.42-.97,1.01-.97h4.09c-.11-1.9-.97-2.77-2.39-2.77-1.32,0-2.28.86-2.57,2.39-.06.25-.2.36-.49.36h-.2c-.56,0-.99.39-.99.95s.43.95.99.95h.21c.25,0,.38.1.41.37.13,2.01,1.21,3.01,2.74,3.01,1.25,0,2.12-.73,2.3-2.06h2.82c-.3,2.53-2.23,4.16-5.22,4.16-3.27,0-5.59-1.96-5.59-6.11Z"/>
      <path class="cls-1" d="M59.32,87.63h2.84c.09,1.21,1.04,1.82,2.36,1.82,1.67,0,2.57-1.02,2.57-2.78v-.86c0-.26.17-.44.41-.44h.47c.58,0,1.07-.41,1.07-1.01s-.41-1.01-1-1.01-.94.42-1.1,1.02c-.14.49-.32.88-.56,1.2-.52.72-1.35,1.1-2.63,1.1-2.92,0-4.67-2.32-4.67-5.68s1.76-5.74,4.69-5.74c1.52,0,2.69.67,3.36,1.93v-1.61h2.8v10.91c0,3.33-2.16,5.07-5.45,5.07s-5.1-1.56-5.15-3.91ZM64.52,84.51c1.67,0,2.58-1.44,2.58-3.54s-.9-3.53-2.58-3.53-2.53,1.42-2.53,3.53.87,3.54,2.53,3.54Z"/>
      <path class="cls-1" d="M72.73,71.24h3.01v2.69h-3.01v-2.69ZM72.83,75.57h2.8v11.57h-2.8v-11.57Z"/>
      <path class="cls-1" d="M77.86,83.47h2.93c.04,1.26,1,1.95,2.38,1.95,1.22,0,1.99-.54,1.99-1.42,0-.75-.52-1.1-1.65-1.33l-2-.4c-2.39-.47-3.4-1.55-3.4-3.24,0-2.17,1.78-3.78,4.87-3.78s4.78,1.7,4.88,3.82h-2.88c-.04-1.13-.81-1.82-2.06-1.82-1.17,0-1.94.58-1.94,1.42,0,.65.46,1.02,1.45,1.22l2.16.41c2.32.45,3.45,1.52,3.45,3.31,0,2.57-2.16,3.84-4.91,3.84-3.21,0-5.21-1.48-5.27-3.99ZM83.15,82.18c.48,0,.89-.41.89-.9s-.43-.9-.9-.9-.91.41-.91.9.44.9.93.9Z"/>
      <path class="cls-1" d="M91.21,83.99v-6.27h-1.97v-2.16h.23c1.46,0,2.1-.62,2.19-2.3l.05-1.13h2.28v2.58c0,.26-.14.42-.41.42h-.58c-.61,0-1.07.45-1.07,1.02,0,.61.46,1.07,1.07,1.07.57,0,1.02-.46,1.02-1.07v-.19c0-.25.15-.4.42-.4h2.07v2.16h-2.52v5.97c0,1.06.58,1.39,1.44,1.39.29,0,.59-.03.88-.1v2.15c-.46.13-.99.21-1.59.21-2.1,0-3.53-.89-3.53-3.35Z"/>
      <path class="cls-1" d="M98.05,81.34c0-3.82,2.39-6.09,5.59-6.09s5.28,2.08,5.28,5.92c0,.3,0,.58-.01.86h-6.97c-.59,0-1.01-.41-1.01-.97s.42-.97,1.01-.97h4.09c-.11-1.9-.97-2.77-2.39-2.77-1.32,0-2.28.86-2.57,2.39-.06.25-.2.36-.49.36h-.2c-.56,0-.99.39-.99.95s.43.95.99.95h.21c.25,0,.38.1.41.37.13,2.01,1.21,3.01,2.74,3.01,1.25,0,2.12-.73,2.3-2.06h2.82c-.3,2.53-2.23,4.16-5.22,4.16-3.27,0-5.59-1.96-5.59-6.11Z"/>
      <path class="cls-1" d="M111.28,75.57h2.6v1.09c0,.19-.15.36-.36.36h-.43c-.56,0-1.06.41-1.06,1.01,0,.57.42,1.03.99,1.03s.87-.42,1.01-1.03c.12-.5.32-.94.57-1.3.6-.89,1.55-1.39,2.81-1.39.22,0,.43.02.57.05v2.72c-.29-.07-.57-.1-.89-.1-1.71,0-3.02,1.11-3.02,3.5v5.61h-2.8v-11.57Z"/>
      <path class="cls-1" d="M118.82,83.98c0-2.24,1.44-3.27,3.68-3.61l1.94-.3c1.22-.19,1.72-.46,1.72-1.22s-.59-1.54-1.94-1.54-2.13.72-2.19,1.87h-2.9c.09-2.29,2.05-3.93,5.06-3.93s4.79,1.62,4.79,4.31v4.91c0,.95.13,2.06.45,2.31v.35h-2.92c-.11-.43-.2-.97-.25-1.54-.68,1.06-1.96,1.86-3.65,1.86-2.15,0-3.79-1.31-3.79-3.47ZM123.53,85.32c1.69,0,2.59-1.2,2.69-2.78v-.21c.04-.31.23-.46.54-.46h.24c.56,0,1.04-.44,1.04-1.04s-.45-1.02-1.04-1.02-1.06.43-1.06,1.04v.18c0,.42-.2.63-.71.73l-.51.1-1.15.23c-1.24.25-1.88.75-1.88,1.72s.78,1.52,1.83,1.52Z"/>
      <path class="cls-1" d="M132.6,83.99v-6.27h-1.97v-2.16h.23c1.46,0,2.1-.62,2.19-2.3l.05-1.13h2.28v2.58c0,.26-.14.42-.41.42h-.58c-.61,0-1.07.45-1.07,1.02,0,.61.46,1.07,1.07,1.07.57,0,1.02-.46,1.02-1.07v-.19c0-.25.15-.4.42-.4h2.07v2.16h-2.52v5.97c0,1.06.58,1.39,1.44,1.39.29,0,.59-.03.88-.1v2.15c-.46.13-.99.21-1.59.21-2.1,0-3.53-.89-3.53-3.35Z"/>
      <path class="cls-1" d="M139.95,71.24h3.01v2.69h-3.01v-2.69ZM140.05,75.57h2.8v11.57h-2.8v-11.57Z"/>
      <path class="cls-1" d="M145.17,81.34c0-3.74,2.18-6.09,5.51-6.09s5.5,2.36,5.5,6.09-2.17,6.11-5.5,6.11-5.51-2.37-5.51-6.11ZM146.63,82.34c.54,0,1-.43,1-.99s-.46-1-1-1-.99.45-.99,1,.44.99.99.99ZM150.68,85.25c1.63,0,2.61-1.37,2.61-3.91s-.98-3.89-2.61-3.89-2.61,1.35-2.61,3.89.98,3.91,2.61,3.91ZM154.71,82.34c.55,0,.99-.43.99-.99s-.44-1-.99-1-.99.45-.99,1,.44.99.99.99Z"/>
      <path class="cls-1" d="M158.49,75.57h2.59v1.08c0,.24-.14.38-.36.38h-.53c-.58,0-1.05.43-1.05,1.01s.42,1.03.99,1.03.89-.36,1.06-1.03c.5-1.77,1.58-2.79,3.55-2.79,2.29,0,3.66,1.59,3.66,3.97v7.92h-2.8v-7.68c0-1.28-.65-2.02-1.88-2.02-1.52,0-2.42,1.2-2.42,3.43v6.27h-2.8v-11.57Z"/>
      <path class="cls-1" d="M176.18,71.34h2.88v15.8h-2.88v-15.8ZM177.61,80.07c.56,0,1.03-.46,1.03-1.01s-.46-1.03-1.03-1.03-1.01.46-1.01,1.03.46,1.01,1.01,1.01Z"/>
      <path class="cls-1" d="M182.14,75.57h2.59v1.08c0,.24-.14.38-.36.38h-.53c-.58,0-1.05.43-1.05,1.01s.42,1.03.99,1.03.89-.36,1.06-1.03c.5-1.77,1.58-2.79,3.55-2.79,2.29,0,3.66,1.59,3.66,3.97v7.92h-2.8v-7.68c0-1.28-.65-2.02-1.88-2.02-1.52,0-2.42,1.2-2.42,3.43v6.27h-2.8v-11.57Z"/>
      <path class="cls-1" d="M195.66,77.73h-1.84v-2.16h1.84v-1.84c0-1.66,1.01-2.72,2.85-2.72h2.23v2.05h-1.44c-.57,0-.84.34-.84.87v.9c0,.19-.14.34-.35.34h-.53c-.6,0-1.07.47-1.07,1.07s.47,1.08,1.07,1.08,1.09-.47,1.09-1.08v-.33c0-.2.15-.34.34-.34h1.72v2.16h-2.27v9.41h-2.8v-9.41Z"/>
      <path class="cls-1" d="M201.74,81.34c0-3.74,2.18-6.09,5.51-6.09s5.5,2.36,5.5,6.09-2.17,6.11-5.5,6.11-5.51-2.37-5.51-6.11ZM203.21,82.34c.54,0,1-.43,1-.99s-.46-1-1-1-.99.45-.99,1,.44.99.99.99ZM207.25,85.25c1.63,0,2.61-1.37,2.61-3.91s-.98-3.89-2.61-3.89-2.61,1.35-2.61,3.89.98,3.91,2.61,3.91ZM211.29,82.34c.55,0,.99-.43.99-.99s-.44-1-.99-1-.99.45-.99,1,.44.99.99.99Z"/>
      <path class="cls-1" d="M215.07,75.57h2.6v1.09c0,.19-.15.36-.37.36h-.43c-.56,0-1.06.41-1.06,1.01,0,.57.42,1.03.99,1.03s.87-.42,1.01-1.03c.12-.5.32-.94.57-1.3.6-.89,1.55-1.39,2.81-1.39.22,0,.43.02.57.05v2.72c-.29-.07-.57-.1-.89-.1-1.71,0-3.02,1.11-3.02,3.5v5.61h-2.8v-11.57Z"/>
      <path class="cls-1" d="M223.63,75.57h2.59v1.08c0,.24-.14.38-.36.38h-.53c-.58,0-1.05.43-1.05,1.01s.42,1.03.99,1.03.9-.36,1.06-1.03c.5-1.88,1.69-2.79,3.5-2.79,1.43,0,2.52.82,2.98,2.17.67-1.37,1.96-2.17,3.72-2.17,2.28,0,3.58,1.59,3.58,3.97v7.92h-2.79v-7.7c0-1.27-.6-1.99-1.73-1.99-1.39,0-2.32,1.08-2.32,3.05v6.64h-2.8v-7.7c0-1.27-.62-1.99-1.76-1.99-1.43,0-2.29,1.19-2.29,3.36v6.33h-2.8v-11.57Z"/>
      <path class="cls-1" d="M242.3,83.98c0-2.24,1.44-3.27,3.68-3.61l1.94-.3c1.22-.19,1.72-.46,1.72-1.22s-.6-1.54-1.94-1.54-2.13.72-2.19,1.87h-2.9c.09-2.29,2.05-3.93,5.06-3.93s4.79,1.62,4.79,4.31v4.91c0,.95.13,2.06.45,2.31v.35h-2.92c-.11-.43-.2-.97-.25-1.54-.68,1.06-1.96,1.86-3.65,1.86-2.15,0-3.79-1.31-3.79-3.47ZM247.02,85.32c1.69,0,2.59-1.2,2.69-2.78v-.21c.04-.31.23-.46.54-.46h.24c.56,0,1.04-.44,1.04-1.04s-.45-1.02-1.04-1.02-1.06.43-1.06,1.04v.18c0,.42-.2.63-.71.73l-.51.1-1.15.23c-1.24.25-1.88.75-1.88,1.72s.78,1.52,1.83,1.52Z"/>
      <path class="cls-1" d="M256.09,83.99v-6.27h-1.97v-2.16h.23c1.46,0,2.1-.62,2.19-2.3l.05-1.13h2.28v2.58c0,.26-.14.42-.41.42h-.58c-.61,0-1.07.45-1.07,1.02,0,.61.46,1.07,1.07,1.07.57,0,1.02-.46,1.02-1.07v-.19c0-.25.15-.4.42-.4h2.07v2.16h-2.52v5.97c0,1.06.58,1.39,1.44,1.39.29,0,.6-.03.88-.1v2.15c-.46.13-.99.21-1.59.21-2.1,0-3.53-.89-3.53-3.35Z"/>
      <path class="cls-1" d="M263.43,71.24h3.01v2.69h-3.01v-2.69ZM263.53,75.57h2.8v11.57h-2.8v-11.57Z"/>
      <path class="cls-1" d="M268.65,81.34c0-3.74,2.18-6.09,5.51-6.09s5.5,2.36,5.5,6.09-2.17,6.11-5.5,6.11-5.51-2.37-5.51-6.11ZM270.12,82.34c.54,0,1-.43,1-.99s-.46-1-1-1-.99.45-.99,1,.44.99.99.99ZM274.16,85.25c1.63,0,2.61-1.37,2.61-3.91s-.98-3.89-2.61-3.89-2.61,1.35-2.61,3.89.98,3.91,2.61,3.91ZM278.19,82.34c.55,0,.99-.43.99-.99s-.44-1-.99-1-.99.45-.99,1,.44.99.99.99Z"/>
      <path class="cls-1" d="M281.98,75.57h2.59v1.08c0,.24-.14.38-.36.38h-.53c-.58,0-1.05.43-1.05,1.01s.42,1.03.99,1.03.89-.36,1.06-1.03c.5-1.77,1.58-2.79,3.55-2.79,2.29,0,3.66,1.59,3.66,3.97v7.92h-2.8v-7.68c0-1.28-.65-2.02-1.88-2.02-1.52,0-2.42,1.2-2.42,3.43v6.27h-2.8v-11.57Z"/>
    </g>
    <g>
      <path class="cls-1" d="M46.36,222.52c-2.17-1.49-4.51-3.99-5.34-6.52-.74,2.62-2.77,5.28-5.25,6.99l-1.17-1.4c3.04-1.87,5.5-5.64,5.5-9.36v-3.72h1.87v3.65c0,3.83,2.64,7.26,5.55,8.95l-1.15,1.4ZM51.32,216.65v10.98h-1.83v-20.97h1.83v8.46h3.38v1.53h-3.38Z"/>
      <path class="cls-1" d="M56.56,208.51h11.28v1.53h-4.69c0,.95,0,1.4.02,1.69.16,2.68,2.75,5.1,5.14,5.89l-1.01,1.47c-2.01-.81-4.24-2.82-5.1-4.71-.56,1.96-3,4.24-5.25,5.21l-1.06-1.42c2.64-1.01,5.28-3.68,5.39-6.45.02-.27.02-.74.02-1.67h-4.74v-1.53ZM59.42,226.94v-6.45h1.83v4.92h12.29v1.53h-14.12ZM71.26,222.02v-8.01h-4.17v-1.53h4.17v-5.82h1.83v15.36h-1.83Z"/>
      <path class="cls-1" d="M85.51,211.65h3v-4.58h1.78v19.51h-1.78v-6.83h-3c-.72,2.01-2.05,3.23-4.01,3.23-3.07,0-4.62-3-4.62-7.31s1.56-7.31,4.62-7.31c1.96,0,3.31,1.26,4.01,3.29ZM81.5,209.93c-1.76,0-2.84,2.23-2.84,5.73s1.08,5.73,2.84,5.73,2.86-2.19,2.86-5.73-1.11-5.73-2.86-5.73ZM85.92,213.18c.14.77.2,1.6.2,2.48,0,.92-.09,1.78-.23,2.55h2.62v-5.03h-2.59ZM92.59,227.64v-20.97h1.8v20.97h-1.8Z"/>
      <path class="cls-1" d="M98.14,222.02v-13.06h8.32v13.06h-8.32ZM104.68,210.48h-4.76v10.04h4.76v-10.04ZM113.34,227.64v-11.07h-2.57v10.01h-1.78v-19.42h1.78v7.87h2.57v-8.37h1.8v20.97h-1.8Z"/>
      <path class="cls-1" d="M129.83,218.59c-2.14-.95-4.31-2.93-5.16-5.14-.63,2.26-3.04,4.67-5.35,5.82l-1.1-1.42c2.77-1.24,5.48-4.31,5.48-7.67v-2.32h1.85v2.28c0,3.5,2.82,6.09,5.32,6.99l-1.04,1.47ZM121.8,226.98v-6.45h1.83v4.94h12.16v1.51h-13.98ZM133.5,221.89v-15.22h1.83v15.22h-1.83Z"/>
      <path class="cls-1" d="M139.48,210.66h11.3v1.49h-4.62c.09,2.59,2.59,4.76,5.01,5.34l-.95,1.42c-1.85-.56-4.04-2.32-5.03-4.22-.68,1.87-2.86,3.99-5.28,4.83l-.99-1.4c2.75-.81,5.25-3.34,5.32-5.98h-4.76v-1.49ZM148.97,227.68c-4.65,0-7.26-1.49-7.26-3.86s2.62-3.88,7.26-3.88,7.26,1.49,7.26,3.88-2.59,3.86-7.26,3.86ZM142.23,207.11h5.91v1.58h-5.91v-1.58ZM148.97,221.44c-3.36,0-5.39.9-5.39,2.39s2.03,2.37,5.39,2.37,5.39-.88,5.39-2.37-2.01-2.39-5.39-2.39ZM156.08,219.9h-1.83v-4.96h-4.19v-1.53h4.19v-6.74h1.83v13.24Z"/>
      <path class="cls-1" d="M165.8,208.24c3.47,0,5.41,2.98,5.41,7.42s-1.94,7.4-5.41,7.4-5.41-2.95-5.41-7.42,1.96-7.4,5.41-7.4ZM165.8,209.82c-2.21,0-3.68,2.39-3.68,5.84s1.47,5.82,3.68,5.82,3.68-2.39,3.68-5.82-1.44-5.84-3.68-5.84ZM175.11,227.64v-20.97h1.83v20.97h-1.83Z"/>
      <path class="cls-1" d="M187.4,208.02h11.32v1.53h-4.78c0,.36,0,.79.02,1.08.16,2.68,2.73,5.05,5.12,5.84l-.97,1.47c-2.01-.81-4.26-2.77-5.12-4.67-.56,1.96-3.07,4.28-5.32,5.25l-1.04-1.42c2.64-1.01,5.32-3.72,5.44-6.5.02-.29.02-.72.02-1.06h-4.69v-1.53ZM190.42,227.37v-8.32h1.83v2.66h9.83v-2.73h1.83v8.39h-13.49ZM202.09,223.17h-9.83v2.68h9.83v-2.68ZM202.06,217.87v-4.62h-4.01v-1.51h4.01v-5.07h1.83v11.21h-1.83Z"/>
      <path class="cls-1" d="M216.02,227.66v-7.62h-8.52v-1.53h18.94v1.53h-8.59v7.62h-1.83ZM224.8,216.27c-3.13-.63-6.56-2.62-7.83-5.05-1.01,2.44-4.6,4.49-7.78,5.12l-.88-1.58c4.01-.52,7.71-3.18,7.71-6.04v-1.33h1.92v1.33c0,2.86,4.04,5.55,7.74,6l-.88,1.56Z"/>
      <path class="cls-1" d="M242.32,222.72c-1.67.2-4.31.41-6.86.54-2.35.11-5.5.2-6.88.2l-.29-1.6c1.6,0,3.7-.02,5.91-.09v-4.47h-4.35v-8.55h10.89v1.51h-9.07v5.53h9.13v1.51h-4.78v4.4c2.32-.09,4.78-.27,6.11-.45l.18,1.47ZM243.78,227.64v-20.97h1.8v20.97h-1.8Z"/>
      <path class="cls-1" d="M260.02,212.75c0,3-2.44,4.89-5.39,4.89s-5.39-1.89-5.39-4.87,2.44-4.96,5.39-4.96,5.39,1.94,5.39,4.94ZM258.08,225.95c-1.02-.54-2.14-1.62-2.64-2.77-.5,1.58-2.32,3.63-4.13,4.49l-1.1-1.31c2.14-.92,4.24-3.25,4.24-5.8v-1.13h1.8v.97c0,2.21,1.31,3.59,2.93,4.22l-1.1,1.33ZM251.07,212.75c0,2.05,1.51,3.38,3.56,3.38s3.56-1.33,3.56-3.36-1.4-3.38-3.56-3.38c-2.05,0-3.56,1.33-3.56,3.36ZM267.06,227.59c-1.53-.7-3.41-2.44-3.9-4.04-.5,1.58-2.37,3.54-4.06,4.38l-1.04-1.31c2.28-1.11,4.2-3.36,4.2-5.91v-1.31h1.8v1.24c0,2.71,1.89,4.74,4.1,5.59l-1.1,1.35ZM260.79,213.43v-1.51h3.52v-5.25h1.83v11.77h-1.83v-5.01h-3.52Z"/>
      <path class="cls-1" d="M269.74,217.92v-1.53h18.94v1.53h-18.94ZM286.84,214.72c-3.18-.59-6.59-2.59-7.6-4.76-.92,2.17-4.4,4.15-7.58,4.76l-.86-1.58c3.29-.36,7.49-2.59,7.49-5.55v-.68h1.89v.68c0,2.95,4.29,5.19,7.51,5.55l-.86,1.58ZM272.18,227.34v-7.94h1.83v2.44h10.44v-2.46h1.83v7.96h-14.09ZM284.44,223.33h-10.44v2.5h10.44v-2.5Z"/>
      <path class="cls-1" d="M303.73,221.5c-2.44.56-7.89.97-11.12.97h-.92v-13.62h1.83v12.02c2.71,0,7.53-.38,10.04-.95l.18,1.58ZM307.49,227.64h-1.8v-20.97h1.8v20.97Z"/>
      <path class="cls-1" d="M315.12,220.94c2.71,0,6.86-.25,8.86-.68l.2,1.51c-2.26.43-6.41.72-10.06.72h-2.05v-13.64h9.95v1.53h-8.12v10.55h1.22ZM327.41,214.99h3.41v1.53h-3.41v11.12h-1.8v-20.97h1.8v8.32Z"/>
      <path class="cls-1" d="M332.1,223.4h2.08v2.14h-2.08v-2.14Z"/>
      <path class="cls-1" d="M47.04,259.63c-1.96-1.26-4.62-3.9-5.34-6.38-.7,2.62-3,5.3-5.44,6.88l-1.13-1.35c3.07-1.8,5.59-5.37,5.59-9.34v-2.17h-4.89v-1.51h11.68v1.51h-4.89v2.14c0,3.9,2.66,7.31,5.55,8.86l-1.13,1.35ZM52.41,243.66v20.97h-1.83v-20.97h1.83Z"/>
      <path class="cls-1" d="M56.51,245.4h11.34v1.53h-4.71c0,.43,0,.9.02,1.15.16,2.84,2.84,5.12,5.41,5.89l-1.08,1.47c-2.19-.86-4.44-2.82-5.3-4.71-.56,1.96-3.09,4.49-5.35,5.46l-.99-1.47c2.64-1.01,5.3-3.68,5.41-6.65.02-.23.02-.72.02-1.13h-4.78v-1.53ZM66.21,264.64c-4.49,0-7.01-1.53-7.01-3.99s2.53-4.01,7.01-4.01,7.04,1.53,7.04,4.01-2.53,3.99-7.04,3.99ZM61.04,260.65c0,1.56,1.94,2.46,5.16,2.46s5.19-.9,5.19-2.46-1.92-2.48-5.19-2.48-5.16.9-5.16,2.48ZM67.04,250.63v-1.53h4.22v-5.44h1.83v13.01h-1.83v-6.04h-4.22Z"/>
      <path class="cls-1" d="M90.59,256.07c-1.65.2-4.19.43-6.74.56-2.37.11-5.46.18-6.86.18l-.27-1.58c1.62,0,3.77,0,6.04-.07v-2.84h-4.4v-7.13h10.67v1.49h-8.84v4.17h8.98v1.47h-4.58v2.77c2.25-.11,4.53-.29,5.84-.47l.16,1.44ZM80.21,264.1v-5.93h1.83v4.42h12.27v1.51h-14.1ZM92.05,259.5v-15.83h1.83v15.83h-1.83Z"/>
      <path class="cls-1" d="M112.35,246.28c-.13,6.41-2.68,10.76-7.53,13.87l-1.2-1.38c4.38-2.37,6.63-6.61,6.9-10.96h-6.11v-1.53h7.94ZM115.69,263.58v-7.28h-3.56v-1.51h3.56v-3.83h-3.09v-1.53h3.09v-5.25h1.78v19.42h-1.78ZM119.66,264.64v-20.97h1.8v20.97h-1.8Z"/>
      <path class="cls-1" d="M137.67,259.4c-1.65.2-4.53.45-7.06.61-2.32.14-4.38.18-6.13.18l-.32-1.6c1.53,0,3.56,0,5.68-.09v-4.4h1.83v4.31c2.34-.13,4.46-.32,5.82-.52l.18,1.51ZM125.07,245.9h11.46v1.53h-4.89c.05,3.09,3.11,5.32,5.32,6.02l-.97,1.4c-2.03-.81-4.4-2.71-5.23-4.58-.68,2.05-2.8,4.08-5.3,5.23l-.97-1.44c2.68-.9,5.28-3.52,5.32-6.63h-4.74v-1.53ZM140.67,253.97v10.67h-1.83v-20.97h1.83v8.77h3.36v1.53h-3.36Z"/>
      <path class="cls-1" d="M145.25,261.95v-1.53h8.52v-3.56h-6.18v-6.56h12.43v-3.36h-12.45v-1.53h14.28v6.41h-12.43v3.52h13.01v1.53h-6.83v3.56h8.59v1.53h-18.94Z"/>
      <path class="cls-1" d="M183.66,249.6c0,2.98-2.44,4.85-5.39,4.85s-5.39-1.87-5.39-4.83,2.44-4.92,5.39-4.92,5.39,1.92,5.39,4.89ZM174.71,249.6c0,2.01,1.51,3.34,3.56,3.34s3.56-1.33,3.56-3.32-1.4-3.34-3.56-3.34c-2.05,0-3.56,1.33-3.56,3.32ZM175.95,264.34v-8.3h1.83v2.66h9.88v-2.66h1.83v8.3h-13.53ZM187.65,260.2h-9.88v2.66h9.88v-2.66ZM187.63,254.9v-11.23h1.83v11.23h-1.83Z"/>
      <path class="cls-1" d="M209.53,244.9c0,2.82-.23,5.75-.72,7.87h3.2v1.53h-18.94v-1.53h13.94c.41-1.58.65-4.6.65-6.36h-12.16v-1.51h14.03ZM195.34,264.19v-7.28h14.39v7.28h-14.39ZM207.9,258.41h-10.73v4.26h10.73v-4.26Z"/>
      <path class="cls-1" d="M213.81,254.26v-1.53h18.94v1.53h-18.94ZM216.02,264.43v-4.98h12.54v-1.85h-12.58v-1.47h14.41v4.69h-12.54v2.12h13.21v1.49h-15.04ZM223.31,251.22c-4.51,0-7.31-1.33-7.31-3.63s2.8-3.63,7.31-3.63,7.33,1.33,7.33,3.63-2.77,3.63-7.33,3.63ZM217.87,247.59c0,1.31,2.14,2.12,5.43,2.12s5.48-.81,5.48-2.12-2.17-2.14-5.48-2.14-5.43.83-5.43,2.14Z"/>
      <path class="cls-1" d="M240.83,250.27v-1.51h10.44v1.51h-10.44ZM246.31,259.86c-2.68,0-4.58-1.78-4.58-4.17,0-2.55,1.89-4.19,4.58-4.19s4.58,1.67,4.58,4.19-1.87,4.17-4.58,4.17ZM243.29,246.84v-1.58h5.73v1.58h-5.73ZM246.31,253.02c-1.67,0-2.82,1.06-2.82,2.66s1.15,2.66,2.82,2.66,2.82-1.08,2.82-2.66-1.17-2.66-2.82-2.66ZM256.77,264.64v-10.87h-2.53v9.81h-1.78v-19.42h1.78v8.07h2.53v-8.57h1.8v20.97h-1.8Z"/>
      <path class="cls-1" d="M270.15,264.64v-7.51h-8.52v-1.53h18.94v1.53h-8.59v7.51h-1.83ZM278.81,253.63c-3.43-.59-6.77-2.71-7.71-4.67-.86,1.96-4.1,4.13-7.69,4.71l-.83-1.53c3.43-.36,7.49-2.55,7.58-5.48h-6.79v-1.51h15.45v1.51h-6.74c.09,2.95,4.4,5.07,7.6,5.43l-.86,1.53Z"/>
      <path class="cls-1" d="M293.8,259.61c-1.92-1.29-4.35-3.95-5.19-6.47-.74,2.62-2.8,5.21-5.23,6.95l-1.2-1.35c3.04-1.92,5.48-5.64,5.48-9.36v-3.88h1.87v3.81c0,3.83,2.5,7.24,5.39,8.93l-1.13,1.38ZM293.04,253.52h4.74v-3.7h-4.74v-1.51h4.74v-4.65h1.83v20.97h-1.83v-9.58h-4.74v-1.53Z"/>
      <path class="cls-1" d="M308.78,245.24c3.43,0,5.37,2.98,5.37,7.42s-1.94,7.4-5.37,7.4-5.37-2.95-5.37-7.42,1.96-7.4,5.37-7.4ZM308.78,246.82c-2.17,0-3.59,2.39-3.59,5.84s1.42,5.82,3.59,5.82,3.59-2.39,3.59-5.82-1.4-5.84-3.59-5.84ZM322.65,250.47h-3.65v4.87h3.65v1.53h-3.65v7.76h-1.83v-20.97h1.83v5.28h3.65v1.53Z"/>
      <path class="cls-1" d="M339,248.65h3v-4.58h1.78v19.51h-1.78v-6.83h-3c-.72,2.01-2.05,3.23-4.01,3.23-3.07,0-4.62-3-4.62-7.31s1.56-7.31,4.62-7.31c1.96,0,3.31,1.26,4.01,3.29ZM334.98,246.93c-1.76,0-2.84,2.23-2.84,5.73s1.08,5.73,2.84,5.73,2.86-2.19,2.86-5.73-1.11-5.73-2.86-5.73ZM339.4,250.18c.14.77.2,1.6.2,2.48,0,.92-.09,1.78-.23,2.55h2.62v-5.03h-2.59ZM346.08,264.64v-20.97h1.8v20.97h-1.8Z"/>
      <path class="cls-1" d="M351.63,259.02v-13.06h8.32v13.06h-8.32ZM358.17,247.48h-4.76v10.04h4.76v-10.04ZM366.83,264.64v-11.07h-2.57v10.01h-1.78v-19.42h1.78v7.87h2.57v-8.37h1.8v20.97h-1.8Z"/>
      <path class="cls-1" d="M384.76,256.23c-1.51.18-4.15.45-6.63.61-2.37.13-5.03.23-6.52.23l-.29-1.6c1.47.02,3.52,0,5.57-.09v-2.12c-2.64-.34-4.38-1.98-4.38-4.29,0-2.5,2.19-4.38,5.34-4.38s5.32,1.87,5.32,4.4c0,2.32-1.78,3.97-4.47,4.26v2.05c2.25-.13,4.62-.36,5.91-.54l.13,1.47ZM377.85,246.14c-2.21,0-3.54,1.26-3.54,2.82,0,1.71,1.33,2.8,3.54,2.8s3.56-1.17,3.56-2.8-1.35-2.82-3.56-2.82ZM374.54,264.16v-5.73h1.83v4.22h12.04v1.51h-13.87ZM387.85,252.37v7.13h-1.83v-15.83h1.83v7.17h3.18v1.53h-3.18Z"/>
      <path class="cls-1" d="M406.2,256.36v4.06h5.17v1.53h-18.94v-1.53h5.3v-4.06h-2.98v-6.38h12.43v-3.22h-12.36v-1.53h14.19v6.27h-12.43v3.34h13.01v1.53h-3.38ZM399.53,260.42h4.87v-4.06h-4.87v4.06Z"/>
      <path class="cls-1" d="M420.46,253.77v-8.59h10.08v8.59h-10.08ZM437.1,265c-2.98-.36-5.82-1.76-6.99-3.63-1.08,1.89-4.24,3.34-7.15,3.59l-.74-1.42c3-.25,6.31-1.76,6.86-3.65h-6.07v-1.51h14.3v1.51h-6.16c.59,1.89,4.17,3.41,6.86,3.68l-.9,1.44ZM428.73,246.66h-6.47v5.59h6.47v-5.59ZM426.79,256.63v-1.56h6.63v1.56h-6.63ZM434.84,255.07v-11.41h1.83v11.41h-1.83Z"/>
      <path class="cls-1" d="M457.89,249.6c0,2.98-2.44,4.85-5.39,4.85s-5.39-1.87-5.39-4.83,2.44-4.92,5.39-4.92,5.39,1.92,5.39,4.89ZM448.94,249.6c0,2.01,1.51,3.34,3.56,3.34s3.56-1.33,3.56-3.32-1.4-3.34-3.56-3.34c-2.05,0-3.56,1.33-3.56,3.32ZM450.18,264.34v-8.3h1.83v2.66h9.88v-2.66h1.83v8.3h-13.53ZM461.88,260.2h-9.88v2.66h9.88v-2.66ZM461.86,254.9v-11.23h1.83v11.23h-1.83Z"/>
      <path class="cls-1" d="M467.43,245.17h11.43v1.53h-4.76c0,.52,0,.92.02,1.15.16,2.68,2.66,4.98,5.05,5.77l-1.01,1.47c-2.01-.81-4.15-2.71-5.01-4.6-.56,1.96-3.02,4.22-5.28,5.19l-1.06-1.42c2.64-1.01,5.3-3.65,5.41-6.43,0-.2.02-.61.02-1.13h-4.83v-1.53ZM476.66,264.61c-4.38,0-7.01-1.53-7.01-3.99s2.64-4.04,7.01-4.04,7.06,1.51,7.06,4.04-2.66,3.99-7.06,3.99ZM476.66,258.12c-3.16,0-5.12.88-5.12,2.5s1.96,2.46,5.12,2.46,5.19-.9,5.19-2.46-2.01-2.5-5.19-2.5ZM483.42,250.99v5.55h-1.83v-12.88h1.83v5.8h3.25v1.53h-3.25Z"/>
      <path class="cls-1" d="M493.84,258.44v-4.67c-1.85.09-3.72.11-5.59.14l-.32-1.58c2.5,0,4.89-.04,7.17-.14.74-.02,1.49-.04,2.21-.09.32-1.35.56-3.56.52-5.3h-8.25v-1.51h10.13c.14,2.28-.2,4.87-.59,6.68.9-.07,1.74-.16,2.55-.25l.16,1.44c-1.65.2-3.86.38-6.16.52v4.76h-1.83ZM490.73,264.1v-6.27h1.83v4.76h13.26v1.51h-15.09ZM498.76,255.12h4.67v-11.46h1.83v15.88h-1.83v-2.95h-4.67v-1.47Z"/>
      <path class="cls-1" d="M514.9,245.24c3.47,0,5.41,2.98,5.41,7.42s-1.94,7.4-5.41,7.4-5.41-2.95-5.41-7.42,1.96-7.4,5.41-7.4ZM514.9,246.82c-2.21,0-3.68,2.39-3.68,5.84s1.47,5.82,3.68,5.82,3.68-2.39,3.68-5.82-1.44-5.84-3.68-5.84ZM524.22,264.64v-20.97h1.83v20.97h-1.83Z"/>
      <path class="cls-1" d="M536.6,253.79v-9.31h1.83v3.07h6.13v-3.07h1.83v9.31h-9.79ZM544.56,249.05h-6.13v3.23h6.13v-3.23ZM538.61,264.48v-5.23h11.55v-2.05h-11.57v-1.49h13.4v4.96h-11.55v2.3h12.31v1.51h-14.14ZM551.98,249.89v4.62h-1.83v-10.85h1.83v4.69h3.2v1.53h-3.2Z"/>
      <path class="cls-1" d="M573.09,244.72c0,2.8-.23,5.55-.72,7.67h3.16v1.51h-18.94v-1.51h13.96c.43-1.58.68-4.4.68-6.16h-12.38v-1.51h14.25ZM558.86,264.32v-8.73h1.83v2.77h10.73v-2.82h1.83v8.77h-14.39ZM571.42,259.88h-10.73v2.93h10.73v-2.93Z"/>
      <path class="cls-1" d="M591.24,254.76c-1.65.2-4.2.43-6.74.56-2.37.11-5.46.18-6.86.18l-.27-1.6c1.62,0,3.81,0,6.09-.07v-2.55h-4.29v-6.47h10.17v1.51h-8.34v3.45h8.55v1.51h-4.26v2.48c2.23-.11,4.49-.27,5.8-.47l.16,1.47ZM580.89,264.34v-7.51h1.83v2.17h9.99v-2.21h1.83v7.55h-13.64ZM592.71,260.49h-9.99v2.37h9.99v-2.37ZM592.71,255.66v-12h1.83v12h-1.83Z"/>
      <path class="cls-1" d="M611.34,258.5c-2.44.56-7.89.97-11.12.97h-.92v-13.62h1.83v12.02c2.71,0,7.53-.38,10.04-.95l.18,1.58ZM615.1,264.64h-1.8v-20.97h1.8v20.97Z"/>
      <path class="cls-1" d="M622.72,257.94c2.71,0,6.86-.25,8.86-.68l.2,1.51c-2.26.43-6.41.72-10.06.72h-2.05v-13.64h9.95v1.53h-8.12v10.55h1.22ZM635.02,251.99h3.41v1.53h-3.41v11.12h-1.8v-20.97h1.8v8.32Z"/>
    </g>
    <polygon class="cls-1" points="900.58 23.72 900.58 41.57 893.75 25.08 884.98 28.71 891.81 45.2 879.19 32.58 872.48 39.29 885.1 51.92 868.61 45.09 864.97 53.86 881.46 60.69 863.62 60.69 863.62 70.18 881.46 70.18 864.97 77.01 868.61 85.78 885.1 78.95 872.48 91.57 879.19 98.29 891.81 85.67 884.98 102.16 893.75 105.79 900.58 89.3 900.58 107.15 910.08 107.15 910.08 89.3 916.91 105.79 925.68 102.16 918.85 85.67 931.47 98.29 938.18 91.57 925.56 78.95 942.05 85.78 945.69 77.01 929.2 70.18 947.05 70.18 947.05 60.69 929.2 60.69 945.69 53.86 942.05 45.09 925.56 51.91 938.18 39.29 931.47 32.58 918.85 45.2 925.68 28.71 916.91 25.08 910.08 41.57 910.08 23.72 900.58 23.72"/>
  </g>
</svg>