<?xml version="1.0" encoding="UTF-8"?>
<svg id="_레이어_1" data-name=" 레이어 1" xmlns="http://www.w3.org/2000/svg" version="1.1" viewBox="0 0 200.3 34.2">
  <defs>
    <style>
      .cls-1 {
        fill: #565656;
        stroke-width: 0px;
      }
    </style>
  </defs>
  <g>
    <path class="cls-1" d="M80.6,29.7c1.5,3.1,3.1,4.2,5.5,3.5,2.2-.6,3.5-3.3,3.2-6.2-3.4,4.2-9.2,2.4-10.4-2.6-1.1-4.5-1.2-9,.2-13.4,1-3.3,3.6-5,6.6-4.4,1.4.3,2.7,1.4,3.9,2v-1.5c.7,0,1.3-.2,2.1-.4,0,.3.2.6.2.9v17.1c0,2.1-.5,4.4-1.4,6.3-1.7,3.8-7.3,4.3-9.9,1.2-.9-1-.9-1.8.5-2.6h-.5ZM89.7,18.4c0-2.1-.2-3.7-.3-5.3,0-.5,0-.9-.2-1.4-.6-2.9-2-4.3-4.1-4.4-2.1,0-3.8,1.4-4.2,4.3-.4,3.4-.5,6.9-.4,10.3,0,1.5.6,3,1.2,4.4s1.7,2.1,3.3,2.1,2.7-.8,3.4-2.2c.3-.7.6-1.4.7-2.2.3-2.1.4-4.1.6-5.7h0Z"/>
    <path class="cls-1" d="M0,.5h2.4v20.8c0,1.4.6,2.9,1.3,4.2,1.8,3.4,6.1,3.4,7.8,0,.9-1.9,1.4-4.1,1.5-6.2,0-3.5-.4-7-.6-10.5-.1-2.7,0-5.5,0-8.3h2.5c-.2,1.1-.5,2.2-.5,3.3v12.7c0,2.4-.2,4.9-.7,7.3-.8,3.5-2.9,5.4-5.7,5.5-3.1.2-5.6-1.5-6.7-4.9-.7-2-1.1-4.2-1.1-6.3C0,13.7,0,9.2,0,4.8,0,4.8,0,.5,0,.5Z"/>
    <path class="cls-1" d="M42.6,23.9c1.4.7,1.4,1.5.7,2.6-2.4,3.8-8.2,3.7-10.4-.2-.5-.8-.8-1.8-1-2.7-.9-4.4-1-8.8.5-13.1.9-2.4,2.6-3.9,5.3-4,2.6,0,4.7,1,6,3.2,1.5,2.6.9,5.7-1.6,7.3-1.4.9-3.1,1.5-4.7,2.2-3.7,1.5-4.5,3.7-2.6,7.2,1.5,2.8,5.1,2.9,6.8.1.5-.8.7-1.7,1.1-2.6h-.1ZM33.1,20.4c1.4-.8,2.2-1.4,3-1.8.9-.4,1.9-.7,2.8-1.1,2.8-1.2,3.9-3.2,3.4-6.1-.4-2.2-2-4-3.9-4.1-2-.2-3.6.9-4.2,3.4-.6,3.1-.8,6.3-1.2,9.7h.1Z"/>
    <path class="cls-1" d="M75.1,28.8h-1.8v-6.9c0-2.4.3-4.9.2-7.3,0-1.5-.4-3.1-.9-4.6-.5-1.4-1.8-2.2-3.4-2.2s-2.7.8-3.4,2.2c-.4.9-.9,1.9-.9,2.9v15.8h-2.2v-14.5c0-1.6.6-3.2,1.3-4.7,1-2.3,3.2-3.3,5.6-3.1,2.5.2,4,1.7,4.4,4,.5,2.6.5,5.3.6,8,.2,3.4.2,6.8.3,10.3h.2Z"/>
    <path class="cls-1" d="M46.9,7h2.3v14.3c0,1.4.5,2.8.9,4.1.6,1.6,1.8,2.6,3.6,2.6s3.1-1.1,3.4-2.7c.4-2.3.6-4.7.7-7.1V7.1h1.5c0,4.7,0,9.4-.2,14,0,1.6-.4,3.1-.8,4.6-.6,2-2,3.3-4.2,3.5s-4.4-.3-5.4-2.4c-.9-1.8-1.5-3.9-1.7-5.9-.3-3.3,0-6.6-.2-9.9,0-1.3,0-2.5-.2-3.9h.3Z"/>
    <path class="cls-1" d="M18.6,28.8V.4c.6-.1,1.3-.2,2.2-.4v28.8h-2.2Z"/>
    <path class="cls-1" d="M25.6.4c.6-.1,1.2-.2,2.1-.4v28.8h-2.1V.4Z"/>
  </g>
  <g>
    <path class="cls-1" d="M186.3,33.6c-.1-.4-.3-.9-.4-1.4,2.1-.2,3.9-.9,5.4-2.5.7-.8,1-1.5.7-2.6-1.5-6-2.8-12-4.3-18-.2-.8-.5-1.6-.8-2.6h2.3c1.4,6.1,2.9,12.2,4.3,18.2h.4c.4-2,.9-4,1.3-6,.8-3.5,1.6-7.1,2.5-10.6.5-1.9.6-1.9,2.6-1.7v.3c-2.7,4.7-3.7,9.9-4.8,15-.4,1.8-1,3.5-1.6,5.3-1,2.8-2.7,5.1-5.4,6.5h-2.2Z"/>
    <path class="cls-1" d="M148.8,6.5h2.2c.9,6.7,1.8,13.3,2.8,20.4.4-.7.7-1,.7-1.3.5-2.7,1.1-5.5,1.4-8.2.3-3,.4-6,.6-9,.2-2,.3-2,2.3-1.7v.2c-.7,4.5-1.4,9-2.3,13.5-.5,2.7-1.4,5.4-2.1,8.1h-2.5c-.8-5.5-1.5-11-2.3-16.4h-.4c-.1,1.9-.2,3.8-.5,5.7-.4,3-.8,6-1.5,9-.5,2-.7,2-2.8,1.7-1-7.3-2-14.5-3.1-21.8h2c.9,6.6,1.9,13.3,2.8,19.9h.5c.3-1.3.8-2.6,1-4,.6-4.6,1.1-9.3,1.5-14,0-.6-.2-1.3-.4-2h.1Z"/>
    <path class="cls-1" d="M106.4,12.2c3.2.3,5.5,1.6,6.7,4.4,1.8,4.4-.6,9.8-5.2,11.1-2.5.7-5.2.7-7.8,1.1V0C103.2,0,106.5-.2,109.5,1.4c2.3,1.2,2.8,3.8,1.3,6.4-.6,1-1.5,1.9-2.4,2.7-.6.6-1.2,1-2,1.7ZM102.4,27.6c6.2.7,10.2-3.6,9-9.4-.4-1.9-1.2-3.5-2.9-4.4-2.4-1.4-5.9.2-6.1,3-.2,3.6,0,7.2,0,10.9h0ZM102.4,14.5c1.7-1.7,3.5-3.1,4.8-4.8,1-1.2,1.6-2.7,2-4.2.5-1.6-.3-3.2-1.8-3.8-1.6-.6-3.2-.8-5.1-1.3v14h0Z"/>
    <path class="cls-1" d="M137.8,23.5c1.5.8,1.3,1.7.5,2.8-2.5,3.6-8.1,3.5-10.3-.4-1.8-3.2-1.9-6.8-1.6-10.3.2-2.1.6-4.4,1.5-6.3,1.2-2.9,4.5-3.9,7.5-2.8,2.9,1.1,4.6,4.1,4,6.9-.4,1.7-1.4,2.9-3,3.7-1.5.7-3,1.3-4.5,1.9s-3,1.4-2.9,3.3c0,2.1.6,4.1,2.5,5.3,1.6,1.1,4.1.4,5.2-1.4.5-.8.8-1.8,1.1-2.7ZM128.3,19.6c2.2-1,4-1.8,5.8-2.6,2.5-1.1,3.7-2.8,3.5-5.5-.2-2.5-1.8-4.5-4-4.7-2-.2-3.7,1-4.3,3.7-.6,3-.7,6-1,9.1Z"/>
    <path class="cls-1" d="M172,23.5c1.4.6,1.5,1.4.7,2.6-1.3,2-3.2,2.8-5.5,2.7-2.4,0-4.1-1.2-5.1-3.3-1.5-3.1-1.6-6.4-1.4-9.7.2-2.1.6-4.4,1.4-6.4,1-2.7,3.4-3.7,6.4-3.3,2.6.4,4.9,2.5,5.3,5.2.4,2.4-.8,4.7-3.4,5.9-1.8.9-3.7,1.5-5.4,2.4-1.6.8-2,2.2-1.6,4.1.6,2.6,1.9,4.2,3.7,4.4,1.7.2,3.3-.7,4.2-2.5.3-.6.5-1.3.8-2.1h0ZM163,19.5c1.9-.8,3.7-1.7,5.5-2.5,3.1-1.3,4.2-4.4,2.9-7.4-.8-1.7-2-2.7-3.9-2.8-1.9,0-3,1.2-3.6,2.8-1.3,3.2-1.1,6.6-1,9.8h.1Z"/>
    <path class="cls-1" d="M119.3,28.4h-2.3V6.5c.5,0,1.2-.2,2.1-.4v4.1h.3c.3-.6.4-1.4.9-1.9.8-.8,1.7-1.8,2.8-2.2,1.7-.5,2.3.3,2.2,2.2-.3,0-.6-.2-1-.2-1.7-.5-2.9-.1-3.5,1.5-.7,2-1.3,4.2-1.4,6.4-.2,4.1,0,8.1,0,12.3h0Z"/>
    <path class="cls-1" d="M176.9,6.4c.7,0,1.3-.2,2.1-.4v4.2h.3c.4-.8.6-1.8,1.2-2.4.7-.7,1.7-1.5,2.7-1.7,1.7-.4,2.2.4,2,2.2-3.4-.7-4.9,0-5.3,3.7-.6,5-.5,10.1-.7,15.2v1.1h-2.4V6.4h0Z"/>
  </g>
</svg>