<?xml version="1.0" encoding="UTF-8"?>
<svg id="_레이어_1" data-name=" 레이어 1" xmlns="http://www.w3.org/2000/svg" version="1.1" viewBox="0 0 72.7 72.4">
  <defs>
    <style>
      .cls-1 {
        fill: #565656;
        stroke-width: 0px;
      }
    </style>
  </defs>
  <path class="cls-1" d="M66.6,57.3c0,5-4.1,9.1-9.1,9.1H15.1c-5,0-9.1-4.1-9.1-9V15.1c0-5,4.1-9.1,9.1-9.1h42.4c5,0,9.1,4.1,9.1,9.1,0,0,0,42.2,0,42.2ZM57.5,0H15.1C6.8,0,0,6.8,0,15.1v42.2c0,8.3,6.8,15.1,15.1,15.1h42.4c8.4,0,15.1-6.8,15.1-15.1V15.1c0-8.3-6.8-15.1-15.1-15.1"/>
  <path class="cls-1" d="M36.3,51.3c-8.4,0-15.1-6.8-15.1-15.1s6.8-15.1,15.1-15.1,15.1,6.8,15.1,15.1-6.8,15.1-15.1,15.1M36.3,15.1c-11.7,0-21.2,9.5-21.2,21.1s9.5,21.1,21.2,21.1,21.2-9.5,21.2-21.1-9.5-21.1-21.2-21.1"/>
  <path class="cls-1" d="M57.5,12.1c1.7,0,3,1.4,3,3s-1.4,3-3,3-3-1.4-3-3,1.3-3,3-3"/>
</svg>