<?xml version="1.0" encoding="utf-8"?>
<!-- Generator: Adobe Illustrator 28.2.0, SVG Export Plug-In . SVG Version: 6.00 Build 0)  -->
<svg version="1.1" id="레이어_1" xmlns="http://www.w3.org/2000/svg" xmlns:xlink="http://www.w3.org/1999/xlink" x="0px"
	 y="0px" viewBox="0 0 72.67 72.42" style="enable-background:new 0 0 72.67 72.42;" xml:space="preserve">
<style type="text/css">
	.st0{fill:#FFFFFF;}
</style>
<g>
	<path class="st0" d="M66.61,57.33c0,4.98-4.09,9.05-9.08,9.05H15.14c-4.99,0-9.08-4.07-9.08-9.05V15.09c0-4.98,4.09-9.05,9.08-9.05
		h42.39c4.99,0,9.08,4.07,9.08,9.05V57.33z M57.53,0H15.14C6.78,0,0,6.76,0,15.09v42.24c0,8.33,6.78,15.09,15.14,15.09h42.39
		c8.36,0,15.14-6.76,15.14-15.09V15.09C72.66,6.76,65.88,0,57.53,0"/>
	<path class="st0" d="M36.33,51.3c-8.36,0-15.14-6.76-15.14-15.09c0-8.33,6.78-15.09,15.14-15.09s15.14,6.76,15.14,15.09
		C51.47,44.54,44.69,51.3,36.33,51.3 M36.33,15.09c-11.69,0-21.19,9.48-21.19,21.12s9.51,21.12,21.19,21.12s21.19-9.47,21.19-21.12
		S48.02,15.09,36.33,15.09"/>
	<path class="st0" d="M57.53,12.07c1.67,0,3.03,1.35,3.03,3.02c0,1.67-1.36,3.02-3.03,3.02s-3.03-1.35-3.03-3.02
		C54.5,13.42,55.85,12.07,57.53,12.07"/>
</g>
</svg>
