<?xml version="1.0" encoding="utf-8"?>
<!-- Generator: Adobe Illustrator 28.2.0, SVG Export Plug-In . SVG Version: 6.00 Build 0)  -->
<svg version="1.1" id="레이어_1" xmlns="http://www.w3.org/2000/svg" xmlns:xlink="http://www.w3.org/1999/xlink" x="0px"
	 y="0px" viewBox="0 0 85.48 59.83" style="enable-background:new 0 0 85.48 59.83;" xml:space="preserve">
<style type="text/css">
	.st0{fill:#FFFFFF;}
</style>
<path class="st0" d="M34.19,17.04l22.03,12.69L34.19,42.41V17.04z M12.46,1.11C5.84,1.63,0.84,7.01,0.51,13.64
	C0.25,19.1,0,25.39,0,29.73C0,34.12,0.26,40.5,0.52,46c0.32,6.55,5.21,11.89,11.73,12.49c7.22,0.67,17.67,1.34,30.48,1.34
	c12.78,0,23.21-0.67,30.43-1.33c6.55-0.6,11.45-5.98,11.76-12.55c0.28-5.8,0.55-12.43,0.55-16.22c0-3.75-0.27-10.28-0.54-16.03
	C84.62,7.04,79.61,1.62,72.97,1.1C65.86,0.55,55.6,0,42.74,0C29.84,0,19.57,0.55,12.46,1.11"/>
</svg>
