<?xml version="1.0" encoding="UTF-8"?>
<svg id="_레이어_1" data-name=" 레이어 1" xmlns="http://www.w3.org/2000/svg" version="1.1" viewBox="0 0 85.5 59.8">
  <defs>
    <style>
      .cls-1 {
        fill: #565656;
        stroke-width: 0px;
      }
    </style>
  </defs>
  <path class="cls-1" d="M34.2,17l22,12.7-22,12.7v-25.4ZM12.5,1.1C5.8,1.6.8,7,.5,13.6c-.3,5.5-.5,11.7-.5,16.1s.3,10.8.5,16.3c.3,6.5,5.2,11.9,11.7,12.5,7.2.7,17.7,1.3,30.5,1.3s23.2-.7,30.4-1.3c6.6-.6,11.4-6,11.8-12.5.3-5.8.6-12.4.6-16.2s-.3-10.3-.5-16c-.3-6.7-5.3-12.1-12-12.6C65.9.6,55.6,0,42.8,0S19.6.6,12.5,1.1"/>
</svg>