<?xml version="1.0" encoding="UTF-8"?>
<svg id="_레이어_1" data-name=" 레이어 1" xmlns="http://www.w3.org/2000/svg" version="1.1" viewBox="0 0 967.4 98.6">
  <defs>
    <style>
      .cls-1 {
        fill: #fff;
        stroke-width: 0px;
      }
    </style>
  </defs>
  <g>
    <path class="cls-1" d="M0,8.6h14v79.3H0V8.6Z"/>
    <path class="cls-1" d="M22.6,8.1h15.1v13.5h-15.1v-13.5ZM23.1,29.8h14v58h-14s0-58,0-58Z"/>
    <path class="cls-1" d="M45.1,29.8h13v5.4c0,1.2-.7,1.9-1.8,1.9h-2.7c-2.9,0-5.2,2.2-5.2,5.1s2.1,5.1,5,5.1,4.5-1.8,5.3-5.1c2.5-9.5,8.5-14,17.6-14s12.7,4.1,15,10.9c3.4-6.8,9.8-10.9,18.7-10.9s18,8,18,19.9v39.7h-14v-38.6c0-6.4-3-10-8.7-10s-11.7,5.4-11.7,15.3v33.3h-14v-38.6c0-6.4-3.1-10-8.8-10s-11.5,6-11.5,16.9v31.8h-14V29.8h-.2Z"/>
    <path class="cls-1" d="M134.7,58.8c0-19.2,12-30.6,28-30.6s26.5,10.4,26.5,29.7,0,2.9,0,4.3h-35c-3,0-5.1-2-5.1-4.9s2.1-4.9,5.1-4.9h20.5c-.6-9.5-4.9-13.9-12-13.9s-11.4,4.3-12.9,12c-.3,1.3-1,1.8-2.4,1.8h-1c-2.8,0-5,1.9-5,4.8s2.2,4.8,5,4.8h1.1c1.3,0,1.9.5,2,1.9.7,10.1,6.1,15.1,13.8,15.1s10.6-3.7,11.6-10.3h14.2c-1.5,12.7-11.2,20.9-26.2,20.9s-28-9.8-28-30.7h-.2Z"/>
    <path class="cls-1" d="M195.6,69.5h14.7c.2,6.3,5,9.8,11.9,9.8s10-2.7,10-7.1-2.6-5.5-8.3-6.7l-10.1-2c-12-2.4-17.1-7.8-17.1-16.2s8.9-19,24.4-19,24,8.5,24.5,19.2h-14.4c-.2-5.7-4.1-9.1-10.3-9.1s-9.7,2.9-9.7,7.1,2.3,5.1,7.3,6.1l10.8,2c11.7,2.3,17.3,7.6,17.3,16.6,0,12.9-10.8,19.3-24.6,19.3s-26.1-7.4-26.4-20h0ZM222.2,63c2.4,0,4.5-2,4.5-4.5s-2.2-4.5-4.5-4.5-4.6,2-4.6,4.5,2.2,4.5,4.6,4.5Z"/>
    <path class="cls-1" d="M261.2,72.1v-31.4h-9.9v-10.8h1.2c7.3,0,10.6-3.1,11-11.6l.3-5.7h11.4v12.9c0,1.3-.7,2.1-2,2.1h-2.9c-3,0-5.4,2.3-5.4,5.1s2.3,5.4,5.4,5.4,5.1-2.3,5.1-5.4v-.9c0-1.3.8-2,2.1-2h10.4v10.8h-12.7v30c0,5.3,2.9,7,7.2,7s3-.2,4.4-.5v10.8c-2.3.7-5,1.1-8,1.1-10.6,0-17.7-4.5-17.7-16.8h.1Z"/>
    <path class="cls-1" d="M295.2,69.9V29.8h14v38.4c0,6.3,3.3,10.2,9.7,10.2s12-6.1,12-16.8v-31.8h14v58h-12.9v-5.5c0-1.2.7-1.9,1.8-1.9h2.6c3,0,5.3-2.2,5.3-5.1s-2.1-5.1-5-5.1-4.5,1.8-5.4,5.1c-2.5,8.7-7.6,14-17.4,14s-18.7-7.4-18.7-19.6v.2Z"/>
    <path class="cls-1" d="M408.8,8.6v79.3h-13.8v-8.6c-3.3,6.6-9.4,10.2-17.1,10.2-14.6,0-23.4-11.8-23.4-30.6s9-30.7,23.6-30.7,8.5,1.4,11.3,4.4c2.2,2.2,3.8,5.2,5,9.1.9,3,2.4,5.2,5.4,5.2s5-2.2,5-5.1-2.2-5-5.1-5h-2.6c-1.2,0-2-.8-2-2.2V8.6h13.7ZM381.8,78.4c8.5,0,13-8,13-19.7s-4.5-19.6-13-19.6-12.8,8-12.8,19.6,4.3,19.7,12.8,19.7Z"/>
    <path class="cls-1" d="M420.6,8.1h15.1v13.5h-15.1v-13.5ZM421.1,29.8h14v58h-14V29.8Z"/>
    <path class="cls-1" d="M444.4,58.8c0-18.7,10.9-30.6,27.6-30.6s27.6,11.8,27.6,30.6-10.9,30.7-27.6,30.7-27.6-11.9-27.6-30.7ZM451.7,63.8c2.7,0,5-2.2,5-5s-2.3-5-5-5-5,2.3-5,5,2.2,5,5,5ZM472,78.4c8.2,0,13.1-6.8,13.1-19.6s-4.9-19.5-13.1-19.5-13.1,6.8-13.1,19.5,4.9,19.6,13.1,19.6ZM492.2,63.8c2.8,0,5-2.2,5-5s-2.2-5-5-5-5,2.3-5,5,2.2,5,5,5Z"/>
    <path class="cls-1" d="M507.2,72.4h15.2v15.4h-15.2v-15.4h0Z"/>
    <path class="cls-1" d="M534.1,8.6h14v79.3h-14V8.6Z"/>
    <path class="cls-1" d="M557,8.1h15.1v13.5h-15.1v-13.5ZM557.5,29.8h14v58h-14V29.8Z"/>
    <path class="cls-1" d="M578.2,29.8h14.9l11.7,36.2c.2.6.3,1.1.3,1.5,0,.8-.3,1.3-.8,1.8l-1.3,1.3c-1.2,1.2-1.7,2.6-1.7,4,0,3.1,2.4,5.6,5.5,5.6s5.5-2.5,5.5-5.6-.5-2.9-1.7-4l-1.3-1.3c-.5-.6-.8-1.1-.8-1.7s.2-1,.3-1.5l11.4-36.4h14.4l-20.4,58h-15.1l-20.8-58h-.1Z"/>
    <path class="cls-1" d="M636.2,58.8c0-19.2,12-30.6,28-30.6s26.5,10.4,26.5,29.7,0,2.9,0,4.3h-35c-3,0-5.1-2-5.1-4.9s2.1-4.9,5.1-4.9h20.5c-.5-9.5-4.9-13.9-12-13.9s-11.4,4.3-12.9,12c-.3,1.3-1,1.8-2.4,1.8h-1c-2.8,0-5,1.9-5,4.8s2.2,4.8,5,4.8h1c1.3,0,1.9.5,2,1.9.7,10.1,6.1,15.1,13.8,15.1s10.6-3.7,11.5-10.3h14.2c-1.5,12.7-11.2,20.9-26.2,20.9s-28-9.8-28-30.7h0Z"/>
  </g>
  <polygon class="cls-1" points="923.7 98.6 912.5 98.6 912.5 77.5 904.4 97 894.1 92.7 902.1 73.2 887.2 88.1 879.3 80.2 894.2 65.2 874.7 73.3 870.4 63 889.9 54.9 868.8 54.9 868.8 43.7 889.9 43.7 870.4 35.6 874.7 25.2 894.2 33.3 879.3 18.4 887.2 10.5 902.1 25.4 894.1 5.9 904.4 1.6 912.5 21.1 912.5 0 923.7 0 923.7 21.1 931.8 1.6 942.2 5.9 934.1 25.4 949 10.5 956.9 18.4 942 33.3 961.5 25.2 965.8 35.6 946.3 43.7 967.4 43.7 967.4 54.9 946.3 54.9 965.8 63 961.5 73.3 942 65.2 956.9 80.2 949 88.1 934.1 73.2 942.2 92.7 931.8 97 923.7 77.5 923.7 98.6"/>
</svg>