<?xml version="1.0" encoding="utf-8"?>
<!-- Generator: Adobe Illustrator 28.2.0, SVG Export Plug-In . SVG Version: 6.00 Build 0)  -->
<svg version="1.1" id="레이어_1" xmlns="http://www.w3.org/2000/svg" xmlns:xlink="http://www.w3.org/1999/xlink" x="0px"
	 y="0px" viewBox="0 0 967.39 98.56" style="enable-background:new 0 0 967.39 98.56;" xml:space="preserve">
<style type="text/css">
	.st0{fill:#FFFFFF;}
</style>
<g>
	<g>
		<path class="st0" d="M0,8.61h14.04v79.25H0V8.61z"/>
		<path class="st0" d="M25.73,8.11h15.09V21.6H25.73V8.11z M26.23,29.83h14.04v58.03H26.23V29.83z"/>
		<path class="st0" d="M48.18,29.83h12.99v5.42c0,1.22-0.72,1.88-1.82,1.88h-2.65c-2.93,0-5.25,2.16-5.25,5.08
			c0,2.87,2.1,5.14,4.97,5.14c2.82,0,4.53-1.82,5.31-5.14c2.49-9.45,8.46-13.98,17.57-13.98c7.19,0,12.66,4.09,14.98,10.89
			c3.37-6.85,9.84-10.89,18.68-10.89c11.44,0,17.96,7.96,17.96,19.9v39.74h-13.98V49.23c0-6.36-2.98-10-8.68-10
			c-6.96,0-11.66,5.42-11.66,15.31v33.33H82.56V49.23c0-6.36-3.1-10-8.84-10c-7.19,0-11.5,5.97-11.5,16.86v31.78H48.18V29.83z"/>
		<path class="st0" d="M137.79,58.79c0-19.18,11.99-30.56,28.02-30.56c15.59,0,26.47,10.45,26.47,29.68c0,1.49,0,2.93-0.06,4.31
			h-34.98c-2.98,0-5.08-2.04-5.08-4.86c0-2.82,2.1-4.86,5.08-4.86h20.5c-0.55-9.51-4.86-13.87-11.99-13.87
			c-6.63,0-11.44,4.31-12.88,11.99c-0.28,1.27-1,1.82-2.43,1.82h-1c-2.82,0-4.97,1.93-4.97,4.75c0,2.82,2.16,4.75,4.97,4.75h1.05
			c1.27,0,1.93,0.5,2.04,1.88c0.66,10.06,6.08,15.09,13.76,15.09c6.25,0,10.61-3.65,11.55-10.33H192
			c-1.49,12.71-11.16,20.89-26.2,20.89C149.39,89.47,137.79,79.63,137.79,58.79z"/>
		<path class="st0" d="M198.75,69.46h14.7c0.22,6.3,5.03,9.78,11.94,9.78c6.13,0,10-2.71,10-7.13c0-3.76-2.6-5.53-8.29-6.69
			l-10.06-1.99c-11.99-2.38-17.08-7.79-17.08-16.25c0-10.89,8.95-18.96,24.43-18.96c15.92,0,23.99,8.51,24.48,19.18h-14.42
			c-0.22-5.69-4.09-9.12-10.33-9.12c-5.86,0-9.73,2.93-9.73,7.13c0,3.26,2.32,5.14,7.3,6.13l10.83,2.04
			c11.66,2.27,17.3,7.63,17.3,16.58c0,12.88-10.83,19.29-24.65,19.29C209.09,89.47,199.03,82.06,198.75,69.46z M225.28,62.99
			c2.43,0,4.48-2.04,4.48-4.53c0-2.49-2.16-4.53-4.53-4.53c-2.49,0-4.59,2.05-4.59,4.53C220.64,60.95,222.85,62.99,225.28,62.99z"/>
		<path class="st0" d="M264.28,72.11V40.67h-9.89V29.83h1.16c7.35,0,10.56-3.09,11-11.55l0.28-5.69h11.44v12.93
			c0,1.33-0.72,2.1-2.04,2.1h-2.93c-3.04,0-5.36,2.27-5.36,5.14c0,3.04,2.32,5.36,5.36,5.36c2.87,0,5.14-2.32,5.14-5.36v-0.94
			c0-1.27,0.77-1.99,2.1-1.99h10.39v10.83h-12.66v29.96c0,5.31,2.93,6.96,7.24,6.96c1.44,0,2.98-0.17,4.42-0.5v10.78
			c-2.32,0.66-4.97,1.05-7.96,1.05C271.41,88.91,264.28,84.44,264.28,72.11z"/>
		<path class="st0" d="M298.3,69.9V29.83h14.04v38.41c0,6.3,3.26,10.17,9.67,10.17c7.46,0,11.99-6.08,11.99-16.8V29.83h13.98v58.03
			h-12.93v-5.47c0-1.22,0.66-1.88,1.77-1.88h2.65c2.98,0,5.31-2.21,5.31-5.08c0-2.93-2.1-5.08-5.03-5.08
			c-2.82,0-4.48,1.77-5.36,5.08c-2.49,8.68-7.63,14.04-17.35,14.04C305.26,89.47,298.3,82.06,298.3,69.9z"/>
		<path class="st0" d="M411.94,8.61v79.25h-13.76v-8.62c-3.32,6.58-9.4,10.22-17.13,10.22c-14.65,0-23.43-11.77-23.43-30.56
			s9.01-30.67,23.65-30.67c4.75,0,8.46,1.44,11.27,4.37c2.16,2.21,3.81,5.19,4.97,9.06c0.88,2.98,2.43,5.25,5.42,5.25
			c2.82,0,5.03-2.21,5.03-5.08s-2.16-5.03-5.14-5.03h-2.6c-1.22,0-1.99-0.77-1.99-2.16V8.61H411.94z M384.91,78.41
			c8.51,0,13.04-8.01,13.04-19.68c0-11.61-4.53-19.56-13.04-19.56s-12.82,7.96-12.82,19.56C372.09,70.4,376.4,78.41,384.91,78.41z"
			/>
		<path class="st0" d="M423.69,8.11h15.09V21.6h-15.09V8.11z M424.19,29.83h14.04v58.03h-14.04V29.83z"/>
		<path class="st0" d="M447.48,58.79c0-18.74,10.94-30.56,27.63-30.56c16.69,0,27.58,11.83,27.58,30.56
			c0,18.79-10.89,30.67-27.58,30.67C458.42,89.47,447.48,77.58,447.48,58.79z M454.83,63.82c2.71,0,5.03-2.16,5.03-4.97
			c0-2.76-2.32-5.03-5.03-5.03c-2.76,0-4.97,2.27-4.97,5.03C449.86,61.67,452.07,63.82,454.83,63.82z M475.11,78.41
			c8.18,0,13.1-6.85,13.1-19.62c0-12.77-4.92-19.51-13.1-19.51c-8.18,0-13.1,6.8-13.1,19.51S466.93,78.41,475.11,78.41z
			 M495.34,63.82c2.76,0,4.97-2.16,4.97-4.97c0-2.76-2.21-5.03-4.97-5.03s-4.97,2.27-4.97,5.03
			C490.37,61.67,492.58,63.82,495.34,63.82z"/>
		<path class="st0" d="M510.28,72.44h15.2v15.42h-15.2V72.44z"/>
		<path class="st0" d="M537.19,8.61h14.04v79.25h-14.04V8.61z"/>
		<path class="st0" d="M562.92,8.11h15.09V21.6h-15.09V8.11z M563.42,29.83h14.04v58.03h-14.04V29.83z"/>
		<path class="st0" d="M584.15,29.83h14.92l11.66,36.2c0.22,0.61,0.33,1.05,0.33,1.49c0,0.77-0.28,1.27-0.83,1.82l-1.33,1.33
			c-1.16,1.16-1.71,2.6-1.71,4.03c0,3.09,2.43,5.58,5.53,5.58c3.15,0,5.53-2.49,5.53-5.58c0-1.38-0.55-2.87-1.71-4.03l-1.33-1.27
			c-0.55-0.55-0.83-1.05-0.83-1.71c0-0.5,0.17-1,0.33-1.49l11.38-36.37h14.37l-20.39,58.03h-15.09L584.15,29.83z"/>
		<path class="st0" d="M642.15,58.79c0-19.18,11.99-30.56,28.02-30.56c15.59,0,26.47,10.45,26.47,29.68c0,1.49,0,2.93-0.06,4.31
			H661.6c-2.98,0-5.08-2.04-5.08-4.86c0-2.82,2.1-4.86,5.08-4.86h20.5c-0.55-9.51-4.86-13.87-11.99-13.87
			c-6.63,0-11.44,4.31-12.88,11.99c-0.28,1.27-0.99,1.82-2.43,1.82h-0.99c-2.82,0-4.97,1.93-4.97,4.75c0,2.82,2.16,4.75,4.97,4.75
			h1.05c1.27,0,1.93,0.5,2.04,1.88c0.66,10.06,6.08,15.09,13.76,15.09c6.25,0,10.61-3.65,11.55-10.33h14.15
			c-1.49,12.71-11.16,20.89-26.2,20.89C653.75,89.47,642.15,79.63,642.15,58.79z"/>
	</g>
	<g>
		<polygon class="st0" points="923.72,98.56 912.5,98.56 912.5,77.47 904.43,96.96 894.07,92.67 902.14,73.19 887.23,88.1 
			879.3,80.17 894.21,65.25 874.73,73.32 870.43,62.96 889.92,54.89 868.83,54.89 868.83,43.67 889.92,43.67 870.43,35.6 
			874.73,25.24 894.21,33.31 879.3,18.4 887.23,10.47 902.14,25.38 894.07,5.9 904.43,1.6 912.5,21.09 912.5,0 923.72,0 
			923.72,21.08 931.79,1.6 942.15,5.9 934.08,25.38 949,10.47 956.93,18.4 942.02,33.31 961.5,25.24 965.79,35.6 946.31,43.67 
			967.39,43.67 967.39,54.89 946.31,54.89 965.79,62.96 961.5,73.32 942.01,65.25 956.93,80.17 949,88.1 934.08,73.18 942.15,92.67 
			931.79,96.96 923.72,77.48 		"/>
	</g>
</g>
</svg>
