<?xml version="1.0" encoding="utf-8"?>
<!-- Generator: Adobe Illustrator 28.2.0, SVG Export Plug-In . SVG Version: 6.00 Build 0)  -->
<svg version="1.1" id="레이어_1" xmlns="http://www.w3.org/2000/svg" xmlns:xlink="http://www.w3.org/1999/xlink" x="0px"
	 y="0px" viewBox="0 0 539.8 57.7" style="enable-background:new 0 0 539.8 57.7;" xml:space="preserve">
<style type="text/css">
	.st0{fill:#FDFEFF;}
</style>
<g>
	<path class="st0" d="M16.7,32.3c8.3-5.4,12.6-9.1,12.6-15.1c0-5.3-3.5-8.7-8.6-8.7c-6.2,0-9.6,4.7-9.8,10.1H0.5
		C0.8,8.3,8.6,0.2,20.8,0.2c11.5,0,18.8,7.2,18.8,17c0,9.6-6.3,14.8-16.8,21.8c-3.4,2.3-5.5,4.1-7.3,5.8c-1.1,1-2,1.1-3.2,1.1H12
		c-2.4,0-3.9,1.8-3.9,3.7c0,2,1.6,3.6,3.7,3.6c2,0,3.7-1.6,3.7-3.6v-0.5c0-0.8,0.7-1.4,1.5-1.4h24v8.9H0C0.3,45.4,6.6,39,16.7,32.3z
		"/>
	<path class="st0" d="M45.8,28.9c0-17.5,8-28.7,21.2-28.7c13.2,0,21.2,11.2,21.2,28.7s-8,28.8-21.2,28.8
		C53.7,57.7,45.8,46.5,45.8,28.9z M50.9,32.4c2,0,3.6-1.6,3.6-3.6c0-2-1.5-3.6-3.6-3.6c-2,0-3.6,1.6-3.6,3.6
		C47.4,30.9,48.9,32.4,50.9,32.4z M67,49.2c6.9,0,10.8-6.6,10.8-20.2S73.9,8.7,67,8.7c-7,0-10.9,6.6-10.9,20.2
		C56.1,42.5,60,49.2,67,49.2z M83,32.4c2,0,3.6-1.6,3.6-3.6c0-2-1.6-3.6-3.6-3.6s-3.6,1.6-3.6,3.6C79.4,30.9,81,32.4,83,32.4z"/>
	<path class="st0" d="M109.6,32.3c8.3-5.4,12.6-9.1,12.6-15.1c0-5.3-3.5-8.7-8.6-8.7c-6.2,0-9.6,4.7-9.8,10.1H93.4
		c0.3-10.3,8.1-18.5,20.3-18.5c11.5,0,18.8,7.2,18.8,17c0,9.6-6.3,14.9-16.8,21.8c-3.4,2.3-5.5,4.1-7.3,5.8c-1.1,1-2,1.1-3.2,1.1
		h-0.3c-2.3,0-3.9,1.8-3.9,3.7c0,2,1.6,3.6,3.7,3.6c2,0,3.7-1.6,3.7-3.6v-0.5c0-0.8,0.7-1.4,1.5-1.4h24v8.9H92.9
		C93.2,45.4,99.5,39,109.6,32.3z"/>
	<path class="st0" d="M164.4,44.7h-27.1v-8.2l24.2-35.2H174v35.1h8.8v8.4H174v11.9h-9.6L164.4,44.7L164.4,44.7z M162.3,36.3
		c1.1,0,1.6,0.5,1.6,1.6v0.7c0,2.1,1.7,3.8,3.8,3.8c2.2,0,3.9-1.6,3.9-3.8s-1.8-3.9-3.9-3.9H166c-1,0-1.6-0.6-1.6-1.6V11l-17.2,25.3
		C147.2,36.3,162.3,36.3,162.3,36.3z"/>
	<path class="st0" d="M188.3,45.8h10.6v10.8h-10.6V45.8z"/>
	<path class="st0" d="M222.6,39h10.3c0.3,6.4,4.2,10.4,10.6,10.4c5.9,0,9.6-3.5,9.6-8.7c0-5.5-4.3-8.3-10.6-8.3h-5.4v-8.3h5.1
		c5.8,0,9.4-3.3,9.4-8c0-4.6-3.3-7.8-8.5-7.8c-5.6,0-9.3,3.7-9.6,9h-10.2c0.4-10.5,8.4-17.2,19.8-17.2c11.4,0,18.6,6.4,18.6,15.2
		c0,5.9-2.9,9.6-6.6,11.2c-0.8,0.4-1.9,0.3-2.7-0.5c-0.7-0.8-1.7-1.4-3.1-1.4c-2,0-3.4,1.5-3.4,3.4c0,2.1,1.6,3.5,3.4,3.5
		c1.4,0,2.2-0.6,3.2-1.6c0.7-0.8,1.7-1,2.7-0.7c4.6,1.5,8.1,5.8,8.1,11.9c0,9.8-8.4,16.5-19.8,16.5C229.8,57.7,222.7,49.8,222.6,39z
		"/>
	<path class="st0" d="M270.5,45.8h10.6v10.8h-10.6V45.8z"/>
	<path class="st0" d="M305.8,41.7h10.3c0.4,4.5,3.6,7.6,9.1,7.6c5.8,0,10.6-4,11.6-14.7c0.1-1.4,0.8-2.1,2.2-2.1h1
		c2.3,0,3.9-1.6,3.9-3.7s-1.7-3.7-3.7-3.7s-3.5,1.5-4.2,4.1c-1.5,5.4-7.2,8.2-13.1,8.2c-10.5,0-17.5-7.2-17.5-18
		c0-11.5,8.1-19.3,20.1-19.3c14.2,0,21.8,11,21.8,27.7c0,18.8-7.6,29.9-22.6,29.9C313.9,57.5,306.5,51.6,305.8,41.7z M325.4,29.1
		c5.8,0,9.8-4.2,9.8-10.3c0-6-4-10.3-9.8-10.3s-9.7,4.3-9.7,10.3C315.6,24.9,319.5,29.1,325.4,29.1z"/>
	<path class="st0" d="M352.7,45.8h10.6v10.8h-10.6V45.8z"/>
	<path class="st0" d="M385,29.1c0-11.4,4.4-21.4,9.5-28.4h6.6c-4.7,7.7-7.8,17.5-7.8,28.4c0,10.8,3.1,20.2,7.8,28.6h-6.6
		C389.3,50,385,40.3,385,29.1z M389.2,31.6c1.5,0,2.8-1.2,2.8-2.8c0-1.5-1.2-2.8-2.8-2.8s-2.8,1.3-2.8,2.8
		C386.4,30.4,387.6,31.6,389.2,31.6z"/>
	<path class="st0" d="M404.6,39.3H415c0.2,5.9,4.5,10,11.6,10c5.5,0,9.6-2.7,9.6-7.8c0-3.8-2.1-5.8-7.8-7.1l-7.4-1.7
		c-10.3-2.3-15.2-6.9-15.2-15.8c0-9.6,8-16.7,20.2-16.7c12.3,0,19.4,7.1,19.8,16.5h-10.3c-0.2-4.6-3.4-8.2-9.8-8.2
		c-5.4,0-9.5,3-9.5,7.6c0,3.5,2.2,5.7,8,7l8.2,1.9c8,1.8,14.2,5.9,14.2,15.3c0,10.8-7.8,17.5-20.1,17.5
		C413.4,57.7,404.8,51,404.6,39.3z M426.4,32.6c2.2,0,3.9-1.7,3.9-3.9c0-2.1-1.7-3.9-3.9-3.9s-3.9,1.7-3.9,3.9
		C422.6,30.8,424.3,32.6,426.4,32.6z"/>
	<path class="st0" d="M451.2,45.5c0-7.8,5-11.5,12.9-12.6l6.8-1c4.3-0.7,6-1.6,6-4.3c0-2.7-2.1-5.4-6.8-5.4c-4.5,0-7.5,2.5-7.7,6.6
		h-10.1c0.3-8,7.2-13.8,17.7-13.8c10.8,0,16.8,5.7,16.8,15.1v17.2c0,3.3,0.5,7.2,1.6,8.1v1.2h-10.2c-0.4-1.5-0.7-3.4-0.9-5.4
		c-2.4,3.7-6.9,6.5-12.8,6.5C457,57.7,451.2,53.1,451.2,45.5z M467.8,50.2c5.9,0,9.1-4.2,9.4-9.7l0-0.7c0.1-1.1,0.8-1.6,1.9-1.6h0.9
		c2,0,3.6-1.5,3.6-3.6c0-2-1.6-3.6-3.6-3.6c-2,0-3.7,1.5-3.7,3.6v0.6c0,1.5-0.7,2.2-2.5,2.5L472,38l-4,0.8c-4.4,0.9-6.6,2.6-6.6,6
		C461.4,48.2,464.1,50.2,467.8,50.2z"/>
	<path class="st0" d="M498.1,45.6V23.6h-6.9v-7.6h0.8c5.1,0,7.4-2.2,7.7-8.1l0.2-4h8v9c0,0.9-0.5,1.5-1.4,1.5h-2
		c-2.1,0-3.7,1.6-3.7,3.6c0,2.1,1.6,3.7,3.7,3.7c2,0,3.6-1.6,3.6-3.7v-0.7c0-0.9,0.5-1.4,1.5-1.4h7.2v7.6h-8.8v20.9
		c0,3.7,2,4.9,5,4.9c1,0,2.1-0.1,3.1-0.3v7.5c-1.6,0.5-3.5,0.7-5.5,0.7C503,57.3,498.1,54.2,498.1,45.6z"/>
	<path class="st0" d="M531.5,29c0-10.9-3.2-20.7-7.8-28.4h6.6c5.1,7,9.5,17,9.5,28.4c0,11.2-4.3,20.9-9.5,28.6h-6.6
		C528.4,49.3,531.5,39.8,531.5,29z M535.6,31.6c1.5,0,2.8-1.2,2.8-2.8c0-1.5-1.2-2.8-2.8-2.8c-1.5,0-2.8,1.3-2.8,2.8
		C532.9,30.4,534.1,31.6,535.6,31.6z"/>
</g>
</svg>
