<?xml version="1.0" encoding="UTF-8"?>
<svg id="_레이어_1" data-name=" 레이어 1" xmlns="http://www.w3.org/2000/svg" version="1.1" viewBox="0 0 551 57.5">
  <defs>
    <style>
      .cls-1 {
        fill: #fff;
        stroke-width: 0px;
      }
    </style>
  </defs>
  <path class="cls-1" d="M16.7,32.1c8.3-5.4,12.6-9.1,12.6-15.1s-3.5-8.7-8.6-8.7-9.6,4.7-9.8,10.1H.5C.8,8.1,8.6,0,20.8,0s18.8,7.2,18.8,17-6.3,14.9-16.8,21.8c-3.4,2.3-5.5,4.1-7.3,5.8-1.1,1-2,1.1-3.2,1.1h-.3c-2.4,0-3.9,1.8-3.9,3.7s1.6,3.6,3.7,3.6,3.7-1.6,3.7-3.6v-.5c0-.8.7-1.4,1.5-1.4h24v8.9H0c.3-11.2,6.6-17.6,16.7-24.3Z"/>
  <path class="cls-1" d="M45.8,28.7c0-17.6,7.9-28.7,21.2-28.7s21.2,11.2,21.2,28.7-8,28.8-21.2,28.8-21.2-11.2-21.2-28.8ZM50.9,32.3c2,0,3.6-1.6,3.6-3.6s-1.5-3.6-3.6-3.6-3.6,1.6-3.6,3.6,1.6,3.6,3.6,3.6ZM67,49c6.9,0,10.8-6.6,10.8-20.3s-3.9-20.2-10.8-20.2-10.9,6.6-10.9,20.2,3.9,20.3,10.9,20.3ZM83,32.3c2,0,3.6-1.6,3.6-3.6s-1.6-3.6-3.6-3.6-3.6,1.6-3.6,3.6,1.6,3.6,3.6,3.6Z"/>
  <path class="cls-1" d="M109.6,32.1c8.3-5.4,12.6-9.1,12.6-15.1s-3.5-8.7-8.6-8.7-9.6,4.7-9.8,10.1h-10.4C93.7,8.1,101.5-.1,113.7-.1s18.8,7.2,18.8,17-6.3,14.9-16.8,21.8c-3.4,2.3-5.5,4.1-7.3,5.8-1.1,1-2,1.1-3.2,1.1h-.3c-2.4,0-3.9,1.8-3.9,3.7s1.6,3.6,3.7,3.6,3.7-1.6,3.7-3.6v-.5c0-.8.7-1.4,1.5-1.4h24v8.9h-41c.3-11.2,6.6-17.6,16.7-24.3h0Z"/>
  <path class="cls-1" d="M164.4,44.5h-27.1v-8.2L161.5,1.1h12.5v35.1h8.8v8.4h-8.8v11.9h-9.6v-11.9h0ZM162.3,36.1c1.1,0,1.6.5,1.6,1.6v.7c0,2.1,1.7,3.8,3.8,3.8s3.9-1.6,3.9-3.8-1.8-3.9-3.9-3.9h-1.7c-1,0-1.6-.6-1.6-1.6V10.9l-17.2,25.3h15.2-.1Z"/>
  <path class="cls-1" d="M188.3,45.6h10.6v10.8h-10.6v-10.8Z"/>
  <path class="cls-1" d="M223,39.9h10.4c.5,5.1,3.9,8.9,9.9,8.9s9.6-4.4,9.6-10.6-4-9.5-9.2-9.5-7.4,2.4-8.8,5.5l-11.2-.6,3.4-32.6h33.9v8.5h-25.6l-1.4,12.5c-.1,1.1-.7,1.8-1.7,1.8h-1.2c-2.1,0-3.5,1.4-3.5,3.4s1.4,3.3,3.3,3.3,3-1.2,3.9-3.5c1.7-4.1,5.7-6.8,11.6-6.8,9.6,0,16.8,7.1,16.8,17.8s-7.8,19.4-19.9,19.4-20.1-6.8-20.3-17.6h0Z"/>
  <path class="cls-1" d="M269.7,45.6h10.6v10.8h-10.6v-10.8Z"/>
  <path class="cls-1" d="M315.9,19.1h1.3c2.2,0,3.9-1.7,3.9-3.9s-1.7-3.9-3.9-3.9-3.9,1.7-3.9,3.9v.7c0,1-.5,1.5-1.8,1.5h-8.8v-7.6c7.7-.2,12.3-3.3,12.7-8.8h8.6v55.3h-9.9V20.9c0-1.2.5-1.8,1.7-1.8h0Z"/>
  <path class="cls-1" d="M343,19.1h1.3c2.2,0,3.9-1.7,3.9-3.9s-1.7-3.9-3.9-3.9-3.9,1.7-3.9,3.9v.7c0,1-.5,1.5-1.8,1.5h-8.8v-7.6c7.7-.2,12.3-3.3,12.7-8.8h8.6v55.3h-9.9V20.9c0-1.2.5-1.8,1.7-1.8h0Z"/>
  <path class="cls-1" d="M360.8,45.6h10.6v10.8h-10.6v-10.8Z"/>
  <path class="cls-1" d="M394.8,28.7c0-11.5,4.5-21.6,9.6-28.7h6.7c-4.7,7.7-7.9,17.7-7.9,28.6s3.1,20.4,7.9,28.9h-6.7c-5.3-7.7-9.6-17.5-9.6-28.8ZM399,31.2c1.6,0,2.8-1.2,2.8-2.8s-1.2-2.8-2.8-2.8-2.8,1.3-2.8,2.8,1.2,2.8,2.8,2.8Z"/>
  <path class="cls-1" d="M415.9,39.1h10.4c.2,5.9,4.6,10,11.6,10s9.6-2.7,9.6-7.8-2.1-5.8-7.8-7.1l-7.4-1.7c-10.3-2.4-15.2-6.9-15.2-15.8S425.1,0,437.3,0s19.4,7.1,19.8,16.5h-10.3c-.2-4.6-3.4-8.2-9.8-8.2s-9.5,3-9.5,7.6,2.2,5.7,8,7l8.2,1.9c8,1.8,14.2,5.9,14.2,15.3s-7.8,17.5-20.1,17.5-21.6-6.7-21.8-18.4h-.1ZM437.6,32.4c2.2,0,3.9-1.7,3.9-3.9s-1.7-3.9-3.9-3.9-3.9,1.7-3.9,3.9,1.7,3.9,3.9,3.9Z"/>
  <path class="cls-1" d="M462.5,45.4c0-7.8,5.1-11.5,12.9-12.7l6.8-1c4.3-.7,6-1.6,6-4.3s-2.1-5.4-6.8-5.4-7.4,2.5-7.7,6.6h-10.1c.3-8,7.2-13.8,17.7-13.8s16.8,5.7,16.8,15.1v17.2c0,3.3.5,7.2,1.6,8.1v1.2h-10.2c-.4-1.5-.7-3.4-.9-5.4-2.4,3.7-6.9,6.5-12.8,6.5s-13.3-4.6-13.3-12.2h0ZM479,50c5.9,0,9.1-4.2,9.4-9.7v-.7c.2-1.1.8-1.6,1.9-1.6h.8c2,0,3.6-1.5,3.6-3.6s-1.6-3.6-3.6-3.6-3.7,1.5-3.7,3.6v.6c0,1.5-.7,2.2-2.5,2.5l-1.8.3-4,.8c-4.4.9-6.6,2.6-6.6,6s2.7,5.3,6.4,5.3h.1Z"/>
  <path class="cls-1" d="M509.3,45.4v-21.9h-6.9v-7.6h.8c5.1,0,7.4-2.2,7.7-8.1l.2-4h8v9c0,.9-.5,1.5-1.4,1.5h-2c-2.1,0-3.7,1.6-3.7,3.6s1.6,3.7,3.7,3.7,3.6-1.6,3.6-3.7v-.7c0-.9.5-1.4,1.5-1.4h7.3v7.6h-8.8v20.9c0,3.7,2,4.9,5.1,4.9s2.1,0,3.1-.3v7.5c-1.6.5-3.5.7-5.6.7-7.4,0-12.3-3.1-12.3-11.7h-.3Z"/>
  <path class="cls-1" d="M542.6,28.6c0-11-3.2-20.9-7.9-28.6h6.7c5.2,7.1,9.6,17.2,9.6,28.7s-4.3,21.1-9.6,28.8h-6.7c4.8-8.5,7.9-18,7.9-28.9ZM546.8,31.2c1.6,0,2.8-1.2,2.8-2.8s-1.2-2.8-2.8-2.8-2.8,1.3-2.8,2.8,1.2,2.8,2.8,2.8Z"/>
</svg>