<?xml version="1.0" encoding="utf-8"?>
<!-- Generator: Adobe Illustrator 28.2.0, SVG Export Plug-In . SVG Version: 6.00 Build 0)  -->
<svg version="1.1" id="레이어_1" xmlns="http://www.w3.org/2000/svg" xmlns:xlink="http://www.w3.org/1999/xlink" x="0px"
	 y="0px" viewBox="0 0 400.44 57.51" style="enable-background:new 0 0 400.44 57.51;" xml:space="preserve">
<style type="text/css">
	.st0{fill:#FDFEFF;}
</style>
<g>
	<path class="st0" d="M0,1.08h10.07v42.97c0,1-0.54,1.58-1.58,1.58H7.06c-2.24,0-4.05,1.85-4.05,4.05c0,2.28,1.81,4.05,4.05,4.05
		c2.24,0,4.05-1.77,4.05-4.05V49.1c0-0.96,0.54-1.5,1.47-1.5h20.98v8.79H0V1.08z"/>
	<path class="st0" d="M38.11,0.73h10.53v9.41H38.11V0.73z M38.46,15.89h9.8v40.5h-9.8V15.89z"/>
	<path class="st0" d="M56.75,15.89h9.07v3.78c0,0.85-0.5,1.31-1.27,1.31h-1.85c-2.04,0-3.67,1.5-3.67,3.55
		c0,2.01,1.47,3.59,3.47,3.59c1.97,0,3.16-1.27,3.7-3.59c1.74-6.6,5.9-9.76,12.27-9.76c5.01,0,8.83,2.85,10.45,7.6
		c2.35-4.78,6.87-7.6,13.04-7.6c7.99,0,12.54,5.55,12.54,13.89V56.4h-9.76V29.43c0-4.44-2.08-6.98-6.06-6.98
		c-4.86,0-8.14,3.78-8.14,10.69V56.4h-9.8V29.43c0-4.44-2.16-6.98-6.17-6.98c-5.02,0-8.02,4.17-8.02,11.77V56.4h-9.8V15.89z"/>
	<path class="st0" d="M120.76,36.11c0-13.39,8.37-21.33,19.56-21.33c10.88,0,18.48,7.29,18.48,20.71c0,1.04,0,2.04-0.04,3.01h-24.42
		c-2.08,0-3.55-1.43-3.55-3.39c0-1.97,1.47-3.39,3.55-3.39h14.31c-0.38-6.63-3.39-9.68-8.37-9.68c-4.63,0-7.99,3.01-8.99,8.37
		c-0.19,0.89-0.7,1.27-1.7,1.27h-0.7c-1.97,0-3.47,1.35-3.47,3.32c0,1.97,1.5,3.32,3.47,3.32h0.73c0.89,0,1.35,0.35,1.43,1.31
		c0.46,7.02,4.24,10.53,9.61,10.53c4.36,0,7.41-2.55,8.06-7.21h9.88c-1.04,8.87-7.79,14.58-18.29,14.58
		C128.86,57.51,120.76,50.65,120.76,36.11z"/>
	<path class="st0" d="M181.51,39.11h10.38c0.23,5.86,4.55,9.99,11.57,9.99c5.48,0,9.6-2.74,9.6-7.83c0-3.78-2.12-5.83-7.83-7.14
		l-7.37-1.66c-10.3-2.35-15.24-6.87-15.24-15.78c0-9.57,7.98-16.7,20.17-16.7c12.34,0,19.36,7.14,19.83,16.51H212.3
		c-0.19-4.59-3.39-8.22-9.8-8.22c-5.36,0-9.49,2.97-9.49,7.56c0,3.47,2.24,5.67,7.99,6.98l8.18,1.89
		c8.02,1.81,14.23,5.94,14.23,15.27c0,10.8-7.75,17.51-20.1,17.51C190.31,57.51,181.71,50.8,181.51,39.11z M203.31,32.4
		c2.16,0,3.86-1.74,3.86-3.93c0-2.12-1.74-3.9-3.86-3.9c-2.12,0-3.86,1.7-3.86,3.9S201.19,32.4,203.31,32.4z"/>
	<path class="st0" d="M234.06,45.4V23.45h-6.9v-7.56h0.81c5.13,0,7.37-2.16,7.68-8.06l0.19-3.97h7.99v9.03
		c0,0.93-0.5,1.47-1.43,1.47h-2.04c-2.12,0-3.74,1.58-3.74,3.59c0,2.12,1.62,3.74,3.74,3.74c2.01,0,3.59-1.62,3.59-3.74v-0.66
		c0-0.89,0.54-1.39,1.47-1.39h7.25v7.56h-8.83v20.91c0,3.7,2.04,4.86,5.05,4.86c1,0,2.08-0.12,3.09-0.35v7.52
		c-1.62,0.46-3.47,0.73-5.55,0.73C239.03,57.13,234.06,54,234.06,45.4z"/>
	<path class="st0" d="M257.79,43.86V15.89h9.8V42.7c0,4.4,2.28,7.1,6.75,7.1c5.21,0,8.37-4.24,8.37-11.73V15.89h9.76v40.5h-9.03
		v-3.82c0-0.85,0.46-1.31,1.23-1.31h1.85c2.08,0,3.7-1.54,3.7-3.55c0-2.04-1.47-3.55-3.51-3.55c-1.97,0-3.12,1.23-3.74,3.55
		c-1.74,6.06-5.32,9.8-12.11,9.8C262.66,57.51,257.79,52.34,257.79,43.86z"/>
	<path class="st0" d="M337.11,1.08V56.4h-9.6v-6.02c-2.31,4.59-6.56,7.14-11.96,7.14c-10.22,0-16.36-8.22-16.36-21.33
		s6.29-21.41,16.51-21.41c3.32,0,5.9,1,7.87,3.05c1.5,1.54,2.66,3.63,3.47,6.33c0.62,2.08,1.7,3.66,3.78,3.66
		c1.97,0,3.51-1.54,3.51-3.55s-1.5-3.51-3.59-3.51h-1.81c-0.85,0-1.39-0.54-1.39-1.5V1.08H337.11z M318.24,49.8
		c5.94,0,9.1-5.59,9.1-13.73c0-8.1-3.16-13.65-9.1-13.65c-5.94,0-8.95,5.55-8.95,13.65C309.29,44.21,312.3,49.8,318.24,49.8z"/>
	<path class="st0" d="M345.3,0.73h10.53v9.41H345.3V0.73z M345.65,15.89h9.8v40.5h-9.8V15.89z"/>
	<path class="st0" d="M361.91,36.11c0-13.08,7.64-21.33,19.29-21.33s19.25,8.25,19.25,21.33c0,13.12-7.6,21.41-19.25,21.41
		S361.91,49.22,361.91,36.11z M367.04,39.62c1.89,0,3.51-1.5,3.51-3.47c0-1.93-1.62-3.51-3.51-3.51c-1.93,0-3.47,1.58-3.47,3.51
		C363.56,38.11,365.11,39.62,367.04,39.62z M381.19,49.8c5.71,0,9.14-4.78,9.14-13.69c0-8.91-3.43-13.62-9.14-13.62
		s-9.14,4.74-9.14,13.62S375.48,49.8,381.19,49.8z M395.31,39.62c1.93,0,3.47-1.5,3.47-3.47c0-1.93-1.54-3.51-3.47-3.51
		s-3.47,1.58-3.47,3.51C391.84,38.11,393.38,39.62,395.31,39.62z"/>
</g>
</svg>
