<?xml version="1.0" encoding="UTF-8"?>
<svg id="_레이어_1" data-name=" 레이어 1" xmlns="http://www.w3.org/2000/svg" version="1.1" viewBox="0 0 400.4 57.5">
  <defs>
    <style>
      .cls-1 {
        fill: #fff;
        stroke-width: 0px;
      }
    </style>
  </defs>
  <path class="cls-1" d="M0,1.1h10.1v43c0,1-.5,1.6-1.6,1.6h-1.4c-2.2,0-4.1,1.8-4.1,4s1.8,4,4.1,4,4.1-1.8,4.1-4v-.6c0-1,.5-1.5,1.5-1.5h21v8.8H0V1.1Z"/>
  <path class="cls-1" d="M38.1.7h10.5v9.4h-10.5V.7ZM38.5,15.9h9.8v40.5h-9.8V15.9Z"/>
  <path class="cls-1" d="M56.8,15.9h9.1v3.8c0,.9-.5,1.3-1.3,1.3h-1.8c-2,0-3.7,1.5-3.7,3.5s1.5,3.6,3.5,3.6,3.2-1.3,3.7-3.6c1.7-6.6,5.9-9.8,12.3-9.8s8.8,2.9,10.4,7.6c2.3-4.8,6.9-7.6,13-7.6s12.5,5.6,12.5,13.9v27.7h-9.8v-27c0-4.4-2.1-7-6.1-7s-8.1,3.8-8.1,10.7v23.3h-9.8v-27c0-4.4-2.2-7-6.2-7s-8,4.2-8,11.8v22.2h-9.8V15.8h0Z"/>
  <path class="cls-1" d="M120.8,36.1c0-13.4,8.4-21.3,19.6-21.3s18.5,7.3,18.5,20.7,0,2,0,3h-24.4c-2.1,0-3.6-1.4-3.6-3.4s1.5-3.4,3.6-3.4h14.3c-.4-6.6-3.4-9.7-8.4-9.7s-8,3-9,8.4c-.2.9-.7,1.3-1.7,1.3h-.7c-2,0-3.5,1.3-3.5,3.3s1.5,3.3,3.5,3.3h.7c.9,0,1.4.3,1.4,1.3.5,7,4.2,10.5,9.6,10.5s7.4-2.5,8.1-7.2h9.9c-1,8.9-7.8,14.6-18.3,14.6s-19.5-6.9-19.5-21.4h-.1Z"/>
  <path class="cls-1" d="M181.5,39.1h10.4c.2,5.9,4.6,10,11.6,10s9.6-2.7,9.6-7.8-2.1-5.8-7.8-7.1l-7.4-1.7c-10.3-2.4-15.2-6.9-15.2-15.8S190.6,0,202.8,0s19.4,7.1,19.8,16.5h-10.3c-.2-4.6-3.4-8.2-9.8-8.2s-9.5,3-9.5,7.6,2.2,5.7,8,7l8.2,1.9c8,1.8,14.2,5.9,14.2,15.3s-7.8,17.5-20.1,17.5-21.6-6.7-21.8-18.4h0ZM203.3,32.4c2.2,0,3.9-1.7,3.9-3.9s-1.7-3.9-3.9-3.9-3.9,1.7-3.9,3.9,1.7,3.9,3.9,3.9Z"/>
  <path class="cls-1" d="M234.1,45.4v-22h-6.9v-7.6h.8c5.1,0,7.4-2.2,7.7-8.1l.2-4h8v9c0,.9-.5,1.5-1.4,1.5h-2c-2.1,0-3.7,1.6-3.7,3.6s1.6,3.7,3.7,3.7,3.6-1.6,3.6-3.7v-.7c0-.9.5-1.4,1.5-1.4h7.2v7.6h-8.8v20.9c0,3.7,2,4.9,5.1,4.9s2.1,0,3.1-.3v7.5c-1.6.5-3.5.7-5.6.7-7.4,0-12.4-3.1-12.4-11.7h-.1Z"/>
  <path class="cls-1" d="M257.8,43.9V15.9h9.8v26.8c0,4.4,2.3,7.1,6.8,7.1s8.4-4.2,8.4-11.7V15.9h9.8v40.5h-9v-3.8c0-.8.5-1.3,1.2-1.3h1.9c2.1,0,3.7-1.5,3.7-3.5s-1.5-3.5-3.5-3.5-3.1,1.2-3.7,3.5c-1.7,6.1-5.3,9.8-12.1,9.8s-13.1-5.2-13.1-13.6h-.2Z"/>
  <path class="cls-1" d="M337.1,1.1v55.3h-9.6v-6c-2.3,4.6-6.6,7.1-12,7.1-10.2,0-16.4-8.2-16.4-21.3s6.3-21.4,16.5-21.4,5.9,1,7.9,3,2.7,3.6,3.5,6.3c.6,2.1,1.7,3.7,3.8,3.7s3.5-1.5,3.5-3.5-1.5-3.5-3.6-3.5h-1.8c-.9,0-1.4-.5-1.4-1.5V1.1h9.6ZM318.2,49.8c5.9,0,9.1-5.6,9.1-13.7s-3.2-13.6-9.1-13.6-9,5.6-9,13.6,3,13.7,9,13.7Z"/>
  <path class="cls-1" d="M345.3.7h10.5v9.4h-10.5V.7ZM345.6,15.9h9.8v40.5h-9.8V15.9Z"/>
  <path class="cls-1" d="M361.9,36.1c0-13.1,7.6-21.3,19.3-21.3s19.2,8.2,19.2,21.3-7.6,21.4-19.2,21.4-19.3-8.3-19.3-21.4ZM367,39.6c1.9,0,3.5-1.5,3.5-3.5s-1.6-3.5-3.5-3.5-3.5,1.6-3.5,3.5,1.5,3.5,3.5,3.5ZM381.2,49.8c5.7,0,9.1-4.8,9.1-13.7s-3.4-13.6-9.1-13.6-9.1,4.7-9.1,13.6,3.4,13.7,9.1,13.7ZM395.3,39.6c1.9,0,3.5-1.5,3.5-3.5s-1.5-3.5-3.5-3.5-3.5,1.6-3.5,3.5,1.5,3.5,3.5,3.5Z"/>
</svg>