<?xml version="1.0" encoding="UTF-8"?>
<svg id="_레이어_1" data-name="레이어_1" xmlns="http://www.w3.org/2000/svg" viewBox="0 0 962.75 169.98">
  <defs>
    <style>
      .cls-1 {
        fill: #fff;
      }

      .cls-2 {
        fill: #fcffff;
      }
    </style>
  </defs>
  <g>
    <path class="cls-1" d="M367.15,79.87v3.59h14.31v3.86h-33.39v-3.86h14.2v-3.59h-9.75v-12.87h24.77v3.9h-19.93v5.15h20.2v3.82h-10.41ZM364.81,103.16c-8.19,0-12.87-2.65-12.87-6.9s4.68-6.9,12.83-6.9,12.87,2.69,12.87,6.9-4.68,6.9-12.83,6.9ZM364.77,93.21c-4.8,0-7.88,1.17-7.88,3.08s3.08,3,7.88,3,7.92-1.09,7.92-3-3.12-3.08-7.92-3.08Z"/>
    <path class="cls-1" d="M407.68,93.68c-3.51.43-8.54.86-12.48,1.05-4.1.2-8.5.35-11.62.31l-.7-4.17c4.29,0,7.84-.04,12.01-.2,4.64-.16,9.09-.51,12.4-.9l.39,3.9ZM394.58,68.52c6.28,0,10.26,3.71,10.26,8.89s-3.98,8.85-10.26,8.85-10.3-3.71-10.3-8.85,4.06-8.89,10.3-8.89ZM394.58,82.21c3.35,0,5.34-2.11,5.34-4.84s-1.99-4.76-5.34-4.76-5.3,2.11-5.3,4.76,1.99,4.84,5.3,4.84ZM414.04,103.12h-4.8v-36.97h4.8v36.97Z"/>
    <path class="cls-1" d="M443.83,103.08v-8.7h-14.2v-3.86h33.39v3.86h-14.35v8.7h-4.84ZM431.59,75.97v-3.82h29.56v3.82h-29.56ZM446.41,89.08c-7.41,0-11.9-2.22-11.9-5.89s4.49-5.93,11.9-5.93,11.9,2.22,11.9,5.93-4.49,5.89-11.9,5.89ZM446.41,80.93c-3.86,0-6.86.82-6.86,2.26s3,2.22,6.86,2.22,6.9-.82,6.9-2.22-3.04-2.26-6.9-2.26ZM439.74,66.65h13.22v3.78h-13.22v-3.78Z"/>
    <path class="cls-1" d="M491.92,94.58c-2.42-1.52-5.54-5.3-6.43-8.58-.9,3.43-4.02,7.72-7.02,9.4l-2.92-3.28c5.26-3.47,7.61-8.74,7.61-16.03v-1.79h-6.2v-3.86h16.65v3.86h-5.77v1.68c0,7.25,2.42,12.52,6.82,15.13l-2.73,3.47ZM495.98,101.4v-18.53h-4.8v-3.98h4.8v-12.05h4.53v34.55h-4.53ZM503.31,103.12v-36.97h4.6v36.97h-4.6Z"/>
    <path class="cls-1" d="M515.45,102.88v-8.62h20.55v-1.68h-20.55v-3.59h10.41v-1.75h-14.2v-3.63h33.39v3.63h-14.35v1.75h10.14v8.62h-20.52v1.68h21.96v3.59h-26.83ZM541.73,82.68c-5.42-.39-11.19-2.34-13.38-5.23-2.14,2.92-7.53,4.91-13.42,5.23l-1.95-3.82c5.66.04,10.53-1.48,12.29-3.74h-10.33v-3.67h26.79v3.67h-10.18c1.83,2.22,6.87,3.71,12.05,3.74l-1.87,3.82ZM522.2,66.42h12.29v3.63h-12.29v-3.63Z"/>
    <path class="cls-1" d="M547.08,78.82v-3.86h21.45v3.86h-21.45ZM557.81,80.11c5.3,0,8.93,3.32,8.93,7.96s-3.63,7.96-8.93,7.96-8.93-3.28-8.93-7.96,3.63-7.96,8.93-7.96ZM552.27,68.56h11.39v3.82h-11.39v-3.82ZM557.81,92.08c2.69,0,4.21-1.6,4.21-4.02s-1.79-4.06-4.21-4.06-4.17,1.6-4.17,4.06,1.71,4.02,4.17,4.02ZM576.14,81.12h5.15v4.02h-5.15v17.98h-4.88v-36.97h4.88v14.98Z"/>
    <path class="cls-1" d="M600.48,70.01c-.27,11.15-5.22,20.28-16.5,26.44l-3-3.67c8.11-3.67,13.61-11.39,14.28-18.76h-12.01v-4.02h17.24ZM606.99,103.12v-36.97h4.88v36.97h-4.88Z"/>
  </g>
  <path class="cls-2" d="M877.76,1c46.31,0,83.99,37.68,83.99,83.99s-37.68,83.99-83.99,83.99H84.99C38.68,168.98,1,131.3,1,84.99S38.68,1,84.99,1h792.77M877.76,0H84.99C38.05,0,0,38.05,0,84.99h0c0,46.94,38.05,84.99,84.99,84.99h792.77c46.94,0,84.99-38.05,84.99-84.99h0c0-46.94-38.05-84.99-84.99-84.99h0Z"/>
</svg>