<?xml version="1.0" encoding="UTF-8"?>
<svg id="_레이어_1" data-name="레이어_1" xmlns="http://www.w3.org/2000/svg" viewBox="0 0 962.75 169.98">
  <defs>
    <style>
      .cls-1 {
        fill: #fff;
      }

      .cls-2 {
        fill: #fcffff;
      }
    </style>
  </defs>
  <g>
    <path class="cls-1" d="M448.1,86.27v1.25h14.35v3.82h-33.38v-3.82h14.2v-1.29c-6.24-.39-9.13-2.34-9.13-5.03,0-3.08,3.67-5.15,11.66-5.15s11.62,2.07,11.62,5.15c0,2.73-2.96,4.68-9.32,5.07ZM431.14,75.15v-3.67h29.25v3.67h-29.25ZM433.32,102.92v-10.06h24.88v10.06h-24.88ZM453.33,96.45h-15.13v3h15.13v-3ZM445.8,79.4c-4.64,0-6.71.7-6.71,1.79s2.07,1.79,6.71,1.79,6.67-.7,6.67-1.79-2.03-1.79-6.67-1.79ZM439.29,66.53h12.99v3.59h-12.99v-3.59Z"/>
    <path class="cls-1" d="M464.03,98.28v-3.82h33.39v3.82h-33.39ZM480.77,87.95c-8.19,0-13.57-3.94-13.57-9.59s5.38-9.59,13.57-9.59,13.57,3.94,13.57,9.59-5.38,9.59-13.57,9.59ZM480.77,72.7c-5.19,0-8.58,2.3-8.58,5.69s3.39,5.69,8.58,5.69,8.58-2.3,8.58-5.69-3.35-5.69-8.58-5.69Z"/>
    <path class="cls-1" d="M519.31,88.88v5.77h14.35v3.86h-33.38v-3.86h14.2v-5.77h-9.95v-12.25h20.09v-4.25h-20.28v-3.86h25.12v11.97h-20.09v4.49h21.14v3.9h-11.19Z"/>
  </g>
  <path class="cls-2" d="M877.76,1c46.31,0,83.99,37.68,83.99,83.99s-37.68,83.99-83.99,83.99H84.99C38.68,168.98,1,131.3,1,84.99S38.68,1,84.99,1h792.77M877.76,0H84.99C38.05,0,0,38.05,0,84.99h0c0,46.94,38.05,84.99,84.99,84.99h792.77c46.94,0,84.99-38.05,84.99-84.99h0c0-46.94-38.05-84.99-84.99-84.99h0Z"/>
</svg>