<?xml version="1.0" encoding="UTF-8"?>
<svg id="_레이어_1" data-name="레이어_1" xmlns="http://www.w3.org/2000/svg" viewBox="0 0 962.75 169.98">
  <defs>
    <style>
      .cls-1 {
        fill: #fff;
      }

      .cls-2 {
        fill: #fcffff;
      }
    </style>
  </defs>
  <g>
    <path class="cls-1" d="M427.74,94.58c-2.42-1.52-5.54-5.3-6.43-8.58-.9,3.43-4.02,7.72-7.02,9.4l-2.92-3.28c5.26-3.47,7.6-8.74,7.6-16.03v-1.79h-6.2v-3.86h16.65v3.86h-5.77v1.68c0,7.25,2.42,12.52,6.83,15.13l-2.73,3.47ZM431.79,101.4v-18.53h-4.8v-3.98h4.8v-12.05h4.53v34.55h-4.53ZM439.13,103.12v-36.97h4.6v36.97h-4.6Z"/>
    <path class="cls-1" d="M451.26,102.88v-8.62h20.55v-1.68h-20.55v-3.59h10.41v-1.75h-14.2v-3.63h33.38v3.63h-14.35v1.75h10.14v8.62h-20.51v1.68h21.96v3.59h-26.83ZM477.55,82.68c-5.42-.39-11.19-2.34-13.38-5.23-2.15,2.92-7.53,4.91-13.42,5.23l-1.95-3.82c5.66.04,10.53-1.48,12.29-3.74h-10.33v-3.67h26.79v3.67h-10.18c1.83,2.22,6.86,3.71,12.05,3.74l-1.87,3.82ZM458.01,66.42h12.29v3.63h-12.29v-3.63Z"/>
    <path class="cls-1" d="M482.9,78.82v-3.86h21.45v3.86h-21.45ZM493.63,80.11c5.3,0,8.93,3.32,8.93,7.96s-3.63,7.96-8.93,7.96-8.93-3.28-8.93-7.96,3.63-7.96,8.93-7.96ZM488.09,68.56h11.39v3.82h-11.39v-3.82ZM493.63,92.08c2.69,0,4.21-1.6,4.21-4.02s-1.79-4.06-4.21-4.06-4.17,1.6-4.17,4.06,1.72,4.02,4.17,4.02ZM511.96,81.12h5.15v4.02h-5.15v17.98h-4.88v-36.97h4.88v14.98Z"/>
    <path class="cls-1" d="M536.29,70.01c-.27,11.15-5.23,20.28-16.5,26.44l-3-3.67c8.11-3.67,13.61-11.39,14.28-18.76h-12.01v-4.02h17.24ZM542.81,103.12v-36.97h4.88v36.97h-4.88Z"/>
  </g>
  <path class="cls-2" d="M877.76,1c46.31,0,83.99,37.68,83.99,83.99s-37.68,83.99-83.99,83.99H84.99C38.68,168.98,1,131.3,1,84.99S38.68,1,84.99,1h792.77M877.76,0H84.99C38.05,0,0,38.05,0,84.99h0c0,46.94,38.05,84.99,84.99,84.99h792.77c46.94,0,84.99-38.05,84.99-84.99h0c0-46.94-38.05-84.99-84.99-84.99h0Z"/>
</svg>