<?xml version="1.0" encoding="UTF-8"?>
<svg id="_레이어_1" data-name="레이어_1" xmlns="http://www.w3.org/2000/svg" viewBox="0 0 962.75 169.98">
  <defs>
    <style>
      .cls-1 {
        fill: #fff;
      }

      .cls-2 {
        fill: #fcffff;
      }
    </style>
  </defs>
  <g>
    <path class="cls-1" d="M427.57,89.82c-1.21,3.31-3.39,5.62-6.83,5.62-5.73,0-8-6.51-8-13.3s2.26-13.18,8-13.18c3.35,0,5.54,2.22,6.75,5.38h4.45v-7.49h4.52v34.55h-4.52v-11.58h-4.37ZM420.79,73.16c-2.42,0-3.43,4.06-3.43,9.01s1.01,8.97,3.43,8.97,3.47-4.02,3.47-8.97-.98-9.01-3.47-9.01ZM428.51,85.92h3.43v-7.68h-3.43c.2,1.29.27,2.61.27,3.94s-.08,2.54-.27,3.74ZM439.23,103.12v-36.97h4.6v36.97h-4.6Z"/>
    <path class="cls-1" d="M463.74,93.48h-14.98v-22.89h14.98v22.89ZM459.17,74.33h-5.85v15.44h5.85v-15.44ZM474.42,103.12v-18.53h-2.96v16.81h-4.56v-34.59h4.56v13.88h2.96v-14.55h4.64v36.97h-4.64Z"/>
    <path class="cls-1" d="M482.76,78.82v-3.86h21.45v3.86h-21.45ZM493.49,80.11c5.3,0,8.93,3.32,8.93,7.96s-3.63,7.96-8.93,7.96-8.93-3.28-8.93-7.96,3.63-7.96,8.93-7.96ZM487.95,68.56h11.39v3.82h-11.39v-3.82ZM493.49,92.08c2.69,0,4.21-1.6,4.21-4.02s-1.79-4.06-4.21-4.06-4.17,1.6-4.17,4.06,1.72,4.02,4.17,4.02ZM511.82,81.12h5.15v4.02h-5.15v17.98h-4.88v-36.97h4.88v14.98Z"/>
    <path class="cls-1" d="M536.15,70.01c-.27,11.15-5.23,20.28-16.5,26.44l-3-3.67c8.11-3.67,13.61-11.39,14.28-18.76h-12.01v-4.02h17.24ZM542.67,103.12v-36.97h4.88v36.97h-4.88Z"/>
  </g>
  <path class="cls-2" d="M877.76,1c46.31,0,83.99,37.68,83.99,83.99s-37.68,83.99-83.99,83.99H84.99C38.68,168.98,1,131.3,1,84.99S38.68,1,84.99,1h792.77M877.76,0H84.99C38.05,0,0,38.05,0,84.99h0c0,46.94,38.05,84.99,84.99,84.99h792.77c46.94,0,84.99-38.05,84.99-84.99h0c0-46.94-38.05-84.99-84.99-84.99h0Z"/>
</svg>