<?xml version="1.0" encoding="UTF-8"?>
<svg xmlns="http://www.w3.org/2000/svg" viewBox="0 0 967 574.97">
  <defs>
    <style>
      .cls-1 {
        fill: #727272;
      }

      .cls-2 {
        fill: none;
        stroke: #fff;
        stroke-miterlimit: 10;
      }

      .cls-3 {
        fill: #fff;
      }
    </style>
  </defs>
  <g id="_레이어_2" data-name="레이어_2">
    <rect x="-.02" width="967.04" height="574.97"/>
  </g>
  <g id="_레이어_1" data-name="레이어_1">
    <g>
      <path class="cls-3" d="M2.68,3.11h10.09c0,8.41-2.7,12.59-8.74,16.15-.66-.86-1.57-1.84-2.43-2.57,4.56-1.28,7.7-6.11,7.7-10.8H2.68v-2.79ZM18.23,1.32c1.42,0,1.77.09,1.77.35s-.38.73-.38,1.46v7.26h2.77v2.81h-2.77v8.85h-3.19V1.32h1.79Z"/>
      <path class="cls-3" d="M23.62,10.28h20.73v2.7h-20.73v-2.7ZM42.84,18.38c0,2.06-2.57,3.94-8.87,3.94s-8.74-1.88-8.74-3.94,2.59-3.94,8.74-3.94,8.87,1.9,8.87,3.94ZM27.84,1.56c1.15,0,1.42.07,1.42.29,0,.2-.2.53-.2,1.04v2.68h13.39v2.65h-16.59V1.56h1.99ZM28.53,18.4c0,.95,1.48,1.79,5.44,1.79s5.58-.84,5.58-1.79-1.44-1.64-5.58-1.64-5.44.71-5.44,1.64Z"/>
      <path class="cls-3" d="M53.27,1.85c1.08,0,1.35.11,1.35.38s-.31.69-.31,1.31c0,2.32,1.7,5.97,5.24,7.54-.82.64-1.64,1.48-2.3,2.32-1.84-1.13-3.78-3.25-4.34-5.07-.51,1.92-2.06,3.98-4.65,5.62-.6-.66-1.62-1.55-2.48-2.15,3.36-1.62,5.51-4.4,5.51-9.96h1.97ZM50.24,14.88c1.26,0,1.57.11,1.57.38,0,.24-.27.6-.27,1.13v2.43h13.54v2.7h-16.73v-6.64h1.88ZM63.4,1.32c1.48,0,1.84.09,1.84.35s-.38.73-.38,1.5v13.21h-3.21v-7.61h-3.58v-2.63h3.58V1.32h1.75Z"/>
      <path class="cls-3" d="M95.83,13.3c2.33-1.52,3.52-2.54,3.52-4.22,0-1.48-.97-2.43-2.42-2.43-1.73,0-2.7,1.31-2.73,2.84h-2.92c.09-2.9,2.28-5.17,5.68-5.17,3.21,0,5.27,2.01,5.27,4.76s-1.77,4.16-4.7,6.09c-.96.64-1.54,1.15-2.04,1.62-.31.27-.55.3-.9.3h-.1c-.66,0-1.1.5-1.1,1.05s.45,1.02,1.03,1.02,1.04-.45,1.04-1v-.14c0-.24.18-.39.42-.39h6.73v2.48h-11.47c.08-3.13,1.85-4.93,4.69-6.81Z"/>
      <path class="cls-3" d="M104.58,12.36c0-4.92,2.23-8.05,5.94-8.05s5.93,3.13,5.93,8.05-2.24,8.06-5.93,8.06-5.94-3.14-5.94-8.06ZM106.03,13.35c.57,0,1-.44,1-1s-.43-1.02-1-1.02-1,.44-1,1.02.44,1,1,1ZM110.53,18.03c1.95,0,3.04-1.86,3.04-5.67s-1.09-5.66-3.04-5.66-3.06,1.85-3.06,5.66,1.1,5.67,3.06,5.67ZM115.01,13.35c.56,0,1-.44,1-1s-.44-1.02-1-1.02-1,.44-1,1.02.44,1,1,1Z"/>
      <path class="cls-3" d="M123.05,13.3c2.33-1.52,3.52-2.54,3.52-4.22,0-1.48-.97-2.43-2.42-2.43-1.73,0-2.7,1.31-2.73,2.84h-2.92c.09-2.9,2.28-5.17,5.68-5.17,3.21,0,5.27,2.01,5.27,4.76s-1.77,4.16-4.7,6.09c-.96.64-1.54,1.15-2.04,1.62-.31.27-.55.3-.9.3h-.1c-.66,0-1.1.5-1.1,1.05s.45,1.02,1.03,1.02,1.04-.45,1.04-1v-.14c0-.24.18-.39.42-.39h6.73v2.48h-11.47c.08-3.13,1.85-4.93,4.69-6.81Z"/>
      <path class="cls-3" d="M138.87,16.78h-7.58v-2.3l6.77-9.86h3.5v9.82h2.45v2.34h-2.45v3.33h-2.69v-3.33ZM138.29,14.43c.3,0,.45.15.45.45v.19c0,.59.49,1.07,1.07,1.07s1.1-.44,1.1-1.07-.5-1.08-1.1-1.08h-.49c-.29,0-.45-.16-.45-.45v-6.19l-4.83,7.08h4.25Z"/>
      <path class="cls-3" d="M145.54,17.09h2.97v3.01h-2.97v-3.01Z"/>
      <path class="cls-3" d="M157.93,9.67h.37c.62,0,1.09-.48,1.09-1.08s-.48-1.09-1.09-1.09c-.58,0-1.08.48-1.08,1.09v.21c0,.28-.15.42-.51.42h-2.45v-2.13c2.15-.05,3.44-.92,3.57-2.47h2.4v15.49h-2.77v-9.94c0-.32.13-.5.48-.5Z"/>
      <path class="cls-3" d="M162.98,12.36c0-4.92,2.23-8.05,5.94-8.05s5.93,3.13,5.93,8.05-2.24,8.06-5.93,8.06-5.94-3.14-5.94-8.06ZM164.43,13.35c.57,0,1-.44,1-1s-.43-1.02-1-1.02-1,.44-1,1.02.44,1,1,1ZM168.93,18.03c1.94,0,3.04-1.86,3.04-5.67s-1.09-5.66-3.04-5.66-3.06,1.85-3.06,5.66,1.1,5.67,3.06,5.67ZM173.41,13.35c.56,0,1-.44,1-1s-.44-1.02-1-1.02-1,.44-1,1.02.44,1,1,1Z"/>
      <path class="cls-3" d="M176.53,17.09h2.97v3.01h-2.97v-3.01Z"/>
      <path class="cls-3" d="M188.91,9.67h.37c.62,0,1.09-.48,1.09-1.08s-.48-1.09-1.09-1.09c-.58,0-1.08.48-1.08,1.09v.21c0,.28-.15.42-.51.42h-2.45v-2.13c2.15-.05,3.44-.92,3.57-2.47h2.4v15.49h-2.77v-9.94c0-.32.13-.5.48-.5Z"/>
      <path class="cls-3" d="M194.06,15.93h2.88c.12,1.25,1.02,2.13,2.55,2.13,1.63,0,2.96-1.13,3.25-4.1.04-.39.23-.58.62-.58h.29c.64,0,1.09-.44,1.09-1.05s-.46-1.05-1.05-1.05-.98.41-1.17,1.13c-.42,1.52-2.03,2.31-3.68,2.31-2.95,0-4.89-2.03-4.89-5.05,0-3.22,2.28-5.41,5.62-5.41,3.99,0,6.1,3.09,6.1,7.75,0,5.25-2.14,8.36-6.33,8.36-3,0-5.1-1.65-5.28-4.44ZM199.54,12.42c1.61,0,2.74-1.18,2.74-2.87s-1.12-2.87-2.74-2.87-2.72,1.2-2.72,2.87,1.09,2.87,2.72,2.87Z"/>
      <path class="cls-3" d="M207.33,17.09h2.97v3.01h-2.97v-3.01Z"/>
      <path class="cls-3" d="M1,33.66h12.68v2.58h-4.54c-.3,0-.44-.16-.44-.42v-.06c0-.77-.59-1.36-1.37-1.36s-1.36.59-1.36,1.36v.06c0,.26-.14.42-.44.42H1v-2.58ZM7.36,35.94c.79,0,1.4.62,1.4,1.43v11.79h-2.82v-11.79c0-.81.62-1.43,1.42-1.43Z"/>
      <path class="cls-3" d="M15.35,33.66h2.67v5.08c0,.31-.17.5-.49.5h-.51c-.57,0-1.04.42-1.04.99s.41,1,.98,1,.88-.36,1.06-1c.53-1.72,1.6-2.73,3.5-2.73,2.2,0,3.53,1.53,3.53,3.87v7.79h-2.74v-7.53c0-1.25-.64-1.98-1.85-1.98-1.48,0-2.38,1.18-2.38,3.36v6.15h-2.74v-15.49Z"/>
      <path class="cls-3" d="M27.76,33.56h2.95v2.64h-2.95v-2.64ZM27.86,37.81h2.74v11.34h-2.74v-11.34Z"/>
      <path class="cls-3" d="M33.48,33.66h2.74v15.49h-2.74v-15.49Z"/>
      <path class="cls-3" d="M38.45,46.06c0-2.19,1.42-3.21,3.61-3.54l1.9-.29c1.2-.18,1.69-.45,1.69-1.2s-.58-1.51-1.9-1.51-2.08.7-2.15,1.84h-2.84c.09-2.25,2.01-3.86,4.96-3.86s4.7,1.59,4.7,4.22v4.82c0,.93.13,2.02.44,2.27v.35h-2.86c-.11-.42-.19-.95-.25-1.51-.67,1.04-1.92,1.83-3.58,1.83-2.11,0-3.72-1.29-3.72-3.4ZM43.07,47.37c1.65,0,2.54-1.18,2.64-2.72v-.21c.04-.3.23-.45.53-.45h.24c.55,0,1.02-.43,1.02-1.02s-.44-1-1.02-1-1.04.42-1.04,1.02v.17c0,.41-.19.62-.69.71l-.5.1-1.12.23c-1.22.25-1.85.73-1.85,1.69s.77,1.49,1.79,1.49Z"/>
      <path class="cls-3" d="M55.36,41.48c0-5.03,2.73-8.12,7.16-8.12,3.45,0,6.08,1.97,6.28,5.51h-2.95c-.16-1.99-1.5-3.09-3.37-3.09-2.64,0-4.19,1.98-4.19,5.57s1.6,5.69,4.17,5.69c2.13,0,3.09-1.57,3.33-2.79.06-.32.28-.42.6-.42h.38c.59,0,1.09-.5,1.09-1.09s-.5-1.08-1.09-1.08c-.63,0-1.1.46-1.1,1.08v.14c0,.3-.15.43-.49.43h-2.65v-2.21h6.23v8.05h-2.44v-2c-.9,1.5-2.34,2.31-4.44,2.31-3.89,0-6.52-2.77-6.52-7.98ZM56.85,42.45c.58,0,1.05-.46,1.05-1.05s-.46-1.05-1.05-1.05-1.06.46-1.06,1.05.46,1.05,1.06,1.05Z"/>
      <path class="cls-3" d="M71.63,37.81h2.55v1.07c0,.18-.15.36-.36.36h-.42c-.55,0-1.04.4-1.04.99,0,.56.41,1,.97,1s.85-.41.99-1c.12-.49.31-.92.56-1.27.58-.88,1.52-1.36,2.75-1.36.22,0,.42.02.56.05v2.67c-.28-.06-.56-.1-.88-.1-1.67,0-2.96,1.09-2.96,3.44v5.5h-2.74v-11.34Z"/>
      <path class="cls-3" d="M79.03,43.47c0-3.66,2.14-5.97,5.4-5.97s5.39,2.31,5.39,5.97-2.13,6-5.39,6-5.4-2.32-5.4-6ZM80.46,44.45c.53,0,.98-.42.98-.97s-.45-.98-.98-.98-.97.44-.97.98.43.97.97.97ZM84.43,47.31c1.6,0,2.56-1.34,2.56-3.84s-.96-3.81-2.56-3.81-2.56,1.33-2.56,3.81.96,3.84,2.56,3.84ZM88.38,44.45c.54,0,.97-.42.97-.97s-.43-.98-.97-.98-.97.44-.97.98.43.97.97.97Z"/>
      <path class="cls-3" d="M92.02,45.64v-7.83h2.74v7.51c0,1.23.64,1.99,1.89,1.99,1.46,0,2.34-1.19,2.34-3.28v-6.21h2.73v11.34h-2.53v-1.07c0-.24.13-.37.35-.37h.52c.58,0,1.04-.43,1.04-.99s-.41-.99-.98-.99-.88.35-1.05.99c-.49,1.7-1.49,2.74-3.39,2.74-2.3,0-3.66-1.45-3.66-3.82Z"/>
      <path class="cls-3" d="M104.61,37.81h2.54v1.06c0,.24-.14.37-.36.37h-.52c-.57,0-1.03.42-1.03.99s.41,1,.97,1,.88-.36,1.04-1c.49-1.74,1.54-2.73,3.48-2.73,2.25,0,3.59,1.56,3.59,3.89v7.77h-2.74v-7.53c0-1.25-.64-1.98-1.85-1.98-1.49,0-2.38,1.18-2.38,3.36v6.15h-2.74v-11.34Z"/>
      <path class="cls-3" d="M127.17,33.66v15.49h-2.69v-1.69c-.65,1.29-1.84,2-3.35,2-2.86,0-4.58-2.3-4.58-5.97s1.76-6,4.62-6c.93,0,1.65.28,2.2.85.42.43.75,1.02.97,1.77.17.58.48,1.03,1.06,1.03.55,0,.98-.43.98-.99s-.42-.98-1-.98h-.51c-.24,0-.39-.15-.39-.42v-5.09h2.68ZM121.88,47.31c1.66,0,2.55-1.57,2.55-3.85s-.89-3.82-2.55-3.82-2.51,1.56-2.51,3.82.84,3.85,2.51,3.85Z"/>
      <path class="cls-3" d="M134.22,32.75h3.54c1.87,0,3.01,1.1,3.01,2.85s-1.2,2.87-3,2.87h-1.41c-.39,0-.71-.3-.71-.69s.32-.71.71-.71h1.08c1.07,0,1.68-.5,1.68-1.47s-.62-1.46-1.69-1.46h-1.17c-.16,0-.26-.1-.26-.26v-.06c0-.35-.29-.64-.64-.64s-.64.28-.64.64.28.63.64.63h.21c.18,0,.29.12.29.28v2.08c0,.18-.11.28-.29.28h-.18c-.38,0-.68.3-.68.68s.3.67.68.67h.21c.17,0,.26.11.26.26v3.06h-1.64v-9.04Z"/>
      <path class="cls-3" d="M141.55,38.47c0-2.19,1.37-3.48,3.2-3.48s3.02,1.19,3.02,3.38c0,.17,0,.33,0,.49h-3.99c-.34,0-.58-.23-.58-.55s.24-.55.58-.55h2.34c-.06-1.08-.55-1.58-1.37-1.58-.76,0-1.3.49-1.47,1.37-.03.15-.11.21-.28.21h-.11c-.32,0-.57.22-.57.54s.25.54.57.54h.12c.14,0,.22.06.23.21.08,1.15.69,1.72,1.57,1.72.71,0,1.21-.42,1.32-1.18h1.61c-.17,1.45-1.27,2.38-2.99,2.38-1.87,0-3.2-1.12-3.2-3.5Z"/>
      <path class="cls-3" d="M149.13,35.17h1.49v.62c0,.11-.09.21-.21.21h-.25c-.32,0-.61.23-.61.58,0,.33.24.59.57.59s.5-.24.58-.59c.07-.28.18-.54.33-.74.34-.51.89-.79,1.61-.79.13,0,.25.01.33.03v1.56c-.16-.04-.33-.06-.51-.06-.98,0-1.73.64-1.73,2v3.21h-1.6v-6.62Z"/>
      <path class="cls-3" d="M154.52,36.4h-1.05v-1.24h1.05v-1.05c0-.95.58-1.56,1.63-1.56h1.27v1.17h-.83c-.33,0-.48.2-.48.5v.52c0,.11-.08.2-.2.2h-.3c-.34,0-.61.27-.61.61s.27.62.61.62.62-.27.62-.62v-.19c0-.11.09-.2.2-.2h.98v1.24h-1.3v5.38h-1.6v-5.38Z"/>
      <path class="cls-3" d="M158,38.47c0-2.14,1.25-3.48,3.15-3.48s3.14,1.35,3.14,3.48-1.24,3.5-3.14,3.5-3.15-1.35-3.15-3.5ZM158.84,39.04c.31,0,.57-.25.57-.57s-.26-.57-.57-.57-.57.26-.57.57.25.57.57.57ZM161.16,40.7c.93,0,1.49-.78,1.49-2.24s-.56-2.22-1.49-2.22-1.49.78-1.49,2.22.56,2.24,1.49,2.24ZM163.46,39.04c.31,0,.57-.25.57-.57s-.25-.57-.57-.57-.57.26-.57.57.25.57.57.57Z"/>
      <path class="cls-3" d="M165.63,35.17h1.49v.62c0,.11-.09.21-.21.21h-.25c-.32,0-.61.23-.61.58,0,.33.24.59.57.59s.5-.24.58-.59c.07-.28.18-.54.33-.74.34-.51.89-.79,1.61-.79.13,0,.25.01.33.03v1.56c-.16-.04-.33-.06-.51-.06-.98,0-1.73.64-1.73,2v3.21h-1.6v-6.62Z"/>
      <path class="cls-3" d="M170.52,35.17h1.48v.62c0,.14-.08.21-.21.21h-.3c-.33,0-.6.25-.6.58s.24.59.57.59.52-.21.6-.59c.28-1.08.96-1.59,2-1.59.82,0,1.44.47,1.71,1.24.38-.78,1.12-1.24,2.13-1.24,1.3,0,2.05.91,2.05,2.27v4.53h-1.59v-4.4c0-.73-.34-1.14-.99-1.14-.79,0-1.33.62-1.33,1.75v3.8h-1.6v-4.4c0-.73-.35-1.14-1.01-1.14-.82,0-1.31.68-1.31,1.92v3.62h-1.6v-6.62Z"/>
      <path class="cls-3" d="M181.21,39.98c0-1.28.83-1.87,2.1-2.07l1.11-.17c.7-.11.98-.26.98-.7s-.34-.88-1.11-.88-1.22.41-1.25,1.07h-1.66c.05-1.31,1.17-2.25,2.89-2.25s2.74.93,2.74,2.46v2.81c0,.54.08,1.18.26,1.32v.2h-1.67c-.06-.25-.11-.55-.14-.88-.39.6-1.12,1.06-2.09,1.06-1.23,0-2.17-.75-2.17-1.98ZM183.91,40.74c.96,0,1.48-.69,1.54-1.59v-.12c.02-.18.13-.26.31-.26h.14c.32,0,.59-.25.59-.59s-.26-.59-.59-.59-.61.25-.61.59v.1c0,.24-.11.36-.4.42l-.29.06-.66.13c-.71.15-1.08.43-1.08.98s.45.87,1.05.87Z"/>
      <path class="cls-3" d="M188.64,35.17h1.48v.62c0,.14-.08.21-.21.21h-.3c-.33,0-.6.25-.6.58s.24.59.57.59.51-.21.6-.59c.28-1.01.9-1.59,2.03-1.59,1.31,0,2.09.91,2.09,2.27v4.53h-1.6v-4.39c0-.73-.37-1.15-1.08-1.15-.87,0-1.39.69-1.39,1.96v3.59h-1.6v-6.62Z"/>
      <path class="cls-3" d="M195.59,38.5c0-2.22,1.29-3.52,3.09-3.52,1.61,0,2.79.88,2.91,2.63h-1.64c-.04-.92-.54-1.38-1.24-1.38-.88,0-1.46.73-1.46,2.23s.56,2.24,1.45,2.24c.68,0,1.18-.45,1.25-1.39h1.64c-.15,1.76-1.34,2.65-2.92,2.65-1.84,0-3.08-1.22-3.08-3.47ZM196.42,39.05c.31,0,.58-.25.58-.57s-.26-.58-.58-.58-.57.26-.57.58.25.57.57.57Z"/>
      <path class="cls-3" d="M202.52,38.47c0-2.19,1.37-3.48,3.2-3.48s3.02,1.19,3.02,3.38c0,.17,0,.33,0,.49h-3.99c-.34,0-.58-.23-.58-.55s.24-.55.58-.55h2.34c-.06-1.08-.55-1.58-1.37-1.58-.76,0-1.3.49-1.47,1.37-.03.15-.11.21-.28.21h-.11c-.32,0-.57.22-.57.54s.25.54.57.54h.12c.14,0,.22.06.23.21.08,1.15.69,1.72,1.57,1.72.71,0,1.21-.42,1.32-1.18h1.61c-.17,1.45-1.27,2.38-2.99,2.38-1.87,0-3.2-1.12-3.2-3.5Z"/>
      <path class="cls-3" d="M218.07,38.72h.37c.62,0,1.09-.48,1.09-1.08s-.48-1.09-1.09-1.09c-.58,0-1.08.48-1.08,1.09v.21c0,.28-.15.42-.51.42h-2.45v-2.13c2.15-.05,3.44-.92,3.57-2.47h2.4v15.49h-2.77v-9.94c0-.32.13-.5.48-.5Z"/>
      <path class="cls-3" d="M229.35,37.23c.26-.33.58-.58.99-.58h.35c.63,0,1.11-.5,1.11-1.11s-.49-1.1-1.11-1.1-1.1.49-1.1,1.1v.09c0,.32-.17.51-.54.51h-6.56v-2.46h10.48v2.88c-2.37,2.21-5.1,6.29-5.28,12.61h-2.9c.24-5.94,2.72-9.66,4.56-11.93Z"/>
      <path class="cls-3" d="M234.72,37.95h2.97v3.01h-2.97v-3.01ZM234.72,46.14h2.97v3.01h-2.97v-3.01Z"/>
      <path class="cls-3" d="M239.97,41.41c0-4.92,2.23-8.05,5.94-8.05s5.93,3.13,5.93,8.05-2.24,8.06-5.93,8.06-5.94-3.14-5.94-8.06ZM241.42,42.4c.57,0,1-.44,1-1s-.43-1.02-1-1.02-1,.44-1,1.02.44,1,1,1ZM245.92,47.08c1.94,0,3.04-1.86,3.04-5.67s-1.09-5.66-3.04-5.66-3.06,1.85-3.06,5.66,1.1,5.67,3.06,5.67ZM250.4,42.4c.56,0,1-.44,1-1s-.44-1.02-1-1.02-1,.44-1,1.02.44,1,1,1Z"/>
      <path class="cls-3" d="M253.97,41.41c0-4.92,2.23-8.05,5.94-8.05s5.93,3.13,5.93,8.05-2.24,8.06-5.93,8.06-5.94-3.14-5.94-8.06ZM255.42,42.4c.57,0,1-.44,1-1s-.43-1.02-1-1.02-1,.44-1,1.02.44,1,1,1ZM259.91,47.08c1.94,0,3.04-1.86,3.04-5.67s-1.09-5.66-3.04-5.66-3.06,1.85-3.06,5.66,1.1,5.67,3.06,5.67ZM264.39,42.4c.56,0,1-.44,1-1s-.44-1.02-1-1.02-1,.44-1,1.02.44,1,1,1Z"/>
      <path class="cls-3" d="M272.9,40.63h6.29v2.41h-6.29v-2.41Z"/>
      <path class="cls-3" d="M290.71,42.35c2.33-1.52,3.52-2.54,3.52-4.22,0-1.48-.97-2.43-2.42-2.43-1.73,0-2.7,1.31-2.73,2.84h-2.92c.09-2.9,2.28-5.17,5.68-5.17,3.21,0,5.27,2.01,5.27,4.76s-1.77,4.16-4.7,6.09c-.96.64-1.54,1.15-2.04,1.62-.31.27-.55.3-.9.3h-.1c-.66,0-1.1.5-1.1,1.05s.45,1.02,1.03,1.02,1.04-.45,1.04-1v-.14c0-.24.18-.39.42-.39h6.73v2.48h-11.47c.08-3.13,1.85-4.93,4.69-6.81Z"/>
      <path class="cls-3" d="M303.94,42.35c2.33-1.52,3.52-2.54,3.52-4.22,0-1.48-.97-2.43-2.42-2.43-1.73,0-2.7,1.31-2.73,2.84h-2.92c.09-2.9,2.28-5.17,5.68-5.17,3.21,0,5.27,2.01,5.27,4.76s-1.77,4.16-4.7,6.09c-.96.64-1.54,1.15-2.04,1.62-.31.27-.55.3-.9.3h-.1c-.66,0-1.1.5-1.1,1.05s.45,1.02,1.03,1.02,1.04-.45,1.04-1v-.14c0-.24.18-.39.42-.39h6.73v2.48h-11.47c.08-3.13,1.85-4.93,4.69-6.81Z"/>
      <path class="cls-3" d="M312.85,37.95h2.97v3.01h-2.97v-3.01ZM312.85,46.14h2.97v3.01h-2.97v-3.01Z"/>
      <path class="cls-3" d="M318.11,41.41c0-4.92,2.23-8.05,5.94-8.05s5.93,3.13,5.93,8.05-2.24,8.06-5.93,8.06-5.94-3.14-5.94-8.06ZM319.55,42.4c.57,0,1-.44,1-1s-.43-1.02-1-1.02-1,.44-1,1.02.44,1,1,1ZM324.05,47.08c1.95,0,3.04-1.86,3.04-5.67s-1.09-5.66-3.04-5.66-3.06,1.85-3.06,5.66,1.1,5.67,3.06,5.67ZM328.53,42.4c.56,0,1-.44,1-1s-.44-1.02-1-1.02-1,.44-1,1.02.44,1,1,1Z"/>
      <path class="cls-3" d="M332.1,41.41c0-4.92,2.23-8.05,5.94-8.05s5.93,3.13,5.93,8.05-2.24,8.06-5.93,8.06-5.94-3.14-5.94-8.06ZM333.55,42.4c.57,0,1-.44,1-1s-.43-1.02-1-1.02-1,.44-1,1.02.44,1,1,1ZM338.04,47.08c1.94,0,3.04-1.86,3.04-5.67s-1.09-5.66-3.04-5.66-3.06,1.85-3.06,5.66,1.1,5.67,3.06,5.67ZM342.53,42.4c.56,0,1-.44,1-1s-.44-1.02-1-1.02-1,.44-1,1.02.44,1,1,1Z"/>
      <path class="cls-3" d="M1,62.71h12.68v2.58h-4.54c-.3,0-.44-.16-.44-.42v-.06c0-.77-.59-1.36-1.37-1.36s-1.36.59-1.36,1.36v.06c0,.26-.14.42-.44.42H1v-2.58ZM7.36,64.99c.79,0,1.4.62,1.4,1.43v11.79h-2.82v-11.79c0-.81.62-1.43,1.42-1.43Z"/>
      <path class="cls-3" d="M15.35,62.71h2.67v5.08c0,.31-.17.5-.49.5h-.51c-.57,0-1.04.42-1.04.99s.41,1,.98,1,.88-.36,1.06-1c.53-1.72,1.6-2.73,3.5-2.73,2.2,0,3.53,1.53,3.53,3.87v7.79h-2.74v-7.53c0-1.25-.64-1.98-1.85-1.98-1.48,0-2.38,1.18-2.38,3.36v6.15h-2.74v-15.49Z"/>
      <path class="cls-3" d="M27.76,62.61h2.95v2.64h-2.95v-2.64ZM27.86,66.86h2.74v11.34h-2.74v-11.34Z"/>
      <path class="cls-3" d="M33.48,62.71h2.74v15.49h-2.74v-15.49Z"/>
      <path class="cls-3" d="M38.45,75.11c0-2.19,1.42-3.21,3.61-3.54l1.9-.29c1.2-.18,1.69-.45,1.69-1.2s-.58-1.51-1.9-1.51-2.08.7-2.15,1.84h-2.84c.09-2.25,2.01-3.86,4.96-3.86s4.7,1.59,4.7,4.22v4.82c0,.93.13,2.02.44,2.27v.35h-2.86c-.11-.42-.19-.95-.25-1.51-.67,1.04-1.92,1.83-3.58,1.83-2.11,0-3.72-1.29-3.72-3.4ZM43.07,76.42c1.65,0,2.54-1.18,2.64-2.72v-.21c.04-.3.23-.45.53-.45h.24c.55,0,1.02-.43,1.02-1.02s-.44-1-1.02-1-1.04.42-1.04,1.02v.17c0,.41-.19.62-.69.71l-.5.1-1.12.23c-1.22.25-1.85.73-1.85,1.69s.77,1.49,1.79,1.49Z"/>
      <path class="cls-3" d="M54.16,73.85v-.62h2.8v.52c0,1.43.72,2.29,2.06,2.29s2.11-.72,2.11-2.54v-10.79h2.82v10.86c0,3.22-1.92,4.93-4.94,4.93s-4.85-1.65-4.85-4.65ZM62.54,71.28c.55,0,.99-.44.99-.99s-.44-1-.99-1-1,.45-1,1,.45.99,1,.99Z"/>
      <path class="cls-3" d="M66.85,62.61h2.95v2.64h-2.95v-2.64ZM66.95,66.86h2.74v11.34h-2.74v-11.34Z"/>
      <path class="cls-3" d="M72.56,62.71h2.67v5.08c0,.31-.17.5-.49.5h-.51c-.57,0-1.04.42-1.04.99s.41,1,.98,1,.88-.36,1.06-1c.53-1.72,1.6-2.73,3.5-2.73,2.2,0,3.53,1.53,3.53,3.87v7.79h-2.74v-7.53c0-1.25-.64-1.98-1.85-1.98-1.48,0-2.38,1.18-2.38,3.36v6.15h-2.74v-15.49Z"/>
      <path class="cls-3" d="M84.42,75.11c0-2.19,1.42-3.21,3.61-3.54l1.9-.29c1.2-.18,1.69-.45,1.69-1.2s-.58-1.51-1.9-1.51-2.08.7-2.15,1.84h-2.84c.09-2.25,2.01-3.86,4.96-3.86s4.7,1.59,4.7,4.22v4.82c0,.93.13,2.02.44,2.27v.35h-2.86c-.11-.42-.19-.95-.25-1.51-.67,1.04-1.92,1.83-3.58,1.83-2.11,0-3.72-1.29-3.72-3.4ZM89.04,76.42c1.65,0,2.54-1.18,2.64-2.72v-.21c.04-.3.23-.45.53-.45h.24c.55,0,1.02-.43,1.02-1.02s-.44-1-1.02-1-1.04.42-1.04,1.02v.17c0,.41-.19.62-.69.71l-.5.1-1.12.23c-1.22.25-1.85.73-1.85,1.69s.77,1.49,1.79,1.49Z"/>
      <path class="cls-3" d="M101.33,61.79h1.64v9.04h-1.64v-9.04ZM102.15,66.79c.32,0,.59-.26.59-.58s-.26-.59-.59-.59-.58.26-.58.59.26.58.58.58Z"/>
      <path class="cls-3" d="M104.74,64.21h1.48v.62c0,.14-.08.21-.21.21h-.3c-.33,0-.6.25-.6.58s.24.59.57.59.51-.21.6-.59c.28-1.01.9-1.59,2.03-1.59,1.31,0,2.09.91,2.09,2.27v4.53h-1.6v-4.39c0-.73-.37-1.15-1.08-1.15-.87,0-1.39.69-1.39,1.96v3.59h-1.6v-6.62Z"/>
      <path class="cls-3" d="M111.64,68.73h1.68c.03.72.57,1.12,1.36,1.12.7,0,1.14-.31,1.14-.81,0-.43-.3-.63-.95-.76l-1.15-.23c-1.37-.27-1.95-.89-1.95-1.85,0-1.24,1.02-2.16,2.79-2.16s2.74.97,2.79,2.19h-1.65c-.02-.65-.47-1.04-1.18-1.04-.67,0-1.11.33-1.11.81,0,.37.26.59.83.7l1.24.23c1.33.26,1.97.87,1.97,1.89,0,1.47-1.23,2.2-2.81,2.2-1.83,0-2.98-.84-3.01-2.28ZM114.66,67.99c.28,0,.51-.23.51-.52s-.25-.52-.52-.52c-.28,0-.52.23-.52.52s.25.52.53.52Z"/>
      <path class="cls-3" d="M119.27,69.03v-3.59h-1.13v-1.24h.13c.84,0,1.2-.35,1.25-1.32l.03-.65h1.3v1.47c0,.15-.08.24-.23.24h-.33c-.35,0-.61.26-.61.59,0,.35.26.61.61.61.33,0,.59-.26.59-.61v-.11c0-.15.09-.23.24-.23h1.18v1.24h-1.44v3.42c0,.6.33.79.83.79.16,0,.34-.02.5-.06v1.23c-.26.08-.57.12-.91.12-1.2,0-2.02-.51-2.02-1.92Z"/>
      <path class="cls-3" d="M123.1,69.03c0-1.28.83-1.87,2.1-2.07l1.11-.17c.7-.11.98-.26.98-.7s-.34-.88-1.11-.88-1.22.41-1.25,1.07h-1.66c.05-1.31,1.17-2.25,2.89-2.25s2.74.93,2.74,2.46v2.81c0,.54.08,1.18.26,1.32v.2h-1.67c-.06-.25-.11-.55-.14-.88-.39.6-1.12,1.06-2.09,1.06-1.23,0-2.17-.75-2.17-1.98ZM125.79,69.79c.96,0,1.48-.69,1.54-1.59v-.12c.02-.18.13-.26.31-.26h.14c.32,0,.59-.25.59-.59s-.26-.59-.59-.59-.61.25-.61.59v.1c0,.24-.11.36-.4.42l-.29.06-.66.13c-.71.15-1.08.43-1.08.98s.45.87,1.05.87Z"/>
      <path class="cls-3" d="M130.53,61.79h1.6v9.04h-1.6v-9.04Z"/>
      <path class="cls-3" d="M133.81,61.79h1.6v9.04h-1.6v-9.04Z"/>
      <path class="cls-3" d="M136.71,69.03c0-1.28.83-1.87,2.1-2.07l1.11-.17c.7-.11.98-.26.98-.7s-.34-.88-1.11-.88-1.22.41-1.25,1.07h-1.66c.05-1.31,1.17-2.25,2.89-2.25s2.74.93,2.74,2.46v2.81c0,.54.08,1.18.26,1.32v.2h-1.67c-.06-.25-.11-.55-.14-.88-.39.6-1.12,1.06-2.09,1.06-1.23,0-2.17-.75-2.17-1.98ZM139.4,69.79c.96,0,1.48-.69,1.54-1.59v-.12c.02-.18.13-.26.31-.26h.14c.32,0,.59-.25.59-.59s-.26-.59-.59-.59-.61.25-.61.59v.1c0,.24-.11.36-.4.42l-.29.06-.66.13c-.71.15-1.08.43-1.08.98s.45.87,1.05.87Z"/>
      <path class="cls-3" d="M144.59,69.03v-3.59h-1.13v-1.24h.13c.84,0,1.2-.35,1.25-1.32l.03-.65h1.3v1.47c0,.15-.08.24-.23.24h-.33c-.35,0-.61.26-.61.59,0,.35.26.61.61.61.33,0,.59-.26.59-.61v-.11c0-.15.09-.23.24-.23h1.18v1.24h-1.44v3.42c0,.6.33.79.83.79.16,0,.34-.02.5-.06v1.23c-.26.08-.57.12-.91.12-1.2,0-2.02-.51-2.02-1.92Z"/>
      <path class="cls-3" d="M148.8,61.74h1.72v1.54h-1.72v-1.54ZM148.85,64.21h1.6v6.62h-1.6v-6.62Z"/>
      <path class="cls-3" d="M151.78,67.52c0-2.14,1.25-3.48,3.15-3.48s3.14,1.35,3.14,3.48-1.24,3.5-3.14,3.5-3.15-1.35-3.15-3.5ZM152.62,68.09c.31,0,.57-.25.57-.57s-.26-.57-.57-.57-.57.26-.57.57.25.57.57.57ZM154.93,69.75c.93,0,1.49-.78,1.49-2.24s-.56-2.22-1.49-2.22-1.49.78-1.49,2.22.56,2.24,1.49,2.24ZM157.24,68.09c.31,0,.57-.25.57-.57s-.25-.57-.57-.57-.57.26-.57.57.25.57.57.57Z"/>
      <path class="cls-3" d="M159.41,64.21h1.48v.62c0,.14-.08.21-.21.21h-.3c-.33,0-.6.25-.6.58s.24.59.57.59.51-.21.6-.59c.28-1.01.9-1.59,2.03-1.59,1.31,0,2.09.91,2.09,2.27v4.53h-1.6v-4.39c0-.73-.37-1.15-1.08-1.15-.87,0-1.39.69-1.39,1.96v3.59h-1.6v-6.62Z"/>
      <path class="cls-3" d="M174.67,67.76h.37c.62,0,1.09-.48,1.09-1.08s-.48-1.09-1.09-1.09c-.58,0-1.08.48-1.08,1.09v.21c0,.28-.15.42-.51.42h-2.45v-2.13c2.15-.05,3.44-.92,3.57-2.47h2.4v15.49h-2.77v-9.94c0-.32.13-.5.47-.5Z"/>
      <path class="cls-3" d="M186.8,74.87h-7.58v-2.3l6.77-9.86h3.5v9.82h2.45v2.34h-2.45v3.33h-2.69v-3.33ZM186.22,72.53c.3,0,.45.15.45.45v.19c0,.59.49,1.07,1.07,1.07s1.1-.44,1.1-1.07-.5-1.08-1.1-1.08h-.49c-.29,0-.45-.16-.45-.45v-6.19l-4.83,7.08h4.25Z"/>
      <path class="cls-3" d="M193.76,67h2.97v3.01h-2.97v-3.01ZM193.76,75.19h2.97v3.01h-2.97v-3.01Z"/>
      <path class="cls-3" d="M199.01,70.45c0-4.92,2.23-8.05,5.94-8.05s5.93,3.13,5.93,8.05-2.24,8.06-5.93,8.06-5.94-3.14-5.94-8.06ZM200.46,71.45c.57,0,1-.44,1-1s-.43-1.02-1-1.02-1,.44-1,1.02.44,1,1,1ZM204.95,76.13c1.95,0,3.04-1.86,3.04-5.67s-1.09-5.66-3.04-5.66-3.06,1.85-3.06,5.66,1.1,5.67,3.06,5.67ZM209.44,71.45c.56,0,1-.44,1-1s-.44-1.02-1-1.02-1,.44-1,1.02.44,1,1,1Z"/>
      <path class="cls-3" d="M213.01,70.45c0-4.92,2.23-8.05,5.94-8.05s5.93,3.13,5.93,8.05-2.24,8.06-5.93,8.06-5.94-3.14-5.94-8.06ZM214.45,71.45c.57,0,1-.44,1-1s-.43-1.02-1-1.02-1,.44-1,1.02.44,1,1,1ZM218.95,76.13c1.95,0,3.04-1.86,3.04-5.67s-1.09-5.66-3.04-5.66-3.06,1.85-3.06,5.66,1.1,5.67,3.06,5.67ZM223.43,71.45c.56,0,1-.44,1-1s-.44-1.02-1-1.02-1,.44-1,1.02.44,1,1,1Z"/>
      <path class="cls-3" d="M231.94,69.68h6.29v2.41h-6.29v-2.41Z"/>
      <path class="cls-3" d="M249.75,71.39c2.33-1.52,3.52-2.54,3.52-4.22,0-1.48-.97-2.43-2.42-2.43-1.73,0-2.7,1.31-2.73,2.84h-2.92c.09-2.9,2.28-5.17,5.68-5.17,3.21,0,5.27,2.01,5.27,4.76s-1.77,4.16-4.7,6.09c-.96.64-1.54,1.15-2.04,1.62-.31.27-.55.3-.9.3h-.1c-.66,0-1.1.5-1.1,1.05s.45,1.02,1.03,1.02,1.04-.45,1.04-1v-.14c0-.24.18-.39.42-.39h6.73v2.48h-11.47c.08-3.13,1.85-4.93,4.69-6.81Z"/>
      <path class="cls-3" d="M262.98,71.39c2.33-1.52,3.52-2.54,3.52-4.22,0-1.48-.97-2.43-2.42-2.43-1.73,0-2.7,1.31-2.73,2.84h-2.92c.09-2.9,2.28-5.17,5.68-5.17,3.21,0,5.27,2.01,5.27,4.76s-1.77,4.16-4.7,6.09c-.96.64-1.54,1.15-2.04,1.62-.31.27-.55.3-.9.3h-.1c-.66,0-1.1.5-1.1,1.05s.45,1.02,1.03,1.02,1.04-.45,1.04-1v-.14c0-.24.18-.39.42-.39h6.73v2.48h-11.47c.08-3.13,1.85-4.93,4.69-6.81Z"/>
      <path class="cls-3" d="M271.89,67h2.97v3.01h-2.97v-3.01ZM271.89,75.19h2.97v3.01h-2.97v-3.01Z"/>
      <path class="cls-3" d="M277.14,70.45c0-4.92,2.23-8.05,5.94-8.05s5.93,3.13,5.93,8.05-2.24,8.06-5.93,8.06-5.94-3.14-5.94-8.06ZM278.59,71.45c.57,0,1-.44,1-1s-.43-1.02-1-1.02-1,.44-1,1.02.44,1,1,1ZM283.09,76.13c1.94,0,3.04-1.86,3.04-5.67s-1.09-5.66-3.04-5.66-3.06,1.85-3.06,5.66,1.1,5.67,3.06,5.67ZM287.57,71.45c.56,0,1-.44,1-1s-.44-1.02-1-1.02-1,.44-1,1.02.44,1,1,1Z"/>
      <path class="cls-3" d="M291.14,70.45c0-4.92,2.23-8.05,5.94-8.05s5.93,3.13,5.93,8.05-2.24,8.06-5.93,8.06-5.94-3.14-5.94-8.06ZM292.59,71.45c.57,0,1-.44,1-1s-.43-1.02-1-1.02-1,.44-1,1.02.44,1,1,1ZM297.08,76.13c1.95,0,3.04-1.86,3.04-5.67s-1.09-5.66-3.04-5.66-3.06,1.85-3.06,5.66,1.1,5.67,3.06,5.67ZM301.56,71.45c.56,0,1-.44,1-1s-.44-1.02-1-1.02-1,.44-1,1.02.44,1,1,1Z"/>
      <path class="cls-3" d="M2.44,91.76h6.06c3.2,0,5.15,1.89,5.15,4.89s-2.05,4.92-5.14,4.92h-2.41c-.67,0-1.22-.52-1.22-1.19s.55-1.21,1.22-1.21h1.86c1.83,0,2.88-.85,2.88-2.52s-1.06-2.5-2.89-2.5h-2.01c-.28,0-.45-.17-.45-.44v-.1c0-.6-.5-1.09-1.09-1.09s-1.09.48-1.09,1.09.49,1.08,1.1,1.08h.36c.3,0,.5.21.5.49v3.57c0,.3-.19.49-.5.49h-.31c-.65,0-1.17.52-1.17,1.17s.52,1.15,1.17,1.15h.36c.29,0,.45.18.45.45v5.25h-2.82v-15.49Z"/>
      <path class="cls-3" d="M15.62,95.91h2.55v1.07c0,.18-.15.36-.36.36h-.42c-.55,0-1.04.4-1.04.99,0,.56.41,1,.97,1s.85-.41.99-1c.12-.49.31-.92.56-1.27.58-.88,1.52-1.36,2.75-1.36.22,0,.42.02.56.05v2.67c-.28-.06-.56-.1-.88-.1-1.67,0-2.96,1.09-2.96,3.44v5.5h-2.74v-11.34Z"/>
      <path class="cls-3" d="M23.43,101.57c0-3.75,2.34-5.97,5.48-5.97s5.17,2.04,5.17,5.8c0,.29,0,.57-.01.84h-6.84c-.58,0-.99-.4-.99-.95s.41-.95.99-.95h4.01c-.11-1.86-.95-2.71-2.34-2.71-1.3,0-2.24.84-2.52,2.34-.05.25-.19.36-.48.36h-.19c-.55,0-.97.38-.97.93s.42.93.97.93h.21c.25,0,.38.1.4.37.13,1.97,1.19,2.95,2.69,2.95,1.22,0,2.07-.71,2.26-2.02h2.77c-.29,2.48-2.18,4.08-5.12,4.08-3.21,0-5.48-1.92-5.48-6Z"/>
      <path class="cls-3" d="M35.74,103.65h2.87c.04,1.23.98,1.91,2.33,1.91,1.2,0,1.96-.53,1.96-1.39,0-.73-.51-1.08-1.62-1.31l-1.97-.39c-2.34-.46-3.34-1.52-3.34-3.18,0-2.13,1.75-3.71,4.77-3.71s4.69,1.66,4.79,3.75h-2.82c-.04-1.11-.8-1.78-2.02-1.78-1.15,0-1.9.57-1.9,1.39,0,.64.45,1,1.43,1.2l2.12.4c2.28.44,3.38,1.49,3.38,3.24,0,2.52-2.12,3.77-4.82,3.77-3.14,0-5.11-1.45-5.16-3.91ZM40.92,102.39c.48,0,.88-.4.88-.89s-.42-.89-.89-.89-.9.4-.9.89.43.89.91.89Z"/>
      <path class="cls-3" d="M47.36,101.57c0-3.75,2.34-5.97,5.48-5.97s5.17,2.04,5.17,5.8c0,.29,0,.57-.01.84h-6.84c-.58,0-.99-.4-.99-.95s.41-.95.99-.95h4.01c-.11-1.86-.95-2.71-2.34-2.71-1.3,0-2.24.84-2.52,2.34-.05.25-.19.36-.48.36h-.19c-.55,0-.97.38-.97.93s.42.93.97.93h.21c.25,0,.38.1.4.37.13,1.97,1.19,2.95,2.69,2.95,1.22,0,2.07-.71,2.26-2.02h2.77c-.29,2.48-2.18,4.08-5.12,4.08-3.21,0-5.48-1.92-5.48-6Z"/>
      <path class="cls-3" d="M60.35,95.91h2.54v1.06c0,.24-.14.37-.36.37h-.52c-.57,0-1.03.42-1.03.99s.41,1,.97,1,.88-.36,1.04-1c.49-1.74,1.54-2.73,3.48-2.73,2.25,0,3.59,1.56,3.59,3.89v7.77h-2.74v-7.53c0-1.25-.64-1.98-1.85-1.98-1.49,0-2.38,1.18-2.38,3.36v6.15h-2.74v-11.34Z"/>
      <path class="cls-3" d="M73.73,104.17v-6.15h-1.93v-2.12h.23c1.44,0,2.06-.6,2.15-2.26l.05-1.11h2.24v2.53c0,.26-.14.41-.4.41h-.57c-.59,0-1.05.44-1.05,1,0,.59.45,1.05,1.05,1.05.56,0,1-.45,1-1.05v-.18c0-.25.15-.39.41-.39h2.03v2.12h-2.47v5.86c0,1.04.57,1.36,1.42,1.36.28,0,.58-.03.86-.1v2.11c-.45.13-.97.21-1.56.21-2.06,0-3.46-.88-3.46-3.28Z"/>
      <path class="cls-3" d="M80.44,101.57c0-3.75,2.34-5.97,5.48-5.97s5.17,2.04,5.17,5.8c0,.29,0,.57-.01.84h-6.84c-.58,0-.99-.4-.99-.95s.41-.95.99-.95h4.01c-.11-1.86-.95-2.71-2.34-2.71-1.3,0-2.24.84-2.52,2.34-.05.25-.19.36-.48.36h-.19c-.55,0-.97.38-.97.93s.42.93.97.93h.21c.25,0,.38.1.4.37.13,1.97,1.19,2.95,2.69,2.95,1.22,0,2.07-.71,2.26-2.02h2.77c-.29,2.48-2.18,4.08-5.12,4.08-3.21,0-5.48-1.92-5.48-6Z"/>
      <path class="cls-3" d="M103.49,91.76v15.49h-2.69v-1.69c-.65,1.29-1.84,2-3.35,2-2.86,0-4.58-2.3-4.58-5.97s1.76-6,4.62-6c.93,0,1.65.28,2.2.85.42.43.75,1.02.97,1.77.17.58.48,1.03,1.06,1.03.55,0,.98-.43.98-.99s-.42-.98-1-.98h-.51c-.24,0-.39-.15-.39-.42v-5.09h2.68ZM98.21,105.4c1.66,0,2.55-1.57,2.55-3.85s-.89-3.82-2.55-3.82-2.51,1.56-2.51,3.82.84,3.85,2.51,3.85Z"/>
      <path class="cls-3" d="M113.69,105.57v1.67h-2.69v-15.49h2.69v5.09c0,.27-.15.42-.39.42h-.51c-.59,0-1.02.43-1.02.98s.43.98.99.98.88-.43,1.05-1.02c.15-.48.33-.89.58-1.24.62-.9,1.54-1.38,2.78-1.38,2.77,0,4.45,2.29,4.45,5.98s-1.78,5.99-4.63,5.99c-1.47,0-2.64-.66-3.31-1.99ZM116.29,105.4c1.66,0,2.52-1.54,2.52-3.81s-.85-3.85-2.52-3.85-2.54,1.58-2.54,3.85.89,3.81,2.54,3.81Z"/>
      <path class="cls-3" d="M123.3,111.33v-2.35c.4.16.84.21,1.19.21,1.06,0,1.66-.5,2.24-1.89l-4.21-11.39h2.96l2.32,6.98c.09.27.06.49-.13.69l-.24.25c-.22.24-.35.51-.35.78,0,.6.48,1.08,1.06,1.08s1.07-.48,1.07-1.08c0-.27-.12-.53-.35-.78l-.25-.25c-.21-.22-.24-.42-.16-.69l2.14-6.98h2.86l-4.08,11.83c-.9,2.61-2.29,3.81-4.46,3.81-.62,0-1.16-.08-1.61-.22Z"/>
      <path class="cls-3" d="M138.83,102.41h2.91c.06,1.64,1.27,2.8,3.24,2.8,1.53,0,2.69-.77,2.69-2.19,0-1.06-.59-1.63-2.19-2l-2.06-.46c-2.88-.66-4.27-1.92-4.27-4.42,0-2.68,2.24-4.68,5.65-4.68s5.42,2,5.55,4.62h-2.9c-.05-1.29-.95-2.3-2.74-2.3-1.5,0-2.66.83-2.66,2.12,0,.97.63,1.59,2.24,1.96l2.29.53c2.25.51,3.99,1.66,3.99,4.28,0,3.02-2.17,4.9-5.63,4.9-3.64,0-6.05-1.88-6.1-5.15ZM144.94,100.53c.61,0,1.08-.49,1.08-1.1s-.49-1.09-1.08-1.09-1.08.48-1.08,1.09.49,1.1,1.08,1.1Z"/>
      <path class="cls-3" d="M152.82,103.74v-7.83h2.74v7.51c0,1.23.64,1.99,1.89,1.99,1.46,0,2.34-1.19,2.34-3.28v-6.21h2.73v11.34h-2.53v-1.07c0-.24.13-.37.35-.37h.52c.58,0,1.04-.43,1.04-.99s-.41-.99-.98-.99-.88.35-1.05.99c-.49,1.7-1.49,2.74-3.39,2.74-2.3,0-3.66-1.45-3.66-3.82Z"/>
      <path class="cls-3" d="M165.4,95.91h2.54v1.06c0,.24-.14.37-.36.37h-.52c-.57,0-1.03.42-1.03.99s.41,1,.97,1,.88-.36,1.04-1c.49-1.74,1.54-2.73,3.48-2.73,2.25,0,3.59,1.56,3.59,3.89v7.77h-2.74v-7.53c0-1.25-.64-1.98-1.85-1.98-1.49,0-2.38,1.18-2.38,3.36v6.15h-2.74v-11.34Z"/>
    </g>
    <line class="cls-2" x1="-.02" y1="281.23" x2="967.02" y2="281.23"/>
    <g>
      <path class="cls-3" d="M392.29,326.71c-1.08,2.98-3.04,5.04-6.12,5.04-5.15,0-7.18-5.85-7.18-11.94s2.03-11.83,7.18-11.83c3.01,0,4.97,2,6.06,4.83h3.99v-6.72h4.06v31.01h-4.06v-10.4h-3.92ZM386.2,311.76c-2.17,0-3.08,3.64-3.08,8.09s.91,8.05,3.08,8.05,3.12-3.61,3.12-8.05-.88-8.09-3.12-8.09ZM393.13,323.21h3.08v-6.9h-3.08c.18,1.15.25,2.35.25,3.54s-.07,2.28-.25,3.36ZM402.75,338.64v-33.18h4.13v33.18h-4.13Z"/>
      <path class="cls-3" d="M424.79,330h-13.44v-20.55h13.44v20.55ZM420.69,312.81h-5.25v13.86h5.25v-13.86ZM434.38,338.64v-16.63h-2.66v15.09h-4.1v-31.05h4.1v12.46h2.66v-13.06h4.17v33.18h-4.17Z"/>
      <path class="cls-3" d="M467.77,328.88c-1.75.53-7.07.98-11.03.98h-2.97v-20.51h4.3v16.91c3.22,0,7.11-.28,9.14-.88l.56,3.5ZM476.38,338.64v-16.59h-3.19v15.05h-4.06v-31.05h4.06v12.5h3.19v-13.09h4.13v33.18h-4.13Z"/>
      <path class="cls-3" d="M492.6,307.18c4.76,0,8.54,3.47,8.54,8.12s-3.71,7.84-8.54,7.84-8.51-3.15-8.51-7.84,3.71-8.12,8.51-8.12ZM511.25,326.18v12.5h-4.38v-9.03h-18.76v-3.47h23.14ZM492.6,319.74c2.59,0,4.34-1.96,4.34-4.48s-1.58-4.48-4.34-4.48c-2.59,0-4.27,2.1-4.27,4.48,0,2.59,1.68,4.48,4.27,4.48ZM502.26,317.22h4.62v-4.03h-4.62l-.14-3.68h4.76v-4.06h4.38v19.01h-4.38v-3.57h-4.76l.14-3.68Z"/>
      <path class="cls-3" d="M525.81,334.48v-3.4h12.71v-7.42h4.38v7.42h12.88v3.4h-29.96ZM552.69,324.61c-4.52-1.05-10.01-4.06-11.9-8.44-1.71,4.48-7.46,7.46-11.97,8.47l-2.07-3.54c5.18-.74,11.2-4.24,11.73-9.66h-10.12v-3.43h24.85v3.43h-10.08c.56,5.39,6.93,9.03,11.76,9.77l-2.21,3.4Z"/>
      <path class="cls-3" d="M571.28,327.37v2.52c3.12-.17,6.02-.38,8.47-.67l.35,3.33c-5.67.63-15.02,1.15-21.21,1.15-.21-1.15-.39-2.35-.56-3.54,2.84,0,5.74-.04,8.61-.1v-2.73c-3.4-.63-5.67-2.7-5.67-5.5,0-3.36,3.36-5.67,7.95-5.67s7.98,2.31,7.98,5.67c0,2.87-2.42,4.97-5.92,5.53ZM559.41,315.26v-3.29h19.36v3.29h-19.36ZM564.35,307.21h9.66v3.29h-9.66v-3.29ZM569.22,319.5c-2.1,0-3.61,1.08-3.61,2.35s1.5,2.38,3.61,2.38,3.6-1.12,3.6-2.38-1.5-2.35-3.6-2.35ZM585.98,338.64h-4.34v-33.18h4.34v33.18Z"/>
    </g>
    <g>
      <path class="cls-1" d="M166.06,401.7c-2.17-1.4-5.12-4.32-5.92-7.07-.78,2.9-3.32,5.87-6.02,7.62l-1.25-1.5c3.4-2,6.2-5.95,6.2-10.35v-2.4h-5.42v-1.67h12.95v1.67h-5.42v2.37c0,4.32,2.95,8.1,6.15,9.82l-1.25,1.5ZM172.01,384.01v23.24h-2.02v-23.24h2.02Z"/>
      <path class="cls-1" d="M175.82,385.93h12.57v1.7h-5.22c0,.47,0,1,.03,1.27.17,3.15,3.15,5.67,6,6.52l-1.2,1.62c-2.42-.95-4.92-3.12-5.87-5.22-.62,2.17-3.42,4.97-5.92,6.05l-1.1-1.62c2.92-1.12,5.87-4.07,6-7.37.02-.25.02-.8.02-1.25h-5.3v-1.7ZM186.56,407.25c-4.97,0-7.77-1.7-7.77-4.42s2.8-4.45,7.77-4.45,7.8,1.7,7.8,4.45-2.8,4.42-7.8,4.42ZM180.84,402.83c0,1.72,2.15,2.72,5.72,2.72s5.75-1,5.75-2.72-2.12-2.75-5.75-2.75-5.72,1-5.72,2.75ZM187.49,391.73v-1.7h4.67v-6.02h2.02v14.42h-2.02v-6.7h-4.67Z"/>
      <path class="cls-1" d="M212.74,397.75c-1.82.22-4.65.47-7.47.62-2.62.12-6.05.2-7.6.2l-.3-1.75c1.8,0,4.17,0,6.7-.08v-3.15h-4.87v-7.9h11.82v1.65h-9.8v4.62h9.95v1.62h-5.07v3.07c2.5-.12,5.02-.33,6.47-.52l.17,1.6ZM201.24,406.65v-6.57h2.02v4.9h13.6v1.67h-15.62ZM214.36,401.55v-17.55h2.02v17.55h-2.02Z"/>
      <path class="cls-1" d="M236.86,386.91c-.15,7.1-2.97,11.92-8.35,15.37l-1.33-1.52c4.85-2.62,7.35-7.32,7.65-12.15h-6.77v-1.7h8.8ZM240.56,406.08v-8.07h-3.95v-1.67h3.95v-4.25h-3.42v-1.7h3.42v-5.82h1.97v21.52h-1.97ZM244.96,407.25v-23.24h2v23.24h-2Z"/>
      <path class="cls-1" d="M264.61,401.45c-1.82.23-5.02.5-7.82.68-2.57.15-4.85.2-6.8.2l-.35-1.77c1.7,0,3.95,0,6.3-.1v-4.87h2.03v4.77c2.6-.15,4.95-.35,6.45-.57l.2,1.67ZM250.64,386.48h12.7v1.7h-5.42c.05,3.42,3.45,5.9,5.9,6.67l-1.08,1.55c-2.25-.9-4.87-3-5.8-5.07-.75,2.27-3.1,4.52-5.87,5.8l-1.08-1.6c2.97-1,5.85-3.9,5.9-7.35h-5.25v-1.7ZM267.93,395.43v11.82h-2.02v-23.24h2.02v9.72h3.72v1.7h-3.72Z"/>
      <path class="cls-1" d="M272.2,404.28v-1.7h9.45v-3.95h-6.85v-7.27h13.77v-3.72h-13.8v-1.7h15.82v7.1h-13.77v3.9h14.42v1.7h-7.57v3.95h9.52v1.7h-20.99Z"/>
      <path class="cls-1" d="M314.77,390.58c0,3.3-2.7,5.37-5.97,5.37s-5.97-2.07-5.97-5.35,2.7-5.45,5.97-5.45,5.97,2.12,5.97,5.42ZM304.85,390.58c0,2.22,1.67,3.7,3.95,3.7s3.95-1.47,3.95-3.67-1.55-3.7-3.95-3.7c-2.27,0-3.95,1.47-3.95,3.67ZM306.23,406.93v-9.2h2.02v2.95h10.95v-2.95h2.02v9.2h-15ZM319.2,402.33h-10.95v2.95h10.95v-2.95ZM319.17,396.46v-12.45h2.02v12.45h-2.02Z"/>
      <path class="cls-1" d="M342.61,385.38c0,3.12-.25,6.37-.8,8.72h3.55v1.7h-20.99v-1.7h15.45c.45-1.75.72-5.1.72-7.05h-13.47v-1.67h15.55ZM326.89,406.75v-8.07h15.95v8.07h-15.95ZM340.81,400.35h-11.9v4.72h11.9v-4.72Z"/>
      <path class="cls-1" d="M347.56,395.76v-1.7h21v1.7h-21ZM350.01,407.03v-5.52h13.9v-2.05h-13.95v-1.62h15.97v5.2h-13.9v2.35h14.65v1.65h-16.67ZM358.08,392.38c-5,0-8.1-1.47-8.1-4.02s3.1-4.02,8.1-4.02,8.12,1.47,8.12,4.02-3.07,4.02-8.12,4.02ZM352.06,388.36c0,1.45,2.37,2.35,6.02,2.35s6.07-.9,6.07-2.35-2.4-2.37-6.07-2.37-6.02.92-6.02,2.37Z"/>
      <path class="cls-1" d="M377.51,391.33v-1.67h11.57v1.67h-11.57ZM383.58,401.95c-2.97,0-5.07-1.97-5.07-4.62,0-2.82,2.1-4.65,5.07-4.65s5.07,1.85,5.07,4.65-2.07,4.62-5.07,4.62ZM380.24,387.53v-1.75h6.35v1.75h-6.35ZM383.58,394.38c-1.85,0-3.12,1.17-3.12,2.95s1.27,2.95,3.12,2.95,3.12-1.2,3.12-2.95-1.3-2.95-3.12-2.95ZM395.18,407.25v-12.05h-2.8v10.87h-1.97v-21.52h1.97v8.95h2.8v-9.5h2v23.24h-2Z"/>
      <path class="cls-1" d="M409.49,407.25v-8.32h-9.45v-1.7h21v1.7h-9.52v8.32h-2.02ZM419.09,395.06c-3.8-.65-7.5-3-8.55-5.17-.95,2.17-4.55,4.57-8.52,5.22l-.92-1.7c3.8-.4,8.3-2.82,8.4-6.07h-7.52v-1.67h17.12v1.67h-7.47c.1,3.27,4.87,5.62,8.42,6.02l-.95,1.7Z"/>
      <path class="cls-1" d="M435.33,401.68c-2.12-1.42-4.82-4.37-5.75-7.17-.82,2.9-3.1,5.77-5.8,7.7l-1.32-1.5c3.37-2.12,6.07-6.25,6.07-10.37v-4.3h2.08v4.22c0,4.25,2.77,8.02,5.97,9.9l-1.25,1.52ZM434.48,394.93h5.25v-4.1h-5.25v-1.67h5.25v-5.15h2.02v23.24h-2.02v-10.62h-5.25v-1.7Z"/>
      <path class="cls-1" d="M450.98,385.76c3.8,0,5.95,3.3,5.95,8.22s-2.15,8.2-5.95,8.2-5.95-3.27-5.95-8.22,2.17-8.2,5.95-8.2ZM450.98,387.51c-2.4,0-3.97,2.65-3.97,6.47s1.58,6.45,3.97,6.45,3.97-2.65,3.97-6.45-1.55-6.47-3.97-6.47ZM466.35,391.56h-4.05v5.4h4.05v1.7h-4.05v8.6h-2.02v-23.24h2.02v5.85h4.05v1.7Z"/>
      <path class="cls-1" d="M484.47,389.53h3.32v-5.07h1.97v21.62h-1.97v-7.57h-3.32c-.8,2.22-2.27,3.57-4.45,3.57-3.4,0-5.12-3.32-5.12-8.1s1.72-8.1,5.12-8.1c2.17,0,3.67,1.4,4.45,3.65ZM480.03,387.63c-1.95,0-3.15,2.47-3.15,6.35s1.2,6.35,3.15,6.35,3.17-2.42,3.17-6.35-1.22-6.35-3.17-6.35ZM484.92,391.23c.15.85.22,1.77.22,2.75,0,1.02-.1,1.97-.25,2.82h2.9v-5.57h-2.87ZM492.32,407.25v-23.24h2v23.24h-2Z"/>
      <path class="cls-1" d="M497.89,401.03v-14.47h9.22v14.47h-9.22ZM505.14,388.23h-5.27v11.12h5.27v-11.12ZM514.74,407.25v-12.27h-2.85v11.1h-1.97v-21.52h1.97v8.72h2.85v-9.27h2v23.24h-2Z"/>
      <path class="cls-1" d="M534.3,397.93c-1.67.2-4.6.5-7.35.67-2.62.15-5.57.25-7.22.25l-.33-1.77c1.62.02,3.9,0,6.17-.1v-2.35c-2.92-.38-4.85-2.2-4.85-4.75,0-2.77,2.42-4.85,5.92-4.85s5.9,2.07,5.9,4.87c0,2.57-1.97,4.4-4.95,4.72v2.27c2.5-.15,5.12-.4,6.55-.6l.15,1.62ZM526.65,386.76c-2.45,0-3.92,1.4-3.92,3.12,0,1.9,1.47,3.1,3.92,3.1s3.95-1.3,3.95-3.1-1.5-3.12-3.95-3.12ZM522.98,406.73v-6.35h2.02v4.67h13.35v1.67h-15.37ZM537.72,393.66v7.9h-2.02v-17.55h2.02v7.95h3.52v1.7h-3.52Z"/>
      <path class="cls-1" d="M557.18,398.08v4.5h5.72v1.7h-21v-1.7h5.87v-4.5h-3.3v-7.07h13.77v-3.57h-13.7v-1.7h15.72v6.95h-13.77v3.7h14.42v1.7h-3.75ZM549.78,402.58h5.4v-4.5h-5.4v4.5Z"/>
      <path class="cls-1" d="M572.98,395.21v-9.52h11.17v9.52h-11.17ZM591.42,407.65c-3.3-.4-6.45-1.95-7.75-4.02-1.2,2.1-4.7,3.7-7.92,3.97l-.82-1.57c3.32-.27,7-1.95,7.6-4.05h-6.72v-1.67h15.85v1.67h-6.82c.65,2.1,4.62,3.77,7.6,4.07l-1,1.6ZM582.15,387.33h-7.17v6.2h7.17v-6.2ZM580,398.38v-1.72h7.35v1.72h-7.35ZM588.92,396.65v-12.65h2.02v12.65h-2.02Z"/>
      <path class="cls-1" d="M614.48,390.58c0,3.3-2.7,5.37-5.97,5.37s-5.97-2.07-5.97-5.35,2.7-5.45,5.97-5.45,5.97,2.12,5.97,5.42ZM604.55,390.58c0,2.22,1.67,3.7,3.95,3.7s3.95-1.47,3.95-3.67-1.55-3.7-3.95-3.7-3.95,1.47-3.95,3.67ZM605.93,406.93v-9.2h2.02v2.95h10.95v-2.95h2.03v9.2h-15ZM618.9,402.33h-10.95v2.95h10.95v-2.95ZM618.87,396.46v-12.45h2.02v12.45h-2.02Z"/>
      <path class="cls-1" d="M624.48,385.68h12.67v1.7h-5.27c0,.57,0,1.02.03,1.27.17,2.97,2.95,5.52,5.6,6.4l-1.12,1.62c-2.22-.9-4.6-3-5.55-5.1-.62,2.17-3.35,4.67-5.85,5.75l-1.17-1.57c2.92-1.12,5.87-4.05,6-7.12,0-.22.02-.67.02-1.25h-5.35v-1.7ZM634.71,407.23c-4.85,0-7.77-1.7-7.77-4.42s2.92-4.47,7.77-4.47,7.82,1.67,7.82,4.47-2.95,4.42-7.82,4.42ZM634.71,400.03c-3.5,0-5.67.97-5.67,2.77s2.17,2.72,5.67,2.72,5.75-1,5.75-2.72-2.22-2.77-5.75-2.77ZM642.2,392.13v6.15h-2.02v-14.27h2.02v6.42h3.6v1.7h-3.6Z"/>
      <path class="cls-1" d="M653.68,400.38v-5.17c-2.05.1-4.12.12-6.2.15l-.35-1.75c2.77,0,5.42-.05,7.95-.15.82-.02,1.65-.05,2.45-.1.35-1.5.62-3.95.57-5.87h-9.15v-1.67h11.22c.15,2.52-.23,5.4-.65,7.4,1-.08,1.92-.18,2.82-.27l.18,1.6c-1.83.22-4.27.42-6.82.57v5.27h-2.02ZM650.24,406.65v-6.95h2.03v5.27h14.7v1.67h-16.72ZM659.13,396.71h5.17v-12.7h2.02v17.6h-2.02v-3.27h-5.17v-1.62Z"/>
      <path class="cls-1" d="M675.84,385.76c3.85,0,6,3.3,6,8.22s-2.15,8.2-6,8.2-6-3.27-6-8.22,2.17-8.2,6-8.2ZM675.84,387.51c-2.45,0-4.07,2.65-4.07,6.47s1.62,6.45,4.07,6.45,4.07-2.65,4.07-6.45-1.6-6.47-4.07-6.47ZM686.16,407.25v-23.24h2.02v23.24h-2.02Z"/>
      <path class="cls-1" d="M699.89,395.23v-10.32h2.02v3.4h6.8v-3.4h2.02v10.32h-10.85ZM708.71,389.98h-6.8v3.57h6.8v-3.57ZM702.11,407.08v-5.8h12.8v-2.27h-12.82v-1.65h14.85v5.5h-12.8v2.55h13.65v1.67h-15.67ZM716.94,390.91v5.12h-2.02v-12.02h2.02v5.2h3.55v1.7h-3.55Z"/>
      <path class="cls-1" d="M739.61,385.18c0,3.1-.25,6.15-.8,8.5h3.5v1.67h-21v-1.67h15.47c.47-1.75.75-4.87.75-6.82h-13.72v-1.67h15.8ZM723.84,406.9v-9.67h2.02v3.07h11.9v-3.12h2.02v9.72h-15.95ZM737.76,401.98h-11.9v3.25h11.9v-3.25Z"/>
      <path class="cls-1" d="M759.91,396.31c-1.82.23-4.65.47-7.47.62-2.62.12-6.05.2-7.6.2l-.3-1.77c1.8,0,4.22,0,6.75-.08v-2.82h-4.75v-7.17h11.27v1.67h-9.25v3.82h9.47v1.67h-4.72v2.75c2.47-.12,4.97-.3,6.42-.52l.17,1.62ZM748.44,406.93v-8.32h2.02v2.4h11.07v-2.45h2.02v8.37h-15.12ZM761.53,402.65h-11.07v2.62h11.07v-2.62ZM761.53,397.3v-13.3h2.02v13.3h-2.02Z"/>
      <path class="cls-1" d="M781.07,400.45c-2.7.62-8.75,1.07-12.32,1.07h-1.03v-15.1h2.02v13.32c3,0,8.35-.42,11.12-1.05l.2,1.75ZM785.25,407.25h-2v-23.24h2v23.24Z"/>
      <path class="cls-1" d="M792.67,399.83c3,0,7.6-.27,9.82-.75l.23,1.67c-2.5.48-7.1.8-11.15.8h-2.27v-15.12h11.02v1.7h-9v11.7h1.35ZM806.29,393.23h3.77v1.7h-3.77v12.32h-2v-23.24h2v9.22Z"/>
      <path class="cls-1" d="M810.18,402.55h2.3v2.37h-2.3v-2.37Z"/>
      <path class="cls-1" d="M215.1,431.91c-.15,7.1-2.97,11.92-8.35,15.37l-1.33-1.52c4.85-2.62,7.35-7.32,7.65-12.15h-6.77v-1.7h8.8ZM218.8,451.08v-8.07h-3.95v-1.67h3.95v-4.25h-3.42v-1.7h3.42v-5.82h1.97v21.52h-1.97ZM223.2,452.25v-23.24h2v23.24h-2Z"/>
      <path class="cls-1" d="M242.85,446.45c-1.83.23-5.02.5-7.82.68-2.58.15-4.85.2-6.8.2l-.35-1.77c1.7,0,3.95,0,6.3-.1v-4.87h2.03v4.77c2.6-.15,4.95-.35,6.45-.57l.2,1.67ZM228.88,431.48h12.7v1.7h-5.42c.05,3.42,3.45,5.9,5.9,6.67l-1.07,1.55c-2.25-.9-4.87-3-5.8-5.07-.75,2.27-3.1,4.52-5.87,5.8l-1.08-1.6c2.97-1,5.85-3.9,5.9-7.35h-5.25v-1.7ZM246.17,440.43v11.82h-2.02v-23.24h2.02v9.72h3.72v1.7h-3.72Z"/>
      <path class="cls-1" d="M252.23,430.93h12.57v1.7h-5.22c0,.47,0,1,.03,1.27.17,3.15,3.15,5.67,6,6.52l-1.2,1.62c-2.42-.95-4.92-3.12-5.87-5.22-.62,2.17-3.42,4.97-5.92,6.05l-1.1-1.62c2.92-1.12,5.87-4.07,6-7.37.02-.25.02-.8.02-1.25h-5.3v-1.7ZM262.98,452.25c-4.97,0-7.77-1.7-7.77-4.42s2.8-4.45,7.77-4.45,7.8,1.7,7.8,4.45-2.8,4.42-7.8,4.42ZM257.25,447.83c0,1.72,2.15,2.72,5.72,2.72s5.75-1,5.75-2.72-2.12-2.75-5.75-2.75-5.72,1-5.72,2.75ZM263.9,436.73v-1.7h4.67v-6.02h2.02v14.42h-2.02v-6.7h-4.67Z"/>
      <path class="cls-1" d="M285.33,442.9v4.75h9.52v1.7h-21v-1.7h9.45v-4.75h-6.9v-12.3h2.02v4.27h11.85v-4.27h2.02v12.3h-6.97ZM290.28,436.56h-11.85v4.67h11.85v-4.67Z"/>
      <path class="cls-1" d="M297.86,435.46h2.3v2.4h-2.3v-2.4ZM297.86,445.23h2.3v2.4h-2.3v-2.4Z"/>
      <path class="cls-1" d="M321.33,433.23h-10.07v-1.8h12.45v1.32l-7.32,16.5h-2.3l7.25-16.02Z"/>
      <path class="cls-1" d="M338.04,439.11v1.27c0,6.42-2.82,9.2-6.9,9.2-1.92,0-3.85-.62-4.65-1.15l.55-1.7c.9.52,2.47,1.02,3.95,1.02,3,0,4.9-2.15,4.9-6.77-.67.67-2.17,1.9-4.35,1.9-3.3,0-5.67-1.9-5.67-5.67,0-3.3,2.02-6.07,5.82-6.07,4.72,0,6.35,4.02,6.35,7.97ZM328.02,437.08c0,2.02.95,4.02,3.8,4.02,1.65,0,3.15-1.02,4.07-2.25v-.35c0-3.12-1.4-5.62-4.22-5.62-1.6,0-3.65.85-3.65,4.2Z"/>
      <path class="cls-1" d="M349.21,445.45h-8.9v-1.47l9.35-12.62h1.55v12.37h3v1.72h-3v3.8h-2v-3.8ZM349.24,443.73v-8.92l-6.6,8.92h6.6Z"/>
      <path class="cls-1" d="M355.77,448l4.25-4.4c3-3.05,4.22-4.6,4.22-7.2,0-2.4-1.28-3.45-3.6-3.45-1.52,0-2.95.7-4.05,1.47l-.6-1.67c1.3-.85,3.02-1.62,5.05-1.62,3.62,0,5.42,2.17,5.42,5.07,0,3.15-1.9,5.37-4.72,8.22l-3,3.02h8.17v1.8h-11.15v-1.25Z"/>
      <path class="cls-1" d="M369.74,440.85v-1c0-5.65,2.07-8.72,6.1-8.72s6.07,3.05,6.07,8.7v1.02c0,5.67-2.05,8.72-6.07,8.72s-6.1-3.05-6.1-8.72ZM379.66,440.83v-.92c0-4.8-1.08-7.02-3.82-7.02s-3.85,2.2-3.85,7v.9c0,4.77,1.07,7.05,3.85,7.05s3.82-2.22,3.82-7Z"/>
      <path class="cls-1" d="M384.92,441.46v-1.17c0-6.32,3.27-9.15,6.9-9.15,1.72,0,3.55.45,4.6,1.07l-.53,1.7c-.77-.45-2.42-.97-3.85-.97-2.67,0-4.8,1.77-4.95,6.95,1.15-1.12,2.65-1.8,4.47-1.8,3.3,0,5.55,1.97,5.55,5.5,0,2.82-1.87,6-6.05,6-4.8,0-6.15-4.57-6.15-8.12ZM394.97,443.83c0-2.45-.95-3.97-3.75-3.97-1.67,0-3.22.97-4.12,2.15v.25c0,2.47.95,5.57,4.07,5.57,2.17,0,3.8-1.5,3.8-4Z"/>
      <path class="cls-1" d="M399.47,448.4l.45-1.7c1.22.77,2.9,1.1,4.3,1.1,2.95,0,4.8-1.65,4.8-3.95,0-2.75-1.5-3.9-4.7-3.9-1.3,0-2.92.55-3.97,1.07l.62-9.6h9.27v1.8h-7.57l-.35,5.6c.6-.25,1.82-.55,2.85-.55,3.6,0,6.1,1.65,6.1,5.42,0,2.87-2.07,5.87-6.6,5.87-2.17,0-4-.45-5.2-1.17Z"/>
      <path class="cls-1" d="M413.61,448.43l.58-1.7c1.02.62,2.87,1.02,4.17,1.02,2.95,0,4.8-1.3,4.8-3.52s-1.88-3.35-4.7-3.35h-1.77v-1.8h1.62c2.47,0,4.2-1.12,4.2-3.22s-1.72-2.92-3.9-2.92c-1.42,0-2.75.42-3.87,1.07l-.58-1.62c1.2-.75,2.95-1.25,4.85-1.25,3.55,0,5.67,1.62,5.67,4.42,0,2.2-1.22,3.75-3.42,4.27v.02c2.32.32,4.12,1.62,4.12,4.37,0,3.12-2.17,5.35-6.72,5.35-2.07,0-3.95-.48-5.05-1.15Z"/>
      <path class="cls-1" d="M428.28,444.7c0-2.2,1.32-3.82,4.05-4.7-1.9-.7-3.42-1.97-3.42-4.4s2.25-4.47,5.57-4.47c3.85,0,5.5,2.17,5.5,4.37,0,1.7-.8,3.1-3.5,4.35,2.6.88,4.2,2.15,4.2,4.77,0,2.85-2.65,4.95-6.27,4.95-4,0-6.12-2.2-6.12-4.87ZM438.43,444.78c0-2.12-1.2-3-4.45-3.95-2.7.88-3.55,2.17-3.55,3.72,0,1.95,1.47,3.27,4,3.27,2.12,0,4-1.2,4-3.05ZM437.85,435.63c0-1.37-.85-2.77-3.35-2.77-2.1,0-3.38,1.17-3.38,2.75,0,1.45.83,2.62,3.72,3.42,2.4-1,3-1.97,3-3.4Z"/>
      <path class="cls-1" d="M443.38,441.46v-1.17c0-6.32,3.27-9.15,6.9-9.15,1.72,0,3.55.45,4.6,1.07l-.53,1.7c-.77-.45-2.42-.97-3.85-.97-2.67,0-4.8,1.77-4.95,6.95,1.15-1.12,2.65-1.8,4.47-1.8,3.3,0,5.55,1.97,5.55,5.5,0,2.82-1.87,6-6.05,6-4.8,0-6.15-4.57-6.15-8.12ZM453.43,443.83c0-2.45-.95-3.97-3.75-3.97-1.67,0-3.22.97-4.12,2.15v.25c0,2.47.95,5.57,4.07,5.57,2.17,0,3.8-1.5,3.8-4Z"/>
      <path class="cls-1" d="M458,448l4.25-4.4c3-3.05,4.22-4.6,4.22-7.2,0-2.4-1.27-3.45-3.6-3.45-1.52,0-2.95.7-4.05,1.47l-.6-1.67c1.3-.85,3.02-1.62,5.05-1.62,3.62,0,5.42,2.17,5.42,5.07,0,3.15-1.9,5.37-4.72,8.22l-3,3.02h8.17v1.8h-11.15v-1.25Z"/>
      <path class="cls-1" d="M491.6,431.38c-.15,8.42-4.22,13.42-10.6,16.5l-1.25-1.52c3.82-1.62,6.77-4.25,8.4-7.7l-7.85.7-.42-1.85,8.92-.52c.38-1.22.6-2.52.67-3.9h-8.6v-1.7h10.72ZM497.37,438.53h3.8v1.72h-3.8v12h-2.02v-23.24h2.02v9.52Z"/>
      <path class="cls-1" d="M514.89,431.38c-.15,8.42-4.22,13.42-10.6,16.5l-1.25-1.52c3.82-1.62,6.77-4.25,8.4-7.7l-7.85.7-.42-1.85,8.92-.52c.38-1.22.6-2.52.67-3.9h-8.6v-1.7h10.72ZM520.66,438.53h3.8v1.72h-3.8v12h-2.02v-23.24h2.02v9.52Z"/>
      <path class="cls-1" d="M536.64,442.83v4.65h9.52v1.7h-21v-1.7h9.45v-4.65c-4.45-.32-7.35-2.62-7.35-6.07,0-3.67,3.35-6.1,8.37-6.1s8.4,2.42,8.4,6.1c0,3.45-2.92,5.77-7.4,6.07ZM535.64,432.36c-3.87,0-6.4,1.77-6.4,4.45s2.52,4.42,6.4,4.42,6.45-1.77,6.45-4.42-2.52-4.45-6.45-4.45Z"/>
      <path class="cls-1" d="M547.8,441.16v-10.52h1.97v3.5h5.15v-3.5h1.97v10.52h-9.1ZM554.92,435.81h-5.15v3.67h5.15v-3.67ZM558.62,452.18c-5.07,0-8.02-1.7-8.02-4.4s2.95-4.4,8.02-4.4,8.02,1.7,8.02,4.4-2.97,4.4-8.02,4.4ZM552.7,447.78c0,1.77,2.27,2.8,5.92,2.8s5.95-1.02,5.95-2.8-2.27-2.8-5.95-2.8-5.92,1.05-5.92,2.8ZM564.32,443.15v-6.3h-2.8v5.52h-1.95v-12.95h1.95v5.72h2.8v-6.15h2v14.15h-2Z"/>
      <path class="cls-1" d="M569.36,448.85v-1.7h20.99v1.7h-20.99ZM587.65,434.53c-.02,3.12-.38,8.42-1.05,11.37l-1.95-.25c.25-1.1.53-3.5.7-5.9l-13.75.7-.4-1.77,14.25-.5c.05-.92.1-1.8.1-2.55v-2.4h-13.62v-1.67h15.72v2.97Z"/>
      <path class="cls-1" d="M601.23,429.86h1.75v22.12h-1.75v-22.12Z"/>
      <path class="cls-1" d="M623.63,434.53h3.32v-5.07h1.97v21.62h-1.97v-7.57h-3.32c-.8,2.22-2.27,3.57-4.45,3.57-3.4,0-5.12-3.32-5.12-8.1s1.72-8.1,5.12-8.1c2.17,0,3.67,1.4,4.45,3.65ZM619.18,432.63c-1.95,0-3.15,2.47-3.15,6.35s1.2,6.35,3.15,6.35,3.17-2.42,3.17-6.35-1.22-6.35-3.17-6.35ZM624.08,436.23c.15.85.22,1.77.22,2.75,0,1.02-.1,1.97-.25,2.82h2.9v-5.57h-2.87ZM631.48,452.25v-23.24h2v23.24h-2Z"/>
      <path class="cls-1" d="M654.58,430.38c0,3.12-.25,6.37-.8,8.72h3.55v1.7h-20.99v-1.7h15.45c.45-1.75.72-5.1.72-7.05h-13.47v-1.67h15.55ZM638.86,451.75v-8.07h15.95v8.07h-15.95ZM652.78,445.35h-11.9v4.72h11.9v-4.72Z"/>
      <path class="cls-1" d="M668.41,452.25v-8.32h-9.45v-1.7h21v1.7h-9.52v8.32h-2.02ZM678.01,440.06c-3.8-.65-7.5-3-8.55-5.17-.95,2.17-4.55,4.57-8.52,5.22l-.92-1.7c3.8-.4,8.3-2.82,8.4-6.07h-7.52v-1.67h17.12v1.67h-7.47c.1,3.27,4.87,5.62,8.42,6.02l-.95,1.7Z"/>
      <path class="cls-1" d="M682.5,435.46h2.3v2.4h-2.3v-2.4ZM682.5,445.23h2.3v2.4h-2.3v-2.4Z"/>
      <path class="cls-1" d="M700.83,452.25v-8.25h-5.42v-1.7h20.99v1.7h-5.5v8.25h-2.02v-8.25h-6.02v8.25h-2.02ZM705.9,440.16c-5.15,0-8.25-2.02-8.25-5.05s3.1-5.05,8.25-5.05,8.25,2.02,8.25,5.05-3.1,5.05-8.25,5.05ZM699.65,435.11c0,1.97,2.37,3.25,6.25,3.25s6.27-1.27,6.27-3.25-2.37-3.25-6.27-3.25-6.25,1.27-6.25,3.25Z"/>
      <path class="cls-1" d="M717.63,435.03v-1.67h13.62v1.67h-13.62ZM724.45,444.43c-3.1,0-5.47-1.62-5.47-4.07s2.35-4.07,5.47-4.07,5.47,1.57,5.47,4.07-2.35,4.07-5.47,4.07ZM724.45,437.88c-1.87,0-3.55.92-3.55,2.47s1.67,2.45,3.55,2.45,3.55-.92,3.55-2.45-1.67-2.47-3.55-2.47ZM720.95,431.61v-1.77h6.7v1.77h-6.7ZM721.03,451.5v-5.97h2.02v4.27h13.45v1.7h-15.47ZM735.6,438.58v7.57h-2.02v-17.15h2.02v7.87h3.55v1.7h-3.55Z"/>
      <path class="cls-1" d="M752.31,430.28c-.47,6.12-4.8,9.82-10.57,11.5l-1.02-1.62c5.1-1.3,8.52-4.37,9.27-8.17h-8.27v-1.7h10.6ZM744.39,452.1v-5.85h13v-2.55h-13.07v-1.6h15.1v5.62h-13v2.77h13.87v1.6h-15.9ZM752.56,432.43h4.82v-3.42h2.02v11.82h-2.02v-2.5h-5.12v-1.62h5.12v-2.67h-4.82v-1.6Z"/>
      <path class="cls-1" d="M139.36,490.8c-2.52.47-7.65.82-11.35.82h-2v-15.42h10.82v1.67h-8.8v4.87h8.35v1.65h-8.35v5.47c3.65.1,8.8-.27,11.1-.75l.22,1.67ZM141.73,497.25v-23.24h2.02v23.24h-2.02Z"/>
      <path class="cls-1" d="M156.9,476.01c-.05,5.82-2.65,10.15-8.5,12.7l-1.32-1.55c3.22-1.15,5.32-3.05,6.5-5.27l-6.15.7-.42-1.8,7.25-.52c.28-.82.42-1.67.5-2.55h-6.6v-1.7h8.75ZM166.34,497.53c-2.75-.55-6.62-3-7.75-5.55-.92,2.47-4.82,4.8-8.07,5.5l-1.05-1.65c3.77-.52,8.12-3.27,8.12-6.6v-.85h2.12v.85c0,3.35,4.32,6.12,7.75,6.62l-1.12,1.67ZM156.7,482.31v-1.67h3.42v-6.2h1.95v13.1h-1.95v-5.22h-3.42ZM164.37,489.43v-15.42h2v15.42h-2Z"/>
      <path class="cls-1" d="M175.62,475.76c3.85,0,6,3.3,6,8.22s-2.15,8.2-6,8.2-6-3.27-6-8.22,2.17-8.2,6-8.2ZM175.62,477.51c-2.45,0-4.07,2.65-4.07,6.47s1.62,6.45,4.07,6.45,4.07-2.65,4.07-6.45-1.6-6.47-4.07-6.47ZM185.94,497.25v-23.24h2.02v23.24h-2.02Z"/>
      <path class="cls-1" d="M199.52,476.06h12.5v1.7h-5.2c0,1.05,0,1.55.03,1.87.17,2.97,3.05,5.65,5.7,6.52l-1.12,1.62c-2.22-.9-4.7-3.12-5.65-5.22-.62,2.17-3.32,4.7-5.82,5.77l-1.17-1.57c2.92-1.12,5.85-4.07,5.97-7.15.02-.3.02-.83.02-1.85h-5.25v-1.7ZM202.69,496.48v-7.15h2.02v5.45h13.62v1.7h-15.65ZM215.82,491.03v-8.87h-4.62v-1.7h4.62v-6.45h2.02v17.02h-2.02Z"/>
      <path class="cls-1" d="M224.51,483.36c3.22,0,7.37-.25,9.62-.7l.2,1.62c-2.58.45-7.1.75-11.1.75h-1.9v-9.52h10.77v1.7h-8.75v6.15h1.15ZM223.76,497v-5.9h12.72v-2.37h-12.8v-1.65h14.82v5.55h-12.72v2.7h13.6v1.67h-15.62ZM238.51,480.86v5h-2.02v-11.85h2.02v5.15h3.55v1.7h-3.55Z"/>
      <path class="cls-1" d="M258.75,491.8c-1.85.23-4.77.45-7.6.6-2.6.12-6.1.22-7.62.22l-.33-1.77c1.77,0,4.1-.02,6.55-.1v-4.95h-4.82v-9.47h12.07v1.67h-10.05v6.12h10.12v1.67h-5.3v4.87c2.57-.1,5.3-.3,6.77-.5l.2,1.62ZM260.38,497.25v-23.24h2v23.24h-2Z"/>
      <path class="cls-1" d="M278.59,491.7c-2.17-1.4-5.12-4.32-5.92-7.07-.78,2.9-3.32,5.87-6.02,7.62l-1.25-1.5c3.4-2,6.2-5.95,6.2-10.35v-2.4h-5.42v-1.67h12.95v1.67h-5.42v2.37c0,4.32,2.95,8.1,6.15,9.82l-1.25,1.5ZM284.54,474.01v23.24h-2.02v-23.24h2.02Z"/>
      <path class="cls-1" d="M307.77,480.63c0,3.35-2.72,5.45-6.02,5.45s-6.02-2.1-6.02-5.42,2.72-5.5,6.02-5.5,6.02,2.2,6.02,5.47ZM304.62,495.73c-1.65.47-4.05.9-7,.87v-8.37h1.97v6.62c1.3.02,3.42-.38,4.7-.77l.33,1.65ZM297.7,480.63c0,2.22,1.72,3.72,4.05,3.72s4.07-1.5,4.07-3.7-1.62-3.77-4.07-3.77-4.05,1.57-4.05,3.75ZM303.97,490.58v-1.62h11.62v1.62h-11.62ZM309.74,497.53c-2.4,0-4.37-1.25-4.37-3.12s1.97-3.12,4.37-3.12,4.4,1.17,4.4,3.12-1.97,3.12-4.4,3.12ZM307.17,487.83v-1.65h5.35v1.65h-5.35ZM309.74,492.88c-1.3,0-2.4.62-2.4,1.52s1.1,1.52,2.4,1.52,2.42-.6,2.42-1.52-1.07-1.52-2.42-1.52ZM313.34,481.03v4.1h-2.02v-11.12h2.02v5.32h3.55v1.7h-3.55Z"/>
      <path class="cls-1" d="M317.75,487.63v-1.7h20.99v1.7h-20.99ZM328.25,483.83c-5.07,0-8.07-1.62-8.07-4.6s3.02-4.55,8.1-4.55,8.07,1.62,8.07,4.55-3.02,4.6-8.1,4.6ZM320.53,496.58v-6.77h2.02v5.07h13.82v1.7h-15.85ZM322.2,479.26c0,1.9,2.38,2.87,6.05,2.87s6.1-.98,6.1-2.87-2.4-2.9-6.07-2.9-6.07.98-6.07,2.9Z"/>
      <path class="cls-1" d="M359.72,475.81c-.35,5.85-4.55,10.42-10.7,12.57l-1-1.72c4.8-1.32,8.72-5.17,9.42-9.12h-8.42v-1.72h10.7ZM359.02,497.13c-5.07,0-7.9-1.7-7.9-4.4s2.82-4.4,7.9-4.4,7.9,1.7,7.9,4.4-2.85,4.4-7.9,4.4ZM353.2,492.73c0,1.72,2.17,2.72,5.82,2.72s5.82-1,5.82-2.72-2.15-2.7-5.82-2.7-5.82,1-5.82,2.7ZM359.6,483.08h5.12v-3.2h-4.75v-1.67h4.75v-4.2h2.02v14.67h-2.02v-3.92h-5.12v-1.67Z"/>
      <path class="cls-1" d="M379.33,497.28v-8.1h-9.37v-1.7h21v1.7h-9.6v8.1h-2.02ZM380.36,485.38c-5.2,0-8.32-2.1-8.32-5.2s3.12-5.2,8.32-5.2,8.32,2.1,8.32,5.2-3.12,5.2-8.32,5.2ZM374.03,480.18c0,2.15,2.4,3.45,6.32,3.45s6.35-1.3,6.35-3.45-2.4-3.45-6.35-3.45-6.32,1.3-6.32,3.45Z"/>
      <path class="cls-1" d="M400.81,475.23h2.02v6.97h.12c1.15-.8,2.82-1.37,4.45-1.37,2.57,0,3.82,1.07,3.82,3.62v9.8h-2.02v-9.4c0-1.6-.58-2.27-2.67-2.27-1.25,0-2.62.48-3.7,1v10.67h-2.02v-19.02Z"/>
      <path class="cls-1" d="M413.96,487.85v-.38c0-4.6,2.7-6.65,5.75-6.65,3.6,0,5.3,2.1,5.3,6.2v1.15h-8.97c.1,3.3,1.67,4.57,4.47,4.57,1.77,0,2.95-.42,4.12-1v1.52c-.8.55-2.3,1.22-4.42,1.22-4.15,0-6.25-2.52-6.25-6.65ZM416.03,486.56h6.85c0-2.87-1.1-4.07-3.25-4.07-1.65,0-3.4.95-3.6,4.07Z"/>
      <path class="cls-1" d="M427.81,475.23h2.05v19.02h-2.05v-19.02Z"/>
      <path class="cls-1" d="M433.29,475.23h2.05v19.02h-2.05v-19.02Z"/>
      <path class="cls-1" d="M438.16,487.9v-.4c0-4.17,2.42-6.67,5.97-6.67,3.72,0,5.97,2.42,5.97,6.6v.38c0,4.2-2.42,6.7-6,6.7s-5.95-2.4-5.95-6.6ZM448.03,488.03v-.65c0-3.67-1.77-4.87-3.92-4.87-2.4,0-3.87,1.7-3.87,4.8v.65c0,3.67,1.72,4.87,3.92,4.87,2.4,0,3.87-1.67,3.87-4.8Z"/>
      <path class="cls-1" d="M452.55,488.53c0-6.07,3.92-11.92,11.32-11.92,5.72,0,9.22,3.82,9.22,9,0,4.82-2.17,7.7-5.75,7.7-1.67,0-2.52-.65-2.75-1.65h-.1c-.72.85-1.85,1.65-3.27,1.65-2.3,0-3.57-1.62-3.57-4.22,0-4.37,2.1-7.37,5.5-7.37,1.28,0,2.27.5,2.82,1.05h.1l.15-.8h1.9l-1.58,8.35c-.17.95.1,1.52,1.12,1.52,2.27,0,3.67-2.17,3.67-6.07,0-4.5-2.42-7.62-7.52-7.62-6.25,0-9.55,4.62-9.55,10.37,0,5.05,2.77,8.15,8.55,8.15,2.45,0,4.57-.62,5.77-1.02v1.32c-1.5.65-3.5,1.17-5.8,1.17-6.57,0-10.25-3.57-10.25-9.6ZM464.57,490.35l1.08-6.1c-.42-.5-1.3-.95-2.5-.95-2.52,0-3.45,2.45-3.45,5.75,0,1.77.73,2.67,2.08,2.67,1.22,0,2.12-.67,2.8-1.38Z"/>
      <path class="cls-1" d="M475.41,493.55v-1.62c1.12.42,2.1.82,3.95.82,2.1,0,2.95-.75,2.95-1.95s-.6-1.75-2.27-2.22l-1.3-.35c-1.92-.52-3.22-1.4-3.22-3.65s1.45-3.75,4.5-3.75c1.75,0,2.87.4,3.57.77v1.65c-.67-.35-2.02-.7-3.47-.7-1.78,0-2.67.62-2.67,1.85,0,1.15.58,1.62,1.97,2.02l1.32.35c2.52.67,3.57,1.52,3.57,3.82,0,2.5-1.75,3.87-4.65,3.87-1.72,0-3.17-.32-4.25-.92Z"/>
      <path class="cls-1" d="M486.8,490.65v-9.57h2.02v9.27c0,1.7.62,2.4,2.57,2.4,1.4,0,2.57-.5,3.65-1.05v-10.62h2.03v13.17h-1.75l-.2-1.17h-.1c-1.2.8-2.6,1.42-4.2,1.42-2.57,0-4.02-1.3-4.02-3.85Z"/>
      <path class="cls-1" d="M500.49,481.08h1.92v1.15h.12c1.2-.8,2.92-1.4,4.55-1.4,2.57,0,3.82,1.05,3.82,3.6v9.82h-2.02v-9.4c0-1.6-.58-2.27-2.67-2.27-1.25,0-2.62.48-3.7.97v10.7h-2.02v-13.17Z"/>
      <path class="cls-1" d="M513.64,487.93v-.4c0-4.67,2.75-6.7,6.17-6.7,1.72,0,2.75.32,3.62.87v1.7c-1.17-.52-2.02-.85-3.75-.85-2.4,0-3.95,1.62-3.95,4.65v.65c0,3.37,1.4,4.9,4.22,4.9,1.77,0,2.95-.57,3.62-.92v1.62c-.88.52-2.02,1.05-3.87,1.05-3.77,0-6.07-2.22-6.07-6.57Z"/>
      <path class="cls-1" d="M525.25,487.9v-.4c0-4.17,2.42-6.67,5.97-6.67,3.72,0,5.97,2.42,5.97,6.6v.38c0,4.2-2.42,6.7-6,6.7s-5.95-2.4-5.95-6.6ZM535.12,488.03v-.65c0-3.67-1.77-4.87-3.92-4.87-2.4,0-3.87,1.7-3.87,4.8v.65c0,3.67,1.72,4.87,3.92,4.87,2.4,0,3.87-1.67,3.87-4.8Z"/>
      <path class="cls-1" d="M540.04,475.23h2.05v19.02h-2.05v-19.02Z"/>
      <path class="cls-1" d="M545.52,475.23h2.05v19.02h-2.05v-19.02Z"/>
      <path class="cls-1" d="M550.08,490.8c0-2.3,1.47-3.52,4-3.82l3.57-.42v-1.38c0-2.05-.9-2.6-3.27-2.6-1.27,0-2.32.2-3.15.42v-1.45c1.15-.47,2.42-.72,3.95-.72,2.9,0,4.52,1.2,4.52,3.87v9.55h-1.65l-.22-1.12h-.12c-.62.72-1.72,1.37-3.52,1.37-2.37,0-4.1-1.22-4.1-3.7ZM557.65,491.95v-3.87l-3.05.33c-1.6.17-2.4.82-2.4,2.35,0,1.42.98,2.15,2.5,2.15,1.22,0,2.37-.4,2.95-.95Z"/>
      <path class="cls-1" d="M563.07,493.83v-18.6h2.05v6.72h.12c1-.62,2.25-1.12,4.07-1.12,2.52,0,5.12,1.52,5.12,6.47v.35c0,4.4-2.32,6.9-6.57,6.9-1.55,0-3.65-.27-4.8-.73ZM572.32,487.95v-.52c0-3.67-1.27-4.87-3.95-4.87-1.35,0-2.57.55-3.25.85v8.97c.6.25,1.52.48,2.87.48,2.35,0,4.32-1.12,4.32-4.9Z"/>
      <path class="cls-1" d="M576.66,487.9v-.4c0-4.17,2.42-6.67,5.97-6.67,3.72,0,5.97,2.42,5.97,6.6v.38c0,4.2-2.42,6.7-6,6.7s-5.95-2.4-5.95-6.6ZM586.54,488.03v-.65c0-3.67-1.77-4.87-3.92-4.87-2.4,0-3.87,1.7-3.87,4.8v.65c0,3.67,1.72,4.87,3.92,4.87,2.4,0,3.87-1.67,3.87-4.8Z"/>
      <path class="cls-1" d="M591.41,481.08h1.92v1.47h.15c.72-.85,2.17-1.62,3.65-1.62.3,0,.67.02.8.07v1.82c-.32-.05-.72-.08-.95-.08-1.33,0-2.6.48-3.52,1.15v10.35h-2.05v-13.17Z"/>
      <path class="cls-1" d="M599.25,490.8c0-2.3,1.47-3.52,4-3.82l3.57-.42v-1.38c0-2.05-.9-2.6-3.27-2.6-1.27,0-2.32.2-3.15.42v-1.45c1.15-.47,2.42-.72,3.95-.72,2.9,0,4.52,1.2,4.52,3.87v9.55h-1.65l-.22-1.12h-.12c-.62.72-1.72,1.37-3.52,1.37-2.37,0-4.1-1.22-4.1-3.7ZM606.82,491.95v-3.87l-3.05.33c-1.6.17-2.4.82-2.4,2.35,0,1.42.98,2.15,2.5,2.15,1.22,0,2.37-.4,2.95-.95Z"/>
      <path class="cls-1" d="M612.96,491.28v-8.5h-1.88v-1.67h1.88v-3.15h2.02v3.15h3.37v1.67h-3.37v8.2c0,1.27.42,1.77,1.95,1.77.55,0,1.17-.07,1.7-.25v1.4c-.52.23-1.1.52-2.22.52-2.07,0-3.45-.9-3.45-3.15Z"/>
      <path class="cls-1" d="M621.1,476.31h2.07v2.12h-2.07v-2.12ZM621.12,481.11h2.02v13.15h-2.02v-13.15Z"/>
      <path class="cls-1" d="M625.92,487.9v-.4c0-4.17,2.42-6.67,5.97-6.67,3.72,0,5.97,2.42,5.97,6.6v.38c0,4.2-2.42,6.7-6,6.7s-5.95-2.4-5.95-6.6ZM635.79,488.03v-.65c0-3.67-1.77-4.87-3.92-4.87-2.4,0-3.87,1.7-3.87,4.8v.65c0,3.67,1.72,4.87,3.92,4.87,2.4,0,3.87-1.67,3.87-4.8Z"/>
      <path class="cls-1" d="M640.66,481.08h1.92v1.15h.12c1.2-.8,2.92-1.4,4.55-1.4,2.57,0,3.82,1.05,3.82,3.6v9.82h-2.02v-9.4c0-1.6-.58-2.27-2.67-2.27-1.25,0-2.62.48-3.7.97v10.7h-2.02v-13.17Z"/>
      <path class="cls-1" d="M654.09,492.55h2.3v2.37h-2.3v-2.37Z"/>
      <path class="cls-1" d="M660.13,475.23h2.05v19.02h-2.05v-19.02Z"/>
      <path class="cls-1" d="M665.6,476.31h2.08v2.12h-2.08v-2.12ZM665.63,481.11h2.02v13.15h-2.02v-13.15Z"/>
      <path class="cls-1" d="M669.97,481.08h2.2l3.7,10.6h.1l3.8-10.6h2l-4.9,13.17h-2.02l-4.87-13.17Z"/>
      <path class="cls-1" d="M682.87,487.85v-.38c0-4.6,2.7-6.65,5.75-6.65,3.6,0,5.3,2.1,5.3,6.2v1.15h-8.97c.1,3.3,1.67,4.57,4.47,4.57,1.77,0,2.95-.42,4.12-1v1.52c-.8.55-2.3,1.22-4.42,1.22-4.15,0-6.25-2.52-6.25-6.65ZM684.95,486.56h6.85c0-2.87-1.1-4.07-3.25-4.07-1.65,0-3.4.95-3.6,4.07Z"/>
      <path class="cls-1" d="M695.89,494.28v-1.7h9.45v-3.95h-6.85v-7.27h13.77v-3.72h-13.8v-1.7h15.82v7.1h-13.77v3.9h14.42v1.7h-7.57v3.95h9.52v1.7h-20.99Z"/>
      <path class="cls-1" d="M738.11,481.38c0,3.47-2.62,5.77-6.02,5.77s-6.05-2.27-6.05-5.75,2.62-5.82,6.02-5.82,6.05,2.35,6.05,5.8ZM728.01,481.38c0,2.35,1.77,4,4.07,4s4.05-1.65,4.05-3.97-1.65-4.05-4.07-4.05c-2.3,0-4.05,1.67-4.05,4.02ZM729.86,496.48v-7.07h2.02v5.4h13.5v1.67h-15.52ZM738.63,478.98v-1.67h4.22v-3.3h2.02v16.87h-2.02v-5.95h-4.22v-1.67h4.22v-4.27h-4.22Z"/>
      <path class="cls-1" d="M761.54,486.35c-2.4.42-7.57.77-10.82.77h-2.2v-6.87h8.45v-3.15h-8.52v-1.67h10.55v6.47h-8.45v3.52h.3c2.7,0,7.8-.17,10.52-.72l.17,1.65ZM765.49,489.48v7.77h-2.02v-6.1h-13.1v-1.67h15.12ZM765.49,481.83v6.42h-2v-14.25h2v6.12h3.55v1.7h-3.55Z"/>
      <path class="cls-1" d="M779.26,497.25v-8.32h-9.45v-1.7h20.99v1.7h-9.52v8.32h-2.02ZM788.86,485.06c-3.8-.65-7.5-3-8.55-5.17-.95,2.17-4.55,4.57-8.52,5.22l-.92-1.7c3.8-.4,8.3-2.82,8.4-6.07h-7.52v-1.67h17.12v1.67h-7.47c.1,3.27,4.87,5.62,8.42,6.02l-.95,1.7Z"/>
      <path class="cls-1" d="M803.13,491.4c-1.8-1.3-4.25-4.05-4.97-6.7-.52,2.67-2.42,5.7-4.75,7.37l-1.25-1.5c2.65-1.67,4.97-5.65,4.97-10.2v-4.22h2v4.17c0,4.52,2.7,7.9,5.22,9.57l-1.22,1.5ZM805.78,496.08v-12h-4.12v-1.7h4.12v-7.82h1.97v21.52h-1.97ZM810.35,497.25v-23.24h2v23.24h-2Z"/>
      <path class="cls-1" d="M815.17,494.28v-1.7h5.2v-4.62l2.02-.05v4.67h6.47v-4.67l2.02.05v4.62h5.27v1.7h-20.99ZM825.65,487.23c-5.02,0-8.37-2.3-8.37-5.8s3.35-5.85,8.37-5.85,8.4,2.35,8.4,5.85-3.35,5.8-8.4,5.8ZM825.65,477.21c-3.88,0-6.42,1.7-6.42,4.22s2.55,4.22,6.42,4.22,6.45-1.7,6.45-4.22-2.55-4.22-6.45-4.22Z"/>
      <path class="cls-1" d="M838.43,492.55h2.3v2.37h-2.3v-2.37Z"/>
    </g>
    <polygon class="cls-3" points="917.67 1.32 917.67 19.17 910.84 2.68 902.06 6.31 908.89 22.8 896.27 10.18 889.56 16.89 902.18 29.52 885.69 22.69 882.06 31.46 898.55 38.29 880.7 38.29 880.7 47.78 898.55 47.78 882.06 54.61 885.69 63.38 902.19 56.55 889.56 69.18 896.27 75.89 908.89 63.27 902.06 79.76 910.84 83.39 917.67 66.9 917.67 84.75 927.16 84.75 927.16 66.9 933.99 83.39 942.76 79.76 935.93 63.27 948.56 75.89 955.27 69.18 942.65 56.55 959.14 63.38 962.77 54.61 946.28 47.78 964.13 47.78 964.13 38.29 946.28 38.29 962.77 31.46 959.14 22.69 942.65 29.51 955.27 16.89 948.56 10.18 935.93 22.8 942.76 6.31 933.99 2.68 927.16 19.17 927.16 1.32 917.67 1.32"/>
  </g>
</svg>