<?xml version="1.0" encoding="UTF-8"?>
<svg xmlns="http://www.w3.org/2000/svg" version="1.1" viewBox="0 0 967 552.4">
  <defs>
    <style>
      .cls-1 {
        fill: #727272;
      }

      .cls-2 {
        fill: none;
        stroke: #fff;
        stroke-miterlimit: 10;
      }

      .cls-3 {
        fill: #fff;
      }
    </style>
  </defs>
  <!-- Generator: Adobe Illustrator 28.6.0, SVG Export Plug-In . SVG Version: 1.2.0 Build 709)  -->
  <g>
    <g id="_레이어_1" data-name="레이어_1">
      <g id="_레이어_1-2" data-name="_레이어_1">
        <g id="_레이어_2">
          <rect y="0" width="967" height="552.4"/>
        </g>
        <g id="_레이어_1-2">
          <g>
            <path class="cls-3" d="M2.7,3.1h10.1c0,8.4-2.7,12.6-8.7,16.2-.7-.9-1.6-1.8-2.4-2.6,4.6-1.3,7.7-6.1,7.7-10.8H2.7v-2.8h0ZM18.2,1.3c1.4,0,1.8,0,1.8.4s-.4.7-.4,1.5v7.3h2.8v2.8h-2.8v8.9h-3.2V1.3h1.8Z"/>
            <path class="cls-3" d="M23.6,10.3h20.7v2.7h-20.7s0-2.7,0-2.7ZM42.8,18.4c0,2.1-2.6,3.9-8.9,3.9s-8.7-1.9-8.7-3.9,2.6-3.9,8.7-3.9,8.9,1.9,8.9,3.9ZM27.8,1.6c1.1,0,1.4,0,1.4.3s-.2.5-.2,1v2.7h13.4v2.6h-16.6V1.6h2ZM28.5,18.4c0,1,1.5,1.8,5.4,1.8s5.6-.8,5.6-1.8-1.4-1.6-5.6-1.6-5.4.7-5.4,1.6Z"/>
            <path class="cls-3" d="M53.3,1.9c1.1,0,1.3.1,1.3.4s-.3.7-.3,1.3c0,2.3,1.7,6,5.2,7.5-.8.6-1.6,1.5-2.3,2.3-1.8-1.1-3.8-3.2-4.3-5.1-.5,1.9-2.1,4-4.7,5.6-.6-.7-1.6-1.6-2.5-2.2,3.4-1.6,5.5-4.4,5.5-10h2v.2ZM50.2,14.9c1.3,0,1.6.1,1.6.4s-.3.6-.3,1.1v2.4h13.5v2.7h-16.7v-6.6h1.9ZM63.4,1.3c1.5,0,1.8,0,1.8.4s-.4.7-.4,1.5v13.2h-3.2v-7.6h-3.6v-2.6h3.6V1.3h1.8Z"/>
            <path class="cls-3" d="M95.8,13.3c2.3-1.5,3.5-2.5,3.5-4.2s-1-2.4-2.4-2.4-2.7,1.3-2.7,2.8h-2.9c0-2.9,2.3-5.2,5.7-5.2s5.3,2,5.3,4.8-1.8,4.2-4.7,6.1c-1,.6-1.5,1.1-2,1.6-.3.3-.6.3-.9.3h0c-.7,0-1.1.5-1.1,1s.4,1,1,1,1-.5,1-1h0c0-.4.2-.5.4-.5h6.7v2.5h-11.5c0-3.1,1.8-4.9,4.7-6.8h0Z"/>
            <path class="cls-3" d="M104.6,12.4c0-4.9,2.2-8.1,5.9-8.1s5.9,3.1,5.9,8.1-2.2,8.1-5.9,8.1-5.9-3.1-5.9-8.1ZM106,13.4c.6,0,1-.4,1-1s-.4-1-1-1-1,.4-1,1,.4,1,1,1ZM110.5,18c1.9,0,3-1.9,3-5.7s-1.1-5.7-3-5.7-3.1,1.9-3.1,5.7,1.1,5.7,3.1,5.7ZM115,13.4c.6,0,1-.4,1-1s-.4-1-1-1-1,.4-1,1,.4,1,1,1Z"/>
            <path class="cls-3" d="M123.1,13.3c2.3-1.5,3.5-2.5,3.5-4.2s-1-2.4-2.4-2.4-2.7,1.3-2.7,2.8h-2.9c0-2.9,2.3-5.2,5.7-5.2s5.3,2,5.3,4.8-1.8,4.2-4.7,6.1c-1,.6-1.5,1.1-2,1.6-.3.3-.6.3-.9.3h0c-.7,0-1.1.5-1.1,1s.4,1,1,1,1-.5,1-1h0c0-.4.2-.5.4-.5h6.7v2.5h-11.5c0-3.1,1.8-4.9,4.7-6.8h0Z"/>
            <path class="cls-3" d="M138.9,16.8h-7.6v-2.3l6.8-9.9h3.5v9.8h2.4v2.3h-2.4v3.3h-2.7v-3.3h0ZM138.3,14.4c.3,0,.4.1.4.4v.2c0,.6.5,1.1,1.1,1.1s1.1-.4,1.1-1.1-.5-1.1-1.1-1.1h-.5c-.3,0-.4-.2-.4-.4v-6.2l-4.8,7.1s4.2,0,4.2,0Z"/>
            <path class="cls-3" d="M145.5,17.1h3v3h-3v-3Z"/>
            <path class="cls-3" d="M157.9,9.7h.4c.6,0,1.1-.5,1.1-1.1s-.5-1.1-1.1-1.1-1.1.5-1.1,1.1v.2c0,.3-.1.4-.5.4h-2.4v-2.1c2.1,0,3.4-.9,3.6-2.5h2.4v15.5h-2.8v-9.9c0-.3.1-.5.5-.5h0Z"/>
            <path class="cls-3" d="M163,12.4c0-4.9,2.2-8.1,5.9-8.1s5.9,3.1,5.9,8.1-2.2,8.1-5.9,8.1-5.9-3.1-5.9-8.1ZM164.4,13.4c.6,0,1-.4,1-1s-.4-1-1-1-1,.4-1,1,.4,1,1,1ZM168.9,18c1.9,0,3-1.9,3-5.7s-1.1-5.7-3-5.7-3.1,1.9-3.1,5.7,1.1,5.7,3.1,5.7ZM173.4,13.4c.6,0,1-.4,1-1s-.4-1-1-1-1,.4-1,1,.4,1,1,1Z"/>
            <path class="cls-3" d="M176.5,17.1h3v3h-3v-3Z"/>
            <path class="cls-3" d="M188.9,9.7h.4c.6,0,1.1-.5,1.1-1.1s-.5-1.1-1.1-1.1-1.1.5-1.1,1.1v.2c0,.3-.1.4-.5.4h-2.4v-2.1c2.1,0,3.4-.9,3.6-2.5h2.4v15.5h-2.8v-9.9c0-.3.1-.5.5-.5h0Z"/>
            <path class="cls-3" d="M194.1,15.9h2.9c.1,1.2,1,2.1,2.6,2.1s3-1.1,3.2-4.1c0-.4.2-.6.6-.6h.3c.6,0,1.1-.4,1.1-1.1s-.5-1.1-1.1-1.1-1,.4-1.2,1.1c-.4,1.5-2,2.3-3.7,2.3-2.9,0-4.9-2-4.9-5.1s2.3-5.4,5.6-5.4,6.1,3.1,6.1,7.8-2.1,8.4-6.3,8.4-5.1-1.6-5.3-4.4h0ZM199.5,12.4c1.6,0,2.7-1.2,2.7-2.9s-1.1-2.9-2.7-2.9-2.7,1.2-2.7,2.9,1.1,2.9,2.7,2.9Z"/>
            <path class="cls-3" d="M207.3,17.1h3v3h-3v-3Z"/>
            <path class="cls-3" d="M1,33.7h12.7v2.6h-4.5c-.3,0-.4-.2-.4-.4h0c0-.8-.6-1.4-1.4-1.4s-1.4.6-1.4,1.4h0c0,.3,0,.5-.4.5H1v-2.6h0ZM7.3,35.9c.8,0,1.4.6,1.4,1.4v11.8h-2.8v-11.8c0-.8.6-1.4,1.4-1.4Z"/>
            <path class="cls-3" d="M15.4,33.7h2.7v5.1c0,.3-.2.5-.5.5h-.5c-.6,0-1,.4-1,1s.4,1,1,1,.9-.4,1.1-1c.5-1.7,1.6-2.7,3.5-2.7s3.5,1.5,3.5,3.9v7.8h-2.7v-7.5c0-1.2-.6-2-1.9-2s-2.4,1.2-2.4,3.4v6.2h-2.7v-15.5h0v-.2Z"/>
            <path class="cls-3" d="M27.8,33.6h3v2.6h-3v-2.6ZM27.9,37.8h2.7v11.3h-2.7v-11.3Z"/>
            <path class="cls-3" d="M33.5,33.7h2.7v15.5h-2.7v-15.5Z"/>
            <path class="cls-3" d="M38.5,46.1c0-2.2,1.4-3.2,3.6-3.5l1.9-.3c1.2-.2,1.7-.5,1.7-1.2s-.6-1.5-1.9-1.5-2.1.7-2.2,1.8h-2.8c0-2.2,2-3.9,5-3.9s4.7,1.6,4.7,4.2v4.8c0,.9,0,2,.4,2.3v.3h-2.9c0-.4-.2-1-.2-1.5-.7,1-1.9,1.8-3.6,1.8s-3.7-1.3-3.7-3.4h0ZM43.1,47.4c1.7,0,2.5-1.2,2.6-2.7v-.2c0-.3.2-.5.5-.5h.2c.5,0,1-.4,1-1s-.4-1-1-1-1,.4-1,1v.2c0,.4-.2.6-.7.7h-.5l-1.1.3c-1.2.2-1.8.7-1.8,1.7s.8,1.5,1.8,1.5h0Z"/>
            <path class="cls-3" d="M55.4,41.5c0-5,2.7-8.1,7.2-8.1s6.1,2,6.3,5.5h-2.9c-.2-2-1.5-3.1-3.4-3.1s-4.2,2-4.2,5.6,1.6,5.7,4.2,5.7,3.1-1.6,3.3-2.8c0-.3.3-.4.6-.4h.4c.6,0,1.1-.5,1.1-1.1s-.5-1.1-1.1-1.1-1.1.5-1.1,1.1h0c0,.4-.2.6-.5.6h-2.7v-2.2h6.2v8h-2.4v-2c-.9,1.5-2.3,2.3-4.4,2.3-3.9,0-6.5-2.8-6.5-8h0ZM56.8,42.5c.6,0,1-.5,1-1s-.5-1-1-1-1.1.5-1.1,1,.5,1,1.1,1Z"/>
            <path class="cls-3" d="M71.6,37.8h2.6v1.1c0,.2-.2.4-.4.4h-.4c-.6,0-1,.4-1,1s.4,1,1,1,.8-.4,1-1c0-.5.3-.9.6-1.3.6-.9,1.5-1.4,2.8-1.4s.4,0,.6,0v2.7h-.9c-1.7,0-3,1.1-3,3.4v5.5h-2.7v-11.3h-.2Z"/>
            <path class="cls-3" d="M79,43.5c0-3.7,2.1-6,5.4-6s5.4,2.3,5.4,6-2.1,6-5.4,6-5.4-2.3-5.4-6ZM80.5,44.5c.5,0,1-.4,1-1s-.4-1-1-1-1,.4-1,1,.4,1,1,1ZM84.4,47.3c1.6,0,2.6-1.3,2.6-3.8s-1-3.8-2.6-3.8-2.6,1.3-2.6,3.8,1,3.8,2.6,3.8ZM88.4,44.5c.5,0,1-.4,1-1s-.4-1-1-1-1,.4-1,1,.4,1,1,1Z"/>
            <path class="cls-3" d="M92,45.6v-7.8h2.7v7.5c0,1.2.6,2,1.9,2s2.3-1.2,2.3-3.3v-6.2h2.7v11.3h-2.5v-1.1c0-.2,0-.4.3-.4h.5c.6,0,1-.4,1-1s-.4-1-1-1-.9.3-1.1,1c-.5,1.7-1.5,2.7-3.4,2.7s-3.7-1.5-3.7-3.8h.3Z"/>
            <path class="cls-3" d="M104.6,37.8h2.5v1.1c0,.2,0,.4-.4.4h-.5c-.6,0-1,.4-1,1s.4,1,1,1,.9-.4,1-1c.5-1.7,1.5-2.7,3.5-2.7s3.6,1.6,3.6,3.9v7.8h-2.7v-7.5c0-1.2-.6-2-1.8-2s-2.4,1.2-2.4,3.4v6.2h-2.7v-11.3h0v-.3Z"/>
            <path class="cls-3" d="M127.2,33.7v15.5h-2.7v-1.7c-.7,1.3-1.8,2-3.3,2-2.9,0-4.6-2.3-4.6-6s1.8-6,4.6-6,1.7.3,2.2.8.8,1,1,1.8c.2.6.5,1,1.1,1s1-.4,1-1-.4-1-1-1h-.5c-.2,0-.4-.2-.4-.4v-5.1h2.7,0ZM121.9,47.3c1.7,0,2.6-1.6,2.6-3.8s-.9-3.8-2.6-3.8-2.5,1.6-2.5,3.8.8,3.8,2.5,3.8Z"/>
            <path class="cls-3" d="M134.2,32.8h3.5c1.9,0,3,1.1,3,2.8s-1.2,2.9-3,2.9h-1.4c-.4,0-.7-.3-.7-.7s.3-.7.7-.7h1.1c1.1,0,1.7-.5,1.7-1.5s-.6-1.5-1.7-1.5h-1.2c-.2,0-.3,0-.3-.3h0c0-.4-.3-.7-.6-.7s-.6.3-.6.6.3.6.6.6h.2c.2,0,.3,0,.3.3v2.1c0,.2-.1.3-.3.3h-.2c-.4,0-.7.3-.7.7s.3.7.7.7h.2c.2,0,.3,0,.3.3v3.1h-1.6v-9h0Z"/>
            <path class="cls-3" d="M141.6,38.5c0-2.2,1.4-3.5,3.2-3.5s3,1.2,3,3.4v.5h-4c-.3,0-.6-.2-.6-.5s.2-.5.6-.5h2.3c0-1.1-.6-1.6-1.4-1.6s-1.3.5-1.5,1.4c0,.2-.1.2-.3.2h-.1c-.3,0-.6.2-.6.5s.2.5.6.5h.1c.1,0,.2,0,.2.2,0,1.2.7,1.7,1.6,1.7s1.2-.4,1.3-1.2h1.6c-.2,1.5-1.3,2.4-3,2.4s-3.2-1.1-3.2-3.5h.2Z"/>
            <path class="cls-3" d="M149.1,35.2h1.5v.6c0,0,0,.2-.2.2h-.2c-.3,0-.6.2-.6.6s.2.6.6.6.5-.2.6-.6c0-.3.2-.5.3-.7.3-.5.9-.8,1.6-.8s.2,0,.3,0v1.6h-.5c-1,0-1.7.6-1.7,2v3.2h-1.6v-6.6h-.1Z"/>
            <path class="cls-3" d="M154.5,36.4h-1.1v-1.2h1.1v-1c0-1,.6-1.6,1.6-1.6h1.3v1.2h-.8c-.3,0-.5.2-.5.5v.5c0,0,0,.2-.2.2h-.3c-.3,0-.6.3-.6.6s.3.6.6.6.6-.3.6-.6v-.2c0,0,0-.2.2-.2h1v1.2h-1.3v5.4h-1.6v-5.4h0Z"/>
            <path class="cls-3" d="M158,38.5c0-2.1,1.2-3.5,3.1-3.5s3.1,1.3,3.1,3.5-1.2,3.5-3.1,3.5-3.1-1.3-3.1-3.5ZM158.8,39c.3,0,.6-.2.6-.6s-.3-.6-.6-.6-.6.3-.6.6.2.6.6.6ZM161.1,40.7c.9,0,1.5-.8,1.5-2.2s-.6-2.2-1.5-2.2-1.5.8-1.5,2.2.6,2.2,1.5,2.2ZM163.5,39c.3,0,.6-.2.6-.6s-.2-.6-.6-.6-.6.3-.6.6.2.6.6.6Z"/>
            <path class="cls-3" d="M165.6,35.2h1.5v.6c0,0,0,.2-.2.2h-.2c-.3,0-.6.2-.6.6s.2.6.6.6.5-.2.6-.6c0-.3.2-.5.3-.7.3-.5.9-.8,1.6-.8s.2,0,.3,0v1.6h-.5c-1,0-1.7.6-1.7,2v3.2h-1.6v-6.6h-.1Z"/>
            <path class="cls-3" d="M170.5,35.2h1.5v.6c0,0,0,.2-.2.2h-.3c-.3,0-.6.2-.6.6s.2.6.6.6.5-.2.6-.6c.3-1.1,1-1.6,2-1.6s1.4.5,1.7,1.2c.4-.8,1.1-1.2,2.1-1.2s2.1.9,2.1,2.3v4.5h-1.6v-4.4c0-.7-.3-1.1-1-1.1s-1.3.6-1.3,1.8v3.8h-1.6v-4.4c0-.7-.4-1.1-1-1.1s-1.3.7-1.3,1.9v3.6h-1.6v-6.6h0Z"/>
            <path class="cls-3" d="M181.2,40c0-1.3.8-1.9,2.1-2.1l1.1-.2c.7,0,1-.3,1-.7s-.3-.9-1.1-.9-1.2.4-1.2,1.1h-1.7c0-1.3,1.2-2.2,2.9-2.2s2.7.9,2.7,2.5v2.8c0,.5,0,1.2.3,1.3v.2h-1.7c0-.2-.1-.5-.1-.9-.4.6-1.1,1.1-2.1,1.1s-2.2-.8-2.2-2h0ZM183.9,40.7c1,0,1.5-.7,1.5-1.6h0c0-.3.1-.4.3-.4h.1c.3,0,.6-.2.6-.6s-.3-.6-.6-.6-.6.2-.6.6h0c0,.3-.1.5-.4.5h-.3l-.7.2c-.7.2-1.1.4-1.1,1s.4.9,1.1.9h0Z"/>
            <path class="cls-3" d="M188.6,35.2h1.5v.6c0,0,0,.2-.2.2h-.3c-.3,0-.6.2-.6.6s.2.6.6.6.5-.2.6-.6c.3-1,.9-1.6,2-1.6s2.1.9,2.1,2.3v4.5h-1.6v-4.4c0-.7-.4-1.2-1.1-1.2s-1.4.7-1.4,2v3.6h-1.6v-6.6h0Z"/>
            <path class="cls-3" d="M195.6,38.5c0-2.2,1.3-3.5,3.1-3.5s2.8.9,2.9,2.6h-1.6c0-.9-.5-1.4-1.2-1.4s-1.5.7-1.5,2.2.6,2.2,1.4,2.2,1.2-.5,1.2-1.4h1.6c-.1,1.8-1.3,2.7-2.9,2.7s-3.1-1.2-3.1-3.5h.1ZM196.4,39.1c.3,0,.6-.2.6-.6s-.3-.6-.6-.6-.6.3-.6.6.2.6.6.6Z"/>
            <path class="cls-3" d="M202.5,38.5c0-2.2,1.4-3.5,3.2-3.5s3,1.2,3,3.4v.5h-4c-.3,0-.6-.2-.6-.5s.2-.5.6-.5h2.3c0-1.1-.6-1.6-1.4-1.6s-1.3.5-1.5,1.4c0,.2-.1.2-.3.2h-.1c-.3,0-.6.2-.6.5s.2.5.6.5h.1c.1,0,.2,0,.2.2,0,1.2.7,1.7,1.6,1.7s1.2-.4,1.3-1.2h1.6c-.2,1.5-1.3,2.4-3,2.4s-3.2-1.1-3.2-3.5h.2Z"/>
            <path class="cls-3" d="M218.1,38.7h.4c.6,0,1.1-.5,1.1-1.1s-.5-1.1-1.1-1.1-1.1.5-1.1,1.1v.2c0,.3-.1.4-.5.4h-2.4v-2.1c2.1,0,3.4-.9,3.6-2.5h2.4v15.5h-2.8v-9.9c0-.3.1-.5.5-.5h0Z"/>
            <path class="cls-3" d="M229.4,37.2c.3-.3.6-.6,1-.6h.4c.6,0,1.1-.5,1.1-1.1s-.5-1.1-1.1-1.1-1.1.5-1.1,1.1h0c0,.4-.2.6-.5.6h-6.6v-2.5h10.5v2.9c-2.4,2.2-5.1,6.3-5.3,12.6h-2.9c.2-5.9,2.7-9.7,4.6-11.9h0Z"/>
            <path class="cls-3" d="M234.7,38h3v3h-3v-3ZM234.7,46.1h3v3h-3v-3Z"/>
            <path class="cls-3" d="M240,41.4c0-4.9,2.2-8,5.9-8s5.9,3.1,5.9,8-2.2,8.1-5.9,8.1-5.9-3.1-5.9-8.1ZM241.4,42.4c.6,0,1-.4,1-1s-.4-1-1-1-1,.4-1,1,.4,1,1,1ZM245.9,47.1c1.9,0,3-1.9,3-5.7s-1.1-5.7-3-5.7-3.1,1.8-3.1,5.7,1.1,5.7,3.1,5.7ZM250.4,42.4c.6,0,1-.4,1-1s-.4-1-1-1-1,.4-1,1,.4,1,1,1Z"/>
            <path class="cls-3" d="M254,41.4c0-4.9,2.2-8,5.9-8s5.9,3.1,5.9,8-2.2,8.1-5.9,8.1-5.9-3.1-5.9-8.1ZM255.4,42.4c.6,0,1-.4,1-1s-.4-1-1-1-1,.4-1,1,.4,1,1,1h0ZM259.9,47.1c1.9,0,3-1.9,3-5.7s-1.1-5.7-3-5.7-3.1,1.8-3.1,5.7,1.1,5.7,3.1,5.7ZM264.4,42.4c.6,0,1-.4,1-1s-.4-1-1-1-1,.4-1,1,.4,1,1,1Z"/>
            <path class="cls-3" d="M272.9,40.6h6.3v2.4h-6.3v-2.4Z"/>
            <path class="cls-3" d="M290.7,42.4c2.3-1.5,3.5-2.5,3.5-4.2s-1-2.4-2.4-2.4-2.7,1.3-2.7,2.8h-2.9c0-2.9,2.3-5.2,5.7-5.2s5.3,2,5.3,4.8-1.8,4.2-4.7,6.1c-1,.6-1.5,1.2-2,1.6-.3.3-.5.3-.9.3h-.1c-.7,0-1.1.5-1.1,1s.5,1,1,1,1-.5,1-1h0c0-.4.2-.5.4-.5h6.7v2.5h-11.5c0-3.1,1.9-4.9,4.7-6.8h0Z"/>
            <path class="cls-3" d="M303.9,42.4c2.3-1.5,3.5-2.5,3.5-4.2s-1-2.4-2.4-2.4-2.7,1.3-2.7,2.8h-2.9c0-2.9,2.3-5.2,5.7-5.2s5.3,2,5.3,4.8-1.8,4.2-4.7,6.1c-1,.6-1.5,1.2-2,1.6-.3.3-.5.3-.9.3h-.1c-.7,0-1.1.5-1.1,1s.5,1,1,1,1-.5,1-1h0c0-.4.2-.5.4-.5h6.7v2.5h-11.5c0-3.1,1.9-4.9,4.7-6.8h0Z"/>
            <path class="cls-3" d="M312.9,38h3v3h-3v-3ZM312.9,46.1h3v3h-3v-3Z"/>
            <path class="cls-3" d="M318.1,41.4c0-4.9,2.2-8,5.9-8s5.9,3.1,5.9,8-2.2,8.1-5.9,8.1-5.9-3.1-5.9-8.1ZM319.5,42.4c.6,0,1-.4,1-1s-.4-1-1-1-1,.4-1,1,.4,1,1,1ZM324,47.1c2,0,3-1.9,3-5.7s-1.1-5.7-3-5.7-3.1,1.8-3.1,5.7,1.1,5.7,3.1,5.7ZM328.5,42.4c.6,0,1-.4,1-1s-.4-1-1-1-1,.4-1,1,.4,1,1,1Z"/>
            <path class="cls-3" d="M332.1,41.4c0-4.9,2.2-8,5.9-8s5.9,3.1,5.9,8-2.2,8.1-5.9,8.1-5.9-3.1-5.9-8.1ZM333.5,42.4c.6,0,1-.4,1-1s-.4-1-1-1-1,.4-1,1,.4,1,1,1ZM338,47.1c1.9,0,3-1.9,3-5.7s-1.1-5.7-3-5.7-3.1,1.8-3.1,5.7,1.1,5.7,3.1,5.7ZM342.5,42.4c.6,0,1-.4,1-1s-.4-1-1-1-1,.4-1,1,.4,1,1,1Z"/>
            <path class="cls-3" d="M1,62.7h12.7v2.6h-4.5c-.3,0-.4-.2-.4-.4h0c0-.8-.6-1.4-1.4-1.4s-1.4.6-1.4,1.4h0c0,.3,0,.5-.4.5H1v-2.6h0ZM7.3,65c.8,0,1.4.6,1.4,1.4v11.8h-2.8v-11.8c0-.8.6-1.4,1.4-1.4Z"/>
            <path class="cls-3" d="M15.4,62.7h2.7v5.1c0,.3-.2.5-.5.5h-.5c-.6,0-1,.4-1,1s.4,1,1,1,.9-.4,1.1-1c.5-1.7,1.6-2.7,3.5-2.7s3.5,1.5,3.5,3.9v7.8h-2.7v-7.5c0-1.2-.6-2-1.9-2s-2.4,1.2-2.4,3.4v6.2h-2.7v-15.5h0v-.2Z"/>
            <path class="cls-3" d="M27.8,62.6h3v2.6h-3v-2.6ZM27.9,66.9h2.7v11.3h-2.7v-11.3Z"/>
            <path class="cls-3" d="M33.5,62.7h2.7v15.5h-2.7s0-15.5,0-15.5Z"/>
            <path class="cls-3" d="M38.5,75.1c0-2.2,1.4-3.2,3.6-3.5l1.9-.3c1.2-.2,1.7-.4,1.7-1.2s-.6-1.5-1.9-1.5-2.1.7-2.2,1.8h-2.8c0-2.2,2-3.9,5-3.9s4.7,1.6,4.7,4.2v4.8c0,.9,0,2,.4,2.3v.3h-2.9c0-.4-.2-.9-.2-1.5-.7,1-1.9,1.8-3.6,1.8s-3.7-1.3-3.7-3.4h0ZM43.1,76.4c1.7,0,2.5-1.2,2.6-2.7v-.2c0-.3.2-.4.5-.4h.2c.5,0,1-.4,1-1s-.4-1-1-1-1,.4-1,1v.2c0,.4-.2.6-.7.7h-.5l-1.1.3c-1.2.2-1.8.7-1.8,1.7s.8,1.5,1.8,1.5h0Z"/>
            <path class="cls-3" d="M54.2,73.9v-.6h2.8v.5c0,1.4.7,2.3,2.1,2.3s2.1-.7,2.1-2.5v-10.8h2.8v10.9c0,3.2-1.9,4.9-4.9,4.9s-4.8-1.7-4.9-4.6h0ZM62.5,71.3c.5,0,1-.4,1-1s-.4-1-1-1-1,.4-1,1,.5,1,1,1Z"/>
            <path class="cls-3" d="M66.8,62.6h2.9v2.6h-2.9v-2.6ZM66.9,66.9h2.7v11.3h-2.7v-11.3Z"/>
            <path class="cls-3" d="M72.6,62.7h2.7v5.1c0,.3-.2.5-.5.5h-.5c-.6,0-1,.4-1,1s.4,1,1,1,.9-.4,1.1-1c.5-1.7,1.6-2.7,3.5-2.7s3.5,1.5,3.5,3.9v7.8h-2.7v-7.5c0-1.2-.6-2-1.8-2s-2.4,1.2-2.4,3.4v6.2h-2.7v-15.5h0l-.2-.2Z"/>
            <path class="cls-3" d="M84.4,75.1c0-2.2,1.4-3.2,3.6-3.5l1.9-.3c1.2-.2,1.7-.4,1.7-1.2s-.6-1.5-1.9-1.5-2.1.7-2.2,1.8h-2.8c0-2.2,2-3.9,5-3.9s4.7,1.6,4.7,4.2v4.8c0,.9,0,2,.4,2.3v.3h-2.9c0-.4-.2-.9-.2-1.5-.7,1-1.9,1.8-3.6,1.8s-3.7-1.3-3.7-3.4h0ZM89,76.4c1.7,0,2.5-1.2,2.6-2.7v-.2c0-.3.2-.4.5-.4h.2c.6,0,1-.4,1-1s-.4-1-1-1-1,.4-1,1v.2c0,.4-.2.6-.7.7h-.5l-1.1.3c-1.2.2-1.8.7-1.8,1.7s.8,1.5,1.8,1.5h0Z"/>
            <path class="cls-3" d="M101.3,61.8h1.6v9h-1.6v-9ZM102.2,66.8c.3,0,.6-.3.6-.6s-.3-.6-.6-.6-.6.3-.6.6.3.6.6.6Z"/>
            <path class="cls-3" d="M104.7,64.2h1.5v.6c0,0,0,.2-.2.2h-.3c-.3,0-.6.2-.6.6s.2.6.6.6.5-.2.6-.6c.3-1,.9-1.6,2-1.6s2.1.9,2.1,2.3v4.5h-1.6v-4.4c0-.7-.4-1.2-1.1-1.2s-1.4.7-1.4,2v3.6h-1.6v-6.6h0Z"/>
            <path class="cls-3" d="M111.6,68.7h1.7c0,.7.6,1.1,1.4,1.1s1.1-.3,1.1-.8-.3-.6-.9-.8l-1.2-.2c-1.4-.3-1.9-.9-1.9-1.8s1-2.2,2.8-2.2,2.7,1,2.8,2.2h-1.7c0-.7-.5-1-1.2-1s-1.1.3-1.1.8.3.6.8.7l1.2.2c1.3.3,2,.9,2,1.9,0,1.5-1.2,2.2-2.8,2.2s-3-.8-3-2.3h0ZM114.7,68c.3,0,.5-.2.5-.5s-.2-.5-.5-.5-.5.2-.5.5.2.5.5.5Z"/>
            <path class="cls-3" d="M119.3,69v-3.6h-1.1v-1.2h0c.8,0,1.2-.3,1.2-1.3v-.7h1.3v1.5q0,.2-.2.2h-.3c-.3,0-.6.3-.6.6s.3.6.6.6.6-.3.6-.6h0q0-.3.2-.3h1.2v1.2h-1.4v3.4c0,.6.3.8.8.8h.5v1.2c-.3,0-.6,0-.9,0-1.2,0-2-.5-2-1.9h0Z"/>
            <path class="cls-3" d="M123.1,69c0-1.3.8-1.9,2.1-2.1l1.1-.2c.7,0,1-.3,1-.7s-.3-.9-1.1-.9-1.2.4-1.2,1.1h-1.7c0-1.3,1.2-2.2,2.9-2.2s2.7.9,2.7,2.5v2.8c0,.5,0,1.2.3,1.3v.2h-1.7c0-.2,0-.6,0-.9-.4.6-1.1,1.1-2.1,1.1s-2.2-.8-2.2-2h0ZM125.8,69.8c1,0,1.5-.7,1.5-1.6h0c0-.3,0-.4.3-.4h0c.3,0,.6-.2.6-.6s-.3-.6-.6-.6-.6.2-.6.6h0c0,.3,0,.5-.4.5h-.3l-.7.2c-.7.2-1.1.4-1.1,1s.4.9,1.1.9h0Z"/>
            <path class="cls-3" d="M130.5,61.8h1.6v9h-1.6v-9Z"/>
            <path class="cls-3" d="M133.8,61.8h1.6v9h-1.6v-9Z"/>
            <path class="cls-3" d="M136.7,69c0-1.3.8-1.9,2.1-2.1l1.1-.2c.7,0,1-.3,1-.7s-.3-.9-1.1-.9-1.2.4-1.2,1.1h-1.7c0-1.3,1.2-2.2,2.9-2.2s2.7.9,2.7,2.5v2.8c0,.5,0,1.2.3,1.3v.2h-1.7c0-.2-.1-.6-.1-.9-.4.6-1.1,1.1-2.1,1.1s-2.2-.8-2.2-2h0ZM139.4,69.8c1,0,1.5-.7,1.5-1.6h0c0-.3.1-.4.3-.4h.1c.3,0,.6-.2.6-.6s-.3-.6-.6-.6-.6.2-.6.6h0c0,.3-.1.5-.4.5h-.3l-.7.2c-.7.2-1.1.4-1.1,1s.4.9,1.1.9h0Z"/>
            <path class="cls-3" d="M144.6,69v-3.6h-1.1v-1.2h.1c.8,0,1.2-.3,1.2-1.3v-.7h1.3v1.5q0,.2-.2.2h-.3c-.4,0-.6.3-.6.6s.3.6.6.6.6-.3.6-.6h0q0-.3.2-.3h1.2v1.2h-1.4v3.4c0,.6.3.8.8.8h.5v1.2c-.3,0-.6,0-.9,0-1.2,0-2-.5-2-1.9h0Z"/>
            <path class="cls-3" d="M148.8,61.7h1.7v1.5h-1.7v-1.5ZM148.9,64.2h1.6v6.6h-1.6v-6.6Z"/>
            <path class="cls-3" d="M151.8,67.5c0-2.1,1.2-3.5,3.1-3.5s3.1,1.3,3.1,3.5-1.2,3.5-3.1,3.5-3.1-1.3-3.1-3.5ZM152.6,68.1c.3,0,.6-.2.6-.6s-.3-.6-.6-.6-.6.3-.6.6.2.6.6.6ZM154.9,69.8c.9,0,1.5-.8,1.5-2.2s-.6-2.2-1.5-2.2-1.5.8-1.5,2.2.6,2.2,1.5,2.2ZM157.2,68.1c.3,0,.6-.2.6-.6s-.2-.6-.6-.6-.6.3-.6.6.2.6.6.6Z"/>
            <path class="cls-3" d="M159.4,64.2h1.5v.6c0,0,0,.2-.2.2h-.3c-.3,0-.6.2-.6.6s.2.6.6.6.5-.2.6-.6c.3-1,.9-1.6,2-1.6s2.1.9,2.1,2.3v4.5h-1.6v-4.4c0-.7-.4-1.2-1.1-1.2s-1.4.7-1.4,2v3.6h-1.6v-6.6h0Z"/>
            <path class="cls-3" d="M174.7,67.8h.4c.6,0,1.1-.5,1.1-1.1s-.5-1.1-1.1-1.1-1.1.5-1.1,1.1v.2c0,.3-.1.4-.5.4h-2.4v-2.1c2.1,0,3.4-.9,3.6-2.5h2.4v15.5h-2.8v-9.9c0-.3.1-.5.5-.5h0Z"/>
            <path class="cls-3" d="M186.8,74.9h-7.6v-2.3l6.8-9.9h3.5v9.8h2.4v2.3h-2.4v3.3h-2.7v-3.3h0ZM186.2,72.5c.3,0,.4.2.4.4v.2c0,.6.5,1.1,1.1,1.1s1.1-.4,1.1-1.1-.5-1.1-1.1-1.1h-.5c-.3,0-.4-.2-.4-.4v-6.2l-4.8,7.1h4.2Z"/>
            <path class="cls-3" d="M193.8,67h3v3h-3v-3ZM193.8,75.2h3v3h-3v-3Z"/>
            <path class="cls-3" d="M199,70.5c0-4.9,2.2-8,5.9-8s5.9,3.1,5.9,8-2.2,8.1-5.9,8.1-5.9-3.1-5.9-8.1ZM200.5,71.5c.6,0,1-.4,1-1s-.4-1-1-1-1,.4-1,1,.4,1,1,1ZM204.9,76.1c1.9,0,3-1.9,3-5.7s-1.1-5.7-3-5.7-3.1,1.8-3.1,5.7,1.1,5.7,3.1,5.7ZM209.4,71.5c.6,0,1-.4,1-1s-.4-1-1-1-1,.4-1,1,.4,1,1,1Z"/>
            <path class="cls-3" d="M213,70.5c0-4.9,2.2-8,5.9-8s5.9,3.1,5.9,8-2.2,8.1-5.9,8.1-5.9-3.1-5.9-8.1ZM214.4,71.5c.6,0,1-.4,1-1s-.4-1-1-1-1,.4-1,1,.4,1,1,1ZM218.9,76.1c1.9,0,3-1.9,3-5.7s-1.1-5.7-3-5.7-3.1,1.8-3.1,5.7,1.1,5.7,3.1,5.7ZM223.4,71.5c.6,0,1-.4,1-1s-.4-1-1-1-1,.4-1,1,.4,1,1,1Z"/>
            <path class="cls-3" d="M231.9,69.7h6.3v2.4h-6.3v-2.4Z"/>
            <path class="cls-3" d="M249.8,71.4c2.3-1.5,3.5-2.5,3.5-4.2s-1-2.4-2.4-2.4-2.7,1.3-2.7,2.8h-2.9c0-2.9,2.3-5.2,5.7-5.2s5.3,2,5.3,4.8-1.8,4.2-4.7,6.1c-1,.6-1.5,1.2-2,1.6-.3.3-.6.3-.9.3h-.1c-.7,0-1.1.5-1.1,1.1s.4,1,1,1,1-.4,1-1h0c0-.4.2-.5.4-.5h6.7v2.5h-11.5c0-3.1,1.9-4.9,4.7-6.8h0Z"/>
            <path class="cls-3" d="M263,71.4c2.3-1.5,3.5-2.5,3.5-4.2s-1-2.4-2.4-2.4-2.7,1.3-2.7,2.8h-2.9c0-2.9,2.3-5.2,5.7-5.2s5.3,2,5.3,4.8-1.8,4.2-4.7,6.1c-1,.6-1.5,1.2-2,1.6-.3.3-.5.3-.9.3h-.1c-.7,0-1.1.5-1.1,1.1s.5,1,1,1,1-.4,1-1h0c0-.4.2-.5.4-.5h6.7v2.5h-11.5c0-3.1,1.9-4.9,4.7-6.8h0Z"/>
            <path class="cls-3" d="M271.9,67h3v3h-3v-3ZM271.9,75.2h3v3h-3v-3Z"/>
            <path class="cls-3" d="M277.1,70.5c0-4.9,2.2-8,5.9-8s5.9,3.1,5.9,8-2.2,8.1-5.9,8.1-5.9-3.1-5.9-8.1ZM278.6,71.5c.6,0,1-.4,1-1s-.4-1-1-1-1,.4-1,1,.4,1,1,1ZM283.1,76.1c1.9,0,3-1.9,3-5.7s-1.1-5.7-3-5.7-3.1,1.8-3.1,5.7,1.1,5.7,3.1,5.7ZM287.6,71.5c.6,0,1-.4,1-1s-.4-1-1-1-1,.4-1,1,.4,1,1,1Z"/>
            <path class="cls-3" d="M291.1,70.5c0-4.9,2.2-8,5.9-8s5.9,3.1,5.9,8-2.2,8.1-5.9,8.1-5.9-3.1-5.9-8.1ZM292.6,71.5c.6,0,1-.4,1-1s-.4-1-1-1-1,.4-1,1,.4,1,1,1ZM297.1,76.1c2,0,3-1.9,3-5.7s-1.1-5.7-3-5.7-3.1,1.8-3.1,5.7,1.1,5.7,3.1,5.7ZM301.6,71.5c.6,0,1-.4,1-1s-.4-1-1-1-1,.4-1,1,.4,1,1,1Z"/>
            <path class="cls-3" d="M2.4,91.8h6.1c3.2,0,5.1,1.9,5.1,4.9s-2.1,4.9-5.1,4.9h-2.4c-.7,0-1.2-.5-1.2-1.2s.6-1.2,1.2-1.2h1.9c1.8,0,2.9-.8,2.9-2.5s-1.1-2.5-2.9-2.5h-2c-.3,0-.4-.2-.4-.4h0c0-.7-.5-1.2-1.1-1.2s-1.1.5-1.1,1.1.5,1.1,1.1,1.1h.4c.3,0,.5.2.5.5v3.6c0,.3-.2.5-.5.5h-.3c-.7,0-1.2.5-1.2,1.2s.5,1.2,1.2,1.2h.4c.3,0,.4.2.4.4v5.2h-2.8v-15.5h-.2Z"/>
            <path class="cls-3" d="M15.6,95.9h2.6v1.1c0,.2-.1.4-.4.4h-.4c-.5,0-1,.4-1,1s.4,1,1,1,.9-.4,1-1c.1-.5.3-.9.6-1.3.6-.9,1.5-1.4,2.8-1.4s.4,0,.6,0v2.7h-.9c-1.7,0-3,1.1-3,3.4v5.5h-2.7v-11.3h-.2Z"/>
            <path class="cls-3" d="M23.4,101.6c0-3.8,2.3-6,5.5-6s5.2,2,5.2,5.8,0,.6,0,.8h-6.8c-.6,0-1-.4-1-.9s.4-.9,1-.9h4c-.1-1.9-1-2.7-2.3-2.7s-2.2.8-2.5,2.3c0,.2-.2.4-.5.4h-.2c-.5,0-1,.4-1,.9s.4.9,1,.9h.2c.2,0,.4,0,.4.4.1,2,1.2,2.9,2.7,2.9s2.1-.7,2.3-2h2.8c-.3,2.5-2.2,4.1-5.1,4.1s-5.5-1.9-5.5-6h-.2Z"/>
            <path class="cls-3" d="M35.7,103.7h2.9c0,1.2,1,1.9,2.3,1.9s2-.5,2-1.4-.5-1.1-1.6-1.3l-2-.4c-2.3-.5-3.3-1.5-3.3-3.2s1.8-3.7,4.8-3.7,4.7,1.7,4.8,3.8h-2.8c0-1.1-.8-1.8-2-1.8s-1.9.6-1.9,1.4.5,1,1.4,1.2l2.1.4c2.3.4,3.4,1.5,3.4,3.2,0,2.5-2.1,3.8-4.8,3.8s-5.1-1.4-5.2-3.9h-.1ZM40.9,102.4c.5,0,.9-.4.9-.9s-.4-.9-.9-.9-.9.4-.9.9.4.9.9.9Z"/>
            <path class="cls-3" d="M47.4,101.6c0-3.8,2.3-6,5.5-6s5.2,2,5.2,5.8,0,.6,0,.8h-6.8c-.6,0-1-.4-1-.9s.4-.9,1-.9h4c0-1.9-1-2.7-2.3-2.7s-2.2.8-2.5,2.3c0,.2-.2.4-.5.4h-.2c-.5,0-1,.4-1,.9s.4.9,1,.9h.2c.2,0,.4,0,.4.4,0,2,1.2,2.9,2.7,2.9s2.1-.7,2.3-2h2.8c-.3,2.5-2.2,4.1-5.1,4.1s-5.5-1.9-5.5-6h-.2Z"/>
            <path class="cls-3" d="M60.3,95.9h2.5v1.1c0,.2,0,.4-.4.4h-.5c-.6,0-1,.4-1,1s.4,1,1,1,.9-.4,1-1c.5-1.7,1.5-2.7,3.5-2.7s3.6,1.6,3.6,3.9v7.8h-2.7v-7.5c0-1.2-.6-2-1.8-2s-2.4,1.2-2.4,3.4v6.2h-2.7v-11.3h0v-.3Z"/>
            <path class="cls-3" d="M73.7,104.2v-6.2h-1.9v-2.1h.2c1.4,0,2.1-.6,2.2-2.3v-1.1h2.3v2.5c0,.3,0,.4-.4.4h-.6c-.6,0-1.1.4-1.1,1s.4,1.1,1.1,1.1,1-.4,1-1.1v-.2c0-.2.2-.4.4-.4h2v2.1h-2.5v5.9c0,1,.6,1.4,1.4,1.4h.9v2.1c-.4,0-1,.2-1.6.2-2.1,0-3.5-.9-3.5-3.3h0Z"/>
            <path class="cls-3" d="M80.4,101.6c0-3.8,2.3-6,5.5-6s5.2,2,5.2,5.8,0,.6,0,.8h-6.8c-.6,0-1-.4-1-.9s.4-.9,1-.9h4c0-1.9-.9-2.7-2.3-2.7s-2.2.8-2.5,2.3c0,.2-.2.4-.5.4h-.2c-.6,0-1,.4-1,.9s.4.9,1,.9h.2c.2,0,.4,0,.4.4,0,2,1.2,2.9,2.7,2.9s2.1-.7,2.3-2h2.8c-.3,2.5-2.2,4.1-5.1,4.1s-5.5-1.9-5.5-6h-.2Z"/>
            <path class="cls-3" d="M103.5,91.8v15.5h-2.7v-1.7c-.7,1.3-1.8,2-3.3,2-2.9,0-4.6-2.3-4.6-6s1.8-6,4.6-6,1.7.3,2.2.8.8,1,1,1.8c.2.6.5,1,1.1,1s1-.4,1-1-.4-1-1-1h-.5c-.2,0-.4-.2-.4-.4v-5.1h2.7,0ZM98.2,105.4c1.7,0,2.6-1.6,2.6-3.8s-.9-3.8-2.6-3.8-2.5,1.6-2.5,3.8.8,3.8,2.5,3.8Z"/>
            <path class="cls-3" d="M113.7,105.6v1.7h-2.7v-15.5h2.7v5.1c0,.3-.2.4-.4.4h-.5c-.6,0-1,.4-1,1s.4,1,1,1,.9-.4,1.1-1c.2-.5.3-.9.6-1.2.6-.9,1.5-1.4,2.8-1.4,2.8,0,4.4,2.3,4.4,6s-1.8,6-4.6,6-2.6-.7-3.3-2h0ZM116.3,105.4c1.7,0,2.5-1.5,2.5-3.8s-.8-3.8-2.5-3.8-2.5,1.6-2.5,3.8.9,3.8,2.5,3.8Z"/>
            <path class="cls-3" d="M123.3,111.3v-2.3c.4.2.8.2,1.2.2,1.1,0,1.7-.5,2.2-1.9l-4.2-11.4h3l2.3,7c0,.3,0,.5,0,.7l-.2.2c-.2.2-.3.5-.3.8,0,.6.5,1.1,1.1,1.1s1.1-.5,1.1-1.1-.1-.5-.4-.8l-.2-.2c-.2-.2-.2-.4-.2-.7l2.1-7h2.9l-4.1,11.8c-.9,2.6-2.3,3.8-4.5,3.8s-1.2,0-1.6-.2h-.1Z"/>
            <path class="cls-3" d="M138.8,102.4h2.9c0,1.6,1.3,2.8,3.2,2.8s2.7-.8,2.7-2.2-.6-1.6-2.2-2l-2.1-.5c-2.9-.7-4.3-1.9-4.3-4.4s2.2-4.7,5.6-4.7,5.4,2,5.6,4.6h-2.9c0-1.3-.9-2.3-2.7-2.3s-2.7.8-2.7,2.1.6,1.6,2.2,2l2.3.5c2.2.5,4,1.7,4,4.3s-2.2,4.9-5.6,4.9-6.1-1.9-6.1-5.2h.1ZM144.9,100.5c.6,0,1.1-.5,1.1-1.1s-.5-1.1-1.1-1.1-1.1.5-1.1,1.1.5,1.1,1.1,1.1Z"/>
            <path class="cls-3" d="M152.8,103.7v-7.8h2.7v7.5c0,1.2.6,2,1.9,2s2.3-1.2,2.3-3.3v-6.2h2.7v11.3h-2.5v-1.1c0-.2.1-.4.4-.4h.5c.6,0,1-.4,1-1s-.4-1-1-1-.9.3-1.1,1c-.5,1.7-1.5,2.7-3.4,2.7s-3.7-1.4-3.7-3.8h.2Z"/>
            <path class="cls-3" d="M165.4,95.9h2.5v1.1c0,.2-.1.4-.4.4h-.5c-.6,0-1,.4-1,1s.4,1,1,1,.9-.4,1-1c.5-1.7,1.5-2.7,3.5-2.7s3.6,1.6,3.6,3.9v7.8h-2.7v-7.5c0-1.2-.6-2-1.9-2s-2.4,1.2-2.4,3.4v6.2h-2.7v-11.3h0v-.3Z"/>
          </g>
          <line class="cls-2" y1="281.2" x2="967" y2="281.2"/>
          <g>
            <path class="cls-3" d="M398.2,329c-4,1-11.1,1.5-15,1.5h-3v-21.8h4.3v18.1c4.6,0,9.7-.5,13.3-1.3l.5,3.5h0ZM404.8,318.1h4.8v3.6h-4.8v16.9h-4.3v-33.2h4.3v12.6h0Z"/>
            <path class="cls-3" d="M433.4,330.2c-3.1.4-7.7.8-11.2.9-3.7.2-7.6.3-10.4.3l-.6-3.8c3.9,0,7,0,10.8-.2,4.2-.1,8.2-.5,11.1-.8l.4,3.5h0ZM421.6,307.6c5.6,0,9.2,3.3,9.2,8s-3.6,8-9.2,8-9.2-3.3-9.2-8,3.6-8,9.2-8ZM421.6,319.9c3,0,4.8-1.9,4.8-4.3s-1.8-4.3-4.8-4.3-4.8,1.9-4.8,4.3,1.8,4.3,4.8,4.3ZM439.1,338.6h-4.3v-33.2h4.3v33.2Z"/>
            <path class="cls-3" d="M466.7,326.7c-1.1,3-3,5-6.1,5-5.1,0-7.2-5.9-7.2-11.9s2-11.8,7.2-11.8,5,2,6.1,4.8h4v-6.7h4.1v31h-4.1v-10.4h-4ZM460.6,311.8c-2.2,0-3.1,3.6-3.1,8.1s.9,8,3.1,8,3.1-3.6,3.1-8-.9-8.1-3.1-8.1ZM467.5,323.2h3.1v-6.9h-3.1c.2,1.1.2,2.4.2,3.5s0,2.3-.2,3.4ZM477.2,338.6v-33.2h4.1v33.2h-4.1Z"/>
            <path class="cls-3" d="M499.2,330h-13.4v-20.5h13.4v20.5ZM495.1,312.8h-5.2v13.9h5.2v-13.9ZM508.8,338.6v-16.6h-2.7v15.1h-4.1v-31h4.1v12.5h2.7v-13.1h4.2v33.2h-4.2Z"/>
            <path class="cls-3" d="M527.9,307.8h17.5v3.6h-6.3c.3,4.6,3.7,7.7,7.3,8.9-.8,1.2-1.6,2.3-2.4,3.4-2.5-1-5.7-3.5-7.2-6.5-1,3.2-4.5,6.3-7.7,7.5l-2.6-3.4c4.6-1.7,7.7-5.2,8-9.9h-6.6v-3.6h0ZM542.8,338.6c-7.3,0-11.6-2.5-11.6-6.5s4.3-6.7,11.6-6.7,11.6,2.6,11.6,6.7-4.3,6.5-11.6,6.5ZM535.6,332c0,1.9,2.7,3.1,7.1,3.1s7.2-1.2,7.2-3.1-2.6-3.2-7.2-3.2-7.1,1.1-7.1,3.2ZM544.8,313.4h5v-8h4.4v19.7h-4.4v-8.3h-5v-3.5h0Z"/>
            <path class="cls-3" d="M558.1,334.5v-3.5h12.7v-6.4h-9.1v-16.9h4.3v5.1h14.1v-5.2h4.3v16.9h-9.3v6.4h12.9v3.5h-30,0ZM580.1,316.2h-14.1v4.9h14.1v-4.9Z"/>
          </g>
          <g>
            <path class="cls-1" d="M166.1,401.7c-2.2-1.4-5.1-4.3-5.9-7.1-.8,2.9-3.3,5.9-6,7.6l-1.2-1.5c3.4-2,6.2-6,6.2-10.4v-2.4h-5.4v-1.7h12.9v1.7h-5.4v2.4c0,4.3,2.9,8.1,6.1,9.8l-1.2,1.5h-.1ZM172,384v23.2h-2v-23.2h2Z"/>
            <path class="cls-1" d="M175.8,385.9h12.6v1.7h-5.2v1.3c.2,3.1,3.1,5.7,6,6.5l-1.2,1.6c-2.4-1-4.9-3.1-5.9-5.2-.6,2.2-3.4,5-5.9,6l-1.1-1.6c2.9-1.1,5.9-4.1,6-7.4v-1.2h-5.3v-1.7h0ZM186.6,407.3c-5,0-7.8-1.7-7.8-4.4s2.8-4.5,7.8-4.5,7.8,1.7,7.8,4.5-2.8,4.4-7.8,4.4ZM180.8,402.8c0,1.7,2.1,2.7,5.7,2.7s5.8-1,5.8-2.7-2.1-2.8-5.8-2.8-5.7,1-5.7,2.8ZM187.5,391.7v-1.7h4.7v-6h2v14.4h-2v-6.7h-4.7Z"/>
            <path class="cls-1" d="M212.7,397.8c-1.8.2-4.6.5-7.5.6-2.6.1-6.1.2-7.6.2l-.3-1.8h6.7v-3.1h-4.9v-7.9h11.8v1.6h-9.8v4.6h9.9v1.6h-5.1v3.1c2.5-.1,5-.3,6.5-.5l.2,1.6h.1ZM201.2,406.7v-6.6h2v4.9h13.6v1.7h-15.6ZM214.4,401.6v-17.5h2v17.5h-2Z"/>
            <path class="cls-1" d="M236.9,386.9c-.1,7.1-3,11.9-8.4,15.4l-1.3-1.5c4.9-2.6,7.4-7.3,7.6-12.1h-6.8v-1.7h8.9ZM240.6,406.1v-8.1h-3.9v-1.7h3.9v-4.2h-3.4v-1.7h3.4v-5.8h2v21.5h-2ZM245,407.3v-23.2h2v23.2h-2Z"/>
            <path class="cls-1" d="M264.6,401.5c-1.8.2-5,.5-7.8.7-2.6.1-4.9.2-6.8.2l-.4-1.8c1.7,0,3.9,0,6.3-.1v-4.9h2v4.8c2.6-.1,5-.4,6.5-.6l.2,1.7h0ZM250.6,386.5h12.7v1.7h-5.4c0,3.4,3.5,5.9,5.9,6.7l-1.1,1.5c-2.2-.9-4.9-3-5.8-5.1-.8,2.3-3.1,4.5-5.9,5.8l-1.1-1.6c3-1,5.9-3.9,5.9-7.4h-5.2v-1.7h0ZM267.9,395.4v11.8h-2v-23.2h2v9.7h3.7v1.7h-3.7Z"/>
            <path class="cls-1" d="M272.2,404.3v-1.7h9.5v-4h-6.9v-7.3h13.8v-3.7h-13.8v-1.7h15.8v7.1h-13.8v3.9h14.4v1.7h-7.6v4h9.5v1.7h-21,.1Z"/>
            <path class="cls-1" d="M314.8,390.6c0,3.3-2.7,5.4-6,5.4s-6-2.1-6-5.4,2.7-5.5,6-5.5,6,2.1,6,5.4h0ZM304.9,390.6c0,2.2,1.7,3.7,4,3.7s4-1.5,4-3.7-1.5-3.7-4-3.7-4,1.5-4,3.7ZM306.2,406.9v-9.2h2v3h11v-3h2v9.2h-15ZM319.2,402.3h-11v3h11v-3ZM319.2,396.5v-12.5h2v12.5h-2Z"/>
            <path class="cls-1" d="M342.6,385.4c0,3.1-.2,6.4-.8,8.7h3.5v1.7h-21v-1.7h15.5c.5-1.8.7-5.1.7-7h-13.5v-1.7h15.6ZM326.9,406.8v-8.1h16v8.1h-16ZM340.8,400.4h-11.9v4.7h11.9v-4.7Z"/>
            <path class="cls-1" d="M347.6,395.8v-1.7h21v1.7h-21ZM350,407v-5.5h13.9v-2h-14v-1.6h16v5.2h-13.9v2.4h14.6v1.6h-16.7.1ZM358.1,392.4c-5,0-8.1-1.5-8.1-4s3.1-4,8.1-4,8.1,1.5,8.1,4-3.1,4-8.1,4ZM352.1,388.4c0,1.5,2.4,2.4,6,2.4s6.1-.9,6.1-2.4-2.4-2.4-6.1-2.4-6,.9-6,2.4Z"/>
            <path class="cls-1" d="M377.5,391.3v-1.7h11.6v1.7h-11.6ZM383.6,402c-3,0-5.1-2-5.1-4.6s2.1-4.6,5.1-4.6,5.1,1.9,5.1,4.6-2.1,4.6-5.1,4.6ZM380.2,387.5v-1.8h6.4v1.8h-6.4ZM383.6,394.4c-1.9,0-3.1,1.2-3.1,3s1.3,3,3.1,3,3.1-1.2,3.1-3-1.3-3-3.1-3ZM395.2,407.3v-12h-2.8v10.9h-2v-21.5h2v9h2.8v-9.5h2v23.2h-2Z"/>
            <path class="cls-1" d="M409.5,407.3v-8.3h-9.5v-1.7h21v1.7h-9.5v8.3h-2ZM419.1,395.1c-3.8-.6-7.5-3-8.5-5.2-1,2.2-4.5,4.6-8.5,5.2l-.9-1.7c3.8-.4,8.3-2.8,8.4-6.1h-7.5v-1.7h17.1v1.7h-7.5c.1,3.3,4.9,5.6,8.4,6l-1,1.7h0Z"/>
            <path class="cls-1" d="M435.3,401.7c-2.1-1.4-4.8-4.4-5.8-7.2-.8,2.9-3.1,5.8-5.8,7.7l-1.3-1.5c3.4-2.1,6.1-6.2,6.1-10.4v-4.3h2.1v4.2c0,4.2,2.8,8,6,9.9l-1.2,1.5h-.1ZM434.5,394.9h5.2v-4.1h-5.2v-1.7h5.2v-5.1h2v23.2h-2v-10.6h-5.2v-1.7h0Z"/>
            <path class="cls-1" d="M451,385.8c3.8,0,6,3.3,6,8.2s-2.1,8.2-6,8.2-6-3.3-6-8.2,2.2-8.2,6-8.2ZM451,387.5c-2.4,0-4,2.6-4,6.5s1.6,6.5,4,6.5,4-2.6,4-6.5-1.5-6.5-4-6.5ZM466.3,391.6h-4v5.4h4v1.7h-4v8.6h-2v-23.2h2v5.9h4v1.7h0Z"/>
            <path class="cls-1" d="M484.5,389.5h3.3v-5.1h2v21.6h-2v-7.6h-3.3c-.8,2.2-2.3,3.6-4.5,3.6-3.4,0-5.1-3.3-5.1-8.1s1.7-8.1,5.1-8.1,3.7,1.4,4.5,3.6h0ZM480,387.6c-2,0-3.1,2.5-3.1,6.4s1.2,6.4,3.1,6.4,3.2-2.4,3.2-6.4-1.2-6.4-3.2-6.4ZM484.9,391.2c.1.9.2,1.8.2,2.8s-.1,2-.2,2.8h2.9v-5.6h-2.9ZM492.3,407.3v-23.2h2v23.2h-2Z"/>
            <path class="cls-1" d="M497.9,401v-14.5h9.2v14.5h-9.2ZM505.1,388.2h-5.3v11.1h5.3v-11.1ZM514.7,407.3v-12.3h-2.9v11.1h-2v-21.5h2v8.7h2.9v-9.3h2v23.2h-2Z"/>
            <path class="cls-1" d="M534.3,397.9c-1.7.2-4.6.5-7.3.7-2.6.1-5.6.2-7.2.2l-.3-1.8c1.6,0,3.9,0,6.2-.1v-2.4c-2.9-.4-4.8-2.2-4.8-4.8s2.4-4.9,5.9-4.9,5.9,2.1,5.9,4.9-2,4.4-5,4.7v2.3c2.5-.1,5.1-.4,6.5-.6l.2,1.6h0v.2ZM526.7,386.8c-2.5,0-3.9,1.4-3.9,3.1s1.5,3.1,3.9,3.1,4-1.3,4-3.1-1.5-3.1-4-3.1ZM523,406.7v-6.4h2v4.7h13.3v1.7h-15.4.1ZM537.7,393.7v7.9h-2v-17.5h2v8h3.5v1.7h-3.5Z"/>
            <path class="cls-1" d="M557.2,398.1v4.5h5.7v1.7h-21v-1.7h5.9v-4.5h-3.3v-7.1h13.8v-3.6h-13.7v-1.7h15.7v7h-13.8v3.7h14.4v1.7h-3.8,0ZM549.8,402.6h5.4v-4.5h-5.4v4.5Z"/>
            <path class="cls-1" d="M573,395.2v-9.5h11.2v9.5h-11.2ZM591.4,407.7c-3.3-.4-6.5-2-7.8-4-1.2,2.1-4.7,3.7-7.9,4l-.8-1.6c3.3-.3,7-2,7.6-4h-6.7v-1.7h15.8v1.7h-6.8c.7,2.1,4.6,3.8,7.6,4.1l-1,1.6h0ZM582.2,387.3h-7.2v6.2h7.2v-6.2ZM580,398.4v-1.7h7.3v1.7h-7.3ZM588.9,396.7v-12.6h2v12.6h-2Z"/>
            <path class="cls-1" d="M614.5,390.6c0,3.3-2.7,5.4-6,5.4s-6-2.1-6-5.4,2.7-5.5,6-5.5,6,2.1,6,5.4h0ZM604.5,390.6c0,2.2,1.7,3.7,4,3.7s4-1.5,4-3.7-1.5-3.7-4-3.7-4,1.5-4,3.7ZM605.9,406.9v-9.2h2v3h11v-3h2v9.2h-15ZM618.9,402.3h-11v3h11v-3ZM618.9,396.5v-12.5h2v12.5h-2Z"/>
            <path class="cls-1" d="M624.5,385.7h12.7v1.7h-5.3v1.3c.2,3,3,5.5,5.6,6.4l-1.1,1.6c-2.2-.9-4.6-3-5.5-5.1-.6,2.2-3.3,4.7-5.8,5.8l-1.2-1.6c2.9-1.1,5.9-4,6-7.1v-1.2h-5.3v-1.7h-.1ZM634.7,407.2c-4.8,0-7.8-1.7-7.8-4.4s2.9-4.5,7.8-4.5,7.8,1.7,7.8,4.5-3,4.4-7.8,4.4ZM634.7,400c-3.5,0-5.7,1-5.7,2.8s2.2,2.7,5.7,2.7,5.8-1,5.8-2.7-2.2-2.8-5.8-2.8ZM642.2,392.1v6.1h-2v-14.3h2v6.4h3.6v1.7h-3.6Z"/>
            <path class="cls-1" d="M653.7,400.4v-5.2c-2,.1-4.1.1-6.2.1l-.3-1.8c2.8,0,5.4,0,8-.1.8,0,1.7,0,2.5-.1.3-1.5.6-4,.6-5.9h-9.2v-1.7h11.2c.2,2.5-.2,5.4-.7,7.4,1,0,1.9-.2,2.8-.3l.2,1.6c-1.8.2-4.3.4-6.8.6v5.3h-2.1ZM650.2,406.7v-7h2v5.3h14.7v1.7h-16.7ZM659.1,396.7h5.2v-12.7h2v17.6h-2v-3.3h-5.2v-1.6h0Z"/>
            <path class="cls-1" d="M675.8,385.8c3.8,0,6,3.3,6,8.2s-2.2,8.2-6,8.2-6-3.3-6-8.2,2.2-8.2,6-8.2ZM675.8,387.5c-2.5,0-4.1,2.6-4.1,6.5s1.6,6.5,4.1,6.5,4.1-2.6,4.1-6.5-1.6-6.5-4.1-6.5ZM686.2,407.3v-23.2h2v23.2h-2Z"/>
            <path class="cls-1" d="M699.9,395.2v-10.3h2v3.4h6.8v-3.4h2v10.3h-10.8ZM708.7,390h-6.8v3.6h6.8v-3.6ZM702.1,407.1v-5.8h12.8v-2.3h-12.8v-1.6h14.8v5.5h-12.8v2.5h13.7v1.7h-15.7ZM716.9,390.9v5.1h-2v-12h2v5.2h3.5v1.7h-3.5Z"/>
            <path class="cls-1" d="M739.6,385.2c0,3.1-.2,6.1-.8,8.5h3.5v1.7h-21v-1.7h15.5c.5-1.8.8-4.9.8-6.8h-13.7v-1.7h15.8,0ZM723.8,406.9v-9.7h2v3.1h11.9v-3.1h2v9.7h-16,0ZM737.8,402h-11.9v3.2h11.9v-3.2Z"/>
            <path class="cls-1" d="M759.9,396.3c-1.8.2-4.7.5-7.5.6-2.6.1-6,.2-7.6.2l-.3-1.8h6.8v-2.8h-4.8v-7.2h11.3v1.7h-9.2v3.8h9.5v1.7h-4.7v2.8c2.5-.1,5-.3,6.4-.5l.2,1.6h-.1ZM748.4,406.9v-8.3h2v2.4h11.1v-2.5h2v8.4h-15.1ZM761.5,402.7h-11.1v2.6h11.1v-2.6ZM761.5,397.3v-13.3h2v13.3h-2Z"/>
            <path class="cls-1" d="M781.1,400.5c-2.7.6-8.8,1.1-12.3,1.1h-1v-15.1h2v13.3c3,0,8.3-.4,11.1-1l.2,1.8h0ZM785.2,407.3h-2v-23.2h2v23.2Z"/>
            <path class="cls-1" d="M792.7,399.8c3,0,7.6-.3,9.8-.8l.2,1.7c-2.5.5-7.1.8-11.2.8h-2.3v-15.1h11v1.7h-9v11.7h1.5ZM806.3,393.2h3.8v1.7h-3.8v12.3h-2v-23.2h2v9.2h0Z"/>
            <path class="cls-1" d="M810.2,402.6h2.3v2.4h-2.3v-2.4Z"/>
            <path class="cls-1" d="M215.1,431.9c-.1,7.1-3,11.9-8.4,15.4l-1.3-1.5c4.9-2.6,7.4-7.3,7.6-12.1h-6.8v-1.7h8.9ZM218.8,451.1v-8.1h-3.9v-1.7h3.9v-4.2h-3.4v-1.7h3.4v-5.8h2v21.5h-2ZM223.2,452.3v-23.2h2v23.2h-2Z"/>
            <path class="cls-1" d="M242.9,446.5c-1.8.2-5,.5-7.8.7-2.6.1-4.9.2-6.8.2l-.4-1.8c1.7,0,3.9,0,6.3-.1v-4.9h2v4.8c2.6-.1,4.9-.4,6.4-.6l.2,1.7h.1ZM228.9,431.5h12.7v1.7h-5.4c0,3.4,3.4,5.9,5.9,6.7l-1.1,1.5c-2.2-.9-4.9-3-5.8-5.1-.8,2.3-3.1,4.5-5.9,5.8l-1.1-1.6c3-1,5.9-3.9,5.9-7.4h-5.2v-1.7h0ZM246.2,440.4v11.8h-2v-23.2h2v9.7h3.7v1.7h-3.7Z"/>
            <path class="cls-1" d="M252.2,430.9h12.6v1.7h-5.2v1.3c.2,3.1,3.1,5.7,6,6.5l-1.2,1.6c-2.4-1-4.9-3.1-5.9-5.2-.6,2.2-3.4,5-5.9,6l-1.1-1.6c2.9-1.1,5.9-4.1,6-7.4v-1.2h-5.3v-1.7h0ZM263,452.3c-5,0-7.8-1.7-7.8-4.4s2.8-4.5,7.8-4.5,7.8,1.7,7.8,4.5-2.8,4.4-7.8,4.4ZM257.2,447.8c0,1.7,2.1,2.7,5.7,2.7s5.8-1,5.8-2.7-2.1-2.8-5.8-2.8-5.7,1-5.7,2.8ZM263.9,436.7v-1.7h4.7v-6h2v14.4h-2v-6.7h-4.7Z"/>
            <path class="cls-1" d="M285.3,442.9v4.8h9.5v1.7h-21v-1.7h9.5v-4.8h-6.9v-12.3h2v4.3h11.9v-4.3h2v12.3h-7ZM290.3,436.6h-11.9v4.7h11.9v-4.7Z"/>
            <path class="cls-1" d="M297.9,435.5h2.3v2.4h-2.3v-2.4ZM297.9,445.2h2.3v2.4h-2.3v-2.4Z"/>
            <path class="cls-1" d="M321.3,433.2h-10.1v-1.8h12.5v1.3l-7.3,16.5h-2.3l7.2-16h0Z"/>
            <path class="cls-1" d="M338,439.1v1.3c0,6.4-2.8,9.2-6.9,9.2s-3.9-.6-4.6-1.1l.5-1.7c.9.5,2.5,1,4,1,3,0,4.9-2.1,4.9-6.8-.7.7-2.2,1.9-4.4,1.9-3.3,0-5.7-1.9-5.7-5.7s2-6.1,5.8-6.1,6.4,4,6.4,8h0ZM328,437.1c0,2,1,4,3.8,4s3.1-1,4.1-2.2v-.4c0-3.1-1.4-5.6-4.2-5.6s-3.6.9-3.6,4.2h0Z"/>
            <path class="cls-1" d="M349.2,445.5h-8.9v-1.5l9.4-12.6h1.5v12.4h3v1.7h-3v3.8h-2v-3.8ZM349.2,443.7v-8.9l-6.6,8.9h6.6Z"/>
            <path class="cls-1" d="M355.8,448l4.2-4.4c3-3,4.2-4.6,4.2-7.2s-1.3-3.5-3.6-3.5-3,.7-4,1.5l-.6-1.7c1.3-.9,3-1.6,5-1.6,3.6,0,5.4,2.2,5.4,5.1s-1.9,5.4-4.7,8.2l-3,3h8.2v1.8h-11.1v-1.2h0Z"/>
            <path class="cls-1" d="M369.7,440.9v-1c0-5.6,2.1-8.7,6.1-8.7s6.1,3,6.1,8.7v1c0,5.7-2,8.7-6.1,8.7s-6.1-3-6.1-8.7ZM379.7,440.8v-.9c0-4.8-1.1-7-3.8-7s-3.9,2.2-3.9,7v.9c0,4.8,1.1,7,3.9,7s3.8-2.2,3.8-7h0Z"/>
            <path class="cls-1" d="M384.9,441.5v-1.2c0-6.3,3.3-9.1,6.9-9.1s3.5.5,4.6,1.1l-.5,1.7c-.8-.5-2.4-1-3.9-1-2.7,0-4.8,1.8-5,7,1.1-1.1,2.6-1.8,4.5-1.8,3.3,0,5.5,2,5.5,5.5s-1.9,6-6,6-6.1-4.6-6.1-8.1h0ZM395,443.8c0-2.5-1-4-3.8-4s-3.2,1-4.1,2.1v.2c0,2.5,1,5.6,4.1,5.6s3.8-1.5,3.8-4h0Z"/>
            <path class="cls-1" d="M399.5,448.4l.5-1.7c1.2.8,2.9,1.1,4.3,1.1,3,0,4.8-1.6,4.8-4s-1.5-3.9-4.7-3.9-2.9.5-4,1.1l.6-9.6h9.3v1.8h-7.6l-.4,5.6c.6-.2,1.8-.5,2.9-.5,3.6,0,6.1,1.6,6.1,5.4s-2.1,5.9-6.6,5.9-4-.5-5.2-1.2h0Z"/>
            <path class="cls-1" d="M413.6,448.4l.6-1.7c1,.6,2.9,1,4.2,1,3,0,4.8-1.3,4.8-3.5s-1.9-3.4-4.7-3.4h-1.8v-1.8h1.6c2.5,0,4.2-1.1,4.2-3.2s-1.7-2.9-3.9-2.9-2.8.4-3.9,1.1l-.6-1.6c1.2-.8,3-1.2,4.9-1.2,3.5,0,5.7,1.6,5.7,4.4s-1.2,3.8-3.4,4.3h0c2.3.3,4.1,1.6,4.1,4.4s-2.2,5.4-6.7,5.4-4-.5-5-1.1h0v-.2Z"/>
            <path class="cls-1" d="M428.3,444.7c0-2.2,1.3-3.8,4-4.7-1.9-.7-3.4-2-3.4-4.4s2.2-4.5,5.6-4.5,5.5,2.2,5.5,4.4-.8,3.1-3.5,4.4c2.6.9,4.2,2.1,4.2,4.8s-2.6,5-6.3,5-6.1-2.2-6.1-4.9h0ZM438.4,444.8c0-2.1-1.2-3-4.5-4-2.7.9-3.5,2.2-3.5,3.7s1.5,3.3,4,3.3,4-1.2,4-3h0ZM437.9,435.6c0-1.4-.9-2.8-3.4-2.8s-3.4,1.2-3.4,2.8.8,2.6,3.7,3.4c2.4-1,3-2,3-3.4h0Z"/>
            <path class="cls-1" d="M443.4,441.5v-1.2c0-6.3,3.3-9.1,6.9-9.1s3.5.5,4.6,1.1l-.5,1.7c-.8-.5-2.4-1-3.9-1-2.7,0-4.8,1.8-5,7,1.1-1.1,2.6-1.8,4.5-1.8,3.3,0,5.5,2,5.5,5.5s-1.9,6-6,6-6.1-4.6-6.1-8.1h0ZM453.4,443.8c0-2.5-1-4-3.8-4s-3.2,1-4.1,2.1v.2c0,2.5,1,5.6,4.1,5.6s3.8-1.5,3.8-4h0Z"/>
            <path class="cls-1" d="M458,448l4.2-4.4c3-3,4.2-4.6,4.2-7.2s-1.3-3.5-3.6-3.5-3,.7-4,1.5l-.6-1.7c1.3-.9,3-1.6,5-1.6,3.6,0,5.4,2.2,5.4,5.1s-1.9,5.4-4.7,8.2l-3,3h8.2v1.8h-11.1v-1.2h0Z"/>
            <path class="cls-1" d="M491.6,431.4c-.1,8.4-4.2,13.4-10.6,16.5l-1.2-1.5c3.8-1.6,6.8-4.2,8.4-7.7l-7.9.7-.4-1.9,8.9-.5c.4-1.2.6-2.5.7-3.9h-8.6v-1.7h10.7ZM497.4,438.5h3.8v1.7h-3.8v12h-2v-23.2h2v9.5Z"/>
            <path class="cls-1" d="M514.9,431.4c-.2,8.4-4.2,13.4-10.6,16.5l-1.2-1.5c3.8-1.6,6.8-4.2,8.4-7.7l-7.9.7-.4-1.9,8.9-.5c.4-1.2.6-2.5.7-3.9h-8.6v-1.7h10.7ZM520.7,438.5h3.8v1.7h-3.8v12h-2v-23.2h2v9.5Z"/>
            <path class="cls-1" d="M536.6,442.8v4.6h9.5v1.7h-21v-1.7h9.5v-4.6c-4.5-.3-7.3-2.6-7.3-6.1s3.3-6.1,8.4-6.1,8.4,2.4,8.4,6.1-2.9,5.8-7.4,6.1h-.1ZM535.6,432.4c-3.9,0-6.4,1.8-6.4,4.5s2.5,4.4,6.4,4.4,6.5-1.8,6.5-4.4-2.5-4.5-6.5-4.5Z"/>
            <path class="cls-1" d="M547.8,441.2v-10.5h2v3.5h5.2v-3.5h2v10.5h-9.2ZM554.9,435.8h-5.2v3.7h5.2v-3.7ZM558.6,452.2c-5.1,0-8-1.7-8-4.4s3-4.4,8-4.4,8,1.7,8,4.4-3,4.4-8,4.4ZM552.7,447.8c0,1.8,2.3,2.8,5.9,2.8s6-1,6-2.8-2.3-2.8-6-2.8-5.9,1-5.9,2.8ZM564.3,443.2v-6.3h-2.8v5.5h-2v-13h2v5.7h2.8v-6.1h2v14.1h-2Z"/>
            <path class="cls-1" d="M569.3,448.9v-1.7h21v1.7h-21ZM587.7,434.5c0,3.1-.4,8.4-1,11.4l-2-.2c.2-1.1.5-3.5.7-5.9l-13.8.7-.4-1.8,14.2-.5v-4.9h-13.6v-1.7h15.7v3h.2Z"/>
            <path class="cls-1" d="M601.2,429.9h1.8v22.1h-1.8v-22.1Z"/>
            <path class="cls-1" d="M623.6,434.5h3.3v-5.1h2v21.6h-2v-7.6h-3.3c-.8,2.2-2.3,3.6-4.5,3.6-3.4,0-5.1-3.3-5.1-8.1s1.7-8.1,5.1-8.1,3.7,1.4,4.5,3.6h0ZM619.2,432.6c-2,0-3.2,2.5-3.2,6.4s1.2,6.4,3.2,6.4,3.2-2.4,3.2-6.4-1.2-6.4-3.2-6.4ZM624.1,436.2c.2.9.2,1.8.2,2.8s0,2-.2,2.8h2.9v-5.6h-2.9ZM631.5,452.3v-23.2h2v23.2h-2Z"/>
            <path class="cls-1" d="M654.6,430.4c0,3.1-.2,6.4-.8,8.7h3.5v1.7h-21v-1.7h15.5c.5-1.8.7-5.1.7-7h-13.5v-1.7h15.6ZM638.9,451.8v-8.1h16v8.1h-16ZM652.8,445.4h-11.9v4.7h11.9v-4.7Z"/>
            <path class="cls-1" d="M668.4,452.3v-8.3h-9.5v-1.7h21v1.7h-9.5v8.3h-2ZM678,440.1c-3.8-.6-7.5-3-8.5-5.2-1,2.2-4.5,4.6-8.5,5.2l-.9-1.7c3.8-.4,8.3-2.8,8.4-6.1h-7.5v-1.7h17.1v1.7h-7.5c0,3.3,4.9,5.6,8.4,6l-1,1.7h0Z"/>
            <path class="cls-1" d="M682.5,435.5h2.3v2.4h-2.3v-2.4ZM682.5,445.2h2.3v2.4h-2.3v-2.4Z"/>
            <path class="cls-1" d="M700.8,452.3v-8.2h-5.4v-1.7h21v1.7h-5.5v8.2h-2v-8.2h-6v8.2h-2.1ZM705.9,440.2c-5.2,0-8.2-2-8.2-5s3.1-5,8.2-5,8.2,2,8.2,5-3.1,5-8.2,5ZM699.7,435.1c0,2,2.4,3.2,6.2,3.2s6.3-1.3,6.3-3.2-2.4-3.2-6.3-3.2-6.2,1.3-6.2,3.2Z"/>
            <path class="cls-1" d="M717.6,435v-1.7h13.6v1.7h-13.6ZM724.5,444.4c-3.1,0-5.5-1.6-5.5-4.1s2.3-4.1,5.5-4.1,5.5,1.6,5.5,4.1-2.3,4.1-5.5,4.1ZM724.5,437.9c-1.9,0-3.5.9-3.5,2.5s1.7,2.5,3.5,2.5,3.5-.9,3.5-2.5-1.7-2.5-3.5-2.5ZM721,431.6v-1.8h6.7v1.8h-6.7ZM721,451.5v-6h2v4.3h13.5v1.7h-15.5ZM735.6,438.6v7.6h-2v-17.1h2v7.9h3.5v1.7h-3.5Z"/>
            <path class="cls-1" d="M752.3,430.3c-.5,6.1-4.8,9.8-10.6,11.5l-1-1.6c5.1-1.3,8.5-4.4,9.3-8.2h-8.3v-1.7h10.6ZM744.4,452.1v-5.9h13v-2.5h-13.1v-1.6h15.1v5.6h-13v2.8h13.9v1.6h-15.9ZM752.6,432.4h4.8v-3.4h2v11.8h-2v-2.5h-5.1v-1.6h5.1v-2.7h-4.8v-1.6h0Z"/>
            <path class="cls-1" d="M139.4,490.8c-2.5.5-7.6.8-11.4.8h-2v-15.4h10.8v1.7h-8.8v4.9h8.4v1.6h-8.4v5.5c3.6.1,8.8-.3,11.1-.8l.2,1.7h.1ZM141.7,497.3v-23.2h2v23.2h-2Z"/>
            <path class="cls-1" d="M156.9,476c0,5.8-2.6,10.1-8.5,12.7l-1.3-1.5c3.2-1.1,5.3-3,6.5-5.3l-6.1.7-.4-1.8,7.2-.5c.3-.8.4-1.7.5-2.5h-6.6v-1.7h8.8,0ZM166.3,497.5c-2.8-.5-6.6-3-7.8-5.5-.9,2.5-4.8,4.8-8.1,5.5l-1.1-1.6c3.8-.5,8.1-3.3,8.1-6.6v-.9h2.1v.9c0,3.4,4.3,6.1,7.8,6.6l-1.1,1.7h.1ZM156.7,482.3v-1.7h3.4v-6.2h1.9v13.1h-1.9v-5.2h-3.4ZM164.4,489.4v-15.4h2v15.4h-2Z"/>
            <path class="cls-1" d="M175.6,475.8c3.9,0,6,3.3,6,8.2s-2.1,8.2-6,8.2-6-3.3-6-8.2,2.2-8.2,6-8.2ZM175.6,477.5c-2.4,0-4.1,2.6-4.1,6.5s1.6,6.5,4.1,6.5,4.1-2.6,4.1-6.5-1.6-6.5-4.1-6.5ZM185.9,497.3v-23.2h2v23.2h-2Z"/>
            <path class="cls-1" d="M199.5,476.1h12.5v1.7h-5.2v1.9c.2,3,3.1,5.6,5.7,6.5l-1.1,1.6c-2.2-.9-4.7-3.1-5.6-5.2-.6,2.2-3.3,4.7-5.8,5.8l-1.2-1.6c2.9-1.1,5.9-4.1,6-7.1v-1.9h-5.2v-1.7h0ZM202.7,496.5v-7.1h2v5.5h13.6v1.7h-15.6ZM215.8,491v-8.9h-4.6v-1.7h4.6v-6.5h2v17h-2Z"/>
            <path class="cls-1" d="M224.5,483.4c3.2,0,7.4-.2,9.6-.7l.2,1.6c-2.6.5-7.1.8-11.1.8h-1.9v-9.5h10.8v1.7h-8.8v6.1h1.2ZM223.8,497v-5.9h12.7v-2.4h-12.8v-1.6h14.8v5.5h-12.7v2.7h13.6v1.7h-15.6ZM238.5,480.9v5h-2v-11.9h2v5.1h3.6v1.7h-3.6Z"/>
            <path class="cls-1" d="M258.8,491.8c-1.9.2-4.8.5-7.6.6-2.6.1-6.1.2-7.6.2l-.3-1.8c1.8,0,4.1,0,6.6-.1v-5h-4.8v-9.5h12.1v1.7h-10.1v6.1h10.1v1.7h-5.3v4.9c2.6-.1,5.3-.3,6.8-.5l.2,1.6h-.1ZM260.4,497.3v-23.2h2v23.2h-2Z"/>
            <path class="cls-1" d="M278.6,491.7c-2.2-1.4-5.1-4.3-5.9-7.1-.8,2.9-3.3,5.9-6,7.6l-1.2-1.5c3.4-2,6.2-6,6.2-10.4v-2.4h-5.4v-1.7h13v1.7h-5.4v2.4c0,4.3,3,8.1,6.1,9.8l-1.2,1.5h-.2ZM284.5,474v23.2h-2v-23.2h2Z"/>
            <path class="cls-1" d="M307.8,480.6c0,3.4-2.7,5.5-6,5.5s-6-2.1-6-5.4,2.7-5.5,6-5.5,6,2.2,6,5.5h0ZM304.6,495.7c-1.6.5-4,.9-7,.9v-8.4h2v6.6c1.3,0,3.4-.4,4.7-.8l.3,1.6h0ZM297.7,480.6c0,2.2,1.7,3.7,4,3.7s4.1-1.5,4.1-3.7-1.6-3.8-4.1-3.8-4,1.6-4,3.8ZM304,490.6v-1.6h11.6v1.6h-11.6ZM309.7,497.5c-2.4,0-4.4-1.2-4.4-3.1s2-3.1,4.4-3.1,4.4,1.2,4.4,3.1-2,3.1-4.4,3.1ZM307.2,487.8v-1.6h5.4v1.6h-5.4ZM309.7,492.9c-1.3,0-2.4.6-2.4,1.5s1.1,1.5,2.4,1.5,2.4-.6,2.4-1.5-1.1-1.5-2.4-1.5ZM313.3,481v4.1h-2v-11.1h2v5.3h3.5v1.7h-3.5Z"/>
            <path class="cls-1" d="M317.8,487.6v-1.7h21v1.7h-21ZM328.2,483.8c-5.1,0-8.1-1.6-8.1-4.6s3-4.5,8.1-4.5,8.1,1.6,8.1,4.5-3,4.6-8.1,4.6ZM320.5,496.6v-6.8h2v5.1h13.8v1.7h-15.9.1ZM322.2,479.3c0,1.9,2.4,2.9,6,2.9s6.1-1,6.1-2.9-2.4-2.9-6.1-2.9-6.1,1-6.1,2.9h.1Z"/>
            <path class="cls-1" d="M359.7,475.8c-.4,5.9-4.5,10.4-10.7,12.6l-1-1.7c4.8-1.3,8.7-5.2,9.4-9.1h-8.4v-1.7h10.7ZM359,497.1c-5.1,0-7.9-1.7-7.9-4.4s2.8-4.4,7.9-4.4,7.9,1.7,7.9,4.4-2.9,4.4-7.9,4.4ZM353.2,492.7c0,1.7,2.2,2.7,5.8,2.7s5.8-1,5.8-2.7-2.1-2.7-5.8-2.7-5.8,1-5.8,2.7ZM359.6,483.1h5.1v-3.2h-4.8v-1.7h4.8v-4.2h2v14.7h-2v-3.9h-5.1v-1.7h0Z"/>
            <path class="cls-1" d="M379.3,497.3v-8.1h-9.4v-1.7h21v1.7h-9.6v8.1h-2ZM380.4,485.4c-5.2,0-8.3-2.1-8.3-5.2s3.1-5.2,8.3-5.2,8.3,2.1,8.3,5.2-3.1,5.2-8.3,5.2ZM374,480.2c0,2.1,2.4,3.5,6.3,3.5s6.4-1.3,6.4-3.5-2.4-3.5-6.4-3.5-6.3,1.3-6.3,3.5Z"/>
            <path class="cls-1" d="M400.8,475.2h2v7h.1c1.1-.8,2.8-1.4,4.5-1.4,2.6,0,3.8,1.1,3.8,3.6v9.8h-2v-9.4c0-1.6-.6-2.3-2.7-2.3s-2.6.5-3.7,1v10.7h-2v-19h0Z"/>
            <path class="cls-1" d="M414,487.9v-.4c0-4.6,2.7-6.6,5.8-6.6s5.3,2.1,5.3,6.2v1.1h-9c.1,3.3,1.7,4.6,4.5,4.6s3-.4,4.1-1v1.5c-.8.5-2.3,1.2-4.4,1.2-4.1,0-6.2-2.5-6.2-6.6h0ZM416,486.6h6.9c0-2.9-1.1-4.1-3.2-4.1s-3.4,1-3.6,4.1h0Z"/>
            <path class="cls-1" d="M427.8,475.2h2v19h-2v-19Z"/>
            <path class="cls-1" d="M433.3,475.2h2v19h-2v-19Z"/>
            <path class="cls-1" d="M438.2,487.9v-.4c0-4.2,2.4-6.7,6-6.7s6,2.4,6,6.6v.4c0,4.2-2.4,6.7-6,6.7s-6-2.4-6-6.6h0ZM448,488v-.6c0-3.7-1.8-4.9-3.9-4.9s-3.9,1.7-3.9,4.8v.6c0,3.7,1.7,4.9,3.9,4.9s3.9-1.7,3.9-4.8Z"/>
            <path class="cls-1" d="M452.5,488.5c0-6.1,3.9-11.9,11.3-11.9s9.2,3.8,9.2,9-2.2,7.7-5.8,7.7-2.5-.6-2.8-1.6h-.1c-.7.9-1.9,1.6-3.3,1.6-2.3,0-3.6-1.6-3.6-4.2,0-4.4,2.1-7.4,5.5-7.4s2.3.5,2.8,1h.1v-.8h2l-1.6,8.4c-.2,1,.1,1.5,1.1,1.5,2.3,0,3.7-2.2,3.7-6.1s-2.4-7.6-7.5-7.6-9.5,4.6-9.5,10.4,2.8,8.1,8.5,8.1,4.6-.6,5.8-1v1.3c-1.5.6-3.5,1.2-5.8,1.2-6.6,0-10.2-3.6-10.2-9.6h.2ZM464.6,490.4l1.1-6.1c-.4-.5-1.3-1-2.5-1-2.5,0-3.5,2.5-3.5,5.8s.7,2.7,2.1,2.7,2.1-.7,2.8-1.4h0Z"/>
            <path class="cls-1" d="M475.4,493.6v-1.6c1.1.4,2.1.8,4,.8s3-.8,3-2-.6-1.8-2.3-2.2l-1.3-.4c-1.9-.5-3.2-1.4-3.2-3.6s1.5-3.8,4.5-3.8,2.9.4,3.6.8v1.6c-.7-.4-2-.7-3.5-.7s-2.7.6-2.7,1.9.6,1.6,2,2l1.3.4c2.5.7,3.6,1.5,3.6,3.8s-1.8,3.9-4.6,3.9-3.2-.3-4.2-.9h-.2Z"/>
            <path class="cls-1" d="M486.8,490.7v-9.6h2v9.3c0,1.7.6,2.4,2.6,2.4s2.6-.5,3.6-1v-10.6h2v13.2h-1.8l-.2-1.2h-.1c-1.2.8-2.6,1.4-4.2,1.4-2.6,0-4-1.3-4-3.9h.1Z"/>
            <path class="cls-1" d="M500.5,481.1h1.9v1.1h.1c1.2-.8,2.9-1.4,4.5-1.4,2.6,0,3.8,1,3.8,3.6v9.8h-2v-9.4c0-1.6-.6-2.3-2.7-2.3s-2.6.5-3.7,1v10.7h-2v-13.2h.1Z"/>
            <path class="cls-1" d="M513.6,487.9v-.4c0-4.7,2.8-6.7,6.2-6.7s2.8.3,3.6.9v1.7c-1.2-.5-2-.9-3.8-.9s-4,1.6-4,4.6v.6c0,3.4,1.4,4.9,4.2,4.9s3-.6,3.6-.9v1.6c-.9.5-2,1-3.9,1-3.8,0-6.1-2.2-6.1-6.6h0l.2.2Z"/>
            <path class="cls-1" d="M525.2,487.9v-.4c0-4.2,2.4-6.7,6-6.7s6,2.4,6,6.6v.4c0,4.2-2.4,6.7-6,6.7s-6-2.4-6-6.6h0ZM535.1,488v-.6c0-3.7-1.8-4.9-3.9-4.9s-3.9,1.7-3.9,4.8v.6c0,3.7,1.7,4.9,3.9,4.9s3.9-1.7,3.9-4.8Z"/>
            <path class="cls-1" d="M540,475.2h2v19h-2v-19Z"/>
            <path class="cls-1" d="M545.5,475.2h2v19h-2v-19Z"/>
            <path class="cls-1" d="M550.1,490.8c0-2.3,1.5-3.5,4-3.8l3.6-.4v-1.4c0-2-.9-2.6-3.3-2.6s-2.3.2-3.2.4v-1.5c1.2-.5,2.4-.7,4-.7,2.9,0,4.5,1.2,4.5,3.9v9.5h-1.7l-.2-1.1h0c-.6.7-1.7,1.4-3.5,1.4s-4.1-1.2-4.1-3.7h0ZM557.7,492v-3.9l-3,.3c-1.6.2-2.4.8-2.4,2.4s1,2.1,2.5,2.1,2.4-.4,3-1h0Z"/>
            <path class="cls-1" d="M563.1,493.8v-18.6h2v6.7h0c1-.6,2.2-1.1,4.1-1.1s5.1,1.5,5.1,6.5v.4c0,4.4-2.3,6.9-6.6,6.9s-3.7-.3-4.8-.7h.1ZM572.3,488v-.5c0-3.7-1.3-4.9-4-4.9s-2.6.5-3.2.9v9c.6.2,1.5.5,2.9.5,2.3,0,4.3-1.1,4.3-4.9h0Z"/>
            <path class="cls-1" d="M576.7,487.9v-.4c0-4.2,2.4-6.7,6-6.7s6,2.4,6,6.6v.4c0,4.2-2.4,6.7-6,6.7s-6-2.4-6-6.6h0ZM586.5,488v-.6c0-3.7-1.8-4.9-3.9-4.9s-3.9,1.7-3.9,4.8v.6c0,3.7,1.7,4.9,3.9,4.9s3.9-1.7,3.9-4.8Z"/>
            <path class="cls-1" d="M591.4,481.1h1.9v1.5h.2c.7-.9,2.2-1.6,3.7-1.6s.7,0,.8,0v1.8h-1c-1.3,0-2.6.5-3.5,1.1v10.4h-2v-13.2h-.1Z"/>
            <path class="cls-1" d="M599.2,490.8c0-2.3,1.5-3.5,4-3.8l3.6-.4v-1.4c0-2-.9-2.6-3.3-2.6s-2.3.2-3.2.4v-1.5c1.2-.5,2.4-.7,4-.7,2.9,0,4.5,1.2,4.5,3.9v9.5h-1.7l-.2-1.1h0c-.6.7-1.7,1.4-3.5,1.4s-4.1-1.2-4.1-3.7h0ZM606.8,492v-3.9l-3,.3c-1.6.2-2.4.8-2.4,2.4s1,2.1,2.5,2.1,2.4-.4,3-1h0Z"/>
            <path class="cls-1" d="M613,491.3v-8.5h-1.9v-1.7h1.9v-3.1h2v3.1h3.4v1.7h-3.4v8.2c0,1.3.4,1.8,2,1.8s1.2,0,1.7-.2v1.4c-.5.2-1.1.5-2.2.5-2.1,0-3.5-.9-3.5-3.1h0Z"/>
            <path class="cls-1" d="M621.1,476.3h2.1v2.1h-2.1v-2.1ZM621.1,481.1h2v13.1h-2v-13.1Z"/>
            <path class="cls-1" d="M625.9,487.9v-.4c0-4.2,2.4-6.7,6-6.7s6,2.4,6,6.6v.4c0,4.2-2.4,6.7-6,6.7s-6-2.4-6-6.6h0ZM635.8,488v-.6c0-3.7-1.8-4.9-3.9-4.9s-3.9,1.7-3.9,4.8v.6c0,3.7,1.7,4.9,3.9,4.9s3.9-1.7,3.9-4.8Z"/>
            <path class="cls-1" d="M640.7,481.1h1.9v1.1h0c1.2-.8,2.9-1.4,4.5-1.4,2.6,0,3.8,1,3.8,3.6v9.8h-2v-9.4c0-1.6-.6-2.3-2.7-2.3s-2.6.5-3.7,1v10.7h-2v-13.2h.1Z"/>
            <path class="cls-1" d="M654.1,492.6h2.3v2.4h-2.3v-2.4Z"/>
            <path class="cls-1" d="M660.1,475.2h2v19h-2v-19Z"/>
            <path class="cls-1" d="M665.6,476.3h2.1v2.1h-2.1v-2.1ZM665.6,481.1h2v13.1h-2v-13.1Z"/>
            <path class="cls-1" d="M670,481.1h2.2l3.7,10.6h0l3.8-10.6h2l-4.9,13.2h-2l-4.9-13.2h.1Z"/>
            <path class="cls-1" d="M682.9,487.9v-.4c0-4.6,2.7-6.6,5.8-6.6s5.3,2.1,5.3,6.2v1.1h-9c0,3.3,1.7,4.6,4.5,4.6s3-.4,4.1-1v1.5c-.8.5-2.3,1.2-4.4,1.2-4.2,0-6.2-2.5-6.2-6.6h0ZM685,486.6h6.8c0-2.9-1.1-4.1-3.2-4.1s-3.4,1-3.6,4.1Z"/>
            <path class="cls-1" d="M695.9,494.3v-1.7h9.5v-4h-6.8v-7.3h13.8v-3.7h-13.8v-1.7h15.8v7.1h-13.8v3.9h14.4v1.7h-7.6v4h9.5v1.7h-21Z"/>
            <path class="cls-1" d="M738.1,481.4c0,3.5-2.6,5.8-6,5.8s-6-2.3-6-5.8,2.6-5.8,6-5.8,6,2.4,6,5.8h0ZM728,481.4c0,2.4,1.8,4,4.1,4s4-1.6,4-4-1.7-4-4.1-4-4,1.7-4,4ZM729.9,496.5v-7.1h2v5.4h13.5v1.7h-15.5ZM738.6,479v-1.7h4.2v-3.3h2v16.9h-2v-6h-4.2v-1.7h4.2v-4.3h-4.2Z"/>
            <path class="cls-1" d="M761.5,486.4c-2.4.4-7.6.8-10.8.8h-2.2v-6.9h8.5v-3.1h-8.5v-1.7h10.5v6.5h-8.5v3.5h.3c2.7,0,7.8-.2,10.5-.7l.2,1.6h0ZM765.5,489.5v7.8h-2v-6.1h-13.1v-1.7h15.1ZM765.5,481.8v6.4h-2v-14.2h2v6.1h3.5v1.7h-3.5Z"/>
            <path class="cls-1" d="M779.3,497.3v-8.3h-9.5v-1.7h21v1.7h-9.5v8.3h-2ZM788.9,485.1c-3.8-.6-7.5-3-8.5-5.2-1,2.2-4.5,4.6-8.5,5.2l-.9-1.7c3.8-.4,8.3-2.8,8.4-6.1h-7.5v-1.7h17.1v1.7h-7.5c0,3.3,4.9,5.6,8.4,6l-1,1.7h0Z"/>
            <path class="cls-1" d="M803.1,491.4c-1.8-1.3-4.2-4-5-6.7-.5,2.7-2.4,5.7-4.8,7.4l-1.2-1.5c2.7-1.7,5-5.6,5-10.2v-4.2h2v4.2c0,4.5,2.7,7.9,5.2,9.6l-1.2,1.5h0ZM805.8,496.1v-12h-4.1v-1.7h4.1v-7.8h2v21.5h-2ZM810.3,497.3v-23.2h2v23.2h-2Z"/>
            <path class="cls-1" d="M815.2,494.3v-1.7h5.2v-4.6h2v4.6h6.5v-4.7h2v4.7h5.3v1.7h-21ZM825.7,487.2c-5,0-8.4-2.3-8.4-5.8s3.3-5.9,8.4-5.9,8.4,2.4,8.4,5.9-3.3,5.8-8.4,5.8ZM825.7,477.2c-3.9,0-6.4,1.7-6.4,4.2s2.5,4.2,6.4,4.2,6.5-1.7,6.5-4.2-2.5-4.2-6.5-4.2Z"/>
            <path class="cls-1" d="M838.4,492.6h2.3v2.4h-2.3v-2.4Z"/>
          </g>
        </g>
      </g>
      <polygon class="cls-3" points="917.7 1.3 917.7 19.2 910.8 2.7 902.1 6.3 908.9 22.8 896.3 10.2 889.6 16.9 902.2 29.5 885.7 22.7 882.1 31.5 898.5 38.3 880.7 38.3 880.7 47.8 898.5 47.8 882.1 54.6 885.7 63.4 902.2 56.6 889.6 69.2 896.3 75.9 908.9 63.3 902.1 79.8 910.8 83.4 917.7 66.9 917.7 84.8 927.2 84.8 927.2 66.9 934 83.4 942.8 79.8 935.9 63.3 948.6 75.9 955.3 69.2 942.7 56.6 959.1 63.4 962.8 54.6 946.3 47.8 964.1 47.8 964.1 38.3 946.3 38.3 962.8 31.5 959.1 22.7 942.7 29.5 955.3 16.9 948.6 10.2 935.9 22.8 942.8 6.3 934 2.7 927.2 19.2 927.2 1.3 917.7 1.3"/>
    </g>
  </g>
</svg>