<?xml version="1.0" encoding="UTF-8"?>
<svg id="_레이어_1" data-name=" 레이어 1" xmlns="http://www.w3.org/2000/svg" version="1.1" viewBox="0 0 1125 971.11">
  <defs>
    <style>
      .cls-1 {
        fill: #fcffff;
      }

      .cls-1, .cls-2, .cls-3, .cls-4, .cls-5 {
        stroke-width: 0px;
      }

      .cls-2, .cls-6 {
        fill: none;
      }

      .cls-3 {
        fill: #000;
      }

      .cls-4 {
        fill: #727272;
      }

      .cls-6 {
        stroke: #fff;
        stroke-miterlimit: 10;
        stroke-width: 1.5px;
      }

      .cls-7 {
        isolation: isolate;
      }

      .cls-5 {
        fill: #fff;
      }
    </style>
  </defs>
  <g id="_레이어_2" data-name=" 레이어 2">
    <rect class="cls-3" width="1125" height="971.11"/>
  </g>
  <g class="cls-7">
    <g class="cls-7">
      <path class="cls-5" d="M80.76,312.17h16.47v2.97h-6.27v.1c0,4.62,3.47,8.09,7.1,9.24l-1.98,2.84c-2.61-1.02-5.61-3.5-6.96-6.4-.92,3.04-4.26,6.11-7.43,7.29l-2.11-2.81c4.39-1.62,7.69-5.38,7.69-10v-.26h-6.5v-2.97h-.01ZM94.43,341.45c-6.67,0-10.56-2.44-10.56-6.17s3.89-6.21,10.56-6.21,10.66,2.41,10.66,6.21-3.93,6.17-10.66,6.17ZM94.43,331.98c-4.32,0-6.87,1.19-6.87,3.3s2.54,3.27,6.87,3.27,6.96-1.22,6.96-3.27-2.57-3.3-6.96-3.3ZM104.66,320.89v7.79h-3.6v-18.52h3.6v7.72h4.62v3h-4.62Z"/>
      <path class="cls-5" d="M110.73,337.52v-2.9h12.28v-7.69h3.6v7.69h12.38v2.9h-28.26ZM136.21,327.12c-4.65-1.19-9.74-4.75-11.35-8.58-1.45,3.89-6.67,7.46-11.39,8.58l-1.75-2.9c5.12-.83,11.29-5.02,11.29-10.4v-1.88h3.76v1.88c0,5.31,6.6,9.64,11.32,10.53l-1.88,2.77Z"/>
    </g>
    <g class="cls-7">
      <path class="cls-4" d="M82.12,364.16h3.63v21.02h10.43v3h-14.06v-24.03h0Z"/>
      <path class="cls-4" d="M98.42,379.64v-.59c0-5.71,3.37-9.11,8.35-9.11s8.25,3.33,8.25,9.01v.5c0,5.71-3.4,9.08-8.28,9.08-5.28,0-8.32-3.3-8.32-8.88h0ZM111.42,379.81v-.96c0-4.72-2.11-6.14-4.72-6.14-3,0-4.72,2.08-4.72,6.01v.96c0,4.75,2.15,6.14,4.82,6.14,2.9,0,4.62-2.08,4.62-6.01Z"/>
      <path class="cls-4" d="M117.52,379.67v-.59c0-6.27,3.76-9.14,8.61-9.14,2.34,0,3.73.46,4.92,1.16v2.84c-1.58-.66-2.67-1.09-4.95-1.09-3.07,0-4.98,2.01-4.98,5.78v.92c0,4.29,1.82,6.14,5.35,6.14,2.28,0,3.86-.76,4.79-1.19v2.61c-1.19.79-2.84,1.42-5.31,1.42-5.15,0-8.42-2.9-8.42-8.85h-.01Z"/>
      <path class="cls-4" d="M133.4,383.44c0-3.2,2.11-4.79,5.58-5.25l4.52-.53v-1.55c0-2.64-1.16-3.23-4.29-3.23-1.75,0-3.23.26-4.32.5v-2.41c1.65-.66,3.47-1.02,5.68-1.02,4.06,0,6.4,1.68,6.4,5.31v12.94h-2.84l-.33-1.49h-.2c-.86,1.06-2.31,1.82-4.65,1.82-3.23,0-5.54-1.62-5.54-5.08h-.01ZM143.5,384.82v-4.75l-3.73.36c-1.91.23-2.84.99-2.84,2.87s1.15,2.67,2.94,2.67c1.49,0,2.9-.49,3.63-1.15h0Z"/>
      <path class="cls-4" d="M152.44,383.9v-10.83h-2.54v-2.77h2.54v-4.22h3.47v4.22h4.32v2.77h-4.32v10.33c0,1.62.53,2.21,2.48,2.21.73,0,1.52-.1,2.21-.23v2.31c-.76.33-1.55.69-3.2.69-2.97,0-4.95-1.22-4.95-4.49h-.01Z"/>
      <path class="cls-4" d="M164.02,363.6h3.53v3.37h-3.53v-3.37ZM164.05,370.3h3.47v17.89h-3.47v-17.89Z"/>
      <path class="cls-4" d="M171.21,379.64v-.59c0-5.71,3.37-9.11,8.35-9.11s8.25,3.33,8.25,9.01v.5c0,5.71-3.4,9.08-8.28,9.08-5.28,0-8.32-3.3-8.32-8.88h0ZM184.22,379.81v-.96c0-4.72-2.11-6.14-4.72-6.14-3,0-4.72,2.08-4.72,6.01v.96c0,4.75,2.15,6.14,4.82,6.14,2.9,0,4.62-2.08,4.62-6.01Z"/>
      <path class="cls-4" d="M191.38,370.3h3.33v1.55h.16c1.49-1.06,3.8-1.91,5.97-1.91,3.5,0,5.18,1.45,5.18,4.92v13.33h-3.47v-12.51c0-1.98-.59-2.77-3.27-2.77-1.52,0-3.23.53-4.46,1.12v14.16h-3.47v-17.89h.03Z"/>
    </g>
  </g>
  <g class="cls-7">
    <g class="cls-7">
      <path class="cls-5" d="M89.21,166.29c-4.42,0-7.99-2.64-7.99-6.9s3.43-7.16,7.99-7.16,7.99,2.94,7.99,7.16-3.43,6.9-7.99,6.9ZM89.21,155.24c-2.41,0-4.42,1.82-4.42,4.12s1.88,3.93,4.42,3.93c2.67,0,4.42-1.78,4.42-3.93,0-2.34-1.68-4.12-4.42-4.12ZM85.78,182.17v-8.19h16.77v-2.57h-16.9v-2.9h20.5v8.15h-16.77v2.64h17.79v2.87h-21.39ZM102.51,166.89v-15.78h3.6v15.78h-3.6Z"/>
      <path class="cls-5" d="M127.66,175.17c-2.67-1.72-6.01-5.58-7.16-9.01-1.06,3.7-4.19,7.62-7.62,9.7l-2.21-2.64c4.85-3.14,7.92-8.32,7.92-14.29v-5.12h3.73v4.92c0,6.01,2.9,10.86,7.49,13.73l-2.15,2.71h0ZM132.91,182.4v-31.29h3.6v31.29h-3.6Z"/>
    </g>
    <g class="cls-7">
      <path class="cls-4" d="M82.12,205.11h7.53c7.29,0,11.42,3.63,11.42,11.32v.76c0,7.56-3.63,11.95-11.35,11.95h-7.59v-24.03h-.01ZM89.77,226.14c5.05,0,7.36-2.47,7.36-8.51v-1.19c0-6.3-2.81-8.32-7.79-8.32h-3.6v18.02h4.03Z"/>
      <path class="cls-4" d="M103.76,224.39c0-3.2,2.11-4.79,5.58-5.25l4.52-.53v-1.55c0-2.64-1.16-3.23-4.29-3.23-1.75,0-3.23.26-4.32.5v-2.41c1.65-.66,3.47-1.02,5.68-1.02,4.06,0,6.4,1.68,6.4,5.31v12.94h-2.84l-.33-1.49h-.2c-.86,1.06-2.31,1.82-4.65,1.82-3.23,0-5.54-1.62-5.54-5.08h-.01ZM113.86,225.77v-4.75l-3.73.36c-1.91.23-2.84.99-2.84,2.87s1.16,2.67,2.94,2.67c1.49,0,2.9-.49,3.63-1.15Z"/>
      <path class="cls-4" d="M122.8,224.85v-10.83h-2.54v-2.77h2.54v-4.22h3.47v4.22h4.32v2.77h-4.32v10.33c0,1.62.53,2.21,2.48,2.21.73,0,1.52-.1,2.21-.23v2.31c-.76.33-1.55.69-3.2.69-2.97,0-4.95-1.22-4.95-4.49h-.01Z"/>
      <path class="cls-4" d="M133.27,220.43v-.46c0-6.17,3.7-9.08,8.02-9.08,5.05,0,7.39,2.94,7.39,8.58v1.68h-11.85c.23,4.09,2.24,5.48,5.74,5.48,2.38,0,3.89-.56,5.54-1.32v2.44c-1.12.79-3.17,1.72-6.17,1.72-5.78,0-8.68-3.43-8.68-9.04h0ZM136.83,218.61h8.25c0-3.6-1.35-4.98-3.93-4.98-1.91,0-4.06.99-4.32,4.98Z"/>
    </g>
  </g>
  <g class="cls-7">
    <g class="cls-7">
      <path class="cls-4" d="M336.18,410.4l-3.04,2.01-1.22-2.21,3.23-1.55-3.23-1.55,1.22-2.21,3.04,1.98-.13-3.7h2.51l-.13,3.7,2.97-1.98,1.25,2.21-3.2,1.55,3.2,1.55-1.25,2.21-2.97-2.01.13,3.73h-2.51l.13-3.73Z"/>
      <path class="cls-4" d="M371.16,424.59c-2.94-1.62-6.7-5.61-7.69-8.85-.83,3.33-3.93,7.46-7.72,9.54l-2.24-2.67c4.98-2.77,8.09-7.82,8.09-14.09v-1.65h-6.54v-2.94h16.63v2.94h-6.37v1.65c0,6.34,3.33,10.92,7.89,13.47l-2.05,2.61h0ZM378.49,412.94h4.75v3h-4.75v16.01h-3.6v-31.29h3.6v12.28Z"/>
      <path class="cls-4" d="M398.32,424.19c-2.21-1.42-5.02-4.72-5.94-7.95-.76,3.4-3.27,6.87-6.27,8.78l-2.18-2.47c3.8-2.48,6.7-7.43,6.7-13.86v-4.92h3.47v4.88c0,5.97,2.64,10.79,6.3,13.04l-2.08,2.51h0ZM401.36,430.46v-15.88h-4.49v-3h4.49v-10.3h3.4v29.18h-3.4ZM407.5,431.95v-31.29h3.43v31.29h-3.43Z"/>
      <path class="cls-4" d="M414.69,409.01v-2.84h18.09v2.84h-18.09ZM423.8,421.09c-4.22,0-7.39-2.14-7.39-5.41s3.14-5.45,7.39-5.45,7.33,2.21,7.33,5.45-3.14,5.41-7.33,5.41ZM419.21,401.39h9.14v2.87h-9.14v-2.87ZM419.21,431.12v-8.42h3.6v5.51h17.33v2.9h-20.93ZM423.8,412.97c-2.21,0-3.96,1.02-3.96,2.71s1.75,2.64,3.96,2.64,3.89-.96,3.89-2.64-1.78-2.71-3.89-2.71ZM439.21,410.46h4.62v3h-4.62v10.33h-3.6v-23.14h3.6v9.8h0Z"/>
      <path class="cls-4" d="M466.8,431.91v-11.12h-12.28v-2.87h28.25v2.87h-12.38v11.12h-3.6.01ZM470.62,404.85c.63,3.86,6.14,6.7,10.83,7.2l-1.62,2.84c-4.39-.63-9.57-3.56-11.16-6.47-1.52,3.07-6.57,5.91-11.19,6.6l-1.72-2.84c4.82-.5,10.36-3.43,10.99-7.33h-9.64v-2.9h23v2.9h-9.51.02Z"/>
      <path class="cls-4" d="M484.88,428.02v-2.9h12.28v-7.69h3.6v7.69h12.38v2.9h-28.26ZM510.36,417.62c-4.65-1.19-9.74-4.75-11.35-8.58-1.45,3.89-6.67,7.46-11.39,8.58l-1.75-2.9c5.12-.83,11.29-5.02,11.29-10.4v-1.88h3.76v1.88c0,5.31,6.6,9.64,11.32,10.53l-1.88,2.77Z"/>
      <path class="cls-4" d="M515.24,419.17v-2.9h28.25v2.9h-28.25ZM518.9,431.12v-9.21h3.6v6.3h17.72v2.9h-21.32,0ZM519.07,412.44v-10.76h3.6v7.86h17.36v2.9h-20.96,0Z"/>
      <path class="cls-4" d="M554.84,428.22v-2.91h12.28v-3.5c-4.89-.43-7.92-2.48-7.92-5.51,0-3.43,3.86-5.64,9.8-5.64s9.77,2.21,9.77,5.64c0,3.07-3.1,5.15-8.05,5.51v3.5h12.38v2.91h-28.26ZM556.59,409.37v-2.91h24.75v2.91h-24.75ZM569,413.43c-3.27,0-6.17.92-6.17,2.87s2.9,2.87,6.17,2.87,6.14-.96,6.14-2.87-2.87-2.87-6.14-2.87ZM563.39,401.62h11.12v2.87h-11.12v-2.87Z"/>
      <path class="cls-4" d="M585.2,427.82v-2.9h28.25v2.9h-28.25ZM610.84,418.05c-4.62-1.22-9.9-4.79-11.52-8.58-1.45,3.86-6.83,7.43-11.55,8.58l-1.78-2.94c5.12-.83,11.49-5.08,11.49-10.46v-2.08h3.76v2.08c0,5.35,6.77,9.74,11.49,10.59l-1.88,2.81h0Z"/>
      <path class="cls-4" d="M643.81,427.99h-28.25v-2.87h28.25v2.87ZM622.79,412.57v3.99h17.69v2.84h-21.29v-16.34h20.99v2.87h-17.39v3.79h16.34v2.84h-16.34Z"/>
      <path class="cls-4" d="M662.82,430.46v-14.69h-3.13c-.33,5.21-2.41,9.41-6.67,9.41-4.69,0-6.73-5.05-6.73-10.99s2.05-10.92,6.73-10.92c4.29,0,6.37,4.22,6.67,9.51h3.13v-11.52h3.4v29.21h-3.4ZM653.05,406.37c-2.21,0-3.3,3.33-3.3,7.86s1.09,7.79,3.3,7.79,3.3-3.27,3.3-7.79-1.06-7.86-3.3-7.86ZM668.86,431.95v-31.29h3.43v31.29h-3.43Z"/>
      <path class="cls-4" d="M689.48,404.42c-.07,9.54-3.86,16.27-11.39,21.22l-2.38-2.47c6.21-3.7,9.84-9.34,10.23-15.81h-8.45v-2.94h11.99ZM693.08,430.46v-14.26h-4.16v-2.97h4.16v-11.95h3.4v29.18h-3.4ZM699.22,431.95v-31.29h3.43v31.29h-3.43Z"/>
      <path class="cls-4" d="M728.29,425.21v-5.78h-12.41v-2.9h28.25v2.9h-12.24v5.78h-3.6ZM719.54,431.06v-8.88h3.6v6.01h17.69v2.87h-21.29ZM740.37,413.5h-20.76v-11.19h20.76v11.19ZM736.77,405.21h-13.57v5.38h13.57v-5.38Z"/>
      <path class="cls-4" d="M767.33,423.96c-6.7.73-13.43,1.06-20.79,1.09l-.53-3.1c3.3.03,6.73.03,10.36-.17,4.49-.2,7.99-.43,10.69-.73l.26,2.9h.01ZM756.11,417.72c-4.55,0-8.02-2.87-8.02-7.13s3.5-7.46,8.02-7.46,8.19,3.07,8.19,7.46-3.6,7.13-8.19,7.13ZM756.11,406.2c-2.44,0-4.49,1.78-4.49,4.36s2.08,4.13,4.49,4.13,4.55-1.62,4.55-4.13c0-2.71-2.05-4.36-4.55-4.36ZM772.41,431.95h-3.6v-31.29h3.6v31.29Z"/>
      <path class="cls-4" d="M786.99,424.22v-20.99h3.6v7.69h7.46v-7.72h3.6v21.02h-14.66ZM798.05,413.73h-7.46v7.59h7.46v-7.59ZM810.1,412.67h4.85v3h-4.85v16.27h-3.6v-31.29h3.6v12.01h0Z"/>
      <path class="cls-4" d="M834.25,416.17c-3.1.63-8.35,1.09-12.94,1.09h-3.96v-9.27h10.2v-3.04h-10.33v-2.84h13.93v8.61h-10.2v3.66c3.8,0,9.9-.3,12.84-1.02l.46,2.81ZM820.46,431.52v-11.88h3.6v3.2h12.81v-3.27h3.63v11.95h-20.04ZM836.86,425.68h-12.81v2.97h12.81v-2.97ZM840.49,410.92v7h-3.63v-17.26h3.63v7.26h4.55v3h-4.55Z"/>
      <path class="cls-4" d="M866.16,422.9c-3.83.92-10.59,1.49-14.52,1.52l-3.27.03v-20.56h3.56v17.39c4.16.13,10.33-.56,13.8-1.35l.43,2.97h0ZM868.61,431.95v-31.29h3.6v31.29h-3.6Z"/>
      <path class="cls-4" d="M895.14,423.23c-3.4.73-8.42,1.06-13.66,1.06h-3.3v-20.69h14.22v2.94h-10.66v14.75c3.86.07,8.94-.17,12.94-.99l.46,2.94h0ZM901.18,415.64v16.3h-3.6v-31.29h3.6v11.98h4.72v3h-4.72Z"/>
      <path class="cls-4" d="M908.7,424.29h3.86v3.79h-3.86v-3.79Z"/>
    </g>
    <g class="cls-7">
      <path class="cls-4" d="M336.18,461.4l-3.04,2.01-1.22-2.21,3.23-1.55-3.23-1.55,1.22-2.21,3.04,1.98-.13-3.7h2.51l-.13,3.7,2.97-1.98,1.25,2.21-3.2,1.55,3.2,1.55-1.25,2.21-2.97-2.01.13,3.73h-2.51l.13-3.73Z"/>
      <path class="cls-4" d="M366.48,482.91v-11.12h-12.28v-2.87h28.25v2.87h-12.38v11.12h-3.6.01ZM370.31,455.85c.63,3.86,6.14,6.7,10.83,7.2l-1.62,2.84c-4.39-.63-9.57-3.56-11.16-6.47-1.52,3.07-6.57,5.91-11.19,6.6l-1.72-2.84c4.82-.5,10.36-3.43,10.99-7.33h-9.64v-2.9h23v2.9h-9.51.02Z"/>
      <path class="cls-4" d="M401.29,476.87c-3.1-1.39-6.7-5.05-7.72-8.12-.83,3.2-4.03,7.06-7.69,8.88l-2.24-2.61c4.75-2.51,8.02-6.8,8.02-13.1v-.13h-6.47v-2.87h16.57v2.87h-6.37v.13c0,6.3,3.47,10.2,7.82,12.28l-1.91,2.67h-.01ZM388.78,453.44h9.34v2.87h-9.34v-2.87ZM408.85,464.13h4.72v3h-4.72v15.81h-3.6v-31.29h3.6v12.48Z"/>
      <path class="cls-4" d="M414.92,470.17v-2.9h28.25v2.9h-28.25ZM418.58,482.12v-9.21h3.6v6.3h17.72v2.9h-21.32ZM418.75,463.44v-10.76h3.6v7.86h17.36v2.9h-20.96Z"/>
      <path class="cls-4" d="M458.15,482.75v-7.72h17.29v-2.11h-17.43v-2.84h8.78v-2.61h-12.28v-2.84h28.25v2.84h-12.38v2.61h8.65v7.56h-17.29v2.28h18.48v2.84h-22.08,0ZM458.18,462.39v-10.46h3.6v2.57h13.76v-2.61h3.6v10.5h-20.96ZM475.54,457.27h-13.76v2.34h13.76v-2.34Z"/>
      <path class="cls-4" d="M500.95,454.96c-.23,9.7-4.98,17.2-13.99,22.11l-2.24-2.74c7.19-3.27,11.78-9.84,12.38-16.4h-10.56v-2.97h14.42-.01ZM509.17,466.87v16.07h-3.6v-31.29h3.6v12.21h4.65v3h-4.65Z"/>
      <path class="cls-4" d="M515.24,468.72v-2.9h28.25v2.9h-28.25ZM529.4,482.98c-6.96,0-10.86-2.31-10.86-5.81s3.89-5.84,10.83-5.84,10.89,2.31,10.89,5.84-3.89,5.81-10.86,5.81h0ZM519.07,462.65v-10.4h3.6v7.49h17.36v2.91h-20.96,0ZM529.36,474.23c-4.39,0-7.16,1.09-7.16,2.97s2.77,2.9,7.16,2.9,7.2-1.06,7.2-2.9-2.74-2.97-7.2-2.97Z"/>
      <path class="cls-4" d="M545.37,459.12v-2.74h18.09v2.74h-18.09ZM554.44,470.21c-4.49,0-7.33-2.11-7.33-4.98s2.81-5.02,7.33-5.02,7.26,2.11,7.26,5.02-2.81,4.98-7.26,4.98ZM549.86,482.68v-11.39h3.6v2.87h12.84v-2.94h3.6v11.45h-20.04ZM549.89,451.79h9.14v2.81h-9.14v-2.81ZM554.44,462.82c-2.05,0-3.96.92-3.96,2.41s1.95,2.34,3.96,2.34,3.89-.86,3.89-2.34-1.88-2.41-3.89-2.41ZM566.29,477.04h-12.84v2.77h12.84v-2.77ZM569.89,462.55v7.1h-3.6v-17.99h3.6v7.89h4.59v3h-4.59Z"/>
      <path class="cls-4" d="M595.56,473.9c-3.83.92-10.59,1.49-14.52,1.52l-3.27.03v-20.56h3.56v17.39c4.16.13,10.33-.56,13.8-1.35l.43,2.97h0ZM598.01,482.95v-31.29h3.6v31.29h-3.6Z"/>
      <path class="cls-4" d="M624.54,474.23c-3.4.73-8.42,1.06-13.66,1.06h-3.3v-20.69h14.22v2.94h-10.66v14.75c3.86.07,8.94-.17,12.94-.99l.46,2.94h0ZM630.58,466.64v16.3h-3.6v-31.29h3.6v11.98h4.72v3h-4.72Z"/>
      <path class="cls-4" d="M638.1,475.29h3.86v3.79h-3.86v-3.79Z"/>
    </g>
  </g>
  <g class="cls-7">
    <g class="cls-7">
      <path class="cls-4" d="M336.18,232.09l-3.04,2.01-1.22-2.21,3.23-1.55-3.23-1.55,1.22-2.21,3.04,1.98-.13-3.7h2.51l-.13,3.7,2.97-1.98,1.25,2.21-3.2,1.55,3.2,1.55-1.25,2.21-2.97-2.01.13,3.73h-2.51l.13-3.73Z"/>
      <path class="cls-4" d="M355.95,225.35h7.53c7.29,0,11.42,3.63,11.42,11.32v.76c0,7.56-3.63,11.95-11.35,11.95h-7.59v-24.03h-.01ZM363.6,246.38c5.05,0,7.36-2.47,7.36-8.51v-1.19c0-6.3-2.81-8.32-7.79-8.32h-3.6v18.02h4.03Z"/>
      <path class="cls-4" d="M377.63,240.83v-.59c0-5.71,3.37-9.11,8.35-9.11s8.25,3.33,8.25,9.01v.5c0,5.71-3.4,9.08-8.28,9.08-5.28,0-8.32-3.3-8.32-8.88h0ZM390.63,241v-.96c0-4.72-2.11-6.14-4.72-6.14-3,0-4.72,2.08-4.72,6.01v.96c0,4.75,2.15,6.14,4.82,6.14,2.9,0,4.62-2.08,4.62-6.01Z"/>
      <path class="cls-4" d="M396.74,240.83v-.59c0-5.71,3.37-9.11,8.35-9.11s8.25,3.33,8.25,9.01v.5c0,5.71-3.4,9.08-8.28,9.08-5.28,0-8.32-3.3-8.32-8.88h0ZM409.74,241v-.96c0-4.72-2.11-6.14-4.72-6.14-3,0-4.72,2.08-4.72,6.01v.96c0,4.75,2.15,6.14,4.82,6.14,2.9,0,4.62-2.08,4.62-6.01Z"/>
      <path class="cls-4" d="M416.9,231.49h3.33v2.01h.16c1.02-1.22,2.87-2.25,4.79-2.25.43,0,.96.07,1.12.17v3.07c-.43-.07-1.06-.1-1.39-.1-1.68,0-3.33.5-4.55,1.29v13.7h-3.47v-17.89h.01Z"/>
      <path class="cls-4" d="M428.22,248.42v-2.61c1.49.56,2.81,1.12,5.35,1.12s3.7-.89,3.7-2.38c0-1.39-.69-2.05-2.84-2.54l-1.68-.46c-2.64-.63-4.49-1.91-4.49-5.08s2.05-5.35,6.4-5.35c2.44,0,3.96.53,5.02,1.06v2.67c-.96-.4-2.77-.89-4.75-.89-2.24,0-3.37.69-3.37,2.21,0,1.39.73,1.91,2.51,2.41l1.68.4c3.5.86,4.92,2.11,4.92,5.31,0,3.56-2.54,5.38-6.6,5.38-2.31,0-4.39-.4-5.84-1.25h-.01Z"/>
      <path class="cls-4" d="M452.37,240.83v-.59c0-5.71,3.37-9.11,8.35-9.11s8.25,3.33,8.25,9.01v.5c0,5.71-3.4,9.08-8.28,9.08-5.28,0-8.32-3.3-8.32-8.88h0ZM465.38,241v-.96c0-4.72-2.11-6.14-4.72-6.14-3,0-4.72,2.08-4.72,6.01v.96c0,4.75,2.15,6.14,4.82,6.14,2.9,0,4.62-2.08,4.62-6.01Z"/>
      <path class="cls-4" d="M472.54,231.49h3.33v1.45h.17c1.09-1.02,2.94-1.82,5.12-1.82,3.89,0,7.29,2.15,7.29,8.75v.5c0,6.63-3.17,9.14-8.09,9.14-1.98,0-3.43-.53-4.36-1.06v6.2h-3.47v-23.17h0ZM484.85,240.83v-.73c0-4.69-1.68-6.07-4.72-6.07-1.88,0-3.4.63-4.13,1.19v10.46c.73.56,2.24,1.12,3.96,1.12,3.07,0,4.88-1.42,4.88-5.97h.01Z"/>
      <path class="cls-4" d="M490.98,240.67v-.46c0-6.17,3.7-9.08,8.02-9.08,5.05,0,7.39,2.94,7.39,8.58v1.68h-11.85c.23,4.09,2.24,5.48,5.74,5.48,2.38,0,3.89-.56,5.54-1.32v2.44c-1.12.79-3.17,1.72-6.17,1.72-5.78,0-8.68-3.43-8.68-9.04h.01ZM494.55,238.85h8.25c0-3.6-1.35-4.98-3.93-4.98-1.91,0-4.06.99-4.32,4.98Z"/>
      <path class="cls-4" d="M509.92,231.49h3.33v1.55h.16c1.49-1.06,3.8-1.91,5.97-1.91,3.5,0,5.18,1.45,5.18,4.92v13.33h-3.47v-12.51c0-1.98-.59-2.77-3.27-2.77-1.52,0-3.23.53-4.46,1.12v14.16h-3.47v-17.89h.03Z"/>
      <path class="cls-4" d="M537.25,244.63c0-3.2,2.11-4.79,5.58-5.25l4.52-.53v-1.55c0-2.64-1.16-3.23-4.29-3.23-1.75,0-3.23.26-4.32.5v-2.41c1.65-.66,3.47-1.02,5.68-1.02,4.06,0,6.4,1.68,6.4,5.31v12.94h-2.84l-.33-1.49h-.2c-.86,1.06-2.31,1.82-4.65,1.82-3.23,0-5.54-1.62-5.54-5.08h-.01ZM547.35,246.01v-4.75l-3.73.36c-1.91.23-2.84.99-2.84,2.87s1.15,2.67,2.94,2.67c1.49,0,2.9-.49,3.63-1.15Z"/>
      <path class="cls-4" d="M556.29,245.09v-10.83h-2.54v-2.77h2.54v-4.22h3.47v4.22h4.32v2.77h-4.32v10.33c0,1.62.53,2.21,2.48,2.21.73,0,1.52-.1,2.21-.23v2.31c-.76.33-1.55.69-3.2.69-2.97,0-4.95-1.22-4.95-4.49h0Z"/>
      <path class="cls-4" d="M578.1,246.44h6.01v-17.06l-6.3,1.91v-2.81l7.99-3.04h1.98v20.99h5.21v2.94h-14.88v-2.94h-.01Z"/>
      <path class="cls-4" d="M597.44,248.29l.69-2.84c1.58.92,3.79,1.35,5.48,1.35,3.7,0,6.04-1.91,6.04-4.79,0-3.37-1.95-4.65-5.71-4.65-1.65,0-3.89.56-5.38,1.32l.86-13.04h12.57v2.94h-9.7l-.43,6.6c.99-.46,2.67-.66,3.7-.66,4.69,0,7.86,2.31,7.86,7.39,0,3.96-3,7.89-8.85,7.89-2.84,0-5.48-.5-7.13-1.52h0Z"/>
      <path class="cls-4" d="M618.53,230.96h3.83v3.73h-3.83v-3.73ZM618.53,243.9h3.83v3.73h-3.83v-3.73Z"/>
      <path class="cls-4" d="M627.34,248.16l.92-2.84c1.62.89,4.09,1.49,5.68,1.49,3.27,0,5.54-1.45,5.54-4.42s-2.38-3.99-5.81-3.99h-2.31v-2.81h2.24c2.9,0,5.12-1.16,5.12-3.8,0-2.28-1.48-3.56-4.65-3.56-1.65,0-3.3.36-5.02,1.25l-.96-2.61c1.95-1.15,4.55-1.62,6.5-1.62,4.92,0,7.82,2.25,7.82,5.91,0,3.27-1.88,4.95-4.49,5.61v.03c2.74.33,5.38,1.91,5.38,5.91s-3.07,7.1-8.84,7.1c-2.61,0-5.38-.66-7.13-1.65h.01Z"/>
      <path class="cls-4" d="M647.66,238.32v-1.55c0-7.43,2.74-11.52,8.22-11.52s8.22,4.06,8.22,11.49v1.58c0,7.46-2.71,11.49-8.22,11.49s-8.22-4.03-8.22-11.49h0ZM660.27,238.19v-1.29c0-6.27-1.32-8.81-4.39-8.81s-4.39,2.54-4.39,8.78v1.25c0,6.21,1.29,8.85,4.39,8.85s4.39-2.57,4.39-8.78h0Z"/>
    </g>
  </g>
  <g class="cls-7">
    <g class="cls-7">
      <path class="cls-1" d="M350.42,171.28c8.33-5.44,12.58-9.07,12.58-15.08,0-5.28-3.47-8.68-8.64-8.68-6.17,0-9.64,4.67-9.76,10.15h-10.42c.31-10.34,8.14-18.48,20.29-18.48,11.46,0,18.82,7.17,18.82,17.01s-6.33,14.85-16.78,21.76c-3.43,2.28-5.52,4.09-7.29,5.79-1.12.96-1.97,1.08-3.2,1.08h-.35c-2.35,0-3.93,1.77-3.93,3.74s1.62,3.63,3.66,3.63,3.7-1.62,3.7-3.59v-.5c0-.85.66-1.39,1.5-1.39h24.03v8.87h-40.97c.27-11.19,6.6-17.59,16.74-24.3h.02Z"/>
      <path class="cls-1" d="M381.67,167.92c0-17.55,7.95-28.74,21.22-28.74s21.18,11.19,21.18,28.74-7.98,28.78-21.18,28.78-21.22-11.23-21.22-28.78ZM386.83,171.47c2.04,0,3.59-1.58,3.59-3.59s-1.54-3.63-3.59-3.63-3.59,1.58-3.59,3.63,1.58,3.59,3.59,3.59ZM402.88,188.17c6.94,0,10.84-6.63,10.84-20.25s-3.9-20.21-10.84-20.21-10.92,6.6-10.92,20.21,3.93,20.25,10.92,20.25ZM418.89,171.47c2.01,0,3.59-1.58,3.59-3.59s-1.58-3.63-3.59-3.63-3.59,1.58-3.59,3.63,1.58,3.59,3.59,3.59Z"/>
      <path class="cls-1" d="M447.59,171.28c8.33-5.44,12.58-9.07,12.58-15.08,0-5.28-3.47-8.68-8.64-8.68-6.17,0-9.64,4.67-9.76,10.15h-10.42c.31-10.34,8.14-18.48,20.29-18.48,11.46,0,18.82,7.17,18.82,17.01s-6.33,14.85-16.78,21.76c-3.43,2.28-5.52,4.09-7.29,5.79-1.12.96-1.97,1.08-3.2,1.08h-.35c-2.35,0-3.93,1.77-3.93,3.74s1.62,3.63,3.66,3.63,3.7-1.62,3.7-3.59v-.5c0-.85.66-1.39,1.5-1.39h24.03v8.87h-40.97c.27-11.19,6.6-17.59,16.74-24.3h.02Z"/>
      <path class="cls-1" d="M504.06,183.7h-27.08v-8.22l24.19-35.22h12.5v35.06h8.76v8.37h-8.76v11.88h-9.6v-11.88h-.01ZM501.98,175.33c1.08,0,1.62.54,1.62,1.62v.69c0,2.12,1.74,3.82,3.82,3.82s3.93-1.58,3.93-3.82-1.77-3.86-3.93-3.86h-1.74c-1.04,0-1.62-.58-1.62-1.62v-22.1l-17.24,25.27h15.16,0Z"/>
      <path class="cls-1" d="M527.86,184.82h10.61v10.76h-10.61v-10.76Z"/>
      <path class="cls-1" d="M583.1,152.99c.93-1.2,2.08-2.08,3.55-2.08h1.23c2.24,0,3.97-1.77,3.97-3.97s-1.74-3.93-3.97-3.93-3.93,1.74-3.93,3.93v.31c0,1.16-.62,1.81-1.93,1.81h-23.41v-8.79h37.42v10.3c-8.45,7.91-18.21,22.45-18.86,45.02h-10.34c.85-21.22,9.72-34.49,16.28-42.59h-.01Z"/>
      <path class="cls-1" d="M595.17,184.82h10.61v10.76h-10.61v-10.76Z"/>
      <path class="cls-1" d="M628.23,169c0-18.67,7.79-29.82,22.88-29.82,10.57,0,17.74,6.13,18.55,15.85h-10.3c-.46-4.36-3.39-7.6-8.83-7.6-6.36,0-11.42,5.17-11.69,14.54-.04,1.35-.73,2.01-2.04,2.01h-1.12c-2.16,0-3.93,1.62-3.93,3.82s1.66,3.7,3.63,3.7c2.12,0,3.66-1.27,4.2-4.05,1.12-5.63,6.98-8.33,13.19-8.33,10.42,0,17.36,7.33,17.36,18.21,0,11.5-8.18,19.37-20.1,19.37-14.23,0-21.79-11.07-21.79-27.7h-.01ZM650.14,188.06c5.79,0,9.72-4.24,9.72-10.34s-3.9-10.38-9.72-10.38-9.8,4.21-9.8,10.38,4.01,10.34,9.8,10.34Z"/>
      <path class="cls-1" d="M677.41,184.82h10.61v10.76h-10.61v-10.76Z"/>
      <path class="cls-1" d="M709.51,170.62c0-14.27,5.52-26.81,11.92-35.57h8.25c-5.82,9.61-9.8,21.91-9.8,35.49s3.9,25.3,9.8,35.8h-8.25c-6.56-9.57-11.92-21.72-11.92-35.72h0ZM714.71,173.78c1.93,0,3.47-1.54,3.47-3.47s-1.54-3.51-3.47-3.51-3.47,1.62-3.47,3.51,1.54,3.47,3.47,3.47Z"/>
      <path class="cls-1" d="M731.65,178.3h10.38c.23,5.86,4.55,9.99,11.57,9.99,5.48,0,9.61-2.74,9.61-7.83,0-3.78-2.12-5.82-7.83-7.14l-7.37-1.66c-10.3-2.35-15.24-6.87-15.24-15.78,0-9.57,7.99-16.7,20.17-16.7s19.36,7.14,19.83,16.51h-10.34c-.19-4.59-3.39-8.22-9.8-8.22-5.36,0-9.49,2.97-9.49,7.56,0,3.47,2.24,5.67,7.98,6.98l8.18,1.89c8.02,1.81,14.23,5.94,14.23,15.28,0,10.8-7.75,17.51-20.1,17.51-13,0-21.6-6.71-21.79-18.4h.01ZM753.44,171.59c2.16,0,3.86-1.74,3.86-3.93s-1.74-3.9-3.86-3.9-3.86,1.7-3.86,3.9,1.74,3.93,3.86,3.93Z"/>
      <path class="cls-1" d="M779.56,184.55c0-7.83,5.05-11.46,12.88-12.65l6.79-1.04c4.28-.66,6.02-1.62,6.02-4.28s-2.08-5.4-6.79-5.4-7.45,2.51-7.68,6.56h-10.14c.31-8.02,7.17-13.77,17.71-13.77s16.78,5.67,16.78,15.08v17.2c0,3.32.46,7.21,1.58,8.1v1.23h-10.22c-.39-1.5-.69-3.39-.89-5.4-2.39,3.7-6.87,6.52-12.77,6.52-7.52,0-13.27-4.59-13.27-12.15h0ZM796.07,189.21c5.9,0,9.06-4.2,9.41-9.72l.04-.73c.12-1.08.77-1.62,1.85-1.62h.85c1.97,0,3.63-1.54,3.63-3.63s-1.58-3.59-3.63-3.59-3.7,1.5-3.7,3.63v.62c0,1.46-.69,2.2-2.47,2.54l-1.77.35-4.01.81c-4.36.89-6.6,2.62-6.6,6.02s2.74,5.32,6.4,5.32h0Z"/>
      <path class="cls-1" d="M827.85,184.59v-21.95h-6.91v-7.56h.81c5.13,0,7.37-2.16,7.68-8.06l.19-3.97h7.98v9.03c0,.93-.5,1.47-1.43,1.47h-2.04c-2.12,0-3.74,1.58-3.74,3.59,0,2.12,1.62,3.74,3.74,3.74,2.01,0,3.59-1.62,3.59-3.74v-.66c0-.89.54-1.39,1.47-1.39h7.25v7.56h-8.83v20.91c0,3.7,2.04,4.86,5.05,4.86,1,0,2.08-.12,3.09-.35v7.52c-1.62.46-3.47.73-5.55.73-7.37,0-12.34-3.12-12.34-11.73h-.01Z"/>
      <path class="cls-1" d="M858.44,170.54c0-13.58-3.97-25.88-9.8-35.49h8.25c6.4,8.76,11.92,21.29,11.92,35.57s-5.36,26.15-11.92,35.72h-8.25c5.9-10.49,9.8-22.33,9.8-35.8h0ZM863.61,173.78c1.93,0,3.47-1.54,3.47-3.47s-1.54-3.51-3.47-3.51-3.47,1.62-3.47,3.51,1.54,3.47,3.47,3.47Z"/>
    </g>
  </g>
  <g class="cls-7">
    <g class="cls-7">
      <path class="cls-1" d="M335.8,305.65h9.8v55.31h-9.8v-55.31Z"/>
      <path class="cls-1" d="M355.51,305.31h10.53v9.41h-10.53v-9.41ZM355.86,320.47h9.8v40.5h-9.8v-40.5Z"/>
      <path class="cls-1" d="M375.92,320.47h9.06v3.78c0,.85-.5,1.31-1.27,1.31h-1.85c-2.04,0-3.66,1.5-3.66,3.55s1.47,3.59,3.47,3.59,3.16-1.27,3.7-3.59c1.74-6.6,5.9-9.76,12.27-9.76,5.01,0,8.83,2.85,10.45,7.6,2.35-4.78,6.87-7.6,13.04-7.6,7.98,0,12.54,5.55,12.54,13.89v27.73h-9.76v-26.96c0-4.44-2.08-6.98-6.06-6.98-4.86,0-8.14,3.78-8.14,10.69v23.26h-9.8v-26.96c0-4.44-2.16-6.98-6.17-6.98-5.01,0-8.02,4.17-8.02,11.77v22.18h-9.8v-40.52Z"/>
      <path class="cls-1" d="M441.53,340.68c0-13.39,8.37-21.33,19.56-21.33s18.48,7.29,18.48,20.71c0,1.04,0,2.04-.04,3.01h-24.42c-2.08,0-3.55-1.43-3.55-3.39s1.47-3.39,3.55-3.39h14.31c-.39-6.63-3.39-9.68-8.37-9.68-4.63,0-7.98,3.01-8.99,8.37-.19.89-.69,1.27-1.7,1.27h-.69c-1.97,0-3.47,1.35-3.47,3.32s1.5,3.32,3.47,3.32h.73c.89,0,1.35.35,1.43,1.31.46,7.02,4.24,10.53,9.6,10.53,4.36,0,7.41-2.55,8.06-7.21h9.88c-1.04,8.87-7.79,14.58-18.28,14.58-11.46,0-19.56-6.87-19.56-21.41h0Z"/>
      <path class="cls-1" d="M485.47,348.12h10.26c.15,4.4,3.51,6.83,8.33,6.83,4.28,0,6.98-1.89,6.98-4.98,0-2.62-1.81-3.86-5.79-4.67l-7.02-1.39c-8.37-1.66-11.92-5.44-11.92-11.34,0-7.6,6.25-13.23,17.05-13.23s16.74,5.94,17.09,13.38h-10.07c-.15-3.97-2.85-6.37-7.21-6.37-4.09,0-6.79,2.04-6.79,4.98,0,2.28,1.62,3.59,5.09,4.28l7.56,1.43c8.14,1.58,12.07,5.32,12.07,11.57,0,8.99-7.56,13.46-17.2,13.46-11.23,0-18.25-5.17-18.44-13.96h.01ZM503.98,343.61c1.7,0,3.12-1.43,3.12-3.16s-1.5-3.16-3.16-3.16-3.2,1.43-3.2,3.16,1.54,3.16,3.24,3.16h0Z"/>
      <path class="cls-1" d="M532.22,349.98v-21.95h-6.9v-7.56h.81c5.13,0,7.37-2.16,7.68-8.06l.19-3.97h7.98v9.03c0,.93-.5,1.47-1.43,1.47h-2.04c-2.12,0-3.74,1.58-3.74,3.59,0,2.12,1.62,3.74,3.74,3.74,2.01,0,3.59-1.62,3.59-3.74v-.65c0-.89.54-1.39,1.47-1.39h7.25v7.56h-8.83v20.91c0,3.7,2.04,4.86,5.05,4.86,1,0,2.08-.12,3.09-.35v7.52c-1.62.46-3.47.73-5.55.73-7.37,0-12.34-3.12-12.34-11.73h-.02Z"/>
      <path class="cls-1" d="M557.99,348.43v-27.96h9.8v26.81c0,4.4,2.28,7.1,6.75,7.1,5.21,0,8.37-4.24,8.37-11.73v-22.18h9.76v40.5h-9.03v-3.82c0-.85.46-1.31,1.23-1.31h1.85c2.08,0,3.7-1.54,3.7-3.55s-1.47-3.55-3.51-3.55-3.12,1.23-3.74,3.55c-1.74,6.06-5.32,9.8-12.11,9.8-8.22,0-13.08-5.17-13.08-13.66h.01Z"/>
      <path class="cls-1" d="M638.84,305.65v55.31h-9.61v-6.02c-2.31,4.59-6.56,7.14-11.96,7.14-10.22,0-16.36-8.22-16.36-21.33s6.29-21.41,16.51-21.41c3.32,0,5.9,1,7.87,3.05,1.5,1.54,2.66,3.63,3.47,6.33.62,2.08,1.7,3.66,3.78,3.66,1.97,0,3.51-1.54,3.51-3.55s-1.5-3.51-3.59-3.51h-1.81c-.85,0-1.39-.54-1.39-1.5v-18.17h9.58ZM619.98,354.37c5.94,0,9.1-5.59,9.1-13.73s-3.16-13.66-9.1-13.66-8.95,5.55-8.95,13.66,3.01,13.73,8.95,13.73Z"/>
      <path class="cls-1" d="M648.79,305.31h10.53v9.41h-10.53v-9.41ZM649.14,320.47h9.8v40.5h-9.8v-40.5Z"/>
      <path class="cls-1" d="M667.08,340.68c0-13.08,7.64-21.33,19.29-21.33s19.25,8.25,19.25,21.33-7.6,21.41-19.25,21.41-19.29-8.29-19.29-21.41ZM672.21,344.19c1.89,0,3.51-1.5,3.51-3.47s-1.62-3.51-3.51-3.51-3.47,1.58-3.47,3.51,1.54,3.47,3.47,3.47ZM686.36,354.37c5.71,0,9.14-4.78,9.14-13.69s-3.43-13.62-9.14-13.62-9.14,4.74-9.14,13.62,3.43,13.69,9.14,13.69ZM700.48,344.19c1.93,0,3.47-1.5,3.47-3.47s-1.54-3.51-3.47-3.51-3.47,1.58-3.47,3.51,1.54,3.47,3.47,3.47Z"/>
    </g>
  </g>
  <g class="cls-7">
    <g class="cls-7">
      <path class="cls-5" d="M84.75,624.68h2.71v25.12h-2.71v-25.12Z"/>
      <path class="cls-5" d="M92.74,626.1h2.74v2.8h-2.74v-2.8ZM92.77,632.44h2.67v17.36h-2.67v-17.36Z"/>
      <path class="cls-5" d="M100.66,632.41h2.54v1.52h.17c1.58-1.02,3.47-1.85,5.41-1.85s3.4.63,4.19,1.95h.13c1.91-1.25,3.93-1.95,5.91-1.95,3.04,0,4.79,1.39,4.79,4.75v12.97h-2.64v-12.41c0-2.11-.86-3-3.2-3-1.35,0-2.84.53-4.49,1.29.07.4.1.73.1,1.16v12.97h-2.67v-12.41c0-2.11-.82-3-3.14-3-1.49,0-3.04.59-4.42,1.29v14.13h-2.67v-17.41Z"/>
      <path class="cls-5" d="M127.75,641.35v-.5c0-6.07,3.56-8.78,7.59-8.78,4.75,0,7,2.77,7,8.19v1.52h-11.85c.13,4.36,2.21,6.04,5.91,6.04,2.34,0,3.89-.56,5.45-1.32v2.01c-1.06.73-3.04,1.62-5.84,1.62-5.48,0-8.25-3.33-8.25-8.78h0ZM130.49,639.63h9.04c0-3.79-1.45-5.38-4.29-5.38-2.18,0-4.49,1.25-4.75,5.38Z"/>
      <path class="cls-5" d="M145.21,648.88v-2.15c1.49.56,2.77,1.09,5.21,1.09,2.77,0,3.89-.99,3.89-2.57s-.79-2.31-3-2.94l-1.72-.46c-2.54-.69-4.26-1.85-4.26-4.82s1.91-4.95,5.94-4.95c2.31,0,3.8.53,4.72,1.02v2.18c-.89-.46-2.67-.92-4.59-.92-2.34,0-3.53.83-3.53,2.44,0,1.52.76,2.15,2.61,2.67l1.75.46c3.33.89,4.72,2.01,4.72,5.05,0,3.3-2.31,5.12-6.14,5.12-2.28,0-4.19-.43-5.61-1.22h0Z"/>
      <path class="cls-5" d="M161.94,645.87v-11.22h-2.48v-2.21h2.48v-4.16h2.67v4.16h4.46v2.21h-4.46v10.83c0,1.68.56,2.34,2.57,2.34.73,0,1.55-.1,2.24-.33v1.85c-.69.3-1.45.69-2.94.69-2.74,0-4.55-1.19-4.55-4.16h0Z"/>
      <path class="cls-5" d="M173.16,645.05v-12.64h2.67v12.25c0,2.24.82,3.17,3.4,3.17,1.85,0,3.4-.66,4.82-1.39v-14.03h2.67v17.39h-2.31l-.26-1.55h-.13c-1.58,1.06-3.43,1.88-5.54,1.88-3.4,0-5.31-1.72-5.31-5.08h-.01Z"/>
      <path class="cls-5" d="M190.84,641.61v-.46c0-6.34,3.27-9.08,7.76-9.08,2.15,0,3.6.59,4.55,1.16v-8.55h2.71v25.12h-2.24l-.3-1.42h-.17c-1.06,1.02-2.74,1.75-5.08,1.75-3.47,0-7.23-2.11-7.23-8.52ZM203.15,646.43v-10.96c-.79-.63-2.41-1.12-4.19-1.12-3.3,0-5.31,1.72-5.31,6.44v.69c0,4.88,2.11,6.44,5.21,6.44,2.05,0,3.43-.76,4.29-1.48h0Z"/>
      <path class="cls-5" d="M211.07,626.1h2.74v2.8h-2.74v-2.8ZM211.1,632.44h2.67v17.36h-2.67v-17.36Z"/>
      <path class="cls-5" d="M217.9,641.42v-.53c0-5.51,3.2-8.81,7.89-8.81,4.92,0,7.89,3.2,7.89,8.71v.5c0,5.54-3.2,8.85-7.92,8.85s-7.85-3.17-7.85-8.71h0ZM230.94,641.58v-.86c0-4.85-2.34-6.44-5.18-6.44-3.17,0-5.12,2.25-5.12,6.34v.86c0,4.85,2.28,6.44,5.18,6.44,3.17,0,5.12-2.21,5.12-6.34Z"/>
      <path class="cls-5" d="M236.65,647.56h3.04v3.13h-3.04v-3.13Z"/>
      <path class="cls-5" d="M245.72,624.68h2.71v25.12h-2.71v-25.12Z"/>
      <path class="cls-5" d="M253.71,626.1h2.74v2.8h-2.74v-2.8ZM253.74,632.44h2.67v17.36h-2.67v-17.36Z"/>
      <path class="cls-5" d="M259.91,632.41h2.9l4.88,13.99h.13l5.02-13.99h2.64l-6.47,17.39h-2.67l-6.44-17.39h.01Z"/>
      <path class="cls-5" d="M277.8,641.35v-.5c0-6.07,3.56-8.78,7.59-8.78,4.75,0,7,2.77,7,8.19v1.52h-11.85c.13,4.36,2.21,6.04,5.91,6.04,2.34,0,3.89-.56,5.45-1.32v2.01c-1.06.73-3.04,1.62-5.84,1.62-5.48,0-8.25-3.33-8.25-8.78h-.01ZM280.54,639.63h9.04c0-3.79-1.45-5.38-4.29-5.38-2.18,0-4.49,1.25-4.75,5.38Z"/>
      <path class="cls-5" d="M310.83,626.37c-.17,9.97-5.94,17.16-13.83,21.25l-1.65-2.08c7.66-3.56,12.05-10.03,12.61-16.93h-11.55v-2.24h14.42,0ZM318.79,635.84h5.02v2.28h-5.02v15.64h-2.67v-30.7h2.67v12.77h0Z"/>
      <path class="cls-5" d="M336.11,625.91h16.7v2.24h-7.03c0,1.29,0,1.91.03,2.34.23,3.93,4.09,7.39,7.59,8.55l-1.49,2.15c-2.94-1.19-6.27-4.09-7.52-6.87-.83,2.87-4.39,6.24-7.69,7.66l-1.55-2.08c3.86-1.49,7.66-5.38,7.89-9.44.03-.4.03-1.02.03-2.31h-6.96v-2.24h0ZM340.07,652.94v-9.54h2.67v7.33h17.79v2.21h-20.46ZM357.2,645.34v-22.28h2.67v22.28h-2.67Z"/>
      <path class="cls-5" d="M364.88,630.99v-2.18h15.64v2.18h-15.64ZM373.07,641.91c-3.76,0-6.63-1.72-6.63-4.75s2.87-4.79,6.63-4.79,6.63,1.75,6.63,4.79-2.87,4.75-6.63,4.75ZM368.88,626.63v-2.31h7.99v2.31h-7.99ZM373.07,634.52c-2.21,0-3.99,1.06-3.99,2.64s1.78,2.64,3.99,2.64,3.99-1.09,3.99-2.64-1.78-2.64-3.99-2.64ZM380.66,653.7c-6.47,0-10.3-1.98-10.3-5.25s3.83-5.18,10.3-5.18,10.3,1.98,10.3,5.18-3.83,5.25-10.3,5.25ZM373.07,648.48c0,1.82,2.87,2.97,7.59,2.97s7.59-1.16,7.59-2.97-2.9-2.97-7.59-2.97-7.59,1.16-7.59,2.97ZM388.38,643.17v-9.04h-3.73v7.92h-2.61v-18.42h2.61v8.28h3.73v-8.85h2.64v20.1h-2.64Z"/>
      <path class="cls-5" d="M416.1,646.57c-2.44.3-6.3.59-10.03.79-3.43.17-8.05.3-10.07.3l-.43-2.34c2.34,0,5.41-.03,8.65-.13v-6.53h-6.37v-12.51h15.94v2.21h-13.27v8.09h13.37v2.21h-7v6.44c3.4-.13,7-.4,8.94-.66l.26,2.15v-.02ZM418.25,653.76v-30.7h2.64v30.7h-2.64Z"/>
      <path class="cls-5" d="M425.87,641.15v-2.24h27.72v2.24h-27.72ZM429.5,653.07v-9.04h2.67v6.83h18.45v2.21h-21.12ZM429.6,635.08v-10.73h2.67v8.52h18.22v2.21h-20.89Z"/>
      <path class="cls-5" d="M480.65,634.68v3.89h12.54v2.21h-27.72v-2.21h12.51v-3.89h-9.11v-10.17h20.83v2.25h-18.15v5.71h18.32v2.21h-9.22ZM479.33,653.76c-6.73,0-10.53-1.98-10.53-5.38s3.8-5.35,10.53-5.35,10.56,1.88,10.56,5.35-3.83,5.38-10.56,5.38ZM471.54,648.38c0,2.05,2.97,3.17,7.79,3.17s7.82-1.12,7.82-3.17-2.97-3.17-7.82-3.17-7.79,1.19-7.79,3.17Z"/>
      <path class="cls-5" d="M512.53,633.03c0,4.62-3.53,7.69-8.12,7.69s-8.15-3.04-8.15-7.66,3.53-7.76,8.12-7.76,8.15,3.13,8.15,7.72h0ZM498.93,633.03c0,3.17,2.38,5.41,5.48,5.41s5.45-2.24,5.45-5.38-2.21-5.48-5.48-5.48-5.45,2.28-5.45,5.45ZM500.18,652.7v-9.54h2.67v7.33h17.69v2.21h-20.36ZM519.42,634.29v11.06h-2.67v-22.28h2.67v8.98h4.69v2.24h-4.69Z"/>
      <path class="cls-5" d="M535.56,631.05v-2.18h17.46v2.18h-17.46ZM544.44,643.2c-4.13,0-7.29-2.11-7.29-5.31s3.14-5.31,7.29-5.31,7.29,2.05,7.29,5.31-3.14,5.31-7.29,5.31ZM544.44,634.72c-2.61,0-4.69,1.22-4.69,3.17s2.08,3.14,4.69,3.14,4.69-1.22,4.69-3.14-2.08-3.17-4.69-3.17ZM539.91,626.5v-2.38h8.85v2.38h-8.85ZM540.57,652.74v-8.09h2.67v5.87h17.92v2.21h-20.6.01ZM552.72,632.04h5.12v-8.98h2.67v23.04h-2.67v-5.78h-5.12v-2.18h5.12v-3.93h-5.12v-2.18h0Z"/>
      <path class="cls-5" d="M565.98,625.28h16.73v2.24h-6.96c0,.76,0,1.35.03,1.68.23,3.93,3.89,7.29,7.39,8.45l-1.49,2.14c-2.94-1.19-6.07-3.96-7.33-6.73-.83,2.87-4.42,6.17-7.72,7.59l-1.55-2.08c3.86-1.49,7.76-5.35,7.92-9.41,0-.3.03-.89.03-1.65h-7.06v-2.24h0ZM579.48,653.73c-6.4,0-10.26-2.24-10.26-5.84s3.86-5.91,10.26-5.91,10.33,2.21,10.33,5.91-3.89,5.84-10.33,5.84ZM579.48,644.22c-4.62,0-7.49,1.29-7.49,3.66s2.87,3.6,7.49,3.6,7.59-1.32,7.59-3.6-2.94-3.66-7.59-3.66ZM589.38,633.79v8.12h-2.67v-18.85h2.67v8.48h4.75v2.24h-4.75Z"/>
      <path class="cls-5" d="M605.39,649.54v-2.25h27.72v2.25h-27.72ZM630.6,641.12c-5.15-1.55-10.13-5.91-11.39-9.04-1.09,3.14-5.97,7.49-11.32,9.01l-1.42-2.31c5.02-.96,11.39-5.71,11.39-10.73v-2.44h2.77v2.44c0,5.02,6.73,9.77,11.45,10.83l-1.49,2.24h0Z"/>
      <path class="cls-5" d="M648.88,626.57c0,9.41-3.76,16.07-11.65,20.92l-1.75-1.95c4.59-2.51,7.52-5.81,9.14-9.57l-8.35.96-.59-2.41,9.7-.73c.46-1.62.69-3.27.76-4.98h-9.17v-2.24h11.91ZM653.11,652.21v-15.02h-4.75v-2.21h4.75v-11.19h2.57v28.42h-2.57ZM659.01,653.76v-30.7h2.64v30.7h-2.64Z"/>
      <path class="cls-5" d="M684.23,647.65c-3.33-1.52-7.29-5.35-8.38-8.55-.89,3.27-4.65,7.46-7.99,9.21l-1.58-1.98c4.03-1.91,8.15-6.67,8.15-12.38v-.96h-7.23v-2.21h17.1v2.21h-7.13v.92c0,5.71,4.55,10.23,8.48,11.62l-1.42,2.11h0ZM671.16,627.32v-2.44h9.27v2.44h-9.27ZM688.71,653.76v-30.7h2.67v30.7h-2.67Z"/>
      <path class="cls-5" d="M696.47,639.44v-2.08h27.72v2.08h-27.72ZM699.67,653.2v-6.83h18.58v-2.54h-18.55v-1.98h21.22v6.44h-18.58v2.81h19.54v2.11h-22.21,0ZM700,634.91v-6.34h18.09v-2.41h-18.12v-2.08h20.79v6.4h-18.09v2.44h18.68v1.98h-21.35Z"/>
      <path class="cls-5" d="M744.55,652.84v-10.53c-2.87.13-5.61.17-8.32.2l-.43-2.38c3.66,0,7,.03,10.4-.1,3.83-.13,7.72-.36,10.69-.69l.13,2.08c-2.34.33-6.3.56-9.8.76v10.66h-2.67ZM746,637.69c-4.75,0-8.05-2.67-8.05-6.5s3.3-6.6,8.05-6.6,8.05,2.67,8.05,6.6-3.33,6.5-8.05,6.5ZM746,626.83c-3.07,0-5.48,1.55-5.48,4.36s2.41,4.26,5.48,4.26,5.45-1.55,5.45-4.26-2.38-4.36-5.45-4.36h0ZM758.74,653.76v-30.7h2.67v30.7h-2.67Z"/>
      <path class="cls-5" d="M766.36,632.74v-2.21h15.28v2.21h-15.28ZM774.38,646.76c-3.93,0-6.7-2.61-6.7-6.11,0-3.73,2.77-6.14,6.7-6.14s6.7,2.44,6.7,6.14-2.74,6.11-6.7,6.11ZM769.96,627.72v-2.31h8.38v2.31h-8.38ZM774.38,636.76c-2.44,0-4.12,1.55-4.12,3.89s1.68,3.89,4.12,3.89,4.13-1.58,4.13-3.89-1.72-3.89-4.13-3.89ZM789.69,653.76v-15.91h-3.7v14.36h-2.61v-28.42h2.61v11.82h3.7v-12.54h2.64v30.7h-2.64Z"/>
      <path class="cls-5" d="M822.36,646.27c-3.17-2.18-6.6-5.84-7.82-9.54-1.09,3.83-4.06,7.72-7.69,10.23l-1.72-2.05c4.46-2.74,8.05-8.25,8.05-13.7v-5.45h2.74v5.35c0,5.61,3.86,10.63,8.12,13.1l-1.68,2.05h0ZM829.62,637.69v16.07h-2.67v-30.7h2.67v12.38h4.95v2.24h-4.95Z"/>
      <path class="cls-5" d="M837.71,625.91h16.7v2.24h-7.03c0,1.29,0,1.91.03,2.34.23,3.93,4.09,7.39,7.59,8.55l-1.49,2.15c-2.94-1.19-6.27-4.09-7.53-6.87-.83,2.87-4.39,6.24-7.69,7.66l-1.55-2.08c3.86-1.49,7.66-5.38,7.89-9.44.03-.4.03-1.02.03-2.31h-6.96v-2.24h0ZM841.67,652.94v-9.54h2.67v7.33h17.79v2.21h-20.46,0ZM858.8,645.34v-22.28h2.67v22.28h-2.67Z"/>
      <path class="cls-5" d="M877.4,637.85v-12.57h14.75v12.57h-14.75ZM901.76,654.29c-4.36-.53-8.51-2.57-10.23-5.31-1.58,2.77-6.2,4.88-10.46,5.25l-1.09-2.08c4.39-.36,9.24-2.57,10.03-5.35h-8.88v-2.21h20.93v2.21h-9.01c.86,2.77,6.11,4.98,10.03,5.38l-1.32,2.11h0ZM889.52,627.46h-9.47v8.19h9.47v-8.19h0ZM886.68,642.04v-2.28h9.7v2.28h-9.7ZM898.46,639.77v-16.7h2.67v16.7h-2.67Z"/>
    </g>
    <g class="cls-7">
      <path class="cls-5" d="M99.47,687.28c0,4.49-3.56,7.29-7.89,7.29s-7.89-2.81-7.89-7.26,3.56-7.39,7.89-7.39,7.89,2.87,7.89,7.36h0ZM86.37,687.28c0,3.1,2.21,5.12,5.21,5.12s5.21-2.01,5.21-5.08-2.05-5.12-5.21-5.12-5.21,2.01-5.21,5.08ZM98.08,708.83c-6.67,0-10.43-2.28-10.43-5.84s3.76-5.88,10.43-5.88,10.46,2.24,10.46,5.88-3.76,5.84-10.46,5.84ZM98.08,699.39c-4.79,0-7.66,1.32-7.66,3.6s2.87,3.56,7.66,3.56,7.72-1.32,7.72-3.56-2.84-3.6-7.72-3.6ZM100.26,689.75h5.58v-5.35h-5.58v-2.28h5.58v-4.06h2.67v18.98h-2.67v-5.02h-5.58v-2.28h0Z"/>
      <path class="cls-5" d="M129.57,694.34c-2.94-1.42-5.97-4.06-7.2-7.16-.96,3.27-4.06,6.34-7.66,8.19l-1.48-2.08c4.39-2.05,7.69-5.91,7.69-10.79v-2.97h2.71v2.87c0,4.88,4.06,8.61,7.52,9.83l-1.58,2.11h0ZM127.49,708.73c-6.4,0-10.23-2.24-10.23-5.88s3.83-5.91,10.23-5.91,10.33,2.24,10.33,5.91-3.86,5.88-10.33,5.88ZM119.99,702.85c0,2.34,2.87,3.66,7.49,3.66s7.59-1.32,7.59-3.66-2.9-3.7-7.59-3.7-7.49,1.35-7.49,3.7ZM137.39,688.63v8.35h-2.67v-18.91h2.67v8.32h4.69v2.24h-4.69Z"/>
      <path class="cls-5" d="M172.66,694.37c-2.24.26-6.2.63-9.83.86-3.47.2-7.36.36-9.54.36l-.4-2.28c2.18,0,5.25-.07,8.35-.2v-3.3h2.67v3.17c3.27-.17,6.67-.43,8.48-.69l.26,2.08h0ZM154.51,682.39h15.97v2.15h-6.57c.69,2.47,4.22,3.93,7.36,4.16l-1.16,2.08c-3.17-.53-6.47-2.08-7.56-4.22-1.02,2.41-4.06,4.19-7.79,4.92l-1.25-2.01c3.37-.3,6.93-2.11,7.56-4.92h-6.57v-2.15h.01ZM157.22,708.53v-6.77h17.16v-2.41h-17.29v-2.11h19.97v6.57h-17.16v2.57h18.35v2.15h-21.03ZM158.44,678.33h8.32v2.18h-8.32v-2.18ZM177.05,688.69v6.93h-2.67v-17.56h2.67v8.38h4.65v2.24h-4.65Z"/>
      <path class="cls-5" d="M199.79,687.28c0,4.49-3.56,7.29-7.89,7.29s-7.89-2.81-7.89-7.26,3.56-7.39,7.89-7.39,7.89,2.87,7.89,7.36h0ZM186.69,687.28c0,3.1,2.21,5.12,5.21,5.12s5.21-2.01,5.21-5.08-2.05-5.12-5.21-5.12-5.21,2.01-5.21,5.08ZM198.4,708.83c-6.67,0-10.43-2.28-10.43-5.84s3.76-5.88,10.43-5.88,10.46,2.24,10.46,5.88-3.76,5.84-10.46,5.84ZM198.4,699.39c-4.79,0-7.66,1.32-7.66,3.6s2.87,3.56,7.66,3.56,7.72-1.32,7.72-3.56-2.84-3.6-7.72-3.6ZM200.58,689.75h5.58v-5.35h-5.58v-2.28h5.58v-4.06h2.67v18.98h-2.67v-5.02h-5.58v-2.28h0Z"/>
      <path class="cls-5" d="M223.05,680.38c5.08,0,7.92,4.36,7.92,10.86s-2.84,10.83-7.92,10.83-7.92-4.32-7.92-10.86,2.87-10.83,7.92-10.83ZM223.05,682.69c-3.23,0-5.38,3.5-5.38,8.55s2.15,8.52,5.38,8.52,5.38-3.5,5.38-8.52-2.11-8.55-5.38-8.55ZM236.69,708.76v-30.7h2.67v30.7h-2.67Z"/>
      <path class="cls-5" d="M270.38,687.14c0,4.52-3.6,7.33-7.95,7.33s-7.95-2.8-7.95-7.29,3.6-7.39,7.95-7.39,7.95,2.94,7.95,7.36h0ZM266.88,706.42c-1.52-.79-3.17-2.38-3.89-4.06-.73,2.31-3.43,5.28-6.07,6.54l-1.62-1.92c3.14-1.35,6.24-4.72,6.24-8.45v-1.52h2.64v1.29c0,3.23,2.18,5.38,4.55,6.3l-1.85,1.82h0ZM257.08,687.14c0,3.07,2.28,5.15,5.35,5.15s5.38-2.08,5.38-5.12-2.15-5.21-5.38-5.21-5.35,2.18-5.35,5.18h0ZM280.08,708.83c-2.08-1.02-4.85-3.7-5.61-5.91-.76,2.31-3.33,5.08-5.81,6.3l-1.68-1.78c3.3-1.62,6.14-4.95,6.14-8.68v-1.85h2.64v1.75c0,3.79,3.07,7.16,5.97,8.25l-1.62,1.91h-.03ZM276.12,695.89v-17.82h2.67v17.82h-2.67Z"/>
      <path class="cls-5" d="M284.07,693.58v-2.24h27.72v2.24h-27.72ZM287.3,708.46v-7.29h18.35v-2.71h-18.42v-2.15h21.09v6.87h-18.35v3.1h19.34v2.18h-22.01,0ZM297.96,689.12c-6.6,0-10.69-1.95-10.69-5.31s4.09-5.31,10.69-5.31,10.73,1.95,10.73,5.31-4.06,5.31-10.73,5.31ZM290.01,683.81c0,1.91,3.14,3.1,7.95,3.1s8.02-1.19,8.02-3.1-3.17-3.14-8.02-3.14-7.95,1.22-7.95,3.14Z"/>
      <path class="cls-5" d="M336.15,708.79v-11.16h-12.48v-2.24h27.72v2.24h-12.57v11.16h-2.67,0ZM348.98,692.13c-4.59-.92-9.6-3.83-11.45-7.39-1.49,3.56-6.73,6.57-11.39,7.49l-1.29-2.31c5.88-.76,11.29-4.65,11.29-8.84v-1.95h2.81v1.95c0,4.19,5.91,8.12,11.32,8.78l-1.29,2.28h0Z"/>
      <path class="cls-5" d="M379.94,687.14c0,4.52-3.6,7.33-7.95,7.33s-7.95-2.8-7.95-7.29,3.6-7.39,7.95-7.39,7.95,2.94,7.95,7.36h0ZM376.44,706.42c-1.52-.79-3.17-2.38-3.89-4.06-.73,2.31-3.43,5.28-6.07,6.54l-1.62-1.92c3.14-1.35,6.24-4.72,6.24-8.45v-1.52h2.64v1.29c0,3.23,2.18,5.38,4.55,6.3l-1.85,1.82h0ZM366.64,687.14c0,3.07,2.28,5.15,5.35,5.15s5.38-2.08,5.38-5.12-2.15-5.21-5.38-5.21-5.35,2.18-5.35,5.18h0ZM389.64,708.83c-2.08-1.02-4.85-3.7-5.61-5.91-.76,2.31-3.33,5.08-5.81,6.3l-1.68-1.78c3.3-1.62,6.14-4.95,6.14-8.68v-1.85h2.64v1.75c0,3.79,3.07,7.16,5.97,8.25l-1.62,1.91h-.03ZM385.68,695.89v-17.82h2.67v17.82h-2.67Z"/>
      <path class="cls-5" d="M393.63,704.54v-2.25h27.72v2.25h-27.72ZM407.46,696.25c-6.7,0-11.16-3.07-11.16-7.76s4.46-7.76,11.16-7.76,11.19,3.07,11.19,7.76-4.46,7.76-11.19,7.76ZM407.46,682.98c-5.12,0-8.48,2.21-8.48,5.54s3.37,5.45,8.48,5.45,8.52-2.18,8.52-5.45-3.37-5.54-8.52-5.54Z"/>
      <path class="cls-5" d="M425.11,700.97v-19.83h13.93v19.83h-13.93ZM436.37,683.35h-8.58v15.41h8.58v-15.41ZM440.76,685.23h5.81v-7.16h2.67v30.7h-2.67v-12.74h-5.81v-2.21h5.81v-6.37h-5.81v-2.21h0Z"/>
      <path class="cls-5" d="M455.01,702.52h3.17l-2.57,6.87h-1.91l1.32-6.87h-.01Z"/>
      <path class="cls-5" d="M487.58,681.33c-.17,9.97-6.27,17.59-14.19,21.35l-1.55-2.11c7.76-3.4,12.31-10.1,12.87-17h-11.75v-2.24h14.62ZM493.92,708.76v-30.7h2.67v30.7h-2.67Z"/>
      <path class="cls-5" d="M517.02,691.57v3.23h12.57v2.25h-27.72v-2.25h12.48v-3.23h-8.98v-7.23h17.99v-2.94h-18.02v-2.15h20.69v7.1h-17.99v3.07h18.52v2.14h-9.54ZM526.09,699.72v9.24h-2.67v-7.03h-18.58v-2.21h21.26-.01Z"/>
      <path class="cls-5" d="M547.74,680.48c-.3,8.78-5.51,14.16-13.53,16.67l-1.39-2.08c4.75-1.32,8.19-3.8,10.13-6.96l-9.67.99-.59-2.38,11.35-.79c.4-1.02.63-2.08.76-3.2h-10.63v-2.24h13.57ZM537.38,708v-9.67h2.67v7.43h17.99v2.24h-20.66ZM547.91,689.88v-2.24h6.73v-9.57h2.67v22.28h-2.67v-10.46h-6.73Z"/>
      <path class="cls-5" d="M567.41,693.48c3.7,0,6.83-.2,9.34-.76l.36,2.21c-2.97.59-7.06.86-11.09.86h-1.98v-14.92h11.42v2.21h-8.78v3.86h7.39v2.18h-7.39v4.36h.73ZM568.33,707.74v-9.47h2.67v7.26h18.29v2.21h-20.96,0ZM580.05,699.88v-10.99h-4.32v-2.18h4.32v-8.09h2.61v21.25h-2.61ZM585.82,700.94v-22.87h2.64v22.87h-2.64Z"/>
      <path class="cls-5" d="M592.95,704.83v-2.25h27.72v2.25h-27.72ZM618.2,697.84c-5.08-.92-9.9-4.09-11.39-7.26-1.35,3.24-5.97,6.3-11.35,7.36l-1.19-2.24c5.21-.59,11.19-4.52,11.19-8.65v-.07h-10v-2.25h22.67v2.25h-9.93v.07c0,4.13,6.44,8.02,11.19,8.48l-1.19,2.31h0ZM601.76,681.76v-2.25h10.07v2.25h-10.07Z"/>
      <path class="cls-5" d="M623.31,704.83v-2.25h12.48v-5.21h-9.04v-9.6h18.19v-4.92h-18.22v-2.24h20.89v9.37h-18.19v5.15h19.04v2.25h-10v5.21h12.58v2.25h-27.73Z"/>
      <path class="cls-5" d="M662.97,703.65v-2.34c1.78.92,4.09,1.55,6.57,1.55,3.63,0,5.21-1.68,5.21-4.26,0-2.41-1.16-3.4-3.99-4.32l-2.31-.79c-3.3-1.09-5.15-2.77-5.15-6.37s2.44-6.24,7.33-6.24c2.81,0,4.46.66,5.74,1.29v2.34c-1.39-.63-3.23-1.29-5.84-1.29-2.87,0-4.49,1.42-4.49,3.66s.86,3.23,3.53,4.13l2.31.76c3.47,1.19,5.68,2.67,5.68,6.63s-2.38,6.83-7.89,6.83c-2.9,0-5.15-.69-6.7-1.58h0Z"/>
      <path class="cls-5" d="M682.31,681.27h3.27l11.35,18.85h.1v-18.85h2.54v23.53h-2.87l-11.72-19.74h-.1v19.74h-2.57v-23.53Z"/>
      <path class="cls-5" d="M704.03,703.65v-2.34c1.78.92,4.09,1.55,6.57,1.55,3.63,0,5.21-1.68,5.21-4.26,0-2.41-1.16-3.4-3.99-4.32l-2.31-.79c-3.3-1.09-5.15-2.77-5.15-6.37s2.44-6.24,7.33-6.24c2.8,0,4.46.66,5.74,1.29v2.34c-1.39-.63-3.23-1.29-5.84-1.29-2.87,0-4.49,1.42-4.49,3.66s.86,3.23,3.53,4.13l2.31.76c3.47,1.19,5.68,2.67,5.68,6.63s-2.38,6.83-7.89,6.83c-2.9,0-5.15-.69-6.7-1.58h0Z"/>
      <path class="cls-5" d="M730.89,704.83v-2.25h12.48v-5.97h2.67v5.97h12.58v2.25h-27.73ZM743.79,694.24c-2.74.63-7.1.89-10.69.89v-14.16h10.1v2.28h-7.43v9.5c2.11,0,5.78-.26,7.72-.79l.3,2.28h0ZM745.05,694.87v-13.96h11.19v2.31h-8.52v9.44h8.58v2.21h-11.25Z"/>
      <path class="cls-5" d="M761.25,696.15v-2.24h27.72v2.24h-27.72ZM764.88,708.07v-9.04h2.67v6.83h18.45v2.21h-21.12ZM764.98,690.08v-10.73h2.67v8.52h18.22v2.21h-20.89,0Z"/>
      <path class="cls-5" d="M807.65,696.65v-3.86c-2.47.13-4.92.2-6.77.2l-.4-2.21c2.38,0,5.02-.03,8.35-.2,2.64-.13,5.94-.4,8.28-.73l.26,2.08c-2.05.3-4.59.53-7.13.69v4.03h-2.61.02ZM809.1,689.26c-4.03,0-7.06-1.95-7.06-5.05s3-5.18,7.06-5.18,7,2.05,7,5.18-3.07,5.05-7,5.05ZM809.1,681.07c-3.04,0-4.49,1.72-4.49,3.14s1.58,3,4.49,3,4.42-1.58,4.42-3-1.35-3.14-4.42-3.14ZM806.36,708.23v-10.17h2.64v2.87h15.28v-2.9h2.64v10.2h-20.56ZM824.28,703.08h-15.28v2.97h15.28v-2.97ZM818.87,696.68v-1.09h-5.45v-2.05h5.45v-14.95h2.57v18.09h-2.57ZM824.31,696.78v-18.71h2.61v18.71h-2.61Z"/>
      <path class="cls-5" d="M847.54,701.27c-3.17-2.18-6.6-5.84-7.82-9.54-1.09,3.83-4.06,7.72-7.69,10.23l-1.72-2.05c4.46-2.74,8.05-8.25,8.05-13.7v-5.45h2.74v5.35c0,5.61,3.86,10.63,8.12,13.1l-1.68,2.05h0ZM854.81,692.69v16.07h-2.67v-30.7h2.67v12.38h4.95v2.24h-4.95Z"/>
      <path class="cls-5" d="M870.51,680.38c5.08,0,7.92,4.36,7.92,10.86s-2.84,10.83-7.92,10.83-7.92-4.32-7.92-10.86,2.87-10.83,7.92-10.83ZM870.51,682.69c-3.24,0-5.38,3.5-5.38,8.55s2.14,8.52,5.38,8.52,5.38-3.5,5.38-8.52-2.11-8.55-5.38-8.55ZM884.14,708.76v-30.7h2.67v30.7h-2.67Z"/>
      <path class="cls-5" d="M891.93,704.83v-2.25h27.72v2.25h-27.72ZM898,689.95v4.79h18.35v2.24h-21.02v-15.97h20.69v2.25h-18.02v4.46h17.43v2.24h-17.43,0Z"/>
      <path class="cls-5" d="M936.28,690.21h3.3v-11.55h2.61v28.62h-2.61v-14.85h-3.3c-.3,5.54-2.54,9.31-6.73,9.31-4.49,0-6.77-4.32-6.77-10.5s2.28-10.5,6.77-10.5c4.22,0,6.5,3.89,6.73,9.47ZM929.55,683.08c-2.48,0-4.06,3.2-4.06,8.15s1.58,8.15,4.06,8.15,4.09-3.17,4.09-8.15-1.62-8.15-4.09-8.15ZM945.56,708.76v-30.7h2.64v30.7h-2.64Z"/>
    </g>
    <g class="cls-7">
      <path class="cls-5" d="M99.47,741.75c0,4.36-3.56,7.1-7.89,7.1s-7.89-2.74-7.89-7.06,3.56-7.2,7.89-7.2,7.89,2.81,7.89,7.16ZM86.37,741.75c0,2.94,2.21,4.88,5.21,4.88s5.21-1.95,5.21-4.85-2.05-4.88-5.21-4.88-5.21,1.95-5.21,4.85ZM88.88,763.33v-12.15h2.67v3.89h14.32v-3.99h2.67v12.24h-19.67.01ZM105.87,757.26h-14.32v3.89h14.32v-3.89ZM100.72,742.67v-2.21h5.12v-7.39h2.67v16.4h-2.67v-6.8h-5.12Z"/>
      <path class="cls-5" d="M113.79,759.83v-2.25h12.48v-5.21h-9.04v-9.6h18.19v-4.92h-18.22v-2.24h20.89v9.37h-18.19v5.15h19.04v2.25h-10v5.21h12.58v2.25h-27.73Z"/>
      <path class="cls-5" d="M144.15,759.54v-2.25h27.72v2.25h-27.72ZM147.65,750.56v-14.46h20.59v2.21h-17.92v10.03h18.22v2.21h-20.89Z"/>
      <path class="cls-5" d="M204.08,747.85c-2.41.3-6.14.63-9.87.83-3.47.17-8.02.3-10.07.3l-.4-2.38c2.34,0,5.48,0,8.78-.1v-2.97h-6.14v-8.98h15.08v2.21h-12.41v4.55h12.71v2.21h-6.57v2.87c3.33-.13,6.7-.4,8.65-.69l.23,2.14h0ZM188.63,763.43v-7.26h17.59v-2.87h-17.62v-2.15h20.3v7h-17.59v3.14h18.78v2.15h-21.46ZM206.23,749.6v-16.54h2.67v16.54h-2.67Z"/>
      <path class="cls-5" d="M235.83,763.79v-11.16h-12.48v-2.24h27.72v2.24h-12.57v11.16h-2.67ZM248.66,747.13c-4.59-.92-9.6-3.83-11.45-7.39-1.49,3.56-6.73,6.57-11.39,7.49l-1.29-2.31c5.88-.76,11.29-4.65,11.29-8.84v-1.95h2.81v1.95c0,4.19,5.91,8.12,11.32,8.78l-1.29,2.28h0Z"/>
      <path class="cls-5" d="M279.62,742.14c0,4.52-3.6,7.33-7.95,7.33s-7.95-2.8-7.95-7.29,3.6-7.39,7.95-7.39,7.95,2.94,7.95,7.36h0ZM276.12,761.42c-1.52-.79-3.17-2.38-3.89-4.06-.73,2.31-3.43,5.28-6.07,6.54l-1.62-1.92c3.14-1.35,6.24-4.72,6.24-8.45v-1.52h2.64v1.29c0,3.23,2.18,5.38,4.55,6.3l-1.85,1.82h0ZM266.32,742.14c0,3.07,2.28,5.15,5.35,5.15s5.38-2.08,5.38-5.12-2.15-5.21-5.38-5.21-5.35,2.18-5.35,5.18h0ZM289.32,763.83c-2.08-1.02-4.85-3.7-5.61-5.91-.76,2.31-3.33,5.08-5.81,6.3l-1.68-1.78c3.3-1.62,6.14-4.95,6.14-8.68v-1.85h2.64v1.75c0,3.79,3.07,7.16,5.97,8.25l-1.62,1.91h-.03ZM285.36,750.89v-17.82h2.67v17.82h-2.67Z"/>
      <path class="cls-5" d="M293.31,749.54v-2.24h27.72v2.24h-27.72ZM318.33,744.85c-4.65-.86-9.64-3.8-11.12-6.96-1.35,3.17-6.44,6.07-11.09,6.96l-1.25-2.31c4.82-.53,10.96-3.8,10.96-8.12v-.99h2.77v.99c0,4.32,6.27,7.59,10.99,8.12l-1.25,2.31h0ZM296.87,763.33v-11.62h2.67v3.56h15.28v-3.6h2.67v11.65h-20.63,0ZM314.83,757.46h-15.28v3.66h15.28v-3.66Z"/>
      <path class="cls-5" d="M343.04,754.78c-3.56.83-11.55,1.42-16.27,1.42h-1.35v-19.93h2.67v17.59c3.96,0,11.02-.56,14.69-1.39l.26,2.31h0ZM348.55,763.76h-2.64v-30.7h2.64v30.7Z"/>
      <path class="cls-5" d="M359.71,753.96c3.96,0,10.03-.36,12.97-.99l.3,2.21c-3.3.63-9.37,1.06-14.72,1.06h-3v-19.97h14.56v2.24h-11.88v15.45h1.78,0ZM377.69,745.24h4.98v2.25h-4.98v16.27h-2.64v-30.7h2.64v12.18Z"/>
      <path class="cls-5" d="M384.55,757.56h3.04v3.13h-3.04v-3.13Z"/>
    </g>
  </g>
  <g class="cls-7">
    <g class="cls-7">
      <path class="cls-4" d="M84.92,798.91h7.53c7.29,0,11.42,3.63,11.42,11.32v.76c0,7.56-3.63,11.95-11.35,11.95h-7.59v-24.03h0ZM92.57,819.94c5.05,0,7.36-2.47,7.36-8.51v-1.19c0-6.3-2.81-8.32-7.79-8.32h-3.6v18.02h4.03Z"/>
      <path class="cls-4" d="M107.55,818.06v-13h3.47v12.38c0,2.11.73,2.94,3.14,2.94,1.75,0,3.17-.59,4.39-1.16v-14.16h3.43v17.89h-2.94l-.36-1.52h-.17c-1.49,1.06-3.27,1.85-5.51,1.85-3.5,0-5.45-1.75-5.45-5.21h0Z"/>
      <path class="cls-4" d="M126.63,805.05h3.33v2.01h.17c1.02-1.22,2.87-2.25,4.79-2.25.43,0,.96.07,1.12.17v3.07c-.43-.07-1.06-.1-1.39-.1-1.68,0-3.33.5-4.55,1.29v13.7h-3.47v-17.89h0Z"/>
      <path class="cls-4" d="M139.1,798.35h3.53v3.37h-3.53v-3.37ZM139.13,805.05h3.47v17.89h-3.47v-17.89Z"/>
      <path class="cls-4" d="M147.35,805.05h3.33v1.55h.16c1.49-1.06,3.8-1.91,5.97-1.91,3.5,0,5.18,1.45,5.18,4.92v13.33h-3.47v-12.51c0-1.98-.59-2.77-3.27-2.77-1.52,0-3.23.53-4.46,1.12v14.16h-3.47v-17.89h.03Z"/>
      <path class="cls-4" d="M164.77,824.29c0-1.88,1.52-3.07,3.33-3.7v-.17c-1.02-.36-1.82-.79-1.82-1.98,0-1.25.66-2.31,2.05-3.3-1.32-.89-2.24-2.31-2.24-4.32v-.33c0-3.73,2.9-5.81,6.96-5.81.99,0,1.85.1,2.71.3h6.07v2.48h-2.87c.63.73.96,1.68.96,2.9v.33c0,3.76-3,5.54-6.9,5.54-1.02,0-2.01-.1-2.9-.36-.4.36-.69.83-.69,1.29,0,.92.5.99,1.65.99h4.92c3.37,0,5.74,1.19,5.74,4.65s-2.57,5.35-8.78,5.35c-5.51,0-8.19-1.19-8.19-3.86h0ZM178.14,823.34c0-1.48-.83-2.08-2.94-2.08h-4.82c-1.19.4-2.08,1.19-2.08,2.54s1.32,1.78,4.59,1.78c3.89,0,5.25-.53,5.25-2.25h0ZM176.52,810.83v-.5c0-2.24-1.35-3.17-3.5-3.17s-3.5,1.09-3.5,3.1v.5c0,2.11,1.39,3.1,3.5,3.1,2.24,0,3.5-.99,3.5-3.04h0Z"/>
      <path class="cls-4" d="M193.95,797.33h3.47v25.61h-3.47v-25.61Z"/>
      <path class="cls-4" d="M202.23,798.35h3.53v3.37h-3.53v-3.37ZM202.26,805.05h3.47v17.89h-3.47v-17.89Z"/>
      <path class="cls-4" d="M210.48,805.05h3.33v1.55h.16c1.49-1.02,3.4-1.91,5.48-1.91s3.43.66,4.22,2.01h.17c1.88-1.22,3.96-2.01,6.01-2.01,3.1,0,4.95,1.45,4.95,4.92v13.33h-3.47v-12.51c0-1.98-.76-2.77-2.97-2.77-1.29,0-2.64.43-4.09,1.16.03.3.07.56.07.92v13.2h-3.43v-12.51c0-1.98-.73-2.77-2.94-2.77-1.39,0-2.81.5-4.03,1.12v14.16h-3.47v-17.89h0Z"/>
      <path class="cls-4" d="M238.26,814.23v-.46c0-6.17,3.7-9.08,8.02-9.08,5.05,0,7.39,2.94,7.39,8.58v1.68h-11.85c.23,4.09,2.24,5.48,5.74,5.48,2.38,0,3.89-.56,5.54-1.32v2.44c-1.12.79-3.17,1.72-6.17,1.72-5.78,0-8.68-3.43-8.68-9.04h0ZM241.83,812.41h8.25c0-3.6-1.35-4.98-3.93-4.98-1.91,0-4.06.99-4.32,4.98Z"/>
      <path class="cls-4" d="M256.12,821.98v-2.61c1.49.56,2.81,1.12,5.35,1.12s3.7-.89,3.7-2.38c0-1.39-.69-2.05-2.84-2.54l-1.68-.46c-2.64-.63-4.49-1.91-4.49-5.08s2.05-5.35,6.4-5.35c2.44,0,3.96.53,5.02,1.06v2.67c-.96-.4-2.77-.89-4.75-.89-2.24,0-3.37.69-3.37,2.21,0,1.39.73,1.91,2.51,2.41l1.68.4c3.5.86,4.92,2.11,4.92,5.31,0,3.56-2.54,5.38-6.6,5.38-2.31,0-4.39-.4-5.84-1.25h-.01Z"/>
      <path class="cls-4" d="M273.08,818.65v-10.83h-2.54v-2.77h2.54v-4.22h3.47v4.22h4.32v2.77h-4.32v10.33c0,1.62.53,2.21,2.48,2.21.73,0,1.52-.1,2.21-.23v2.31c-.76.33-1.55.69-3.2.69-2.97,0-4.95-1.22-4.95-4.49h0Z"/>
      <path class="cls-4" d="M284.5,818.06v-13h3.47v12.38c0,2.11.73,2.94,3.14,2.94,1.75,0,3.17-.59,4.39-1.16v-14.16h3.43v17.89h-2.94l-.36-1.52h-.17c-1.49,1.06-3.27,1.85-5.51,1.85-3.5,0-5.45-1.75-5.45-5.21h0Z"/>
      <path class="cls-4" d="M302.61,814.56v-.46c0-6.57,3.37-9.41,7.95-9.41,2.18,0,3.6.59,4.46,1.09v-8.45h3.47v25.61h-2.94l-.33-1.42h-.17c-1.06,1.06-2.77,1.75-5.12,1.75-3.5,0-7.33-2.18-7.33-8.71h0ZM315.02,819.21v-10.66c-.69-.59-2.24-.99-3.93-.99-3.07,0-4.92,1.55-4.92,6.14v.73c0,4.69,2.01,6.11,4.95,6.11,1.85,0,3.17-.76,3.89-1.32h0Z"/>
      <path class="cls-4" d="M323.14,798.35h3.53v3.37h-3.53v-3.37ZM323.17,805.05h3.47v17.89h-3.47v-17.89Z"/>
      <path class="cls-4" d="M330.33,814.39v-.59c0-5.71,3.37-9.11,8.35-9.11s8.25,3.33,8.25,9.01v.5c0,5.71-3.4,9.08-8.28,9.08-5.28,0-8.32-3.3-8.32-8.88h0ZM343.34,814.56v-.96c0-4.72-2.11-6.14-4.72-6.14-3,0-4.72,2.08-4.72,6.01v.96c0,4.75,2.15,6.14,4.82,6.14,2.9,0,4.62-2.08,4.62-6.01Z"/>
      <path class="cls-4" d="M350.66,819.54h3.86v3.79h-3.86v-3.79Z"/>
      <path class="cls-4" d="M359.37,797.33h3.47v25.61h-3.47v-25.61Z"/>
      <path class="cls-4" d="M367.66,798.35h3.53v3.37h-3.53v-3.37ZM367.69,805.05h3.47v17.89h-3.47v-17.89Z"/>
      <path class="cls-4" d="M374.19,805.05h3.73l4.65,13.6h.13l4.72-13.6h3.37l-6.53,17.89h-3.5l-6.57-17.89Z"/>
      <path class="cls-4" d="M392.64,814.23v-.46c0-6.17,3.7-9.08,8.02-9.08,5.05,0,7.39,2.94,7.39,8.58v1.68h-11.85c.23,4.09,2.24,5.48,5.74,5.48,2.38,0,3.89-.56,5.54-1.32v2.44c-1.12.79-3.17,1.72-6.17,1.72-5.78,0-8.68-3.43-8.68-9.04h.01ZM396.2,812.41h8.25c0-3.6-1.35-4.98-3.93-4.98-1.91,0-4.06.99-4.32,4.98Z"/>
      <path class="cls-4" d="M411.74,819.61h3.93l-1.55,7.86h-2.9l.53-7.86h-.01Z"/>
      <path class="cls-4" d="M429.43,805.05h3.33v1.45h.17c1.09-1.02,2.94-1.82,5.12-1.82,3.89,0,7.29,2.15,7.29,8.75v.5c0,6.63-3.17,9.14-8.09,9.14-1.98,0-3.43-.53-4.36-1.06v6.2h-3.47v-23.17h0ZM441.74,814.39v-.73c0-4.69-1.68-6.07-4.72-6.07-1.88,0-3.4.63-4.13,1.19v10.46c.73.56,2.24,1.12,3.96,1.12,3.07,0,4.88-1.42,4.88-5.97h.01Z"/>
      <path class="cls-4" d="M449.03,797.33h3.47v25.61h-3.47v-25.61Z"/>
      <path class="cls-4" d="M456.19,814.23v-.46c0-6.17,3.7-9.08,8.02-9.08,5.05,0,7.39,2.94,7.39,8.58v1.68h-11.85c.23,4.09,2.24,5.48,5.74,5.48,2.38,0,3.89-.56,5.54-1.32v2.44c-1.12.79-3.17,1.72-6.17,1.72-5.78,0-8.68-3.43-8.68-9.04h.01ZM459.76,812.41h8.25c0-3.6-1.35-4.98-3.93-4.98-1.91,0-4.06.99-4.32,4.98Z"/>
      <path class="cls-4" d="M474.05,818.19c0-3.2,2.11-4.79,5.58-5.25l4.52-.53v-1.55c0-2.64-1.16-3.23-4.29-3.23-1.75,0-3.23.26-4.32.5v-2.41c1.65-.66,3.47-1.02,5.68-1.02,4.06,0,6.4,1.68,6.4,5.31v12.94h-2.84l-.33-1.49h-.2c-.86,1.06-2.31,1.82-4.65,1.82-3.23,0-5.54-1.62-5.54-5.08h0ZM484.15,819.57v-4.75l-3.73.36c-1.91.23-2.84.99-2.84,2.87s1.16,2.67,2.94,2.67c1.49,0,2.9-.49,3.63-1.15h0Z"/>
      <path class="cls-4" d="M491.01,821.98v-2.61c1.49.56,2.81,1.12,5.35,1.12s3.7-.89,3.7-2.38c0-1.39-.69-2.05-2.84-2.54l-1.68-.46c-2.64-.63-4.49-1.91-4.49-5.08s2.05-5.35,6.4-5.35c2.44,0,3.96.53,5.02,1.06v2.67c-.96-.4-2.77-.89-4.75-.89-2.24,0-3.37.69-3.37,2.21,0,1.39.73,1.91,2.51,2.41l1.68.4c3.5.86,4.92,2.11,4.92,5.31,0,3.56-2.54,5.38-6.6,5.38-2.31,0-4.39-.4-5.84-1.25h-.01Z"/>
      <path class="cls-4" d="M505.92,814.23v-.46c0-6.17,3.7-9.08,8.02-9.08,5.05,0,7.39,2.94,7.39,8.58v1.68h-11.85c.23,4.09,2.24,5.48,5.74,5.48,2.38,0,3.89-.56,5.54-1.32v2.44c-1.12.79-3.17,1.72-6.17,1.72-5.78,0-8.68-3.43-8.68-9.04h0ZM509.49,812.41h8.25c0-3.6-1.35-4.98-3.93-4.98-1.91,0-4.06.99-4.32,4.98Z"/>
      <path class="cls-4" d="M534.11,805.05h3.33v1.55h.16c1.49-1.06,3.8-1.91,5.97-1.91,3.5,0,5.18,1.45,5.18,4.92v13.33h-3.47v-12.51c0-1.98-.59-2.77-3.27-2.77-1.52,0-3.23.53-4.46,1.12v14.16h-3.47v-17.89h.03Z"/>
      <path class="cls-4" d="M552.22,814.39v-.59c0-5.71,3.37-9.11,8.35-9.11s8.25,3.33,8.25,9.01v.5c0,5.71-3.4,9.08-8.28,9.08-5.28,0-8.32-3.3-8.32-8.88h0ZM565.23,814.56v-.96c0-4.72-2.11-6.14-4.72-6.14-3,0-4.72,2.08-4.72,6.01v.96c0,4.75,2.15,6.14,4.82,6.14,2.91,0,4.62-2.08,4.62-6.01h0Z"/>
      <path class="cls-4" d="M573.38,818.65v-10.83h-2.54v-2.77h2.54v-4.22h3.47v4.22h4.32v2.77h-4.32v10.33c0,1.62.53,2.21,2.48,2.21.73,0,1.52-.1,2.21-.23v2.31c-.76.33-1.55.69-3.2.69-2.97,0-4.95-1.22-4.95-4.49h0Z"/>
      <path class="cls-4" d="M584.96,798.35h3.53v3.37h-3.53v-3.37ZM584.99,805.05h3.47v17.89h-3.47v-17.89Z"/>
      <path class="cls-4" d="M594.26,807.82h-2.61v-2.77h2.61v-2.44c0-3.89,2.41-5.58,5.71-5.58,1.52,0,2.54.3,3.17.59v2.38c-.46-.1-1.29-.26-2.41-.26-1.91,0-3,.96-3,3.2v2.11h3.99v2.77h-3.99v15.12h-3.47v-15.12h0Z"/>
      <path class="cls-4" d="M604.92,798.35h3.53v3.37h-3.53v-3.37ZM604.96,805.05h3.47v17.89h-3.47v-17.89Z"/>
      <path class="cls-4" d="M612.12,814.23v-.46c0-6.17,3.7-9.08,8.02-9.08,5.05,0,7.39,2.94,7.39,8.58v1.68h-11.85c.23,4.09,2.24,5.48,5.74,5.48,2.38,0,3.89-.56,5.54-1.32v2.44c-1.12.79-3.17,1.72-6.17,1.72-5.78,0-8.68-3.43-8.68-9.04h0ZM615.68,812.41h8.25c0-3.6-1.35-4.98-3.93-4.98-1.91,0-4.06.99-4.32,4.98Z"/>
      <path class="cls-4" d="M630.1,814.56v-.46c0-6.57,3.37-9.41,7.95-9.41,2.18,0,3.6.59,4.46,1.09v-8.45h3.47v25.61h-2.94l-.33-1.42h-.17c-1.06,1.06-2.77,1.75-5.12,1.75-3.5,0-7.33-2.18-7.33-8.71h.01ZM642.51,819.21v-10.66c-.69-.59-2.24-.99-3.93-.99-3.07,0-4.92,1.55-4.92,6.14v.73c0,4.69,2.01,6.11,4.95,6.11,1.85,0,3.17-.76,3.89-1.32h0Z"/>
      <path class="cls-4" d="M660.79,818.65v-10.83h-2.54v-2.77h2.54v-4.22h3.47v4.22h4.32v2.77h-4.32v10.33c0,1.62.53,2.21,2.47,2.21.73,0,1.52-.1,2.21-.23v2.31c-.76.33-1.55.69-3.2.69-2.97,0-4.95-1.22-4.95-4.49h0Z"/>
      <path class="cls-4" d="M672.31,797.33h3.47v9.21h.17c1.45-1.02,3.66-1.85,5.84-1.85,3.5,0,5.18,1.45,5.18,4.92v13.33h-3.47v-12.51c0-1.98-.59-2.77-3.27-2.77-1.52,0-3.23.53-4.46,1.12v14.16h-3.47v-25.61h.01Z"/>
      <path class="cls-4" d="M690.39,818.19c0-3.2,2.11-4.79,5.58-5.25l4.52-.53v-1.55c0-2.64-1.16-3.23-4.29-3.23-1.75,0-3.23.26-4.32.5v-2.41c1.65-.66,3.46-1.02,5.68-1.02,4.06,0,6.4,1.68,6.4,5.31v12.94h-2.84l-.33-1.49h-.2c-.86,1.06-2.31,1.82-4.65,1.82-3.23,0-5.54-1.62-5.54-5.08h-.01ZM700.49,819.57v-4.75l-3.73.36c-1.92.23-2.84.99-2.84,2.87s1.16,2.67,2.94,2.67c1.49,0,2.9-.49,3.63-1.15h0Z"/>
      <path class="cls-4" d="M709.43,818.65v-10.83h-2.54v-2.77h2.54v-4.22h3.47v4.22h4.32v2.77h-4.32v10.33c0,1.62.53,2.21,2.48,2.21.73,0,1.52-.1,2.21-.23v2.31c-.76.33-1.55.69-3.2.69-2.97,0-4.95-1.22-4.95-4.49h0Z"/>
      <path class="cls-4" d="M728.61,805.05h3.66l3.4,13.43h.17l3.89-13.43h2.94l3.93,13.43h.13l3.37-13.43h3.23l-5.02,17.89h-3.4l-3.83-12.74h-.13l-3.83,12.74h-3.5l-5.02-17.89h.01Z"/>
      <path class="cls-4" d="M755.3,814.23v-.46c0-6.17,3.7-9.08,8.02-9.08,5.05,0,7.39,2.94,7.39,8.58v1.68h-11.85c.23,4.09,2.24,5.48,5.74,5.48,2.38,0,3.89-.56,5.54-1.32v2.44c-1.12.79-3.17,1.72-6.17,1.72-5.78,0-8.68-3.43-8.68-9.04h0ZM758.87,812.41h8.25c0-3.6-1.35-4.98-3.93-4.98-1.91,0-4.06.99-4.32,4.98Z"/>
      <path class="cls-4" d="M781.9,805.05h3.66l3.4,13.43h.17l3.89-13.43h2.94l3.93,13.43h.13l3.37-13.43h3.23l-5.02,17.89h-3.4l-3.83-12.74h-.13l-3.83,12.74h-3.5l-5.02-17.89h.01Z"/>
      <path class="cls-4" d="M809.72,798.35h3.53v3.37h-3.53v-3.37ZM809.75,805.05h3.47v17.89h-3.47v-17.89Z"/>
      <path class="cls-4" d="M818.07,797.33h3.47v25.61h-3.47v-25.61Z"/>
      <path class="cls-4" d="M826.38,797.33h3.47v25.61h-3.47v-25.61Z"/>
      <path class="cls-4" d="M844.83,818.65v-10.83h-2.54v-2.77h2.54v-4.22h3.47v4.22h4.32v2.77h-4.32v10.33c0,1.62.53,2.21,2.48,2.21.73,0,1.52-.1,2.21-.23v2.31c-.76.33-1.55.69-3.2.69-2.97,0-4.95-1.22-4.95-4.49h0Z"/>
      <path class="cls-4" d="M855.26,818.19c0-3.2,2.11-4.79,5.58-5.25l4.52-.53v-1.55c0-2.64-1.16-3.23-4.29-3.23-1.75,0-3.23.26-4.32.5v-2.41c1.65-.66,3.46-1.02,5.68-1.02,4.06,0,6.4,1.68,6.4,5.31v12.94h-2.84l-.33-1.49h-.2c-.86,1.06-2.31,1.82-4.65,1.82-3.23,0-5.54-1.62-5.54-5.08h-.01ZM865.36,819.57v-4.75l-3.73.36c-1.92.23-2.84.99-2.84,2.87s1.16,2.67,2.94,2.67c1.49,0,2.9-.49,3.63-1.15h0Z"/>
      <path class="cls-4" d="M873.31,797.33h3.46v25.61h-3.46v-25.61ZM877.07,813.7l6.6-8.65h3.7l-6.57,8.42,7.06,9.47h-3.89l-6.9-9.24h0Z"/>
      <path class="cls-4" d="M889.68,814.23v-.46c0-6.17,3.7-9.08,8.02-9.08,5.05,0,7.39,2.94,7.39,8.58v1.68h-11.85c.23,4.09,2.24,5.48,5.74,5.48,2.38,0,3.89-.56,5.54-1.32v2.44c-1.12.79-3.17,1.72-6.17,1.72-5.78,0-8.68-3.43-8.68-9.04h0ZM893.24,812.41h8.25c0-3.6-1.35-4.98-3.93-4.98-1.91,0-4.06.99-4.32,4.98Z"/>
    </g>
    <g class="cls-7">
      <path class="cls-4" d="M84.42,849.05h3.33v1.45h.16c1.09-1.02,2.94-1.82,5.12-1.82,3.89,0,7.29,2.15,7.29,8.75v.5c0,6.63-3.17,9.14-8.09,9.14-1.98,0-3.43-.53-4.36-1.06v6.2h-3.47v-23.17h.02ZM96.73,858.39v-.73c0-4.69-1.68-6.07-4.72-6.07-1.88,0-3.4.63-4.13,1.19v10.46c.73.56,2.24,1.12,3.96,1.12,3.07,0,4.88-1.42,4.88-5.97h.01Z"/>
      <path class="cls-4" d="M103.99,842.35h3.53v3.37h-3.53v-3.37ZM104.02,849.05h3.47v17.89h-3.47v-17.89Z"/>
      <path class="cls-4" d="M111.18,858.42v-.59c0-6.27,3.76-9.14,8.61-9.14,2.34,0,3.73.46,4.92,1.16v2.84c-1.58-.66-2.67-1.09-4.95-1.09-3.07,0-4.98,2.01-4.98,5.78v.92c0,4.29,1.82,6.14,5.35,6.14,2.28,0,3.86-.76,4.79-1.19v2.61c-1.19.79-2.84,1.42-5.31,1.42-5.15,0-8.42-2.9-8.42-8.85h-.01Z"/>
      <path class="cls-4" d="M127.06,865.98v-2.61c1.49.56,2.81,1.12,5.35,1.12s3.7-.89,3.7-2.38c0-1.39-.69-2.05-2.84-2.54l-1.68-.46c-2.64-.63-4.49-1.91-4.49-5.08s2.05-5.35,6.4-5.35c2.44,0,3.96.53,5.02,1.06v2.67c-.96-.4-2.77-.89-4.75-.89-2.24,0-3.37.69-3.37,2.21,0,1.39.73,1.91,2.51,2.41l1.68.4c3.5.86,4.92,2.11,4.92,5.31,0,3.56-2.54,5.38-6.6,5.38-2.31,0-4.39-.4-5.84-1.25h-.01Z"/>
      <path class="cls-4" d="M151.18,862.19c0-3.2,2.11-4.79,5.58-5.25l4.52-.53v-1.55c0-2.64-1.16-3.23-4.29-3.23-1.75,0-3.23.26-4.32.5v-2.41c1.65-.66,3.47-1.02,5.68-1.02,4.06,0,6.4,1.68,6.4,5.31v12.94h-2.84l-.33-1.49h-.2c-.86,1.06-2.31,1.82-4.65,1.82-3.23,0-5.54-1.62-5.54-5.08h-.01ZM161.28,863.57v-4.75l-3.73.36c-1.91.23-2.84.99-2.84,2.87s1.16,2.67,2.94,2.67c1.49,0,2.9-.49,3.63-1.15h0Z"/>
      <path class="cls-4" d="M169.23,849.05h3.33v1.55h.16c1.49-1.06,3.8-1.91,5.97-1.91,3.5,0,5.18,1.45,5.18,4.92v13.33h-3.47v-12.51c0-1.98-.59-2.77-3.27-2.77-1.52,0-3.23.53-4.46,1.12v14.16h-3.47v-17.89h.03Z"/>
      <path class="cls-4" d="M187.44,858.56v-.46c0-6.57,3.37-9.41,7.95-9.41,2.18,0,3.6.59,4.46,1.09v-8.45h3.47v25.61h-2.94l-.33-1.42h-.17c-1.06,1.06-2.77,1.75-5.12,1.75-3.5,0-7.33-2.18-7.33-8.71h0ZM199.85,863.21v-10.66c-.69-.59-2.24-.99-3.93-.99-3.07,0-4.92,1.55-4.92,6.14v.73c0,4.69,2.01,6.11,4.95,6.11,1.85,0,3.17-.76,3.89-1.32h0Z"/>
      <path class="cls-4" d="M215.43,849.05h3.73l4.65,13.6h.13l4.72-13.6h3.37l-6.53,17.89h-3.5l-6.57-17.89h0Z"/>
      <path class="cls-4" d="M235,842.35h3.53v3.37h-3.53v-3.37ZM235.03,849.05h3.47v17.89h-3.47v-17.89Z"/>
      <path class="cls-4" d="M242.29,858.56v-.46c0-6.57,3.37-9.41,7.95-9.41,2.18,0,3.6.59,4.46,1.09v-8.45h3.47v25.61h-2.94l-.33-1.42h-.17c-1.06,1.06-2.77,1.75-5.12,1.75-3.5,0-7.33-2.18-7.33-8.71h.01ZM254.7,863.21v-10.66c-.69-.59-2.24-.99-3.93-.99-3.07,0-4.92,1.55-4.92,6.14v.73c0,4.69,2.01,6.11,4.95,6.11,1.85,0,3.17-.76,3.89-1.32h0Z"/>
      <path class="cls-4" d="M261.69,858.23v-.46c0-6.17,3.7-9.08,8.02-9.08,5.05,0,7.39,2.94,7.39,8.58v1.68h-11.85c.23,4.09,2.24,5.48,5.74,5.48,2.38,0,3.89-.56,5.54-1.32v2.44c-1.12.79-3.17,1.72-6.17,1.72-5.78,0-8.68-3.43-8.68-9.04h.01ZM265.26,856.41h8.25c0-3.6-1.35-4.98-3.93-4.98-1.91,0-4.06.99-4.32,4.98Z"/>
      <path class="cls-4" d="M279.58,858.39v-.59c0-5.71,3.37-9.11,8.35-9.11s8.25,3.33,8.25,9.01v.5c0,5.71-3.4,9.08-8.28,9.08-5.28,0-8.32-3.3-8.32-8.88h0ZM292.58,858.56v-.96c0-4.72-2.11-6.14-4.72-6.14-3,0-4.72,2.08-4.72,6.01v.96c0,4.75,2.15,6.14,4.82,6.14,2.9,0,4.62-2.08,4.62-6.01Z"/>
      <path class="cls-4" d="M298.65,865.98v-2.61c1.49.56,2.81,1.12,5.35,1.12s3.7-.89,3.7-2.38c0-1.39-.69-2.05-2.84-2.54l-1.68-.46c-2.64-.63-4.49-1.91-4.49-5.08s2.05-5.35,6.4-5.35c2.44,0,3.96.53,5.02,1.06v2.67c-.96-.4-2.77-.89-4.75-.89-2.24,0-3.37.69-3.37,2.21,0,1.39.73,1.91,2.51,2.41l1.68.4c3.5.86,4.92,2.11,4.92,5.31,0,3.56-2.54,5.38-6.6,5.38-2.31,0-4.39-.4-5.84-1.25h-.01Z"/>
      <path class="cls-4" d="M322.78,862.19c0-3.2,2.11-4.79,5.58-5.25l4.52-.53v-1.55c0-2.64-1.16-3.23-4.29-3.23-1.75,0-3.23.26-4.32.5v-2.41c1.65-.66,3.47-1.02,5.68-1.02,4.06,0,6.4,1.68,6.4,5.31v12.94h-2.84l-.33-1.49h-.2c-.86,1.06-2.31,1.82-4.65,1.82-3.23,0-5.54-1.62-5.54-5.08h0ZM332.88,863.57v-4.75l-3.73.36c-1.91.23-2.84.99-2.84,2.87s1.15,2.67,2.94,2.67c1.49,0,2.9-.49,3.63-1.15h0Z"/>
      <path class="cls-4" d="M339.74,865.98v-2.61c1.49.56,2.81,1.12,5.35,1.12s3.7-.89,3.7-2.38c0-1.39-.69-2.05-2.84-2.54l-1.68-.46c-2.64-.63-4.49-1.91-4.49-5.08s2.05-5.35,6.4-5.35c2.44,0,3.96.53,5.02,1.06v2.67c-.96-.4-2.77-.89-4.75-.89-2.24,0-3.37.69-3.37,2.21,0,1.39.73,1.91,2.51,2.41l1.68.4c3.5.86,4.92,2.11,4.92,5.31,0,3.56-2.54,5.38-6.6,5.38-2.31,0-4.39-.4-5.84-1.25h-.01Z"/>
      <path class="cls-4" d="M363.99,858.56v-.46c0-6.57,3.37-9.41,7.95-9.41,2.18,0,3.6.59,4.46,1.09v-8.45h3.47v25.61h-2.94l-.33-1.42h-.17c-1.06,1.06-2.77,1.75-5.12,1.75-3.5,0-7.33-2.18-7.33-8.71h0ZM376.4,863.21v-10.66c-.69-.59-2.24-.99-3.93-.99-3.07,0-4.92,1.55-4.92,6.14v.73c0,4.69,2.01,6.11,4.95,6.11,1.85,0,3.17-.76,3.89-1.32h0Z"/>
      <path class="cls-4" d="M383.4,858.39v-.59c0-5.71,3.37-9.11,8.35-9.11s8.25,3.33,8.25,9.01v.5c0,5.71-3.4,9.08-8.28,9.08-5.28,0-8.32-3.3-8.32-8.88h0ZM396.4,858.56v-.96c0-4.72-2.11-6.14-4.72-6.14-3,0-4.72,2.08-4.72,6.01v.96c0,4.75,2.15,6.14,4.82,6.14,2.9,0,4.62-2.08,4.62-6.01Z"/>
      <path class="cls-4" d="M402.5,858.42v-.59c0-6.27,3.76-9.14,8.61-9.14,2.34,0,3.73.46,4.92,1.16v2.84c-1.58-.66-2.67-1.09-4.95-1.09-3.07,0-4.98,2.01-4.98,5.78v.92c0,4.29,1.82,6.14,5.35,6.14,2.28,0,3.86-.76,4.79-1.19v2.61c-1.19.79-2.84,1.42-5.31,1.42-5.15,0-8.42-2.9-8.42-8.85h0Z"/>
      <path class="cls-4" d="M419.37,862.06v-13h3.47v12.38c0,2.11.73,2.94,3.14,2.94,1.75,0,3.17-.59,4.39-1.16v-14.16h3.43v17.89h-2.94l-.36-1.52h-.17c-1.49,1.06-3.27,1.85-5.51,1.85-3.5,0-5.45-1.75-5.45-5.21h0Z"/>
      <path class="cls-4" d="M438.44,849.05h3.33v1.55h.17c1.48-1.02,3.4-1.91,5.48-1.91s3.43.66,4.22,2.01h.17c1.88-1.22,3.96-2.01,6.01-2.01,3.1,0,4.95,1.45,4.95,4.92v13.33h-3.47v-12.51c0-1.98-.76-2.77-2.97-2.77-1.29,0-2.64.43-4.09,1.16.03.3.07.56.07.92v13.2h-3.43v-12.51c0-1.98-.73-2.77-2.94-2.77-1.39,0-2.81.5-4.03,1.12v14.16h-3.47v-17.89h0Z"/>
      <path class="cls-4" d="M466.23,858.23v-.46c0-6.17,3.7-9.08,8.02-9.08,5.05,0,7.39,2.94,7.39,8.58v1.68h-11.85c.23,4.09,2.24,5.48,5.74,5.48,2.38,0,3.89-.56,5.54-1.32v2.44c-1.12.79-3.17,1.72-6.17,1.72-5.78,0-8.68-3.43-8.68-9.04h.01ZM469.79,856.41h8.25c0-3.6-1.35-4.98-3.93-4.98-1.91,0-4.06.99-4.32,4.98Z"/>
      <path class="cls-4" d="M485.17,849.05h3.33v1.55h.17c1.48-1.06,3.8-1.91,5.97-1.91,3.5,0,5.18,1.45,5.18,4.92v13.33h-3.47v-12.51c0-1.98-.59-2.77-3.27-2.77-1.52,0-3.23.53-4.46,1.12v14.16h-3.47v-17.89h.02Z"/>
      <path class="cls-4" d="M505.33,862.65v-10.83h-2.54v-2.77h2.54v-4.22h3.47v4.22h4.32v2.77h-4.32v10.33c0,1.62.53,2.21,2.48,2.21.73,0,1.52-.1,2.21-.23v2.31c-.76.33-1.55.69-3.2.69-2.97,0-4.95-1.22-4.95-4.49h0Z"/>
      <path class="cls-4" d="M515.76,865.98v-2.61c1.49.56,2.81,1.12,5.35,1.12s3.7-.89,3.7-2.38c0-1.39-.69-2.05-2.84-2.54l-1.68-.46c-2.64-.63-4.49-1.91-4.49-5.08s2.05-5.35,6.4-5.35c2.44,0,3.96.53,5.02,1.06v2.67c-.96-.4-2.77-.89-4.75-.89-2.24,0-3.37.69-3.37,2.21,0,1.39.73,1.91,2.51,2.41l1.68.4c3.5.86,4.92,2.11,4.92,5.31,0,3.56-2.54,5.38-6.6,5.38-2.31,0-4.39-.4-5.84-1.25h-.01Z"/>
      <path class="cls-4" d="M539.88,862.19c0-3.2,2.11-4.79,5.58-5.25l4.52-.53v-1.55c0-2.64-1.16-3.23-4.29-3.23-1.75,0-3.23.26-4.32.5v-2.41c1.65-.66,3.47-1.02,5.68-1.02,4.06,0,6.4,1.68,6.4,5.31v12.94h-2.84l-.33-1.49h-.2c-.86,1.06-2.31,1.82-4.65,1.82-3.23,0-5.54-1.62-5.54-5.08h-.01ZM549.98,863.57v-4.75l-3.73.36c-1.91.23-2.84.99-2.84,2.87s1.15,2.67,2.94,2.67c1.49,0,2.9-.49,3.63-1.15h0Z"/>
      <path class="cls-4" d="M557.93,849.05h3.33v1.55h.17c1.48-1.06,3.8-1.91,5.97-1.91,3.5,0,5.18,1.45,5.18,4.92v13.33h-3.47v-12.51c0-1.98-.59-2.77-3.27-2.77-1.52,0-3.23.53-4.46,1.12v14.16h-3.47v-17.89h.02Z"/>
      <path class="cls-4" d="M576.15,858.56v-.46c0-6.57,3.37-9.41,7.95-9.41,2.18,0,3.6.59,4.46,1.09v-8.45h3.46v25.61h-2.94l-.33-1.42h-.17c-1.06,1.06-2.77,1.75-5.12,1.75-3.5,0-7.33-2.18-7.33-8.71h.02ZM588.56,863.21v-10.66c-.69-.59-2.25-.99-3.93-.99-3.07,0-4.92,1.55-4.92,6.14v.73c0,4.69,2.01,6.11,4.95,6.11,1.85,0,3.17-.76,3.89-1.32h0Z"/>
      <path class="cls-4" d="M605.85,849.05h3.33v1.55h.17c1.49-1.02,3.4-1.91,5.48-1.91s3.43.66,4.22,2.01h.17c1.88-1.22,3.96-2.01,6.01-2.01,3.1,0,4.95,1.45,4.95,4.92v13.33h-3.47v-12.51c0-1.98-.76-2.77-2.97-2.77-1.29,0-2.64.43-4.09,1.16.03.3.07.56.07.92v13.2h-3.43v-12.51c0-1.98-.73-2.77-2.94-2.77-1.39,0-2.8.5-4.03,1.12v14.16h-3.46v-17.89h0Z"/>
      <path class="cls-4" d="M634.75,842.35h3.53v3.37h-3.53v-3.37ZM634.79,849.05h3.47v17.89h-3.47v-17.89Z"/>
      <path class="cls-4" d="M641.25,868.29c0-1.88,1.52-3.07,3.33-3.7v-.17c-1.02-.36-1.82-.79-1.82-1.98,0-1.25.66-2.31,2.05-3.3-1.32-.89-2.24-2.31-2.24-4.32v-.33c0-3.73,2.9-5.81,6.96-5.81.99,0,1.85.1,2.71.3h6.07v2.48h-2.87c.63.73.96,1.68.96,2.9v.33c0,3.76-3,5.54-6.9,5.54-1.02,0-2.01-.1-2.9-.36-.4.36-.69.83-.69,1.29,0,.92.5.99,1.65.99h4.92c3.37,0,5.74,1.19,5.74,4.65s-2.57,5.35-8.78,5.35c-5.51,0-8.18-1.19-8.18-3.86h-.01ZM654.62,867.34c0-1.48-.83-2.08-2.94-2.08h-4.82c-1.19.4-2.08,1.19-2.08,2.54s1.32,1.78,4.59,1.78c3.89,0,5.25-.53,5.25-2.25h0ZM653,854.83v-.5c0-2.24-1.35-3.17-3.5-3.17s-3.5,1.09-3.5,3.1v.5c0,2.11,1.39,3.1,3.5,3.1,2.24,0,3.5-.99,3.5-3.04h0Z"/>
      <path class="cls-4" d="M661.09,841.33h3.46v9.21h.17c1.45-1.02,3.66-1.85,5.84-1.85,3.5,0,5.18,1.45,5.18,4.92v13.33h-3.46v-12.51c0-1.98-.59-2.77-3.27-2.77-1.52,0-3.23.53-4.46,1.12v14.16h-3.46v-25.61h0Z"/>
      <path class="cls-4" d="M681.25,862.65v-10.83h-2.54v-2.77h2.54v-4.22h3.47v4.22h4.32v2.77h-4.32v10.33c0,1.62.53,2.21,2.48,2.21.73,0,1.52-.1,2.21-.23v2.31c-.76.33-1.55.69-3.2.69-2.97,0-4.95-1.22-4.95-4.49h0Z"/>
      <path class="cls-4" d="M701.91,862.06v-13h3.47v12.38c0,2.11.73,2.94,3.14,2.94,1.75,0,3.17-.59,4.39-1.16v-14.16h3.43v17.89h-2.94l-.36-1.52h-.17c-1.49,1.06-3.27,1.85-5.51,1.85-3.5,0-5.45-1.75-5.45-5.21h0Z"/>
      <path class="cls-4" d="M720.98,849.05h3.33v1.45h.17c1.09-1.02,2.94-1.82,5.12-1.82,3.89,0,7.29,2.15,7.29,8.75v.5c0,6.63-3.17,9.14-8.09,9.14-1.98,0-3.43-.53-4.36-1.06v6.2h-3.47v-23.17h.01ZM733.29,858.39v-.73c0-4.69-1.68-6.07-4.72-6.07-1.88,0-3.4.63-4.12,1.19v10.46c.73.56,2.24,1.12,3.96,1.12,3.07,0,4.88-1.42,4.88-5.97h0Z"/>
      <path class="cls-4" d="M740.58,841.33h3.47v25.61h-3.47v-25.61Z"/>
      <path class="cls-4" d="M747.75,858.39v-.59c0-5.71,3.37-9.11,8.35-9.11s8.25,3.33,8.25,9.01v.5c0,5.71-3.4,9.08-8.28,9.08-5.28,0-8.32-3.3-8.32-8.88h0ZM760.75,858.56v-.96c0-4.72-2.11-6.14-4.72-6.14-3,0-4.72,2.08-4.72,6.01v.96c0,4.75,2.14,6.14,4.82,6.14,2.9,0,4.62-2.08,4.62-6.01h0Z"/>
      <path class="cls-4" d="M766.82,862.19c0-3.2,2.11-4.79,5.58-5.25l4.52-.53v-1.55c0-2.64-1.16-3.23-4.29-3.23-1.75,0-3.23.26-4.32.5v-2.41c1.65-.66,3.47-1.02,5.68-1.02,4.06,0,6.4,1.68,6.4,5.31v12.94h-2.84l-.33-1.49h-.2c-.86,1.06-2.31,1.82-4.65,1.82-3.23,0-5.54-1.62-5.54-5.08h-.01ZM776.92,863.57v-4.75l-3.73.36c-1.91.23-2.84.99-2.84,2.87s1.15,2.67,2.94,2.67c1.49,0,2.91-.49,3.63-1.15h0Z"/>
      <path class="cls-4" d="M783.91,858.56v-.46c0-6.57,3.37-9.41,7.95-9.41,2.18,0,3.6.59,4.46,1.09v-8.45h3.47v25.61h-2.94l-.33-1.42h-.17c-1.06,1.06-2.77,1.75-5.12,1.75-3.5,0-7.33-2.18-7.33-8.71h.01ZM796.32,863.21v-10.66c-.69-.59-2.24-.99-3.93-.99-3.07,0-4.92,1.55-4.92,6.14v.73c0,4.69,2.01,6.11,4.95,6.11,1.85,0,3.17-.76,3.89-1.32h0Z"/>
      <path class="cls-4" d="M814.6,862.65v-10.83h-2.54v-2.77h2.54v-4.22h3.47v4.22h4.32v2.77h-4.32v10.33c0,1.62.53,2.21,2.48,2.21.73,0,1.52-.1,2.21-.23v2.31c-.76.33-1.55.69-3.2.69-2.97,0-4.95-1.22-4.95-4.49h0Z"/>
      <path class="cls-4" d="M826.12,841.33h3.46v9.21h.17c1.45-1.02,3.66-1.85,5.84-1.85,3.5,0,5.18,1.45,5.18,4.92v13.33h-3.46v-12.51c0-1.98-.59-2.77-3.27-2.77-1.52,0-3.23.53-4.46,1.12v14.16h-3.46v-25.61h0Z"/>
      <path class="cls-4" d="M844.24,858.23v-.46c0-6.17,3.7-9.08,8.02-9.08,5.05,0,7.39,2.94,7.39,8.58v1.68h-11.85c.23,4.09,2.24,5.48,5.74,5.48,2.38,0,3.89-.56,5.54-1.32v2.44c-1.12.79-3.17,1.72-6.17,1.72-5.78,0-8.68-3.43-8.68-9.04h0ZM847.8,856.41h8.25c0-3.6-1.35-4.98-3.93-4.98-1.91,0-4.06.99-4.32,4.98Z"/>
      <path class="cls-4" d="M863.18,849.05h3.33v1.55h.17c1.49-1.02,3.4-1.91,5.48-1.91s3.43.66,4.22,2.01h.17c1.88-1.22,3.96-2.01,6.01-2.01,3.1,0,4.95,1.45,4.95,4.92v13.33h-3.47v-12.51c0-1.98-.76-2.77-2.97-2.77-1.29,0-2.64.43-4.09,1.16.03.3.07.56.07.92v13.2h-3.43v-12.51c0-1.98-.73-2.77-2.94-2.77-1.39,0-2.8.5-4.03,1.12v14.16h-3.46v-17.89h0Z"/>
    </g>
    <g class="cls-7">
      <path class="cls-4" d="M83.36,902.39v-.59c0-5.71,3.37-9.11,8.35-9.11s8.25,3.33,8.25,9.01v.5c0,5.71-3.4,9.08-8.28,9.08-5.28,0-8.32-3.3-8.32-8.88h0ZM96.37,902.56v-.96c0-4.72-2.11-6.14-4.72-6.14-3,0-4.72,2.08-4.72,6.01v.96c0,4.75,2.15,6.14,4.82,6.14,2.9,0,4.62-2.08,4.62-6.01Z"/>
      <path class="cls-4" d="M103.53,893.05h3.33v1.55h.17c1.48-1.06,3.8-1.91,5.97-1.91,3.5,0,5.18,1.45,5.18,4.92v13.33h-3.47v-12.51c0-1.98-.59-2.77-3.27-2.77-1.52,0-3.23.53-4.46,1.12v14.16h-3.47v-17.89h.02Z"/>
      <path class="cls-4" d="M130.85,909.98v-2.61c1.49.56,2.81,1.12,5.35,1.12s3.7-.89,3.7-2.38c0-1.39-.69-2.05-2.84-2.54l-1.68-.46c-2.64-.63-4.49-1.91-4.49-5.08s2.05-5.35,6.4-5.35c2.44,0,3.96.53,5.02,1.06v2.67c-.96-.4-2.77-.89-4.75-.89-2.24,0-3.37.69-3.37,2.21,0,1.39.73,1.91,2.51,2.41l1.68.4c3.5.86,4.92,2.11,4.92,5.31,0,3.56-2.54,5.38-6.6,5.38-2.31,0-4.39-.4-5.84-1.25h0Z"/>
      <path class="cls-4" d="M145.77,902.39v-.59c0-5.71,3.37-9.11,8.35-9.11s8.25,3.33,8.25,9.01v.5c0,5.71-3.4,9.08-8.28,9.08-5.28,0-8.32-3.3-8.32-8.88h0ZM158.77,902.56v-.96c0-4.72-2.11-6.14-4.72-6.14-3,0-4.72,2.08-4.72,6.01v.96c0,4.75,2.15,6.14,4.82,6.14,2.9,0,4.62-2.08,4.62-6.01Z"/>
      <path class="cls-4" d="M164.87,902.42v-.59c0-6.27,3.76-9.14,8.61-9.14,2.34,0,3.73.46,4.92,1.16v2.84c-1.58-.66-2.67-1.09-4.95-1.09-3.07,0-4.98,2.01-4.98,5.78v.92c0,4.29,1.82,6.14,5.35,6.14,2.28,0,3.86-.76,4.79-1.19v2.61c-1.19.79-2.84,1.42-5.31,1.42-5.15,0-8.42-2.9-8.42-8.85h-.01Z"/>
      <path class="cls-4" d="M181.9,886.35h3.53v3.37h-3.53v-3.37ZM181.93,893.05h3.47v17.89h-3.47v-17.89Z"/>
      <path class="cls-4" d="M189.06,906.19c0-3.2,2.11-4.79,5.58-5.25l4.52-.53v-1.55c0-2.64-1.16-3.23-4.29-3.23-1.75,0-3.23.26-4.32.5v-2.41c1.65-.66,3.47-1.02,5.68-1.02,4.06,0,6.4,1.68,6.4,5.31v12.94h-2.84l-.33-1.49h-.2c-.86,1.06-2.31,1.82-4.65,1.82-3.23,0-5.54-1.62-5.54-5.08h-.01ZM199.16,907.57v-4.75l-3.73.36c-1.91.23-2.84.99-2.84,2.87s1.16,2.67,2.94,2.67c1.49,0,2.9-.49,3.63-1.15h0Z"/>
      <path class="cls-4" d="M207.21,885.33h3.47v25.61h-3.47v-25.61Z"/>
      <path class="cls-4" d="M214.34,909.98v-2.61c1.49.56,2.81,1.12,5.35,1.12s3.7-.89,3.7-2.38c0-1.39-.69-2.05-2.84-2.54l-1.68-.46c-2.64-.63-4.49-1.91-4.49-5.08s2.05-5.35,6.4-5.35c2.44,0,3.96.53,5.02,1.06v2.67c-.96-.4-2.77-.89-4.75-.89-2.24,0-3.37.69-3.37,2.21,0,1.39.73,1.91,2.51,2.41l1.68.4c3.5.86,4.92,2.11,4.92,5.31,0,3.56-2.54,5.38-6.6,5.38-2.31,0-4.39-.4-5.84-1.25h0Z"/>
      <path class="cls-4" d="M230.48,907.54h3.86v3.79h-3.86v-3.79Z"/>
    </g>
  </g>
  <line class="cls-6" x1="79.78" y1="57.78" x2="1045.22" y2="57.78"/>
  <line class="cls-2" x1="135.21" y1="-515.44" x2="135.21" y2="-481.32"/>
</svg>