<?xml version="1.0" encoding="UTF-8"?>
<svg xmlns="http://www.w3.org/2000/svg" viewBox="0 0 1125 1086.47">
  <defs>
    <style>
      .cls-1 {
        fill: #fcffff;
      }

      .cls-1, .cls-2, .cls-3, .cls-4 {
        stroke-width: 0px;
      }

      .cls-2 {
        fill: #000;
      }

      .cls-3 {
        fill: #727272;
      }

      .cls-5 {
        fill: none;
        stroke: #fff;
        stroke-miterlimit: 10;
        stroke-width: 1.5px;
      }

      .cls-4 {
        fill: #fff;
      }
    </style>
  </defs>
  <g id="_레이어_2" data-name="레이어 2">
    <rect class="cls-2" width="1125" height="3439.94"/>
  </g>
  <g id="_레이어_1" data-name="레이어 1">
    <g>
      <path class="cls-4" d="M80.43,394.39h16.47v2.97h-6.27v.1c0,4.62,3.47,8.09,7.1,9.24l-1.98,2.84c-2.61-1.02-5.61-3.5-6.96-6.4-.92,3.04-4.26,6.11-7.43,7.29l-2.11-2.8c4.39-1.62,7.69-5.38,7.69-10v-.26h-6.5v-2.97ZM94.1,423.67c-6.67,0-10.56-2.44-10.56-6.17s3.89-6.21,10.56-6.21,10.66,2.41,10.66,6.21-3.93,6.17-10.66,6.17ZM94.1,414.2c-4.32,0-6.87,1.19-6.87,3.3s2.54,3.27,6.87,3.27,6.96-1.22,6.96-3.27-2.57-3.3-6.96-3.3ZM104.33,403.11v7.79h-3.6v-18.52h3.6v7.72h4.62v3h-4.62Z"/>
      <path class="cls-4" d="M109.1,419.74v-2.9h12.28v-7.69h3.6v7.69h12.38v2.9h-28.25ZM134.58,409.35c-4.65-1.19-9.74-4.75-11.35-8.58-1.45,3.89-6.67,7.46-11.39,8.58l-1.75-2.9c5.12-.83,11.29-5.02,11.29-10.4v-1.88h3.76v1.88c0,5.31,6.6,9.64,11.32,10.53l-1.88,2.77Z"/>
      <path class="cls-3" d="M81.79,446.38h3.63v21.02h10.43v3h-14.06v-24.03Z"/>
      <path class="cls-3" d="M97.57,461.86v-.59c0-5.71,3.37-9.11,8.35-9.11s8.25,3.33,8.25,9.01v.5c0,5.71-3.4,9.08-8.28,9.08-5.28,0-8.32-3.3-8.32-8.88ZM110.57,462.03v-.96c0-4.72-2.11-6.14-4.72-6.14-3,0-4.72,2.08-4.72,6.01v.96c0,4.75,2.15,6.14,4.82,6.14,2.9,0,4.62-2.08,4.62-6.01Z"/>
      <path class="cls-3" d="M116.47,461.9v-.59c0-6.27,3.76-9.14,8.61-9.14,2.34,0,3.73.46,4.92,1.16v2.84c-1.58-.66-2.67-1.09-4.95-1.09-3.07,0-4.98,2.01-4.98,5.78v.92c0,4.29,1.82,6.14,5.35,6.14,2.28,0,3.86-.76,4.79-1.19v2.61c-1.19.79-2.84,1.42-5.31,1.42-5.15,0-8.42-2.9-8.42-8.84Z"/>
      <path class="cls-3" d="M132.32,465.66c0-3.2,2.11-4.79,5.58-5.25l4.52-.53v-1.55c0-2.64-1.16-3.23-4.29-3.23-1.75,0-3.23.26-4.32.5v-2.41c1.65-.66,3.47-1.02,5.68-1.02,4.06,0,6.4,1.68,6.4,5.31v12.94h-2.84l-.33-1.49h-.2c-.86,1.06-2.31,1.82-4.65,1.82-3.23,0-5.54-1.62-5.54-5.08ZM142.42,467.05v-4.75l-3.73.36c-1.91.23-2.84.99-2.84,2.87s1.16,2.67,2.94,2.67c1.49,0,2.9-.5,3.63-1.16Z"/>
      <path class="cls-3" d="M150.8,466.12v-10.83h-2.54v-2.77h2.54v-4.22h3.46v4.22h4.32v2.77h-4.32v10.33c0,1.62.53,2.21,2.48,2.21.73,0,1.52-.1,2.21-.23v2.31c-.76.33-1.55.69-3.2.69-2.97,0-4.95-1.22-4.95-4.49Z"/>
      <path class="cls-3" d="M161.66,445.82h3.53v3.37h-3.53v-3.37ZM161.69,452.52h3.47v17.89h-3.47v-17.89Z"/>
      <path class="cls-3" d="M168.3,461.86v-.59c0-5.71,3.37-9.11,8.35-9.11s8.25,3.33,8.25,9.01v.5c0,5.71-3.4,9.08-8.28,9.08-5.28,0-8.32-3.3-8.32-8.88ZM181.3,462.03v-.96c0-4.72-2.11-6.14-4.72-6.14-3,0-4.72,2.08-4.72,6.01v.96c0,4.75,2.15,6.14,4.82,6.14,2.9,0,4.62-2.08,4.62-6.01Z"/>
      <path class="cls-3" d="M188.03,452.52h3.33v1.55h.17c1.49-1.06,3.8-1.92,5.97-1.92,3.5,0,5.18,1.45,5.18,4.92v13.33h-3.47v-12.51c0-1.98-.59-2.77-3.27-2.77-1.52,0-3.23.53-4.46,1.12v14.16h-3.46v-17.89Z"/>
    </g>
    <g>
      <path class="cls-4" d="M88.88,248.52c-4.42,0-7.99-2.64-7.99-6.9s3.43-7.16,7.99-7.16,7.99,2.94,7.99,7.16-3.43,6.9-7.99,6.9ZM88.88,237.46c-2.41,0-4.42,1.81-4.42,4.13s1.88,3.93,4.42,3.93c2.67,0,4.42-1.78,4.42-3.93,0-2.34-1.68-4.13-4.42-4.13ZM85.45,264.39v-8.19h16.77v-2.57h-16.9v-2.9h20.5v8.15h-16.77v2.64h17.79v2.87h-21.39ZM102.18,249.11v-15.78h3.6v15.78h-3.6Z"/>
      <path class="cls-4" d="M126.32,257.4c-2.67-1.72-6.01-5.58-7.16-9.01-1.06,3.7-4.19,7.62-7.62,9.7l-2.21-2.64c4.85-3.14,7.92-8.32,7.92-14.29v-5.12h3.73v4.92c0,6.01,2.9,10.86,7.49,13.73l-2.15,2.71ZM131.57,264.62v-31.29h3.6v31.29h-3.6Z"/>
      <path class="cls-3" d="M81.79,287.34h7.52c7.29,0,11.42,3.63,11.42,11.32v.76c0,7.56-3.63,11.95-11.35,11.95h-7.59v-24.03ZM89.44,308.36c5.05,0,7.36-2.48,7.36-8.52v-1.19c0-6.3-2.8-8.32-7.79-8.32h-3.6v18.02h4.03Z"/>
      <path class="cls-3" d="M102.8,306.61c0-3.2,2.11-4.79,5.58-5.25l4.52-.53v-1.55c0-2.64-1.16-3.23-4.29-3.23-1.75,0-3.23.26-4.32.5v-2.41c1.65-.66,3.47-1.02,5.68-1.02,4.06,0,6.4,1.68,6.4,5.31v12.94h-2.84l-.33-1.49h-.2c-.86,1.06-2.31,1.82-4.65,1.82-3.23,0-5.54-1.62-5.54-5.08ZM112.9,308v-4.75l-3.73.36c-1.91.23-2.84.99-2.84,2.87s1.16,2.67,2.94,2.67c1.49,0,2.9-.5,3.63-1.16Z"/>
      <path class="cls-3" d="M121.27,307.08v-10.83h-2.54v-2.77h2.54v-4.22h3.46v4.22h4.32v2.77h-4.32v10.33c0,1.62.53,2.21,2.48,2.21.73,0,1.52-.1,2.21-.23v2.31c-.76.33-1.55.69-3.2.69-2.97,0-4.95-1.22-4.95-4.49Z"/>
      <path class="cls-3" d="M130.95,302.65v-.46c0-6.17,3.7-9.08,8.02-9.08,5.05,0,7.39,2.94,7.39,8.58v1.68h-11.85c.23,4.09,2.25,5.48,5.74,5.48,2.38,0,3.89-.56,5.54-1.32v2.44c-1.12.79-3.17,1.72-6.17,1.72-5.78,0-8.68-3.43-8.68-9.04ZM134.51,300.84h8.25c0-3.6-1.35-4.98-3.93-4.98-1.91,0-4.06.99-4.32,4.98Z"/>
    </g>
    <g>
      <path class="cls-3" d="M335.85,492.62l-3.04,2.01-1.22-2.21,3.23-1.55-3.23-1.55,1.22-2.21,3.04,1.98-.13-3.7h2.51l-.13,3.7,2.97-1.98,1.25,2.21-3.2,1.55,3.2,1.55-1.25,2.21-2.97-2.01.13,3.73h-2.51l.13-3.73Z"/>
      <path class="cls-3" d="M370.73,507.05c-2.67-1.68-6.21-5.68-7.33-9.11-1.09,3.7-4.19,7.62-7.59,9.67l-2.25-2.61c4.85-3.14,7.92-8.32,7.92-14.29v-5.15h3.7v4.95c0,6.01,3.1,10.99,7.69,13.86l-2.14,2.67ZM376.05,514.17v-17.49h-6.11v-3h6.11v-10.79h3.6v31.29h-3.6Z"/>
      <path class="cls-3" d="M386.81,513.98v-7.76h17.33v-2.01h-17.49v-2.87h8.81v-2.41h-12.28v-2.9h28.25v2.9h-12.38v2.41h8.68v7.49h-17.33v2.24h18.48v2.9h-22.08ZM408.4,488.76c0,3.23-4.12,5.54-11.02,5.54s-10.96-2.31-10.96-5.54,4.06-5.54,10.96-5.54,11.02,2.31,11.02,5.54ZM390.15,488.76c0,1.68,2.71,2.71,7.23,2.71s7.26-1.02,7.26-2.71-2.74-2.67-7.26-2.67-7.23.99-7.23,2.67Z"/>
      <path class="cls-3" d="M413.8,501.96v-2.9h28.25v2.9h-28.25ZM438.38,504.37v9.9h-3.6v-7h-17.69v-2.9h21.29ZM421.16,491.63v2.15h17.49v2.81h-21.09v-12.77h20.89v2.87h-17.29v2.18h16.21v2.77h-16.21Z"/>
      <path class="cls-3" d="M444.65,497.84v-13.56h3.63v4.09h7.26v-4.16h3.6v13.63h-14.49ZM455.54,491.24h-7.26v3.7h7.26v-3.7ZM448.94,513.94v-8.19h16.77v-2.48h-16.9v-2.9h20.5v8.09h-16.77v2.61h17.79v2.87h-21.39ZM465.67,498.86v-3.33h-4.95v-2.77h4.95v-3.1h-4.95v-2.81h4.95v-3.96h3.6v15.97h-3.6Z"/>
      <path class="cls-3" d="M489.8,506.95c-2.67-1.72-6.01-5.58-7.16-9.01-1.06,3.7-4.19,7.62-7.62,9.7l-2.21-2.64c4.85-3.14,7.92-8.32,7.92-14.29v-5.12h3.73v4.92c0,6.01,2.9,10.86,7.49,13.73l-2.15,2.71ZM495.05,514.17v-31.29h3.6v31.29h-3.6Z"/>
      <path class="cls-3" d="M528.88,499.88c-2.58-1.09-5.78-3.66-7.13-6.67-.96,3.23-4.22,6.21-7.39,7.46l-2.18-2.81c4.52-1.78,7.69-5.54,7.69-10.36v-3.14h3.7v2.97c0,4.88,3.83,8.52,7.39,9.74l-2.08,2.81ZM527.85,514.17c-6.73,0-10.59-2.48-10.59-6.17s3.86-6.24,10.59-6.24,10.66,2.48,10.66,6.24-3.86,6.17-10.66,6.17ZM527.85,504.67c-4.32,0-6.9,1.25-6.9,3.33s2.57,3.3,6.9,3.3,6.96-1.25,6.96-3.3-2.54-3.33-6.96-3.33ZM534.65,501.3v-8.85h-5.71v-2.97h5.71v-6.6h3.6v18.42h-3.6Z"/>
      <path class="cls-3" d="M557.67,494.44v3.27h12.38v2.9h-28.25v-2.9h12.28v-3.27h-8.55v-10.69h20.92v2.94h-17.33v4.85h17.56v2.9h-9.01ZM555.95,514.21c-6.93,0-10.86-2.21-10.86-5.71s3.93-5.71,10.83-5.71,10.86,2.28,10.86,5.71-3.96,5.71-10.83,5.71ZM555.92,505.69c-4.39,0-7.13,1.06-7.13,2.84s2.74,2.77,7.13,2.77,7.16-.99,7.16-2.77-2.74-2.84-7.16-2.84Z"/>
      <path class="cls-3" d="M596.93,484.7c0,5.21-.3,9.6-1.06,13.33h4.79v2.9h-12.38v13.23h-3.6v-13.23h-12.28v-2.9h20c.59-2.77.86-6.77.89-10.4h-17.33v-2.94h20.96Z"/>
      <path class="cls-3" d="M631.41,499.26c-5.94.83-12.94,1.12-19.7,1.19l-.53-3c1.85,0,4.16,0,6.4-.03v-6.11h3.6v6.01h.1c3.14-.1,7.62-.43,9.84-.73l.3,2.67ZM629,484.57c0,4.36-.26,7.56-.83,10.36l-3.53-.53c.43-1.91.76-4.72.76-7h-12.05v-2.84h15.64ZM626.16,514.01c-6.6,0-10.59-2.21-10.59-5.84s4.03-5.84,10.59-5.84,10.63,2.24,10.63,5.84-4.03,5.84-10.63,5.84ZM619.26,508.17c0,1.82,2.67,2.97,6.9,2.97s6.93-1.16,6.93-2.97-2.61-2.94-6.93-2.94-6.9,1.16-6.9,2.94ZM636.56,491.3h4.49v3h-4.49v7.72h-3.6v-19.14h3.6v8.42Z"/>
      <path class="cls-3" d="M660.73,504.77c-3.76.92-9.93,1.39-13.86,1.42l-3.23.03v-20.13h3.56v17.06c4.06,0,9.5-.4,13.04-1.32l.5,2.94ZM666.64,497.97v16.21h-3.6v-31.29h3.6v12.08h4.85v3h-4.85Z"/>
      <path class="cls-3" d="M684.33,514.11v-10.13h-12.28v-2.9h28.25v2.9h-12.38v10.13h-3.6ZM675.81,498.07v-8.58h17.16v-2.94h-17.2v-2.77h20.79v8.42h-17.16v3.14h18.02v2.74h-21.62Z"/>
      <path class="cls-3" d="M717,502.09v5.25h12.38v2.87h-28.25v-2.87h12.28v-5.25h-8.65v-10.1h17.39v-4.06h-17.53v-2.87h21.12v9.84h-17.39v4.29h18.28v2.9h-9.64Z"/>
      <path class="cls-3" d="M741.72,507.61l6.73-6.4c3.47-3.27,4.92-4.82,4.92-7.99,0-3-1.85-4.42-5.08-4.42-1.65,0-3.6.63-5.18,1.58l-1.09-2.51c1.81-1.12,4.32-2.08,7.1-2.08,5.48,0,8.09,3.2,8.09,7.03,0,4.29-2.28,6.7-6.21,10.3l-4.22,3.86h10.76v2.94h-15.81v-2.31Z"/>
      <path class="cls-3" d="M773.11,489.12h-12.67v-2.94h16.8v2.24l-9.44,21.49h-4.09l9.41-20.79Z"/>
      <path class="cls-3" d="M779.55,508.83l.69-2.84c1.58.92,3.8,1.35,5.48,1.35,3.7,0,6.04-1.91,6.04-4.79,0-3.37-1.95-4.65-5.71-4.65-1.65,0-3.89.56-5.38,1.32l.86-13.04h12.58v2.94h-9.7l-.43,6.6c.99-.46,2.67-.66,3.7-.66,4.69,0,7.86,2.31,7.86,7.39,0,3.96-3,7.89-8.85,7.89-2.84,0-5.48-.49-7.13-1.52Z"/>
      <path class="cls-3" d="M825.52,506.62c-2.94-1.62-6.73-5.61-7.72-8.85-.83,3.37-3.99,7.53-7.69,9.51l-2.31-2.64c5.02-2.81,8.12-7.76,8.12-14.09v-1.55h-6.54v-2.84h16.63v2.84h-6.37v1.52c0,6.34,3.37,10.99,7.95,13.5l-2.08,2.61ZM830.24,514.17v-31.29h3.6v31.29h-3.6Z"/>
      <path class="cls-3" d="M837.26,493.12v-2.9h18.19v2.9h-18.19ZM846.41,507.97c-4.49,0-7.49-2.81-7.49-6.67s3-6.67,7.49-6.67,7.46,2.84,7.46,6.67-3,6.67-7.46,6.67ZM841.65,484.73h9.5v2.94h-9.5v-2.94ZM846.41,497.57c-2.28,0-3.89,1.52-3.89,3.73s1.62,3.7,3.89,3.7c2.44,0,3.89-1.52,3.89-3.7s-1.65-3.73-3.89-3.73ZM861.79,495.76h4.85v3h-4.85v15.41h-3.6v-31.29h3.6v12.87Z"/>
      <path class="cls-3" d="M868.15,506.98h6.01v-17.06l-6.3,1.91v-2.81l7.99-3.04h1.98v20.99h5.21v2.94h-14.89v-2.94Z"/>
      <path class="cls-3" d="M884.19,501.86v-2.9h28.25v2.9h-28.25ZM909.71,497.34c-4.55-.43-9.6-2.44-11.39-5.08-1.75,2.74-6.44,4.69-11.42,5.02l-1.52-2.97c4.95-.07,9.64-1.82,10.86-4.22h-9.24v-2.87h22.61v2.87h-9.14c1.32,2.41,6.24,4.16,10.73,4.26l-1.49,3ZM898.35,514.41c-7.36,0-10.86-2.28-10.86-5.45s3.5-5.45,10.83-5.45,10.86,2.24,10.86,5.45-3.5,5.45-10.83,5.45ZM898.32,506.42c-4.39,0-7.13.92-7.13,2.54s2.74,2.54,7.13,2.54,7.16-.92,7.16-2.54-2.71-2.54-7.16-2.54ZM893.17,482.82h10.26v2.81h-10.26v-2.81Z"/>
      <path class="cls-3" d="M335.85,543.62l-3.04,2.01-1.22-2.21,3.23-1.55-3.23-1.55,1.22-2.21,3.04,1.98-.13-3.7h2.51l-.13,3.7,2.97-1.98,1.25,2.21-3.2,1.55,3.2,1.55-1.25,2.21-2.97-2.01.13,3.73h-2.51l.13-3.73Z"/>
      <path class="cls-3" d="M366.15,565.14v-11.12h-12.28v-2.87h28.25v2.87h-12.38v11.12h-3.6ZM369.97,538.08c.63,3.86,6.14,6.7,10.83,7.19l-1.62,2.84c-4.39-.63-9.57-3.56-11.16-6.47-1.52,3.07-6.57,5.91-11.19,6.6l-1.72-2.84c4.82-.5,10.36-3.43,10.99-7.33h-9.64v-2.9h23v2.9h-9.51Z"/>
      <path class="cls-3" d="M400.31,559.1c-3.1-1.39-6.7-5.05-7.72-8.12-.83,3.2-4.03,7.06-7.69,8.88l-2.24-2.61c4.75-2.51,8.02-6.8,8.02-13.1v-.13h-6.47v-2.87h16.57v2.87h-6.37v.13c0,6.3,3.47,10.2,7.82,12.28l-1.91,2.67ZM387.8,535.67h9.34v2.87h-9.34v-2.87ZM407.87,546.36h4.72v3h-4.72v15.81h-3.6v-31.29h3.6v12.48Z"/>
      <path class="cls-3" d="M414.59,552.4v-2.9h28.25v2.9h-28.25ZM418.25,564.35v-9.21h3.6v6.3h17.72v2.9h-21.32ZM418.41,545.67v-10.76h3.6v7.85h17.36v2.9h-20.96Z"/>
      <path class="cls-3" d="M457.82,564.98v-7.72h17.29v-2.11h-17.43v-2.84h8.78v-2.61h-12.28v-2.84h28.25v2.84h-12.38v2.61h8.65v7.56h-17.29v2.28h18.48v2.84h-22.08ZM457.85,544.61v-10.46h3.6v2.57h13.76v-2.61h3.6v10.5h-20.96ZM475.21,539.5h-13.76v2.34h13.76v-2.34Z"/>
      <path class="cls-3" d="M499.01,537.19c-.23,9.7-4.98,17.2-13.99,22.11l-2.24-2.74c7.19-3.27,11.78-9.84,12.38-16.4h-10.56v-2.97h14.42ZM507.23,549.1v16.07h-3.6v-31.29h3.6v12.21h4.65v3h-4.65Z"/>
      <path class="cls-3" d="M513.91,550.95v-2.9h28.25v2.9h-28.25ZM528.07,565.21c-6.96,0-10.86-2.31-10.86-5.81s3.89-5.84,10.83-5.84,10.89,2.31,10.89,5.84-3.9,5.81-10.86,5.81ZM517.74,544.88v-10.4h3.6v7.49h17.36v2.9h-20.96ZM528.04,556.46c-4.39,0-7.16,1.09-7.16,2.97s2.77,2.9,7.16,2.9,7.19-1.06,7.19-2.9-2.74-2.97-7.19-2.97Z"/>
      <path class="cls-3" d="M543.51,541.35v-2.74h18.09v2.74h-18.09ZM552.58,552.43c-4.49,0-7.33-2.11-7.33-4.98s2.81-5.02,7.33-5.02,7.26,2.11,7.26,5.02-2.8,4.98-7.26,4.98ZM547.99,564.91v-11.39h3.6v2.87h12.84v-2.94h3.6v11.45h-20.03ZM548.03,534.02h9.14v2.81h-9.14v-2.81ZM552.58,545.04c-2.05,0-3.96.92-3.96,2.41s1.95,2.34,3.96,2.34,3.89-.86,3.89-2.34-1.88-2.41-3.89-2.41ZM564.43,559.27h-12.84v2.77h12.84v-2.77ZM568.03,544.78v7.1h-3.6v-17.99h3.6v7.89h4.59v3h-4.59Z"/>
      <path class="cls-3" d="M593.34,556.13c-3.83.92-10.59,1.48-14.52,1.52l-3.27.03v-20.56h3.56v17.39c4.16.13,10.33-.56,13.8-1.35l.43,2.97ZM595.78,565.17v-31.29h3.6v31.29h-3.6Z"/>
      <path class="cls-3" d="M621.03,556.46c-3.4.73-8.42,1.06-13.66,1.06h-3.3v-20.69h14.22v2.94h-10.66v14.75c3.86.07,8.94-.17,12.94-.99l.46,2.94ZM627.07,548.87v16.3h-3.6v-31.29h3.6v11.98h4.72v3h-4.72Z"/>
      <path class="cls-3" d="M632.48,557.52h3.86v3.8h-3.86v-3.8Z"/>
    </g>
    <g>
      <path class="cls-3" d="M335.85,314.32l-3.04,2.01-1.22-2.21,3.23-1.55-3.23-1.55,1.22-2.21,3.04,1.98-.13-3.7h2.51l-.13,3.7,2.97-1.98,1.25,2.21-3.2,1.55,3.2,1.55-1.25,2.21-2.97-2.01.13,3.73h-2.51l.13-3.73Z"/>
      <path class="cls-3" d="M355.62,307.58h7.52c7.29,0,11.42,3.63,11.42,11.32v.76c0,7.56-3.63,11.95-11.35,11.95h-7.59v-24.03ZM363.28,328.61c5.05,0,7.36-2.48,7.36-8.52v-1.19c0-6.3-2.8-8.32-7.79-8.32h-3.6v18.02h4.03Z"/>
      <path class="cls-3" d="M377.17,323.06v-.59c0-5.71,3.37-9.11,8.35-9.11s8.25,3.33,8.25,9.01v.49c0,5.71-3.4,9.08-8.28,9.08-5.28,0-8.32-3.3-8.32-8.88ZM390.17,323.23v-.96c0-4.72-2.11-6.14-4.72-6.14-3,0-4.72,2.08-4.72,6.01v.96c0,4.75,2.15,6.14,4.82,6.14,2.9,0,4.62-2.08,4.62-6.01Z"/>
      <path class="cls-3" d="M396.07,323.06v-.59c0-5.71,3.37-9.11,8.35-9.11s8.25,3.33,8.25,9.01v.49c0,5.71-3.4,9.08-8.28,9.08-5.28,0-8.32-3.3-8.32-8.88ZM409.07,323.23v-.96c0-4.72-2.11-6.14-4.72-6.14-3,0-4.72,2.08-4.72,6.01v.96c0,4.75,2.15,6.14,4.82,6.14,2.9,0,4.62-2.08,4.62-6.01Z"/>
      <path class="cls-3" d="M415.8,313.72h3.33v2.01h.17c1.02-1.22,2.87-2.24,4.79-2.24.43,0,.96.07,1.12.17v3.07c-.43-.07-1.06-.1-1.39-.1-1.68,0-3.33.5-4.55,1.29v13.7h-3.46v-17.89Z"/>
      <path class="cls-3" d="M427.1,330.65v-2.61c1.49.56,2.81,1.12,5.35,1.12s3.7-.89,3.7-2.38c0-1.39-.69-2.05-2.84-2.54l-1.68-.46c-2.64-.63-4.49-1.91-4.49-5.08s2.05-5.35,6.4-5.35c2.44,0,3.96.53,5.02,1.06v2.67c-.96-.4-2.77-.89-4.75-.89-2.24,0-3.37.69-3.37,2.21,0,1.39.73,1.91,2.51,2.41l1.68.4c3.5.86,4.92,2.11,4.92,5.31,0,3.56-2.54,5.38-6.6,5.38-2.31,0-4.39-.4-5.84-1.25Z"/>
      <path class="cls-3" d="M451.25,323.06v-.59c0-5.71,3.37-9.11,8.35-9.11s8.25,3.33,8.25,9.01v.49c0,5.71-3.4,9.08-8.28,9.08-5.28,0-8.32-3.3-8.32-8.88ZM464.26,323.23v-.96c0-4.72-2.11-6.14-4.72-6.14-3,0-4.72,2.08-4.72,6.01v.96c0,4.75,2.15,6.14,4.82,6.14,2.9,0,4.62-2.08,4.62-6.01Z"/>
      <path class="cls-3" d="M470.99,313.72h3.33v1.45h.17c1.09-1.02,2.94-1.82,5.12-1.82,3.89,0,7.29,2.15,7.29,8.75v.5c0,6.63-3.17,9.14-8.09,9.14-1.98,0-3.43-.53-4.36-1.06v6.21h-3.46v-23.17ZM483.3,323.06v-.73c0-4.69-1.68-6.07-4.72-6.07-1.88,0-3.4.63-4.13,1.19v10.46c.73.56,2.25,1.12,3.96,1.12,3.07,0,4.88-1.42,4.88-5.97Z"/>
      <path class="cls-3" d="M489.27,322.9v-.46c0-6.17,3.7-9.08,8.02-9.08,5.05,0,7.39,2.94,7.39,8.58v1.68h-11.85c.23,4.09,2.25,5.48,5.74,5.48,2.38,0,3.89-.56,5.54-1.32v2.44c-1.12.79-3.17,1.72-6.17,1.72-5.78,0-8.68-3.43-8.68-9.04ZM492.84,321.08h8.25c0-3.6-1.35-4.98-3.93-4.98-1.91,0-4.06.99-4.32,4.98Z"/>
      <path class="cls-3" d="M507.81,313.72h3.33v1.55h.17c1.49-1.06,3.8-1.91,5.97-1.91,3.5,0,5.18,1.45,5.18,4.92v13.33h-3.47v-12.51c0-1.98-.59-2.77-3.27-2.77-1.52,0-3.23.53-4.46,1.12v14.16h-3.46v-17.89Z"/>
      <path class="cls-3" d="M535.13,326.86c0-3.2,2.11-4.79,5.58-5.25l4.52-.53v-1.55c0-2.64-1.16-3.23-4.29-3.23-1.75,0-3.23.26-4.32.5v-2.41c1.65-.66,3.47-1.02,5.68-1.02,4.06,0,6.4,1.68,6.4,5.31v12.94h-2.84l-.33-1.49h-.2c-.86,1.06-2.31,1.82-4.65,1.82-3.23,0-5.54-1.62-5.54-5.08ZM545.23,328.24v-4.75l-3.73.36c-1.91.23-2.84.99-2.84,2.87s1.16,2.67,2.94,2.67c1.49,0,2.9-.5,3.63-1.16Z"/>
      <path class="cls-3" d="M553.61,327.32v-10.83h-2.54v-2.77h2.54v-4.22h3.46v4.22h4.32v2.77h-4.32v10.33c0,1.62.53,2.21,2.48,2.21.73,0,1.52-.1,2.21-.23v2.31c-.76.33-1.55.69-3.2.69-2.97,0-4.95-1.22-4.95-4.49Z"/>
      <path class="cls-3" d="M575.42,328.67h6.01v-17.06l-6.3,1.91v-2.81l7.99-3.04h1.98v20.99h5.21v2.94h-14.89v-2.94Z"/>
      <path class="cls-3" d="M609.64,318.08v1.62c0,8.88-3.99,12.34-9.7,12.34-2.48,0-4.82-.76-5.97-1.52l.76-2.81c.92.53,3.04,1.32,4.98,1.32,4.09,0,6.21-2.34,6.27-8.15-.92.92-2.94,2.18-5.64,2.18-4.29,0-7.26-2.94-7.26-7.62,0-4.39,2.87-7.95,8.05-7.95,6.17,0,8.52,5.15,8.52,10.59ZM596.71,315.24c0,2.67,1.19,5.05,4.46,5.05,1.78,0,3.8-1.06,4.82-2.48v-.83c0-3.33-1.52-6.67-4.88-6.67-2.18,0-4.39,1.32-4.39,4.92Z"/>
      <path class="cls-3" d="M613.38,313.19h3.83v3.73h-3.83v-3.73ZM613.38,326.13h3.83v3.73h-3.83v-3.73Z"/>
      <path class="cls-3" d="M620.87,320.55v-1.55c0-7.43,2.74-11.52,8.22-11.52s8.22,4.06,8.22,11.49v1.58c0,7.46-2.71,11.49-8.22,11.49s-8.22-4.03-8.22-11.49ZM633.48,320.42v-1.29c0-6.27-1.32-8.81-4.39-8.81s-4.39,2.54-4.39,8.78v1.25c0,6.21,1.29,8.85,4.39,8.85s4.39-2.57,4.39-8.78Z"/>
      <path class="cls-3" d="M640.89,320.55v-1.55c0-7.43,2.74-11.52,8.22-11.52s8.22,4.06,8.22,11.49v1.58c0,7.46-2.71,11.49-8.22,11.49s-8.22-4.03-8.22-11.49ZM653.5,320.42v-1.29c0-6.27-1.32-8.81-4.39-8.81s-4.39,2.54-4.39,8.78v1.25c0,6.21,1.29,8.85,4.39,8.85s4.39-2.57,4.39-8.78Z"/>
    </g>
    <g>
      <path class="cls-1" d="M350.09,253.5c8.33-5.44,12.58-9.06,12.58-15.08,0-5.28-3.47-8.68-8.64-8.68-6.17,0-9.64,4.67-9.76,10.15h-10.42c.31-10.34,8.14-18.48,20.29-18.48,11.46,0,18.82,7.17,18.82,17.01s-6.33,14.85-16.78,21.76c-3.43,2.28-5.52,4.09-7.29,5.79-1.12.96-1.97,1.08-3.2,1.08h-.35c-2.35,0-3.94,1.77-3.94,3.74s1.62,3.63,3.67,3.63,3.7-1.62,3.7-3.59v-.5c0-.85.66-1.39,1.5-1.39h24.03v8.87h-40.97c.27-11.19,6.6-17.59,16.74-24.3Z"/>
      <path class="cls-1" d="M379.12,250.15c0-17.55,7.95-28.74,21.22-28.74s21.18,11.19,21.18,28.74-7.98,28.78-21.18,28.78-21.22-11.23-21.22-28.78ZM384.29,253.7c2.04,0,3.59-1.58,3.59-3.59s-1.54-3.63-3.59-3.63-3.59,1.58-3.59,3.63,1.58,3.59,3.59,3.59ZM400.34,270.4c6.94,0,10.84-6.63,10.84-20.25s-3.9-20.21-10.84-20.21-10.92,6.6-10.92,20.21,3.94,20.25,10.92,20.25ZM416.35,253.7c2.01,0,3.59-1.58,3.59-3.59s-1.58-3.63-3.59-3.63-3.59,1.58-3.59,3.63,1.58,3.59,3.59,3.59Z"/>
      <path class="cls-1" d="M442.98,253.5c8.33-5.44,12.58-9.06,12.58-15.08,0-5.28-3.47-8.68-8.64-8.68-6.17,0-9.64,4.67-9.76,10.15h-10.42c.31-10.34,8.14-18.48,20.29-18.48,11.46,0,18.82,7.17,18.82,17.01s-6.33,14.85-16.78,21.76c-3.43,2.28-5.52,4.09-7.29,5.79-1.12.96-1.97,1.08-3.2,1.08h-.35c-2.35,0-3.94,1.77-3.94,3.74s1.62,3.63,3.67,3.63,3.7-1.62,3.7-3.59v-.5c0-.85.66-1.39,1.5-1.39h24.03v8.87h-40.97c.27-11.19,6.6-17.59,16.74-24.3Z"/>
      <path class="cls-1" d="M497.76,265.93h-27.08v-8.22l24.19-35.22h12.5v35.06h8.76v8.37h-8.76v11.88h-9.6v-11.88ZM495.68,257.56c1.08,0,1.62.54,1.62,1.62v.69c0,2.12,1.74,3.82,3.82,3.82s3.93-1.58,3.93-3.82-1.77-3.86-3.93-3.86h-1.74c-1.04,0-1.62-.58-1.62-1.62v-22.1l-17.24,25.27h15.16Z"/>
      <path class="cls-1" d="M521.63,267.04h10.61v10.76h-10.61v-10.76Z"/>
      <path class="cls-1" d="M581.84,265.93h-27.08v-8.22l24.19-35.22h12.5v35.06h8.76v8.37h-8.76v11.88h-9.6v-11.88ZM579.76,257.56c1.08,0,1.62.54,1.62,1.62v.69c0,2.12,1.74,3.82,3.82,3.82s3.93-1.58,3.93-3.82-1.77-3.86-3.93-3.86h-1.74c-1.04,0-1.62-.58-1.62-1.62v-22.1l-17.24,25.27h15.16Z"/>
      <path class="cls-1" d="M605.71,267.04h10.61v10.76h-10.61v-10.76Z"/>
      <path class="cls-1" d="M656.67,253.5c8.33-5.44,12.58-9.06,12.58-15.08,0-5.28-3.47-8.68-8.64-8.68-6.17,0-9.64,4.67-9.76,10.15h-10.41c.31-10.34,8.14-18.48,20.29-18.48,11.46,0,18.82,7.17,18.82,17.01s-6.33,14.85-16.78,21.76c-3.43,2.28-5.52,4.09-7.29,5.79-1.12.96-1.97,1.08-3.2,1.08h-.35c-2.35,0-3.93,1.77-3.93,3.74s1.62,3.63,3.66,3.63,3.7-1.62,3.7-3.59v-.5c0-.85.66-1.39,1.5-1.39h24.03v8.87h-40.97c.27-11.19,6.6-17.59,16.74-24.3Z"/>
      <path class="cls-1" d="M685.7,250.15c0-17.55,7.95-28.74,21.22-28.74s21.18,11.19,21.18,28.74-7.99,28.78-21.18,28.78-21.22-11.23-21.22-28.78ZM690.87,253.7c2.04,0,3.59-1.58,3.59-3.59s-1.54-3.63-3.59-3.63-3.59,1.58-3.59,3.63,1.58,3.59,3.59,3.59ZM706.91,270.4c6.94,0,10.84-6.63,10.84-20.25s-3.9-20.21-10.84-20.21-10.92,6.6-10.92,20.21,3.93,20.25,10.92,20.25ZM722.92,253.7c2.01,0,3.59-1.58,3.59-3.59s-1.58-3.63-3.59-3.63-3.59,1.58-3.59,3.63,1.58,3.59,3.59,3.59Z"/>
      <path class="cls-1" d="M733.47,267.04h10.61v10.76h-10.61v-10.76Z"/>
      <path class="cls-1" d="M767.53,252.85c0-14.27,5.52-26.81,11.92-35.57h8.26c-5.83,9.6-9.8,21.91-9.8,35.49s3.9,25.3,9.8,35.8h-8.26c-6.56-9.57-11.92-21.72-11.92-35.72ZM772.74,256.01c1.93,0,3.47-1.54,3.47-3.47s-1.54-3.51-3.47-3.51-3.47,1.62-3.47,3.51,1.54,3.47,3.47,3.47Z"/>
      <path class="cls-1" d="M788.54,260.53h10.38c.23,5.86,4.55,9.99,11.57,9.99,5.48,0,9.6-2.74,9.6-7.83,0-3.78-2.12-5.82-7.83-7.14l-7.37-1.66c-10.3-2.35-15.24-6.87-15.24-15.78,0-9.57,7.98-16.7,20.17-16.7s19.36,7.14,19.83,16.51h-10.34c-.19-4.59-3.39-8.22-9.8-8.22-5.36,0-9.49,2.97-9.49,7.56,0,3.47,2.24,5.67,7.99,6.98l8.18,1.89c8.02,1.81,14.23,5.94,14.23,15.28,0,10.8-7.75,17.51-20.1,17.51-13,0-21.6-6.71-21.79-18.4ZM810.33,253.81c2.16,0,3.86-1.74,3.86-3.93s-1.74-3.9-3.86-3.9-3.86,1.7-3.86,3.9,1.74,3.93,3.86,3.93Z"/>
      <path class="cls-1" d="M835.17,266.77c0-7.83,5.05-11.46,12.88-12.65l6.79-1.04c4.28-.66,6.02-1.62,6.02-4.28s-2.08-5.4-6.79-5.4-7.45,2.51-7.68,6.56h-10.15c.31-8.02,7.18-13.77,17.71-13.77s16.78,5.67,16.78,15.08v17.2c0,3.32.46,7.21,1.58,8.1v1.23h-10.22c-.39-1.5-.7-3.39-.89-5.4-2.39,3.7-6.87,6.52-12.77,6.52-7.52,0-13.27-4.59-13.27-12.15ZM851.68,271.44c5.9,0,9.07-4.2,9.41-9.72l.04-.73c.12-1.08.77-1.62,1.85-1.62h.85c1.97,0,3.63-1.54,3.63-3.63s-1.58-3.59-3.63-3.59-3.7,1.5-3.7,3.63v.62c0,1.47-.69,2.2-2.47,2.55l-1.77.35-4.01.81c-4.36.89-6.6,2.62-6.6,6.02s2.74,5.32,6.4,5.32Z"/>
      <path class="cls-1" d="M881.99,266.81v-21.95h-6.91v-7.56h.81c5.13,0,7.37-2.16,7.68-8.06l.19-3.97h7.98v9.03c0,.93-.5,1.47-1.43,1.47h-2.04c-2.12,0-3.74,1.58-3.74,3.59,0,2.12,1.62,3.74,3.74,3.74,2.01,0,3.59-1.62,3.59-3.74v-.66c0-.89.54-1.39,1.47-1.39h7.25v7.56h-8.83v20.91c0,3.7,2.04,4.86,5.05,4.86,1,0,2.08-.12,3.09-.35v7.52c-1.62.46-3.47.73-5.55.73-7.37,0-12.34-3.12-12.34-11.73Z"/>
      <path class="cls-1" d="M911,252.77c0-13.58-3.97-25.88-9.8-35.49h8.26c6.4,8.76,11.92,21.29,11.92,35.57s-5.36,26.15-11.92,35.72h-8.26c5.9-10.49,9.8-22.33,9.8-35.8ZM916.17,256.01c1.93,0,3.47-1.54,3.47-3.47s-1.54-3.51-3.47-3.51-3.47,1.62-3.47,3.51,1.54,3.47,3.47,3.47Z"/>
    </g>
    <g>
      <path class="cls-1" d="M336.28,387.88h18.36c16.24,0,25.19,11.03,25.19,26.96,0,16.86-9.88,28.35-25.73,28.35h-17.82v-55.32ZM343.3,440.5c2.16,0,3.97-1.74,3.97-4.01v-.5c0-.81.54-1.35,1.27-1.35h5.13c11.53,0,15.7-9.88,15.7-19.79,0-10.76-4.63-18.4-15.85-18.4h-4.98c-.73,0-1.27-.54-1.27-1.39v-.35c0-2.28-1.81-4.01-3.97-4.01s-4.01,1.74-4.01,4.01,1.77,3.93,4.01,3.93h1.74c.73,0,1.31.58,1.31,1.31v31.28c0,.73-.58,1.31-1.35,1.31h-1.7c-2.24,0-4.01,1.77-4.01,3.93,0,2.28,1.77,4.01,4.01,4.01Z"/>
      <path class="cls-1" d="M386.58,387.53h10.53v9.41h-10.53v-9.41ZM386.93,402.69h9.8v40.5h-9.8v-40.5Z"/>
      <path class="cls-1" d="M403.05,430.35h10.26c.15,4.4,3.51,6.83,8.33,6.83,4.28,0,6.98-1.89,6.98-4.98,0-2.62-1.81-3.86-5.79-4.67l-7.02-1.39c-8.37-1.66-11.92-5.44-11.92-11.34,0-7.6,6.25-13.23,17.05-13.23s16.74,5.94,17.09,13.39h-10.07c-.15-3.97-2.85-6.36-7.21-6.36-4.09,0-6.79,2.04-6.79,4.98,0,2.28,1.62,3.59,5.09,4.28l7.56,1.43c8.14,1.58,12.07,5.32,12.07,11.57,0,8.99-7.56,13.46-17.2,13.46-11.22,0-18.25-5.17-18.44-13.96ZM421.57,425.84c1.7,0,3.12-1.43,3.12-3.16s-1.5-3.16-3.16-3.16-3.2,1.43-3.2,3.16,1.54,3.16,3.24,3.16Z"/>
      <path class="cls-1" d="M443.09,423.1c0-13.62,7.87-21.52,18.94-21.52,9.84,0,17.05,5.4,17.78,16.12h-10.03c-.27-5.63-3.28-8.45-7.6-8.45-5.4,0-8.95,4.47-8.95,13.66s3.43,13.69,8.87,13.69c4.17,0,7.21-2.78,7.68-8.49h10.03c-.89,10.76-8.22,16.2-17.86,16.2-11.26,0-18.86-7.44-18.86-21.22ZM448.22,426.46c1.93,0,3.55-1.54,3.55-3.51s-1.62-3.55-3.55-3.55-3.51,1.62-3.51,3.55,1.54,3.51,3.51,3.51Z"/>
      <path class="cls-1" d="M484.21,422.91c0-13.08,7.64-21.33,19.29-21.33s19.25,8.25,19.25,21.33-7.6,21.41-19.25,21.41-19.29-8.29-19.29-21.41ZM489.34,426.42c1.89,0,3.51-1.5,3.51-3.47s-1.62-3.51-3.51-3.51-3.47,1.58-3.47,3.51,1.54,3.47,3.47,3.47ZM503.5,436.6c5.71,0,9.14-4.78,9.14-13.69s-3.43-13.62-9.14-13.62-9.14,4.74-9.14,13.62,3.43,13.69,9.14,13.69ZM517.61,426.42c1.93,0,3.47-1.5,3.47-3.47s-1.54-3.51-3.47-3.51-3.47,1.58-3.47,3.51,1.54,3.47,3.47,3.47Z"/>
      <path class="cls-1" d="M529.3,402.69h9.1v3.82c0,.66-.54,1.27-1.27,1.27h-1.5c-1.97,0-3.7,1.43-3.7,3.55,0,2.01,1.47,3.59,3.47,3.59s3.05-1.47,3.55-3.59c.42-1.74,1.12-3.28,2.01-4.55,2.08-3.12,5.44-4.86,9.84-4.86.77,0,1.5.08,2.01.19v9.53c-1-.23-2.01-.35-3.12-.35-5.98,0-10.57,3.9-10.57,12.27v19.63h-9.8v-40.5Z"/>
      <path class="cls-1" d="M557.7,402.69h9.07v3.78c0,.85-.5,1.31-1.27,1.31h-1.85c-2.04,0-3.67,1.5-3.67,3.55s1.47,3.59,3.47,3.59,3.12-1.27,3.7-3.59c1.74-6.21,5.52-9.76,12.42-9.76,8.02,0,12.81,5.55,12.81,13.89v27.73h-9.8v-26.89c0-4.47-2.28-7.06-6.6-7.06-5.32,0-8.49,4.2-8.49,12v21.95h-9.8v-40.5Z"/>
      <path class="cls-1" d="M598.62,422.91c0-13.39,8.37-21.33,19.56-21.33s18.48,7.29,18.48,20.71c0,1.04,0,2.04-.04,3.01h-24.42c-2.08,0-3.55-1.43-3.55-3.39s1.47-3.39,3.55-3.39h14.31c-.39-6.63-3.39-9.68-8.37-9.68-4.63,0-7.98,3.01-8.99,8.37-.19.89-.69,1.27-1.7,1.27h-.69c-1.97,0-3.47,1.35-3.47,3.32s1.5,3.32,3.47,3.32h.73c.89,0,1.35.35,1.43,1.31.46,7.02,4.24,10.53,9.6,10.53,4.36,0,7.41-2.55,8.06-7.21h9.88c-1.04,8.87-7.79,14.58-18.28,14.58-11.46,0-19.56-6.87-19.56-21.41Z"/>
      <path class="cls-1" d="M643.45,402.69h9.1v3.82c0,.66-.54,1.27-1.27,1.27h-1.5c-1.97,0-3.7,1.43-3.7,3.55,0,2.01,1.46,3.59,3.47,3.59s3.05-1.47,3.55-3.59c.42-1.74,1.12-3.28,2.01-4.55,2.08-3.12,5.44-4.86,9.84-4.86.77,0,1.5.08,2.01.19v9.53c-1-.23-2.01-.35-3.12-.35-5.98,0-10.57,3.9-10.57,12.27v19.63h-9.8v-40.5Z"/>
      <path class="cls-1" d="M688.62,416.62c0-18.67,7.79-29.82,22.87-29.82,10.57,0,17.74,6.13,18.55,15.85h-10.3c-.46-4.36-3.39-7.6-8.83-7.6-6.36,0-11.42,5.17-11.69,14.54-.04,1.35-.73,2.01-2.04,2.01h-1.12c-2.16,0-3.93,1.62-3.93,3.82s1.66,3.7,3.63,3.7c2.12,0,3.67-1.27,4.2-4.05,1.12-5.63,6.98-8.33,13.19-8.33,10.41,0,17.36,7.33,17.36,18.21,0,11.5-8.18,19.36-20.1,19.36-14.23,0-21.79-11.07-21.79-27.7ZM710.53,435.67c5.79,0,9.72-4.24,9.72-10.34s-3.9-10.38-9.72-10.38-9.8,4.2-9.8,10.38,4.01,10.34,9.8,10.34Z"/>
      <path class="cls-1" d="M736.43,416.62c0-18.67,7.79-29.82,22.88-29.82,10.57,0,17.74,6.13,18.55,15.85h-10.3c-.46-4.36-3.39-7.6-8.83-7.6-6.37,0-11.42,5.17-11.69,14.54-.04,1.35-.73,2.01-2.04,2.01h-1.12c-2.16,0-3.93,1.62-3.93,3.82s1.66,3.7,3.63,3.7c2.12,0,3.66-1.27,4.21-4.05,1.12-5.63,6.98-8.33,13.19-8.33,10.42,0,17.36,7.33,17.36,18.21,0,11.5-8.18,19.36-20.1,19.36-14.23,0-21.79-11.07-21.79-27.7ZM758.34,435.67c5.79,0,9.72-4.24,9.72-10.34s-3.9-10.38-9.72-10.38-9.8,4.2-9.8,10.38,4.01,10.34,9.8,10.34Z"/>
    </g>
    <g>
      <path class="cls-4" d="M84.43,706.91h2.71v25.12h-2.71v-25.12Z"/>
      <path class="cls-4" d="M91.57,708.33h2.74v2.81h-2.74v-2.81ZM91.6,714.66h2.67v17.36h-2.67v-17.36Z"/>
      <path class="cls-4" d="M98.69,714.63h2.54v1.52h.16c1.58-1.02,3.47-1.85,5.41-1.85s3.4.63,4.19,1.95h.13c1.91-1.25,3.93-1.95,5.91-1.95,3.04,0,4.79,1.39,4.79,4.75v12.97h-2.64v-12.41c0-2.11-.86-3-3.2-3-1.35,0-2.84.53-4.49,1.29.07.4.1.73.1,1.15v12.97h-2.67v-12.41c0-2.11-.83-3-3.14-3-1.48,0-3.04.59-4.42,1.29v14.13h-2.67v-17.39Z"/>
      <path class="cls-4" d="M125.37,723.57v-.5c0-6.07,3.56-8.78,7.59-8.78,4.75,0,7,2.77,7,8.19v1.52h-11.85c.13,4.36,2.21,6.04,5.91,6.04,2.34,0,3.89-.56,5.45-1.32v2.01c-1.06.73-3.04,1.62-5.84,1.62-5.48,0-8.25-3.33-8.25-8.78ZM128.11,721.86h9.04c0-3.8-1.45-5.38-4.29-5.38-2.18,0-4.49,1.25-4.75,5.38Z"/>
      <path class="cls-4" d="M142.53,731.1v-2.15c1.49.56,2.77,1.09,5.21,1.09,2.77,0,3.89-.99,3.89-2.57s-.79-2.31-3-2.94l-1.72-.46c-2.54-.69-4.26-1.85-4.26-4.82s1.91-4.95,5.94-4.95c2.31,0,3.8.53,4.72,1.02v2.18c-.89-.46-2.67-.92-4.59-.92-2.34,0-3.53.83-3.53,2.44,0,1.52.76,2.15,2.61,2.67l1.75.46c3.33.89,4.72,2.01,4.72,5.05,0,3.3-2.31,5.12-6.14,5.12-2.28,0-4.19-.43-5.61-1.22Z"/>
      <path class="cls-4" d="M158.77,728.1v-11.22h-2.48v-2.21h2.48v-4.16h2.67v4.16h4.46v2.21h-4.46v10.83c0,1.68.56,2.34,2.57,2.34.73,0,1.55-.1,2.24-.33v1.85c-.69.3-1.45.69-2.94.69-2.74,0-4.55-1.19-4.55-4.16Z"/>
      <path class="cls-4" d="M169.25,727.27v-12.64h2.67v12.24c0,2.24.83,3.17,3.4,3.17,1.85,0,3.4-.66,4.82-1.39v-14.03h2.67v17.39h-2.31l-.26-1.55h-.13c-1.58,1.06-3.43,1.88-5.54,1.88-3.4,0-5.31-1.72-5.31-5.08Z"/>
      <path class="cls-4" d="M186.45,723.84v-.46c0-6.34,3.27-9.08,7.76-9.08,2.15,0,3.6.59,4.55,1.16v-8.55h2.71v25.12h-2.24l-.3-1.42h-.17c-1.06,1.02-2.74,1.75-5.08,1.75-3.47,0-7.23-2.11-7.23-8.52ZM198.76,728.66v-10.96c-.79-.63-2.41-1.12-4.19-1.12-3.3,0-5.31,1.72-5.31,6.44v.69c0,4.88,2.11,6.44,5.21,6.44,2.05,0,3.43-.76,4.29-1.49Z"/>
      <path class="cls-4" d="M205.9,708.33h2.74v2.81h-2.74v-2.81ZM205.94,714.66h2.67v17.36h-2.67v-17.36Z"/>
      <path class="cls-4" d="M212.18,723.64v-.53c0-5.51,3.2-8.81,7.89-8.81,4.92,0,7.89,3.2,7.89,8.71v.5c0,5.54-3.2,8.85-7.92,8.85s-7.86-3.17-7.86-8.71ZM225.22,723.8v-.86c0-4.85-2.34-6.44-5.18-6.44-3.17,0-5.12,2.24-5.12,6.34v.86c0,4.85,2.28,6.44,5.18,6.44,3.17,0,5.12-2.21,5.12-6.34Z"/>
      <path class="cls-4" d="M230.57,729.78h3.04v3.14h-3.04v-3.14Z"/>
      <path class="cls-4" d="M238.44,706.91h2.71v25.12h-2.71v-25.12Z"/>
      <path class="cls-4" d="M245.58,708.33h2.74v2.81h-2.74v-2.81ZM245.61,714.66h2.67v17.36h-2.67v-17.36Z"/>
      <path class="cls-4" d="M251.26,714.63h2.9l4.88,13.99h.13l5.02-13.99h2.64l-6.47,17.39h-2.67l-6.44-17.39Z"/>
      <path class="cls-4" d="M268.21,723.57v-.5c0-6.07,3.56-8.78,7.59-8.78,4.75,0,7,2.77,7,8.19v1.52h-11.85c.13,4.36,2.21,6.04,5.91,6.04,2.34,0,3.89-.56,5.45-1.32v2.01c-1.06.73-3.04,1.62-5.84,1.62-5.48,0-8.25-3.33-8.25-8.78ZM270.95,721.86h9.04c0-3.8-1.45-5.38-4.29-5.38-2.18,0-4.49,1.25-4.75,5.38Z"/>
      <path class="cls-4" d="M300.74,708.59c-.17,9.97-5.94,17.16-13.83,21.26l-1.65-2.08c7.66-3.56,12.05-10.03,12.61-16.93h-11.55v-2.24h14.42ZM308.7,718.06h5.02v2.28h-5.02v15.64h-2.67v-30.69h2.67v12.77Z"/>
      <path class="cls-4" d="M326.02,708.13h16.7v2.24h-7.03c0,1.29,0,1.91.03,2.34.23,3.93,4.09,7.39,7.59,8.55l-1.49,2.15c-2.94-1.19-6.27-4.09-7.52-6.87-.83,2.87-4.39,6.24-7.69,7.66l-1.55-2.08c3.86-1.49,7.66-5.38,7.89-9.44.03-.4.03-1.02.03-2.31h-6.96v-2.24ZM329.98,735.16v-9.54h2.67v7.33h17.79v2.21h-20.46ZM347.11,727.57v-22.28h2.67v22.28h-2.67Z"/>
      <path class="cls-4" d="M353.72,713.21v-2.18h15.64v2.18h-15.64ZM361.91,724.13c-3.76,0-6.63-1.72-6.63-4.75s2.87-4.79,6.63-4.79,6.63,1.75,6.63,4.79-2.87,4.75-6.63,4.75ZM357.72,708.85v-2.31h7.99v2.31h-7.99ZM361.91,716.74c-2.21,0-3.99,1.06-3.99,2.64s1.78,2.64,3.99,2.64,3.99-1.09,3.99-2.64-1.78-2.64-3.99-2.64ZM369.5,735.92c-6.47,0-10.3-1.98-10.3-5.25s3.83-5.18,10.3-5.18,10.3,1.98,10.3,5.18-3.83,5.25-10.3,5.25ZM361.91,730.7c0,1.82,2.87,2.97,7.59,2.97s7.59-1.15,7.59-2.97-2.9-2.97-7.59-2.97-7.59,1.15-7.59,2.97ZM377.22,725.39v-9.04h-3.73v7.92h-2.61v-18.42h2.61v8.28h3.73v-8.85h2.64v20.1h-2.64Z"/>
      <path class="cls-4" d="M403.89,728.79c-2.44.3-6.3.59-10.03.79-3.43.17-8.05.3-10.07.3l-.43-2.34c2.34,0,5.41-.03,8.65-.13v-6.54h-6.37v-12.51h15.94v2.21h-13.27v8.09h13.37v2.21h-7v6.44c3.4-.13,7-.4,8.94-.66l.26,2.15ZM406.04,735.98v-30.69h2.64v30.69h-2.64Z"/>
      <path class="cls-4" d="M412.61,723.38v-2.24h27.72v2.24h-27.72ZM416.24,735.29v-9.04h2.67v6.83h18.45v2.21h-21.12ZM416.34,717.3v-10.73h2.67v8.52h18.22v2.21h-20.89Z"/>
      <path class="cls-4" d="M467.39,716.91v3.89h12.54v2.21h-27.72v-2.21h12.51v-3.89h-9.11v-10.17h20.83v2.24h-18.15v5.71h18.32v2.21h-9.21ZM466.07,735.98c-6.73,0-10.53-1.98-10.53-5.38s3.8-5.35,10.53-5.35,10.56,1.88,10.56,5.35-3.83,5.38-10.56,5.38ZM458.28,730.6c0,2.05,2.97,3.17,7.79,3.17s7.82-1.12,7.82-3.17-2.97-3.17-7.82-3.17-7.79,1.19-7.79,3.17Z"/>
      <path class="cls-4" d="M498.32,715.26c0,4.62-3.53,7.69-8.12,7.69s-8.15-3.04-8.15-7.66,3.53-7.76,8.12-7.76,8.15,3.14,8.15,7.72ZM484.72,715.26c0,3.17,2.38,5.41,5.48,5.41s5.45-2.24,5.45-5.38-2.21-5.48-5.48-5.48-5.45,2.28-5.45,5.45ZM485.98,734.93v-9.54h2.67v7.33h17.69v2.21h-20.36ZM505.22,716.51v11.06h-2.67v-22.28h2.67v8.98h4.69v2.24h-4.69Z"/>
      <path class="cls-4" d="M521.35,713.28v-2.18h17.46v2.18h-17.46ZM530.23,725.42c-4.12,0-7.29-2.11-7.29-5.31s3.14-5.31,7.29-5.31,7.29,2.05,7.29,5.31-3.14,5.31-7.29,5.31ZM530.23,716.94c-2.61,0-4.69,1.22-4.69,3.17s2.08,3.14,4.69,3.14,4.69-1.22,4.69-3.14-2.08-3.17-4.69-3.17ZM525.71,708.72v-2.38h8.85v2.38h-8.85ZM526.37,734.96v-8.09h2.67v5.88h17.92v2.21h-20.59ZM538.52,714.27h5.12v-8.98h2.67v23.04h-2.67v-5.78h-5.12v-2.18h5.12v-3.93h-5.12v-2.18Z"/>
      <path class="cls-4" d="M550.93,707.5h16.73v2.24h-6.96c0,.76,0,1.35.03,1.68.23,3.93,3.89,7.29,7.39,8.45l-1.49,2.15c-2.94-1.19-6.07-3.96-7.33-6.73-.83,2.87-4.42,6.17-7.72,7.59l-1.55-2.08c3.86-1.49,7.76-5.35,7.92-9.41,0-.3.03-.89.03-1.65h-7.06v-2.24ZM564.43,735.95c-6.4,0-10.26-2.24-10.26-5.84s3.86-5.91,10.26-5.91,10.33,2.21,10.33,5.91-3.89,5.84-10.33,5.84ZM564.43,726.44c-4.62,0-7.49,1.29-7.49,3.66s2.87,3.6,7.49,3.6,7.59-1.32,7.59-3.6-2.94-3.66-7.59-3.66ZM574.33,716.02v8.12h-2.67v-18.85h2.67v8.48h4.75v2.24h-4.75Z"/>
      <path class="cls-4" d="M590.33,731.76v-2.24h27.72v2.24h-27.72ZM615.55,723.34c-5.15-1.55-10.13-5.91-11.39-9.04-1.09,3.14-5.97,7.49-11.32,9.01l-1.42-2.31c5.02-.96,11.39-5.71,11.39-10.73v-2.44h2.77v2.44c0,5.02,6.73,9.77,11.45,10.83l-1.49,2.24Z"/>
      <path class="cls-4" d="M633.54,708.79c0,9.41-3.76,16.07-11.65,20.92l-1.75-1.95c4.59-2.51,7.53-5.81,9.14-9.57l-8.35.96-.59-2.41,9.7-.73c.46-1.62.69-3.27.76-4.98h-9.18v-2.24h11.92ZM637.77,734.43v-15.02h-4.75v-2.21h4.75v-11.19h2.57v28.42h-2.57ZM643.68,735.98v-30.69h2.64v30.69h-2.64Z"/>
      <path class="cls-4" d="M668.02,729.88c-3.33-1.52-7.29-5.35-8.38-8.55-.89,3.27-4.65,7.46-7.99,9.21l-1.58-1.98c4.03-1.91,8.15-6.67,8.15-12.38v-.96h-7.23v-2.21h17.1v2.21h-7.13v.92c0,5.71,4.55,10.23,8.48,11.62l-1.42,2.11ZM654.96,709.55v-2.44h9.27v2.44h-9.27ZM672.51,735.98v-30.69h2.67v30.69h-2.67Z"/>
      <path class="cls-4" d="M679.16,721.66v-2.08h27.72v2.08h-27.72ZM682.36,735.42v-6.83h18.58v-2.54h-18.55v-1.98h21.22v6.44h-18.58v2.81h19.54v2.11h-22.21ZM682.69,717.14v-6.34h18.09v-2.41h-18.12v-2.08h20.79v6.4h-18.09v2.44h18.68v1.98h-21.35Z"/>
      <path class="cls-4" d="M727.25,735.06v-10.53c-2.87.13-5.61.17-8.32.2l-.43-2.38c3.66,0,7,.03,10.4-.1,3.83-.13,7.72-.36,10.69-.69l.13,2.08c-2.34.33-6.3.56-9.8.76v10.66h-2.67ZM728.7,719.91c-4.75,0-8.05-2.67-8.05-6.5s3.3-6.6,8.05-6.6,8.05,2.67,8.05,6.6-3.33,6.5-8.05,6.5ZM728.7,709.05c-3.07,0-5.48,1.55-5.48,4.36s2.41,4.26,5.48,4.26,5.45-1.55,5.45-4.26-2.38-4.36-5.45-4.36ZM741.44,735.98v-30.69h2.67v30.69h-2.67Z"/>
      <path class="cls-4" d="M748.02,714.96v-2.21h15.28v2.21h-15.28ZM756.04,728.99c-3.93,0-6.7-2.61-6.7-6.11,0-3.73,2.77-6.14,6.7-6.14s6.7,2.44,6.7,6.14-2.74,6.11-6.7,6.11ZM751.62,709.94v-2.31h8.38v2.31h-8.38ZM756.04,718.99c-2.44,0-4.13,1.55-4.13,3.89s1.68,3.89,4.13,3.89,4.13-1.58,4.13-3.89-1.72-3.89-4.13-3.89ZM771.35,735.98v-15.91h-3.7v14.36h-2.61v-28.42h2.61v11.82h3.7v-12.54h2.64v30.69h-2.64Z"/>
      <path class="cls-4" d="M804.02,728.49c-3.17-2.18-6.6-5.84-7.82-9.54-1.09,3.83-4.06,7.72-7.69,10.23l-1.72-2.05c4.46-2.74,8.05-8.25,8.05-13.7v-5.45h2.74v5.35c0,5.61,3.86,10.63,8.12,13.1l-1.68,2.05ZM811.29,719.91v16.07h-2.67v-30.69h2.67v12.38h4.95v2.24h-4.95Z"/>
      <path class="cls-4" d="M819.01,708.13h16.7v2.24h-7.03c0,1.29,0,1.91.03,2.34.23,3.93,4.09,7.39,7.59,8.55l-1.49,2.15c-2.94-1.19-6.27-4.09-7.52-6.87-.83,2.87-4.39,6.24-7.69,7.66l-1.55-2.08c3.86-1.49,7.66-5.38,7.89-9.44.03-.4.03-1.02.03-2.31h-6.96v-2.24ZM822.97,735.16v-9.54h2.67v7.33h17.79v2.21h-20.46ZM840.1,727.57v-22.28h2.67v22.28h-2.67Z"/>
      <path class="cls-4" d="M858.71,720.08v-12.57h14.75v12.57h-14.75ZM883.07,736.51c-4.36-.53-8.51-2.57-10.23-5.31-1.58,2.77-6.21,4.88-10.46,5.25l-1.09-2.08c4.39-.36,9.24-2.57,10.03-5.35h-8.88v-2.21h20.92v2.21h-9.01c.86,2.77,6.11,4.98,10.03,5.38l-1.32,2.11ZM870.83,709.68h-9.47v8.19h9.47v-8.19ZM867.99,724.27v-2.28h9.7v2.28h-9.7ZM879.77,721.99v-16.7h2.67v16.7h-2.67Z"/>
      <path class="cls-4" d="M99.15,769.5c0,4.49-3.56,7.29-7.89,7.29s-7.89-2.81-7.89-7.26,3.56-7.39,7.89-7.39,7.89,2.87,7.89,7.36ZM86.04,769.5c0,3.1,2.21,5.12,5.21,5.12s5.21-2.01,5.21-5.08-2.05-5.12-5.21-5.12c-3,0-5.21,2.01-5.21,5.08ZM97.76,791.05c-6.67,0-10.43-2.28-10.43-5.84s3.76-5.88,10.43-5.88,10.46,2.24,10.46,5.88-3.76,5.84-10.46,5.84ZM97.76,781.61c-4.79,0-7.66,1.32-7.66,3.6s2.87,3.56,7.66,3.56,7.72-1.32,7.72-3.56-2.84-3.6-7.72-3.6ZM99.94,771.97h5.58v-5.35h-5.58v-2.28h5.58v-4.06h2.67v18.98h-2.67v-5.02h-5.58v-2.28Z"/>
      <path class="cls-4" d="M128.33,776.56c-2.94-1.42-5.97-4.06-7.2-7.16-.96,3.27-4.06,6.34-7.66,8.19l-1.49-2.08c4.39-2.05,7.69-5.91,7.69-10.79v-2.97h2.71v2.87c0,4.88,4.06,8.61,7.53,9.84l-1.58,2.11ZM126.25,790.95c-6.4,0-10.23-2.24-10.23-5.87s3.83-5.91,10.23-5.91,10.33,2.24,10.33,5.91-3.86,5.87-10.33,5.87ZM118.76,785.08c0,2.34,2.87,3.66,7.49,3.66s7.59-1.32,7.59-3.66-2.9-3.7-7.59-3.7-7.49,1.35-7.49,3.7ZM136.15,770.85v8.35h-2.67v-18.91h2.67v8.32h4.69v2.24h-4.69Z"/>
      <path class="cls-4" d="M171.43,776.59c-2.24.26-6.21.63-9.83.86-3.47.2-7.36.36-9.54.36l-.4-2.28c2.18,0,5.25-.07,8.35-.2v-3.3h2.67v3.17c3.27-.17,6.67-.43,8.48-.69l.26,2.08ZM153.27,764.61h15.97v2.15h-6.57c.69,2.48,4.22,3.93,7.36,4.16l-1.16,2.08c-3.17-.53-6.47-2.08-7.56-4.22-1.02,2.41-4.06,4.19-7.79,4.92l-1.25-2.01c3.37-.3,6.93-2.11,7.56-4.92h-6.57v-2.15ZM155.98,790.75v-6.77h17.16v-2.41h-17.29v-2.11h19.97v6.57h-17.16v2.57h18.35v2.15h-21.02ZM157.2,760.55h8.32v2.18h-8.32v-2.18ZM175.82,770.92v6.93h-2.67v-17.56h2.67v8.38h4.65v2.24h-4.65Z"/>
      <path class="cls-4" d="M198.9,769.5c0,4.49-3.56,7.29-7.89,7.29s-7.89-2.81-7.89-7.26,3.56-7.39,7.89-7.39,7.89,2.87,7.89,7.36ZM185.8,769.5c0,3.1,2.21,5.12,5.21,5.12s5.21-2.01,5.21-5.08-2.05-5.12-5.21-5.12c-3,0-5.21,2.01-5.21,5.08ZM197.52,791.05c-6.67,0-10.43-2.28-10.43-5.84s3.76-5.88,10.43-5.88,10.46,2.24,10.46,5.88-3.76,5.84-10.46,5.84ZM197.52,781.61c-4.79,0-7.66,1.32-7.66,3.6s2.87,3.56,7.66,3.56,7.72-1.32,7.72-3.56-2.84-3.6-7.72-3.6ZM199.69,771.97h5.58v-5.35h-5.58v-2.28h5.58v-4.06h2.67v18.98h-2.67v-5.02h-5.58v-2.28Z"/>
      <path class="cls-4" d="M220.43,762.6c5.08,0,7.92,4.36,7.92,10.86s-2.84,10.83-7.92,10.83-7.92-4.32-7.92-10.86,2.87-10.83,7.92-10.83ZM220.43,764.91c-3.23,0-5.38,3.5-5.38,8.55s2.15,8.52,5.38,8.52,5.38-3.5,5.38-8.52-2.11-8.55-5.38-8.55ZM234.06,790.98v-30.69h2.67v30.69h-2.67Z"/>
      <path class="cls-4" d="M267.75,769.37c0,4.52-3.6,7.33-7.95,7.33s-7.95-2.81-7.95-7.29,3.6-7.39,7.95-7.39,7.95,2.94,7.95,7.36ZM264.25,788.64c-1.52-.79-3.17-2.38-3.89-4.06-.73,2.31-3.43,5.28-6.07,6.53l-1.62-1.91c3.14-1.35,6.24-4.72,6.24-8.45v-1.52h2.64v1.29c0,3.23,2.18,5.38,4.55,6.3l-1.85,1.82ZM254.45,769.37c0,3.07,2.28,5.15,5.35,5.15s5.38-2.08,5.38-5.12-2.15-5.21-5.38-5.21-5.35,2.18-5.35,5.18ZM277.46,791.05c-2.08-1.02-4.85-3.7-5.61-5.91-.76,2.31-3.33,5.08-5.81,6.3l-1.68-1.78c3.3-1.62,6.14-4.95,6.14-8.68v-1.85h2.64v1.75c0,3.8,3.07,7.16,5.97,8.25l-1.62,1.91h-.03ZM273.5,778.11v-17.82h2.67v17.82h-2.67Z"/>
      <path class="cls-4" d="M280.24,775.8v-2.24h27.72v2.24h-27.72ZM283.47,790.69v-7.29h18.35v-2.71h-18.42v-2.15h21.09v6.87h-18.35v3.1h19.34v2.18h-22.01ZM294.13,771.35c-6.6,0-10.69-1.95-10.69-5.31s4.09-5.31,10.69-5.31,10.73,1.95,10.73,5.31-4.06,5.31-10.73,5.31ZM286.18,766.03c0,1.91,3.14,3.1,7.95,3.1s8.02-1.19,8.02-3.1-3.17-3.14-8.02-3.14-7.95,1.22-7.95,3.14Z"/>
      <path class="cls-4" d="M332.31,791.02v-11.16h-12.48v-2.24h27.72v2.24h-12.57v11.16h-2.67ZM345.15,774.35c-4.59-.92-9.6-3.83-11.45-7.39-1.49,3.56-6.73,6.57-11.39,7.49l-1.29-2.31c5.87-.76,11.29-4.65,11.29-8.85v-1.95h2.81v1.95c0,4.19,5.91,8.12,11.32,8.78l-1.29,2.28Z"/>
      <path class="cls-4" d="M376.1,769.37c0,4.52-3.6,7.33-7.95,7.33s-7.95-2.81-7.95-7.29,3.6-7.39,7.95-7.39,7.95,2.94,7.95,7.36ZM372.61,788.64c-1.52-.79-3.17-2.38-3.89-4.06-.73,2.31-3.43,5.28-6.07,6.53l-1.62-1.91c3.14-1.35,6.24-4.72,6.24-8.45v-1.52h2.64v1.29c0,3.23,2.18,5.38,4.55,6.3l-1.85,1.82ZM362.8,769.37c0,3.07,2.28,5.15,5.35,5.15s5.38-2.08,5.38-5.12-2.15-5.21-5.38-5.21-5.35,2.18-5.35,5.18ZM385.81,791.05c-2.08-1.02-4.85-3.7-5.61-5.91-.76,2.31-3.33,5.08-5.81,6.3l-1.68-1.78c3.3-1.62,6.14-4.95,6.14-8.68v-1.85h2.64v1.75c0,3.8,3.07,7.16,5.97,8.25l-1.62,1.91h-.03ZM381.85,778.11v-17.82h2.67v17.82h-2.67Z"/>
      <path class="cls-4" d="M388.64,786.76v-2.24h27.72v2.24h-27.72ZM402.47,778.47c-6.7,0-11.16-3.07-11.16-7.76s4.46-7.76,11.16-7.76,11.19,3.07,11.19,7.76-4.46,7.76-11.19,7.76ZM402.47,765.21c-5.12,0-8.48,2.21-8.48,5.54s3.37,5.45,8.48,5.45,8.51-2.18,8.51-5.45-3.37-5.54-8.51-5.54Z"/>
      <path class="cls-4" d="M419.26,783.19v-19.84h13.93v19.84h-13.93ZM430.51,765.57h-8.58v15.41h8.58v-15.41ZM434.9,767.45h5.81v-7.16h2.67v30.69h-2.67v-12.74h-5.81v-2.21h5.81v-6.37h-5.81v-2.21Z"/>
      <path class="cls-4" d="M448.71,784.75h3.17l-2.57,6.86h-1.91l1.32-6.86Z"/>
      <path class="cls-4" d="M481.28,763.56c-.17,9.97-6.27,17.59-14.19,21.35l-1.55-2.11c7.76-3.4,12.31-10.1,12.87-17h-11.75v-2.24h14.62ZM487.62,790.98v-30.69h2.67v30.69h-2.67Z"/>
      <path class="cls-4" d="M509.51,773.79v3.23h12.57v2.24h-27.72v-2.24h12.48v-3.23h-8.98v-7.23h17.99v-2.94h-18.02v-2.15h20.69v7.1h-17.99v3.07h18.52v2.15h-9.54ZM518.59,781.94v9.24h-2.67v-7.03h-18.58v-2.21h21.25Z"/>
      <path class="cls-4" d="M540.1,762.7c-.3,8.78-5.51,14.16-13.53,16.67l-1.39-2.08c4.75-1.32,8.19-3.8,10.13-6.96l-9.67.99-.59-2.38,11.35-.79c.4-1.02.63-2.08.76-3.2h-10.63v-2.24h13.56ZM529.74,790.22v-9.67h2.67v7.43h17.99v2.24h-20.66ZM540.26,772.1v-2.24h6.73v-9.57h2.67v22.28h-2.67v-10.46h-6.73Z"/>
      <path class="cls-4" d="M557.81,775.7c3.7,0,6.83-.2,9.34-.76l.36,2.21c-2.97.59-7.06.86-11.09.86h-1.98v-14.92h11.42v2.21h-8.78v3.86h7.39v2.18h-7.39v4.36h.73ZM558.73,789.96v-9.47h2.67v7.26h18.29v2.21h-20.96ZM570.45,782.1v-10.99h-4.32v-2.18h4.32v-8.09h2.61v21.25h-2.61ZM576.23,783.16v-22.87h2.64v22.87h-2.64Z"/>
      <path class="cls-4" d="M581.94,787.06v-2.24h27.72v2.24h-27.72ZM607.19,780.06c-5.08-.92-9.9-4.09-11.39-7.26-1.35,3.23-5.97,6.3-11.35,7.36l-1.19-2.24c5.21-.59,11.19-4.52,11.19-8.65v-.07h-10v-2.24h22.67v2.24h-9.93v.07c0,4.13,6.44,8.02,11.19,8.48l-1.19,2.31ZM590.75,763.99v-2.24h10.07v2.24h-10.07Z"/>
      <path class="cls-4" d="M612.48,787.06v-2.24h12.48v-5.21h-9.04v-9.6h18.19v-4.92h-18.22v-2.24h20.89v9.37h-18.19v5.15h19.04v2.24h-10v5.21h12.57v2.24h-27.72Z"/>
      <path class="cls-4" d="M652.14,785.87v-2.34c1.78.92,4.09,1.55,6.57,1.55,3.63,0,5.21-1.68,5.21-4.26,0-2.41-1.16-3.4-3.99-4.32l-2.31-.79c-3.3-1.09-5.15-2.77-5.15-6.37s2.44-6.24,7.33-6.24c2.81,0,4.46.66,5.74,1.29v2.34c-1.39-.63-3.23-1.29-5.84-1.29-2.87,0-4.49,1.42-4.49,3.66s.86,3.23,3.53,4.13l2.31.76c3.46,1.19,5.68,2.67,5.68,6.63s-2.38,6.83-7.89,6.83c-2.9,0-5.15-.69-6.7-1.58Z"/>
      <path class="cls-4" d="M670.51,763.49h3.27l11.35,18.85h.1v-18.85h2.54v23.53h-2.87l-11.72-19.74h-.1v19.74h-2.57v-23.53Z"/>
      <path class="cls-4" d="M691.43,785.87v-2.34c1.78.92,4.09,1.55,6.57,1.55,3.63,0,5.21-1.68,5.21-4.26,0-2.41-1.16-3.4-3.99-4.32l-2.31-.79c-3.3-1.09-5.15-2.77-5.15-6.37s2.44-6.24,7.33-6.24c2.81,0,4.46.66,5.74,1.29v2.34c-1.39-.63-3.23-1.29-5.84-1.29-2.87,0-4.49,1.42-4.49,3.66s.86,3.23,3.53,4.13l2.31.76c3.46,1.19,5.68,2.67,5.68,6.63s-2.38,6.83-7.89,6.83c-2.9,0-5.15-.69-6.7-1.58Z"/>
      <path class="cls-4" d="M718.29,787.06v-2.24h12.48v-5.97h2.67v5.97h12.57v2.24h-27.72ZM731.2,776.46c-2.74.63-7.1.89-10.69.89v-14.16h10.1v2.28h-7.43v9.51c2.11,0,5.78-.26,7.72-.79l.3,2.28ZM732.45,777.09v-13.96h11.19v2.31h-8.52v9.44h8.58v2.21h-11.25Z"/>
      <path class="cls-4" d="M747.62,778.38v-2.24h27.72v2.24h-27.72ZM751.25,790.29v-9.04h2.67v6.83h18.45v2.21h-21.12ZM751.35,772.3v-10.73h2.67v8.52h18.22v2.21h-20.89Z"/>
      <path class="cls-4" d="M794.02,778.87v-3.86c-2.48.13-4.92.2-6.77.2l-.4-2.21c2.38,0,5.02-.03,8.35-.2,2.64-.13,5.94-.4,8.28-.73l.26,2.08c-2.05.3-4.59.53-7.13.69v4.03h-2.61ZM795.47,771.48c-4.03,0-7.06-1.95-7.06-5.05s3-5.18,7.06-5.18,7,2.05,7,5.18-3.07,5.05-7,5.05ZM795.47,763.29c-3.04,0-4.49,1.72-4.49,3.14s1.58,3,4.49,3,4.42-1.58,4.42-3-1.35-3.14-4.42-3.14ZM792.73,790.46v-10.17h2.64v2.87h15.28v-2.9h2.64v10.2h-20.56ZM810.65,785.31h-15.28v2.97h15.28v-2.97ZM805.24,778.9v-1.09h-5.45v-2.05h5.45v-14.95h2.57v18.09h-2.57ZM810.69,779v-18.71h2.61v18.71h-2.61Z"/>
      <path class="cls-4" d="M833.69,783.49c-3.17-2.18-6.6-5.84-7.82-9.54-1.09,3.83-4.06,7.72-7.69,10.23l-1.72-2.05c4.46-2.74,8.05-8.25,8.05-13.7v-5.45h2.74v5.35c0,5.61,3.86,10.63,8.12,13.1l-1.68,2.05ZM840.95,774.91v16.07h-2.67v-30.69h2.67v12.38h4.95v2.24h-4.95Z"/>
      <path class="cls-4" d="M856.73,762.6c5.08,0,7.92,4.36,7.92,10.86s-2.84,10.83-7.92,10.83-7.92-4.32-7.92-10.86,2.87-10.83,7.92-10.83ZM856.73,764.91c-3.23,0-5.38,3.5-5.38,8.55s2.15,8.52,5.38,8.52,5.38-3.5,5.38-8.52-2.11-8.55-5.38-8.55ZM870.36,790.98v-30.69h2.67v30.69h-2.67Z"/>
      <path class="cls-4" d="M877.03,787.06v-2.24h27.72v2.24h-27.72ZM883.1,772.17v4.79h18.35v2.24h-21.02v-15.97h20.69v2.24h-18.02v4.46h17.43v2.24h-17.43Z"/>
      <path class="cls-4" d="M919.47,772.43h3.3v-11.55h2.61v28.62h-2.61v-14.85h-3.3c-.3,5.54-2.54,9.31-6.73,9.31-4.49,0-6.77-4.32-6.77-10.5s2.28-10.5,6.77-10.5c4.22,0,6.5,3.89,6.73,9.47ZM912.74,765.31c-2.48,0-4.06,3.2-4.06,8.15s1.58,8.15,4.06,8.15,4.09-3.17,4.09-8.15-1.62-8.15-4.09-8.15ZM928.75,790.98v-30.69h2.64v30.69h-2.64Z"/>
      <path class="cls-4" d="M99.15,823.97c0,4.36-3.56,7.1-7.89,7.1s-7.89-2.74-7.89-7.06,3.56-7.2,7.89-7.2,7.89,2.81,7.89,7.16ZM86.04,823.97c0,2.94,2.21,4.88,5.21,4.88s5.21-1.95,5.21-4.85-2.05-4.88-5.21-4.88c-3,0-5.21,1.95-5.21,4.85ZM88.55,845.55v-12.15h2.67v3.89h14.32v-3.99h2.67v12.24h-19.67ZM105.55,839.48h-14.32v3.89h14.32v-3.89ZM100.4,824.89v-2.21h5.12v-7.39h2.67v16.4h-2.67v-6.8h-5.12Z"/>
      <path class="cls-4" d="M112.28,842.06v-2.24h12.48v-5.21h-9.04v-9.6h18.19v-4.92h-18.22v-2.24h20.89v9.37h-18.19v5.15h19.04v2.24h-10v5.21h12.57v2.24h-27.72Z"/>
      <path class="cls-4" d="M142.82,841.76v-2.24h27.72v2.24h-27.72ZM146.31,832.78v-14.46h20.6v2.21h-17.92v10.03h18.22v2.21h-20.89Z"/>
      <path class="cls-4" d="M202.75,830.08c-2.41.3-6.14.63-9.87.83-3.46.17-8.02.3-10.07.3l-.4-2.38c2.34,0,5.48,0,8.78-.1v-2.97h-6.14v-8.98h15.08v2.21h-12.41v4.55h12.71v2.21h-6.57v2.87c3.33-.13,6.7-.4,8.65-.69l.23,2.15ZM187.3,845.65v-7.26h17.59v-2.87h-17.62v-2.15h20.3v7h-17.59v3.14h18.78v2.15h-21.45ZM204.89,831.82v-16.54h2.67v16.54h-2.67Z"/>
      <path class="cls-4" d="M234.49,846.02v-11.16h-12.48v-2.24h27.72v2.24h-12.57v11.16h-2.67ZM247.33,829.35c-4.59-.92-9.6-3.83-11.45-7.39-1.49,3.56-6.73,6.57-11.39,7.49l-1.29-2.31c5.87-.76,11.29-4.65,11.29-8.85v-1.95h2.81v1.95c0,4.19,5.91,8.12,11.32,8.78l-1.29,2.28Z"/>
      <path class="cls-4" d="M278.28,824.37c0,4.52-3.6,7.33-7.95,7.33s-7.95-2.81-7.95-7.29,3.6-7.39,7.95-7.39,7.95,2.94,7.95,7.36ZM274.78,843.64c-1.52-.79-3.17-2.38-3.89-4.06-.73,2.31-3.43,5.28-6.07,6.53l-1.62-1.91c3.14-1.35,6.24-4.72,6.24-8.45v-1.52h2.64v1.29c0,3.23,2.18,5.38,4.55,6.3l-1.85,1.82ZM264.98,824.37c0,3.07,2.28,5.15,5.35,5.15s5.38-2.08,5.38-5.12-2.15-5.21-5.38-5.21-5.35,2.18-5.35,5.18ZM287.99,846.05c-2.08-1.02-4.85-3.7-5.61-5.91-.76,2.31-3.33,5.08-5.81,6.3l-1.68-1.78c3.3-1.62,6.14-4.95,6.14-8.68v-1.85h2.64v1.75c0,3.8,3.07,7.16,5.97,8.25l-1.62,1.91h-.03ZM284.03,833.11v-17.82h2.67v17.82h-2.67Z"/>
      <path class="cls-4" d="M290.77,831.76v-2.24h27.72v2.24h-27.72ZM315.79,827.07c-4.65-.86-9.64-3.8-11.12-6.96-1.35,3.17-6.44,6.07-11.09,6.96l-1.25-2.31c4.82-.53,10.96-3.8,10.96-8.12v-.99h2.77v.99c0,4.32,6.27,7.59,10.99,8.12l-1.25,2.31ZM294.33,845.55v-11.62h2.67v3.56h15.28v-3.6h2.67v11.65h-20.63ZM312.29,839.68h-15.28v3.66h15.28v-3.66Z"/>
      <path class="cls-4" d="M339.78,837.01c-3.56.83-11.55,1.42-16.27,1.42h-1.35v-19.94h2.67v17.59c3.96,0,11.02-.56,14.69-1.39l.26,2.31ZM345.29,845.98h-2.64v-30.69h2.64v30.69Z"/>
      <path class="cls-4" d="M354.98,836.18c3.96,0,10.03-.36,12.97-.99l.3,2.21c-3.3.63-9.37,1.06-14.72,1.06h-3v-19.97h14.56v2.24h-11.88v15.45h1.78ZM372.96,827.47h4.98v2.24h-4.98v16.27h-2.64v-30.69h2.64v12.18Z"/>
      <path class="cls-4" d="M377.98,839.78h3.04v3.14h-3.04v-3.14Z"/>
    </g>
    <g>
      <path class="cls-3" d="M84.59,881.13h7.52c7.29,0,11.42,3.63,11.42,11.32v.76c0,7.56-3.63,11.95-11.35,11.95h-7.59v-24.03ZM92.25,902.16c5.05,0,7.36-2.48,7.36-8.52v-1.19c0-6.3-2.8-8.32-7.79-8.32h-3.6v18.02h4.03Z"/>
      <path class="cls-3" d="M107,900.28v-13h3.47v12.38c0,2.11.73,2.94,3.14,2.94,1.75,0,3.17-.59,4.39-1.15v-14.16h3.43v17.89h-2.94l-.36-1.52h-.17c-1.49,1.06-3.27,1.85-5.51,1.85-3.5,0-5.45-1.75-5.45-5.21Z"/>
      <path class="cls-3" d="M125.37,887.27h3.33v2.01h.17c1.02-1.22,2.87-2.24,4.79-2.24.43,0,.96.07,1.12.17v3.07c-.43-.07-1.06-.1-1.39-.1-1.68,0-3.33.5-4.55,1.29v13.7h-3.46v-17.89Z"/>
      <path class="cls-3" d="M137.31,880.57h3.53v3.37h-3.53v-3.37ZM137.35,887.27h3.47v17.89h-3.47v-17.89Z"/>
      <path class="cls-3" d="M144.78,887.27h3.33v1.55h.17c1.49-1.06,3.8-1.91,5.97-1.91,3.5,0,5.18,1.45,5.18,4.92v13.33h-3.47v-12.51c0-1.98-.59-2.77-3.27-2.77-1.52,0-3.23.53-4.46,1.12v14.16h-3.46v-17.89Z"/>
      <path class="cls-3" d="M161.77,906.51c0-1.88,1.52-3.07,3.33-3.7v-.17c-1.02-.36-1.82-.79-1.82-1.98,0-1.25.66-2.31,2.05-3.3-1.32-.89-2.25-2.31-2.25-4.32v-.33c0-3.73,2.91-5.81,6.96-5.81.99,0,1.85.1,2.71.3h6.07v2.48h-2.87c.63.73.96,1.68.96,2.9v.33c0,3.76-3,5.54-6.9,5.54-1.02,0-2.01-.1-2.9-.36-.4.36-.69.83-.69,1.29,0,.92.5.99,1.65.99h4.92c3.37,0,5.74,1.19,5.74,4.65s-2.57,5.35-8.78,5.35c-5.51,0-8.18-1.19-8.18-3.86ZM175.14,905.56c0-1.49-.83-2.08-2.94-2.08h-4.82c-1.19.4-2.08,1.19-2.08,2.54,0,1.42,1.32,1.78,4.59,1.78,3.89,0,5.25-.53,5.25-2.24ZM173.52,893.05v-.5c0-2.24-1.35-3.17-3.5-3.17s-3.5,1.09-3.5,3.1v.5c0,2.11,1.39,3.1,3.5,3.1,2.24,0,3.5-.99,3.5-3.04Z"/>
      <path class="cls-3" d="M190.95,879.55h3.47v25.61h-3.47v-25.61Z"/>
      <path class="cls-3" d="M198.39,880.57h3.53v3.37h-3.53v-3.37ZM198.42,887.27h3.47v17.89h-3.47v-17.89Z"/>
      <path class="cls-3" d="M205.85,887.27h3.33v1.55h.17c1.49-1.02,3.4-1.91,5.48-1.91s3.43.66,4.22,2.01h.17c1.88-1.22,3.96-2.01,6.01-2.01,3.1,0,4.95,1.45,4.95,4.92v13.33h-3.47v-12.51c0-1.98-.76-2.77-2.97-2.77-1.29,0-2.64.43-4.09,1.16.03.3.07.56.07.92v13.2h-3.43v-12.51c0-1.98-.73-2.77-2.94-2.77-1.39,0-2.81.5-4.03,1.12v14.16h-3.46v-17.89Z"/>
      <path class="cls-3" d="M233.25,896.45v-.46c0-6.17,3.7-9.08,8.02-9.08,5.05,0,7.39,2.94,7.39,8.58v1.68h-11.85c.23,4.09,2.25,5.48,5.74,5.48,2.38,0,3.89-.56,5.54-1.32v2.44c-1.12.79-3.17,1.72-6.17,1.72-5.78,0-8.68-3.43-8.68-9.04ZM236.81,894.63h8.25c0-3.6-1.35-4.98-3.93-4.98-1.91,0-4.06.99-4.32,4.98Z"/>
      <path class="cls-3" d="M250.84,904.2v-2.61c1.49.56,2.81,1.12,5.35,1.12s3.7-.89,3.7-2.38c0-1.39-.69-2.05-2.84-2.54l-1.68-.46c-2.64-.63-4.49-1.91-4.49-5.08s2.05-5.35,6.4-5.35c2.44,0,3.96.53,5.02,1.06v2.67c-.96-.4-2.77-.89-4.75-.89-2.24,0-3.37.69-3.37,2.21,0,1.39.73,1.91,2.51,2.41l1.68.4c3.5.86,4.92,2.11,4.92,5.31,0,3.56-2.54,5.38-6.6,5.38-2.31,0-4.39-.4-5.84-1.25Z"/>
      <path class="cls-3" d="M267.34,900.87v-10.83h-2.54v-2.77h2.54v-4.22h3.46v4.22h4.32v2.77h-4.32v10.33c0,1.62.53,2.21,2.48,2.21.73,0,1.52-.1,2.21-.23v2.31c-.76.33-1.55.69-3.2.69-2.97,0-4.95-1.22-4.95-4.49Z"/>
      <path class="cls-3" d="M278.06,900.28v-13h3.47v12.38c0,2.11.73,2.94,3.14,2.94,1.75,0,3.17-.59,4.39-1.15v-14.16h3.43v17.89h-2.94l-.36-1.52h-.17c-1.49,1.06-3.27,1.85-5.51,1.85-3.5,0-5.45-1.75-5.45-5.21Z"/>
      <path class="cls-3" d="M295.68,896.78v-.46c0-6.57,3.37-9.41,7.95-9.41,2.18,0,3.6.59,4.46,1.09v-8.45h3.47v25.61h-2.94l-.33-1.42h-.17c-1.06,1.06-2.77,1.75-5.12,1.75-3.5,0-7.33-2.18-7.33-8.71ZM308.09,901.43v-10.66c-.69-.59-2.24-.99-3.93-.99-3.07,0-4.92,1.55-4.92,6.14v.73c0,4.69,2.01,6.11,4.95,6.11,1.85,0,3.17-.76,3.89-1.32Z"/>
      <path class="cls-3" d="M315.49,880.57h3.53v3.37h-3.53v-3.37ZM315.52,887.27h3.47v17.89h-3.47v-17.89Z"/>
      <path class="cls-3" d="M322.13,896.61v-.59c0-5.71,3.37-9.11,8.35-9.11s8.25,3.33,8.25,9.01v.5c0,5.71-3.4,9.08-8.28,9.08-5.28,0-8.32-3.3-8.32-8.88ZM335.13,896.78v-.96c0-4.72-2.11-6.14-4.72-6.14-3,0-4.72,2.08-4.72,6.01v.96c0,4.75,2.15,6.14,4.82,6.14,2.9,0,4.62-2.08,4.62-6.01Z"/>
      <path class="cls-3" d="M341.49,901.76h3.86v3.8h-3.86v-3.8Z"/>
      <path class="cls-3" d="M349.43,879.55h3.47v25.61h-3.47v-25.61Z"/>
      <path class="cls-3" d="M356.87,880.57h3.53v3.37h-3.53v-3.37ZM356.91,887.27h3.47v17.89h-3.47v-17.89Z"/>
      <path class="cls-3" d="M362.89,887.27h3.73l4.65,13.6h.13l4.72-13.6h3.37l-6.54,17.89h-3.5l-6.57-17.89Z"/>
      <path class="cls-3" d="M380.38,896.45v-.46c0-6.17,3.7-9.08,8.02-9.08,5.05,0,7.39,2.94,7.39,8.58v1.68h-11.85c.23,4.09,2.25,5.48,5.74,5.48,2.38,0,3.89-.56,5.54-1.32v2.44c-1.12.79-3.17,1.72-6.17,1.72-5.78,0-8.68-3.43-8.68-9.04ZM383.95,894.63h8.25c0-3.6-1.35-4.98-3.93-4.98-1.91,0-4.06.99-4.32,4.98Z"/>
      <path class="cls-3" d="M399.05,901.83h3.93l-1.55,7.85h-2.9l.53-7.85Z"/>
      <path class="cls-3" d="M416.74,887.27h3.33v1.45h.17c1.09-1.02,2.94-1.82,5.12-1.82,3.89,0,7.29,2.15,7.29,8.75v.5c0,6.63-3.17,9.14-8.09,9.14-1.98,0-3.43-.53-4.36-1.06v6.21h-3.46v-23.17ZM429.05,896.61v-.73c0-4.69-1.68-6.07-4.72-6.07-1.88,0-3.4.63-4.13,1.19v10.46c.73.56,2.25,1.12,3.96,1.12,3.07,0,4.88-1.42,4.88-5.97Z"/>
      <path class="cls-3" d="M435.91,879.55h3.47v25.61h-3.47v-25.61Z"/>
      <path class="cls-3" d="M442.57,896.45v-.46c0-6.17,3.7-9.08,8.02-9.08,5.05,0,7.39,2.94,7.39,8.58v1.68h-11.85c.23,4.09,2.25,5.48,5.74,5.48,2.38,0,3.89-.56,5.54-1.32v2.44c-1.12.79-3.17,1.72-6.17,1.72-5.78,0-8.68-3.43-8.68-9.04ZM446.13,894.63h8.25c0-3.6-1.35-4.98-3.93-4.98-1.91,0-4.06.99-4.32,4.98Z"/>
      <path class="cls-3" d="M459.96,900.41c0-3.2,2.11-4.79,5.58-5.25l4.52-.53v-1.55c0-2.64-1.16-3.23-4.29-3.23-1.75,0-3.23.26-4.32.5v-2.41c1.65-.66,3.47-1.02,5.68-1.02,4.06,0,6.4,1.68,6.4,5.31v12.94h-2.84l-.33-1.49h-.2c-.86,1.06-2.31,1.82-4.65,1.82-3.23,0-5.54-1.62-5.54-5.08ZM470.06,901.79v-4.75l-3.73.36c-1.91.23-2.84.99-2.84,2.87s1.16,2.67,2.94,2.67c1.49,0,2.9-.5,3.63-1.16Z"/>
      <path class="cls-3" d="M476.37,904.2v-2.61c1.49.56,2.81,1.12,5.35,1.12s3.7-.89,3.7-2.38c0-1.39-.69-2.05-2.84-2.54l-1.68-.46c-2.64-.63-4.49-1.91-4.49-5.08s2.05-5.35,6.4-5.35c2.44,0,3.96.53,5.02,1.06v2.67c-.96-.4-2.77-.89-4.75-.89-2.24,0-3.37.69-3.37,2.21,0,1.39.73,1.91,2.51,2.41l1.68.4c3.5.86,4.92,2.11,4.92,5.31,0,3.56-2.54,5.38-6.6,5.38-2.31,0-4.39-.4-5.84-1.25Z"/>
      <path class="cls-3" d="M490.99,896.45v-.46c0-6.17,3.7-9.08,8.02-9.08,5.05,0,7.39,2.94,7.39,8.58v1.68h-11.85c.23,4.09,2.25,5.48,5.74,5.48,2.38,0,3.89-.56,5.54-1.32v2.44c-1.12.79-3.17,1.72-6.17,1.72-5.78,0-8.68-3.43-8.68-9.04ZM494.56,894.63h8.25c0-3.6-1.35-4.98-3.93-4.98-1.91,0-4.06.99-4.32,4.98Z"/>
      <path class="cls-3" d="M519.17,887.27h3.33v1.55h.17c1.49-1.06,3.8-1.91,5.97-1.91,3.5,0,5.18,1.45,5.18,4.92v13.33h-3.47v-12.51c0-1.98-.59-2.77-3.27-2.77-1.52,0-3.23.53-4.46,1.12v14.16h-3.46v-17.89Z"/>
      <path class="cls-3" d="M536.87,896.61v-.59c0-5.71,3.37-9.11,8.35-9.11s8.25,3.33,8.25,9.01v.5c0,5.71-3.4,9.08-8.28,9.08-5.28,0-8.32-3.3-8.32-8.88ZM549.87,896.78v-.96c0-4.72-2.11-6.14-4.72-6.14-3,0-4.72,2.08-4.72,6.01v.96c0,4.75,2.15,6.14,4.82,6.14,2.9,0,4.62-2.08,4.62-6.01Z"/>
      <path class="cls-3" d="M557.39,900.87v-10.83h-2.54v-2.77h2.54v-4.22h3.46v4.22h4.32v2.77h-4.32v10.33c0,1.62.53,2.21,2.48,2.21.73,0,1.52-.1,2.21-.23v2.31c-.76.33-1.55.69-3.2.69-2.97,0-4.95-1.22-4.95-4.49Z"/>
      <path class="cls-3" d="M568.25,880.57h3.53v3.37h-3.53v-3.37ZM568.29,887.27h3.47v17.89h-3.47v-17.89Z"/>
      <path class="cls-3" d="M576.96,890.04h-2.61v-2.77h2.61v-2.44c0-3.89,2.41-5.58,5.71-5.58,1.52,0,2.54.3,3.17.59v2.38c-.46-.1-1.29-.26-2.41-.26-1.91,0-3,.96-3,3.2v2.11h3.99v2.77h-3.99v15.12h-3.47v-15.12Z"/>
      <path class="cls-3" d="M587.77,880.57h3.53v3.37h-3.53v-3.37ZM587.8,887.27h3.47v17.89h-3.47v-17.89Z"/>
      <path class="cls-3" d="M594.4,896.45v-.46c0-6.17,3.7-9.08,8.02-9.08,5.05,0,7.39,2.94,7.39,8.58v1.68h-11.85c.23,4.09,2.25,5.48,5.74,5.48,2.38,0,3.89-.56,5.54-1.32v2.44c-1.12.79-3.17,1.72-6.17,1.72-5.78,0-8.68-3.43-8.68-9.04ZM597.97,894.63h8.25c0-3.6-1.35-4.98-3.93-4.98-1.91,0-4.06.99-4.32,4.98Z"/>
      <path class="cls-3" d="M612.15,896.78v-.46c0-6.57,3.37-9.41,7.95-9.41,2.18,0,3.6.59,4.46,1.09v-8.45h3.47v25.61h-2.94l-.33-1.42h-.17c-1.06,1.06-2.77,1.75-5.12,1.75-3.5,0-7.33-2.18-7.33-8.71ZM624.56,901.43v-10.66c-.69-.59-2.24-.99-3.93-.99-3.07,0-4.92,1.55-4.92,6.14v.73c0,4.69,2.01,6.11,4.95,6.11,1.85,0,3.17-.76,3.89-1.32Z"/>
      <path class="cls-3" d="M642.84,900.87v-10.83h-2.54v-2.77h2.54v-4.22h3.46v4.22h4.32v2.77h-4.32v10.33c0,1.62.53,2.21,2.48,2.21.73,0,1.52-.1,2.21-.23v2.31c-.76.33-1.55.69-3.2.69-2.97,0-4.95-1.22-4.95-4.49Z"/>
      <path class="cls-3" d="M653.69,879.55h3.46v9.21h.17c1.45-1.02,3.66-1.85,5.84-1.85,3.5,0,5.18,1.45,5.18,4.92v13.33h-3.47v-12.51c0-1.98-.59-2.77-3.27-2.77-1.52,0-3.23.53-4.46,1.12v14.16h-3.46v-25.61Z"/>
      <path class="cls-3" d="M671.08,900.41c0-3.2,2.11-4.79,5.58-5.25l4.52-.53v-1.55c0-2.64-1.16-3.23-4.29-3.23-1.75,0-3.23.26-4.32.5v-2.41c1.65-.66,3.47-1.02,5.68-1.02,4.06,0,6.4,1.68,6.4,5.31v12.94h-2.84l-.33-1.49h-.2c-.86,1.06-2.31,1.82-4.65,1.82-3.23,0-5.54-1.62-5.54-5.08ZM681.18,901.79v-4.75l-3.73.36c-1.91.23-2.84.99-2.84,2.87s1.16,2.67,2.94,2.67c1.49,0,2.9-.5,3.63-1.16Z"/>
      <path class="cls-3" d="M689.56,900.87v-10.83h-2.54v-2.77h2.54v-4.22h3.46v4.22h4.32v2.77h-4.32v10.33c0,1.62.53,2.21,2.48,2.21.73,0,1.52-.1,2.21-.23v2.31c-.76.33-1.55.69-3.2.69-2.97,0-4.95-1.22-4.95-4.49Z"/>
      <path class="cls-3" d="M708.73,887.27h3.66l3.4,13.43h.17l3.89-13.43h2.94l3.93,13.43h.13l3.37-13.43h3.23l-5.02,17.89h-3.4l-3.83-12.74h-.13l-3.83,12.74h-3.5l-5.02-17.89Z"/>
      <path class="cls-3" d="M734.62,896.45v-.46c0-6.17,3.7-9.08,8.02-9.08,5.05,0,7.39,2.94,7.39,8.58v1.68h-11.85c.23,4.09,2.25,5.48,5.74,5.48,2.38,0,3.89-.56,5.54-1.32v2.44c-1.12.79-3.17,1.72-6.17,1.72-5.78,0-8.68-3.43-8.68-9.04ZM738.19,894.63h8.25c0-3.6-1.35-4.98-3.93-4.98-1.91,0-4.06.99-4.32,4.98Z"/>
      <path class="cls-3" d="M761.22,887.27h3.66l3.4,13.43h.17l3.89-13.43h2.94l3.93,13.43h.13l3.37-13.43h3.23l-5.02,17.89h-3.4l-3.83-12.74h-.13l-3.83,12.74h-3.5l-5.02-17.89Z"/>
      <path class="cls-3" d="M788.54,880.57h3.53v3.37h-3.53v-3.37ZM788.57,887.27h3.47v17.89h-3.47v-17.89Z"/>
      <path class="cls-3" d="M796.05,879.55h3.47v25.61h-3.47v-25.61Z"/>
      <path class="cls-3" d="M803.52,879.55h3.47v25.61h-3.47v-25.61Z"/>
      <path class="cls-3" d="M821.97,900.87v-10.83h-2.54v-2.77h2.54v-4.22h3.46v4.22h4.32v2.77h-4.32v10.33c0,1.62.53,2.21,2.48,2.21.73,0,1.52-.1,2.21-.23v2.31c-.76.33-1.55.69-3.2.69-2.97,0-4.95-1.22-4.95-4.49Z"/>
      <path class="cls-3" d="M832.21,900.41c0-3.2,2.11-4.79,5.58-5.25l4.52-.53v-1.55c0-2.64-1.16-3.23-4.29-3.23-1.75,0-3.23.26-4.32.5v-2.41c1.65-.66,3.47-1.02,5.68-1.02,4.06,0,6.4,1.68,6.4,5.31v12.94h-2.84l-.33-1.49h-.2c-.86,1.06-2.31,1.82-4.65,1.82-3.23,0-5.54-1.62-5.54-5.08ZM842.31,901.79v-4.75l-3.73.36c-1.91.23-2.84.99-2.84,2.87s1.16,2.67,2.94,2.67c1.49,0,2.9-.5,3.63-1.16Z"/>
      <path class="cls-3" d="M849.63,879.55h3.46v25.61h-3.46v-25.61ZM853.39,895.92l6.6-8.65h3.7l-6.57,8.42,7.06,9.47h-3.89l-6.9-9.24Z"/>
      <path class="cls-3" d="M864.49,896.45v-.46c0-6.17,3.7-9.08,8.02-9.08,5.05,0,7.39,2.94,7.39,8.58v1.68h-11.85c.23,4.09,2.25,5.48,5.74,5.48,2.38,0,3.89-.56,5.54-1.32v2.44c-1.12.79-3.17,1.72-6.17,1.72-5.78,0-8.68-3.43-8.68-9.04ZM868.05,894.63h8.25c0-3.6-1.35-4.98-3.93-4.98-1.91,0-4.06.99-4.32,4.98Z"/>
      <path class="cls-3" d="M84.1,931.27h3.33v1.45h.17c1.09-1.02,2.94-1.82,5.12-1.82,3.89,0,7.29,2.15,7.29,8.75v.5c0,6.63-3.17,9.14-8.09,9.14-1.98,0-3.43-.53-4.36-1.06v6.21h-3.46v-23.17ZM96.41,940.61v-.73c0-4.69-1.68-6.07-4.72-6.07-1.88,0-3.4.63-4.13,1.19v10.46c.73.56,2.25,1.12,3.96,1.12,3.07,0,4.88-1.42,4.88-5.97Z"/>
      <path class="cls-3" d="M103.19,924.57h3.53v3.37h-3.53v-3.37ZM103.22,931.27h3.47v17.89h-3.47v-17.89Z"/>
      <path class="cls-3" d="M109.82,940.65v-.59c0-6.27,3.76-9.14,8.61-9.14,2.34,0,3.73.46,4.92,1.16v2.84c-1.58-.66-2.67-1.09-4.95-1.09-3.07,0-4.98,2.01-4.98,5.78v.92c0,4.29,1.82,6.14,5.35,6.14,2.28,0,3.86-.76,4.79-1.19v2.61c-1.19.79-2.84,1.42-5.31,1.42-5.15,0-8.42-2.9-8.42-8.85Z"/>
      <path class="cls-3" d="M125.67,948.2v-2.61c1.49.56,2.81,1.12,5.35,1.12s3.7-.89,3.7-2.38c0-1.39-.69-2.05-2.84-2.54l-1.68-.46c-2.64-.63-4.49-1.91-4.49-5.08s2.05-5.35,6.4-5.35c2.44,0,3.96.53,5.02,1.06v2.67c-.96-.4-2.77-.89-4.75-.89-2.24,0-3.37.69-3.37,2.21,0,1.39.73,1.91,2.51,2.41l1.68.4c3.5.86,4.92,2.11,4.92,5.31,0,3.56-2.54,5.38-6.6,5.38-2.31,0-4.39-.4-5.84-1.25Z"/>
      <path class="cls-3" d="M149.8,944.41c0-3.2,2.11-4.79,5.58-5.25l4.52-.53v-1.55c0-2.64-1.16-3.23-4.29-3.23-1.75,0-3.23.26-4.32.5v-2.41c1.65-.66,3.47-1.02,5.68-1.02,4.06,0,6.4,1.68,6.4,5.31v12.94h-2.84l-.33-1.49h-.2c-.86,1.06-2.31,1.82-4.65,1.82-3.23,0-5.54-1.62-5.54-5.08ZM159.9,945.79v-4.75l-3.73.36c-1.91.23-2.84.99-2.84,2.87s1.16,2.67,2.94,2.67c1.49,0,2.9-.5,3.63-1.16Z"/>
      <path class="cls-3" d="M167.22,931.27h3.33v1.55h.17c1.49-1.06,3.8-1.91,5.97-1.91,3.5,0,5.18,1.45,5.18,4.92v13.33h-3.47v-12.51c0-1.98-.59-2.77-3.27-2.77-1.52,0-3.23.53-4.46,1.12v14.16h-3.46v-17.89Z"/>
      <path class="cls-3" d="M185,940.78v-.46c0-6.57,3.37-9.41,7.95-9.41,2.18,0,3.6.59,4.46,1.09v-8.45h3.47v25.61h-2.94l-.33-1.42h-.17c-1.06,1.06-2.77,1.75-5.12,1.75-3.5,0-7.33-2.18-7.33-8.71ZM197.41,945.43v-10.66c-.69-.59-2.24-.99-3.93-.99-3.07,0-4.92,1.55-4.92,6.14v.73c0,4.69,2.01,6.11,4.95,6.11,1.85,0,3.17-.76,3.89-1.32Z"/>
      <path class="cls-3" d="M212.99,931.27h3.73l4.65,13.6h.13l4.72-13.6h3.37l-6.54,17.89h-3.5l-6.57-17.89Z"/>
      <path class="cls-3" d="M232.09,924.57h3.53v3.37h-3.53v-3.37ZM232.13,931.27h3.47v17.89h-3.47v-17.89Z"/>
      <path class="cls-3" d="M238.78,940.78v-.46c0-6.57,3.37-9.41,7.95-9.41,2.18,0,3.6.59,4.46,1.09v-8.45h3.47v25.61h-2.94l-.33-1.42h-.17c-1.06,1.06-2.77,1.75-5.12,1.75-3.5,0-7.33-2.18-7.33-8.71ZM251.19,945.43v-10.66c-.69-.59-2.24-.99-3.93-.99-3.07,0-4.92,1.55-4.92,6.14v.73c0,4.69,2.01,6.11,4.95,6.11,1.85,0,3.17-.76,3.89-1.32Z"/>
      <path class="cls-3" d="M257.77,940.45v-.46c0-6.17,3.7-9.08,8.02-9.08,5.05,0,7.39,2.94,7.39,8.58v1.68h-11.85c.23,4.09,2.25,5.48,5.74,5.48,2.38,0,3.89-.56,5.54-1.32v2.44c-1.12.79-3.17,1.72-6.17,1.72-5.78,0-8.68-3.43-8.68-9.04ZM261.34,938.63h8.25c0-3.6-1.35-4.98-3.93-4.98-1.91,0-4.06.99-4.32,4.98Z"/>
      <path class="cls-3" d="M275.47,940.61v-.59c0-5.71,3.37-9.11,8.35-9.11s8.25,3.33,8.25,9.01v.5c0,5.71-3.4,9.08-8.28,9.08-5.28,0-8.32-3.3-8.32-8.88ZM288.47,940.78v-.96c0-4.72-2.11-6.14-4.72-6.14-3,0-4.72,2.08-4.72,6.01v.96c0,4.75,2.15,6.14,4.82,6.14,2.9,0,4.62-2.08,4.62-6.01Z"/>
      <path class="cls-3" d="M294.23,948.2v-2.61c1.49.56,2.81,1.12,5.35,1.12s3.7-.89,3.7-2.38c0-1.39-.69-2.05-2.84-2.54l-1.68-.46c-2.64-.63-4.49-1.91-4.49-5.08s2.05-5.35,6.4-5.35c2.44,0,3.96.53,5.02,1.06v2.67c-.96-.4-2.77-.89-4.75-.89-2.24,0-3.37.69-3.37,2.21,0,1.39.73,1.91,2.51,2.41l1.68.4c3.5.86,4.92,2.11,4.92,5.31,0,3.56-2.54,5.38-6.6,5.38-2.31,0-4.39-.4-5.84-1.25Z"/>
      <path class="cls-3" d="M318.35,944.41c0-3.2,2.11-4.79,5.58-5.25l4.52-.53v-1.55c0-2.64-1.16-3.23-4.29-3.23-1.75,0-3.23.26-4.32.5v-2.41c1.65-.66,3.47-1.02,5.68-1.02,4.06,0,6.4,1.68,6.4,5.31v12.94h-2.84l-.33-1.49h-.2c-.86,1.06-2.31,1.82-4.65,1.82-3.23,0-5.54-1.62-5.54-5.08ZM328.45,945.79v-4.75l-3.73.36c-1.91.23-2.84.99-2.84,2.87s1.16,2.67,2.94,2.67c1.49,0,2.9-.5,3.63-1.16Z"/>
      <path class="cls-3" d="M334.77,948.2v-2.61c1.49.56,2.81,1.12,5.35,1.12s3.7-.89,3.7-2.38c0-1.39-.69-2.05-2.84-2.54l-1.68-.46c-2.64-.63-4.49-1.91-4.49-5.08s2.05-5.35,6.4-5.35c2.44,0,3.96.53,5.02,1.06v2.67c-.96-.4-2.77-.89-4.75-.89-2.24,0-3.37.69-3.37,2.21,0,1.39.73,1.91,2.51,2.41l1.68.4c3.5.86,4.92,2.11,4.92,5.31,0,3.56-2.54,5.38-6.6,5.38-2.31,0-4.39-.4-5.84-1.25Z"/>
      <path class="cls-3" d="M359.02,940.78v-.46c0-6.57,3.37-9.41,7.95-9.41,2.18,0,3.6.59,4.46,1.09v-8.45h3.47v25.61h-2.94l-.33-1.42h-.17c-1.06,1.06-2.77,1.75-5.12,1.75-3.5,0-7.33-2.18-7.33-8.71ZM371.43,945.43v-10.66c-.69-.59-2.24-.99-3.93-.99-3.07,0-4.92,1.55-4.92,6.14v.73c0,4.69,2.01,6.11,4.95,6.11,1.85,0,3.17-.76,3.89-1.32Z"/>
      <path class="cls-3" d="M378.01,940.61v-.59c0-5.71,3.37-9.11,8.35-9.11s8.25,3.33,8.25,9.01v.5c0,5.71-3.4,9.08-8.28,9.08-5.28,0-8.32-3.3-8.32-8.88ZM391.02,940.78v-.96c0-4.72-2.11-6.14-4.72-6.14-3,0-4.72,2.08-4.72,6.01v.96c0,4.75,2.15,6.14,4.82,6.14,2.9,0,4.62-2.08,4.62-6.01Z"/>
      <path class="cls-3" d="M396.91,940.65v-.59c0-6.27,3.76-9.14,8.61-9.14,2.34,0,3.73.46,4.92,1.16v2.84c-1.58-.66-2.67-1.09-4.95-1.09-3.07,0-4.98,2.01-4.98,5.78v.92c0,4.29,1.82,6.14,5.35,6.14,2.28,0,3.86-.76,4.79-1.19v2.61c-1.19.79-2.84,1.42-5.31,1.42-5.15,0-8.42-2.9-8.42-8.85Z"/>
      <path class="cls-3" d="M413.23,944.28v-13h3.47v12.38c0,2.11.73,2.94,3.14,2.94,1.75,0,3.17-.59,4.39-1.15v-14.16h3.43v17.89h-2.94l-.36-1.52h-.17c-1.49,1.06-3.27,1.85-5.51,1.85-3.5,0-5.45-1.75-5.45-5.21Z"/>
      <path class="cls-3" d="M431.6,931.27h3.33v1.55h.17c1.49-1.02,3.4-1.91,5.48-1.91s3.43.66,4.22,2.01h.17c1.88-1.22,3.96-2.01,6.01-2.01,3.1,0,4.95,1.45,4.95,4.92v13.33h-3.47v-12.51c0-1.98-.76-2.77-2.97-2.77-1.29,0-2.64.43-4.09,1.16.03.3.07.56.07.92v13.2h-3.43v-12.51c0-1.98-.73-2.77-2.94-2.77-1.39,0-2.81.5-4.03,1.12v14.16h-3.46v-17.89Z"/>
      <path class="cls-3" d="M459,940.45v-.46c0-6.17,3.7-9.08,8.02-9.08,5.05,0,7.39,2.94,7.39,8.58v1.68h-11.85c.23,4.09,2.25,5.48,5.74,5.48,2.38,0,3.89-.56,5.54-1.32v2.44c-1.12.79-3.17,1.72-6.17,1.72-5.78,0-8.68-3.43-8.68-9.04ZM462.56,938.63h8.25c0-3.6-1.35-4.98-3.93-4.98-1.91,0-4.06.99-4.32,4.98Z"/>
      <path class="cls-3" d="M477.53,931.27h3.33v1.55h.17c1.49-1.06,3.8-1.91,5.97-1.91,3.5,0,5.18,1.45,5.18,4.92v13.33h-3.47v-12.51c0-1.98-.59-2.77-3.27-2.77-1.52,0-3.23.53-4.46,1.12v14.16h-3.46v-17.89Z"/>
      <path class="cls-3" d="M497.2,944.87v-10.83h-2.54v-2.77h2.54v-4.22h3.46v4.22h4.32v2.77h-4.32v10.33c0,1.62.53,2.21,2.48,2.21.73,0,1.52-.1,2.21-.23v2.31c-.76.33-1.55.69-3.2.69-2.97,0-4.95-1.22-4.95-4.49Z"/>
      <path class="cls-3" d="M507.52,948.2v-2.61c1.49.56,2.81,1.12,5.35,1.12s3.7-.89,3.7-2.38c0-1.39-.69-2.05-2.84-2.54l-1.68-.46c-2.64-.63-4.49-1.91-4.49-5.08s2.05-5.35,6.4-5.35c2.44,0,3.96.53,5.02,1.06v2.67c-.96-.4-2.77-.89-4.75-.89-2.24,0-3.37.69-3.37,2.21,0,1.39.73,1.91,2.51,2.41l1.68.4c3.5.86,4.92,2.11,4.92,5.31,0,3.56-2.54,5.38-6.6,5.38-2.31,0-4.39-.4-5.84-1.25Z"/>
      <path class="cls-3" d="M531.64,944.41c0-3.2,2.11-4.79,5.58-5.25l4.52-.53v-1.55c0-2.64-1.16-3.23-4.29-3.23-1.75,0-3.23.26-4.32.5v-2.41c1.65-.66,3.47-1.02,5.68-1.02,4.06,0,6.4,1.68,6.4,5.31v12.94h-2.84l-.33-1.49h-.2c-.86,1.06-2.31,1.82-4.65,1.82-3.23,0-5.54-1.62-5.54-5.08ZM541.74,945.79v-4.75l-3.73.36c-1.91.23-2.84.99-2.84,2.87s1.16,2.67,2.94,2.67c1.49,0,2.9-.5,3.63-1.16Z"/>
      <path class="cls-3" d="M549.06,931.27h3.33v1.55h.17c1.49-1.06,3.8-1.91,5.97-1.91,3.5,0,5.18,1.45,5.18,4.92v13.33h-3.47v-12.51c0-1.98-.59-2.77-3.27-2.77-1.52,0-3.23.53-4.46,1.12v14.16h-3.46v-17.89Z"/>
      <path class="cls-3" d="M566.85,940.78v-.46c0-6.57,3.37-9.41,7.95-9.41,2.18,0,3.6.59,4.46,1.09v-8.45h3.47v25.61h-2.94l-.33-1.42h-.17c-1.06,1.06-2.77,1.75-5.12,1.75-3.5,0-7.33-2.18-7.33-8.71ZM579.26,945.43v-10.66c-.69-.59-2.24-.99-3.93-.99-3.07,0-4.92,1.55-4.92,6.14v.73c0,4.69,2.01,6.11,4.95,6.11,1.85,0,3.17-.76,3.89-1.32Z"/>
      <path class="cls-3" d="M596.55,931.27h3.33v1.55h.17c1.49-1.02,3.4-1.91,5.48-1.91s3.43.66,4.22,2.01h.17c1.88-1.22,3.96-2.01,6.01-2.01,3.1,0,4.95,1.45,4.95,4.92v13.33h-3.47v-12.51c0-1.98-.76-2.77-2.97-2.77-1.29,0-2.64.43-4.09,1.16.03.3.07.56.07.92v13.2h-3.43v-12.51c0-1.98-.73-2.77-2.94-2.77-1.39,0-2.81.5-4.03,1.12v14.16h-3.46v-17.89Z"/>
      <path class="cls-3" d="M624.78,924.57h3.53v3.37h-3.53v-3.37ZM624.81,931.27h3.47v17.89h-3.47v-17.89Z"/>
      <path class="cls-3" d="M630.7,950.51c0-1.88,1.52-3.07,3.33-3.7v-.17c-1.02-.36-1.82-.79-1.82-1.98,0-1.25.66-2.31,2.05-3.3-1.32-.89-2.25-2.31-2.25-4.32v-.33c0-3.73,2.91-5.81,6.96-5.81.99,0,1.85.1,2.71.3h6.07v2.48h-2.87c.63.73.96,1.68.96,2.9v.33c0,3.76-3,5.54-6.9,5.54-1.02,0-2.01-.1-2.9-.36-.4.36-.69.83-.69,1.29,0,.92.5.99,1.65.99h4.92c3.37,0,5.74,1.19,5.74,4.65s-2.57,5.35-8.78,5.35c-5.51,0-8.18-1.19-8.18-3.86ZM644.06,949.56c0-1.49-.83-2.08-2.94-2.08h-4.82c-1.19.4-2.08,1.19-2.08,2.54,0,1.42,1.32,1.78,4.59,1.78,3.89,0,5.25-.53,5.25-2.24ZM642.45,937.05v-.5c0-2.24-1.35-3.17-3.5-3.17s-3.5,1.09-3.5,3.1v.5c0,2.11,1.39,3.1,3.5,3.1,2.24,0,3.5-.99,3.5-3.04Z"/>
      <path class="cls-3" d="M650.19,923.55h3.46v9.21h.17c1.45-1.02,3.66-1.85,5.84-1.85,3.5,0,5.18,1.45,5.18,4.92v13.33h-3.47v-12.51c0-1.98-.59-2.77-3.27-2.77-1.52,0-3.23.53-4.46,1.12v14.16h-3.46v-25.61Z"/>
      <path class="cls-3" d="M669.85,944.87v-10.83h-2.54v-2.77h2.54v-4.22h3.46v4.22h4.32v2.77h-4.32v10.33c0,1.62.53,2.21,2.48,2.21.73,0,1.52-.1,2.21-.23v2.31c-.76.33-1.55.69-3.2.69-2.97,0-4.95-1.22-4.95-4.49Z"/>
      <path class="cls-3" d="M690.51,944.28v-13h3.47v12.38c0,2.11.73,2.94,3.14,2.94,1.75,0,3.17-.59,4.39-1.15v-14.16h3.43v17.89h-2.94l-.36-1.52h-.17c-1.49,1.06-3.27,1.85-5.51,1.85-3.5,0-5.45-1.75-5.45-5.21Z"/>
      <path class="cls-3" d="M708.88,931.27h3.33v1.45h.17c1.09-1.02,2.94-1.82,5.12-1.82,3.89,0,7.29,2.15,7.29,8.75v.5c0,6.63-3.17,9.14-8.09,9.14-1.98,0-3.43-.53-4.36-1.06v6.21h-3.46v-23.17ZM721.19,940.61v-.73c0-4.69-1.68-6.07-4.72-6.07-1.88,0-3.4.63-4.13,1.19v10.46c.73.56,2.25,1.12,3.96,1.12,3.07,0,4.88-1.42,4.88-5.97Z"/>
      <path class="cls-3" d="M728.06,923.55h3.47v25.61h-3.47v-25.61Z"/>
      <path class="cls-3" d="M734.71,940.61v-.59c0-5.71,3.37-9.11,8.35-9.11s8.25,3.33,8.25,9.01v.5c0,5.71-3.4,9.08-8.28,9.08-5.28,0-8.32-3.3-8.32-8.88ZM747.71,940.78v-.96c0-4.72-2.11-6.14-4.72-6.14-3,0-4.72,2.08-4.72,6.01v.96c0,4.75,2.15,6.14,4.82,6.14,2.9,0,4.62-2.08,4.62-6.01Z"/>
      <path class="cls-3" d="M753.46,944.41c0-3.2,2.11-4.79,5.58-5.25l4.52-.53v-1.55c0-2.64-1.16-3.23-4.29-3.23-1.75,0-3.23.26-4.32.5v-2.41c1.65-.66,3.47-1.02,5.68-1.02,4.06,0,6.4,1.68,6.4,5.31v12.94h-2.84l-.33-1.49h-.2c-.86,1.06-2.31,1.82-4.65,1.82-3.23,0-5.54-1.62-5.54-5.08ZM763.56,945.79v-4.75l-3.73.36c-1.91.23-2.84.99-2.84,2.87s1.16,2.67,2.94,2.67c1.49,0,2.9-.5,3.63-1.16Z"/>
      <path class="cls-3" d="M770.1,940.78v-.46c0-6.57,3.37-9.41,7.95-9.41,2.18,0,3.6.59,4.46,1.09v-8.45h3.47v25.61h-2.94l-.33-1.42h-.17c-1.06,1.06-2.77,1.75-5.12,1.75-3.5,0-7.33-2.18-7.33-8.71ZM782.51,945.43v-10.66c-.69-.59-2.24-.99-3.93-.99-3.07,0-4.92,1.55-4.92,6.14v.73c0,4.69,2.01,6.11,4.95,6.11,1.85,0,3.17-.76,3.89-1.32Z"/>
      <path class="cls-3" d="M800.79,944.87v-10.83h-2.54v-2.77h2.54v-4.22h3.46v4.22h4.32v2.77h-4.32v10.33c0,1.62.53,2.21,2.48,2.21.73,0,1.52-.1,2.21-.23v2.31c-.76.33-1.55.69-3.2.69-2.97,0-4.95-1.22-4.95-4.49Z"/>
      <path class="cls-3" d="M811.63,923.55h3.46v9.21h.17c1.45-1.02,3.66-1.85,5.84-1.85,3.5,0,5.18,1.45,5.18,4.92v13.33h-3.47v-12.51c0-1.98-.59-2.77-3.27-2.77-1.52,0-3.23.53-4.46,1.12v14.16h-3.46v-25.61Z"/>
      <path class="cls-3" d="M829.33,940.45v-.46c0-6.17,3.7-9.08,8.02-9.08,5.05,0,7.39,2.94,7.39,8.58v1.68h-11.85c.23,4.09,2.25,5.48,5.74,5.48,2.38,0,3.89-.56,5.54-1.32v2.44c-1.12.79-3.17,1.72-6.17,1.72-5.78,0-8.68-3.43-8.68-9.04ZM832.89,938.63h8.25c0-3.6-1.35-4.98-3.93-4.98-1.91,0-4.06.99-4.32,4.98Z"/>
      <path class="cls-3" d="M847.86,931.27h3.33v1.55h.17c1.49-1.02,3.4-1.91,5.48-1.91s3.43.66,4.22,2.01h.17c1.88-1.22,3.96-2.01,6.01-2.01,3.1,0,4.95,1.45,4.95,4.92v13.33h-3.47v-12.51c0-1.98-.76-2.77-2.97-2.77-1.29,0-2.64.43-4.09,1.16.03.3.07.56.07.92v13.2h-3.43v-12.51c0-1.98-.73-2.77-2.94-2.77-1.39,0-2.81.5-4.03,1.12v14.16h-3.46v-17.89Z"/>
      <path class="cls-3" d="M83.04,984.61v-.59c0-5.71,3.37-9.11,8.35-9.11s8.25,3.33,8.25,9.01v.5c0,5.71-3.4,9.08-8.28,9.08-5.28,0-8.32-3.3-8.32-8.88ZM96.04,984.78v-.96c0-4.72-2.11-6.14-4.72-6.14-3,0-4.72,2.08-4.72,6.01v.96c0,4.75,2.15,6.14,4.82,6.14,2.9,0,4.62-2.08,4.62-6.01Z"/>
      <path class="cls-3" d="M102.77,975.27h3.33v1.55h.17c1.49-1.06,3.8-1.91,5.97-1.91,3.5,0,5.18,1.45,5.18,4.92v13.33h-3.47v-12.51c0-1.98-.59-2.77-3.27-2.77-1.52,0-3.23.53-4.46,1.12v14.16h-3.46v-17.89Z"/>
      <path class="cls-3" d="M130.1,992.2v-2.61c1.49.56,2.81,1.12,5.35,1.12s3.7-.89,3.7-2.38c0-1.39-.69-2.05-2.84-2.54l-1.68-.46c-2.64-.63-4.49-1.91-4.49-5.08s2.05-5.35,6.4-5.35c2.44,0,3.96.53,5.02,1.06v2.67c-.96-.4-2.77-.89-4.75-.89-2.24,0-3.37.69-3.37,2.21,0,1.39.73,1.91,2.51,2.41l1.68.4c3.5.86,4.92,2.11,4.92,5.31,0,3.56-2.54,5.38-6.6,5.38-2.31,0-4.39-.4-5.84-1.25Z"/>
      <path class="cls-3" d="M144.72,984.61v-.59c0-5.71,3.37-9.11,8.35-9.11s8.25,3.33,8.25,9.01v.5c0,5.71-3.4,9.08-8.28,9.08-5.28,0-8.32-3.3-8.32-8.88ZM157.72,984.78v-.96c0-4.72-2.11-6.14-4.72-6.14-3,0-4.72,2.08-4.72,6.01v.96c0,4.75,2.15,6.14,4.82,6.14,2.9,0,4.62-2.08,4.62-6.01Z"/>
      <path class="cls-3" d="M163.62,984.65v-.59c0-6.27,3.76-9.14,8.61-9.14,2.34,0,3.73.46,4.92,1.16v2.84c-1.58-.66-2.67-1.09-4.95-1.09-3.07,0-4.98,2.01-4.98,5.78v.92c0,4.29,1.82,6.14,5.35,6.14,2.28,0,3.86-.76,4.79-1.19v2.61c-1.19.79-2.84,1.42-5.31,1.42-5.15,0-8.42-2.9-8.42-8.85Z"/>
      <path class="cls-3" d="M180.01,968.57h3.53v3.37h-3.53v-3.37ZM180.04,975.27h3.47v17.89h-3.47v-17.89Z"/>
      <path class="cls-3" d="M186.33,988.41c0-3.2,2.11-4.79,5.58-5.25l4.52-.53v-1.55c0-2.64-1.16-3.23-4.29-3.23-1.75,0-3.23.26-4.32.5v-2.41c1.65-.66,3.47-1.02,5.68-1.02,4.06,0,6.4,1.68,6.4,5.31v12.94h-2.84l-.33-1.49h-.2c-.86,1.06-2.31,1.82-4.65,1.82-3.23,0-5.54-1.62-5.54-5.08ZM196.43,989.79v-4.75l-3.73.36c-1.91.23-2.84.99-2.84,2.87s1.16,2.67,2.94,2.67c1.49,0,2.9-.5,3.63-1.16Z"/>
      <path class="cls-3" d="M203.8,967.55h3.47v25.61h-3.47v-25.61Z"/>
      <path class="cls-3" d="M210.3,992.2v-2.61c1.49.56,2.81,1.12,5.35,1.12s3.7-.89,3.7-2.38c0-1.39-.69-2.05-2.84-2.54l-1.68-.46c-2.64-.63-4.49-1.91-4.49-5.08s2.05-5.35,6.4-5.35c2.44,0,3.96.53,5.02,1.06v2.67c-.96-.4-2.77-.89-4.75-.89-2.24,0-3.37.69-3.37,2.21,0,1.39.73,1.91,2.51,2.41l1.68.4c3.5.86,4.92,2.11,4.92,5.31,0,3.56-2.54,5.38-6.6,5.38-2.31,0-4.39-.4-5.84-1.25Z"/>
      <path class="cls-3" d="M226.09,989.76h3.86v3.8h-3.86v-3.8Z"/>
    </g>
    <line class="cls-5" x1="79.45" y1="140" x2="1044.89" y2="140"/>
  </g>
</svg>