<?xml version="1.0" encoding="UTF-8"?>
<svg xmlns="http://www.w3.org/2000/svg" viewBox="0 0 968 1229.64">
  <defs>
    <style>
      .cls-1 {
        fill: #727272;
      }

      .cls-2 {
        fill: none;
        stroke: #fff;
        stroke-miterlimit: 10;
      }

      .cls-3 {
        fill: #fff;
      }

      .cls-4 {
        fill: #fcffff;
      }
    </style>
  </defs>
  <g id="_레이어_2" data-name="레이어_2">
    <rect width="968" height="1229.64"/>
  </g>
  <g id="_레이어_1" data-name="레이어_1">
    <g>
      <path class="cls-3" d="M3.08,241.21h17.47v3.57h-6.3c.35,4.66,3.68,7.77,7.32,8.96l-2.38,3.43c-2.56-.98-5.74-3.46-7.18-6.54-1.01,3.25-4.52,6.33-7.7,7.46l-2.59-3.39c4.62-1.68,7.74-5.22,7.98-9.91H3.08v-3.57ZM17.43,272.05c-7.32,0-11.55-2.56-11.55-6.65s4.24-6.69,11.55-6.69,11.59,2.55,11.59,6.69-4.24,6.65-11.59,6.65ZM10.29,265.4c0,2,2.62,3.18,7.14,3.18s7.21-1.19,7.21-3.18-2.59-3.19-7.21-3.19-7.14,1.16-7.14,3.19ZM28.56,250.42v7.88h-4.38v-19.39h4.38v7.95h4.73v3.57h-4.73Z"/>
      <path class="cls-3" d="M33.77,267.95v-3.43h12.71v-7.88h4.38v7.88h12.88v3.43h-29.96ZM60.83,257.03c-4.52-1.01-10.19-4.48-12.08-8.86-1.71,4.48-7.53,7.88-12.08,8.86l-2-3.54c5.43-.77,11.83-4.94,11.83-10.85v-2.03h4.55v2.03c0,5.85,6.79,10.15,11.83,10.99l-2.07,3.4Z"/>
    </g>
    <g>
      <path class="cls-3" d="M12.42,61.23c5.04,0,8.75,3.22,8.75,7.7s-3.71,7.42-8.75,7.42-8.82-2.87-8.82-7.42,3.71-7.7,8.82-7.7ZM12.42,72.75c2.7,0,4.41-1.79,4.41-3.85,0-2.28-1.65-4.1-4.41-4.1-2.45,0-4.52,1.86-4.52,4.1s1.93,3.85,4.52,3.85ZM8.26,93.05v-8.93h17.43v-2.28H8.05v-3.43h21.98v8.86H12.6v2.28h18.48v3.5H8.26ZM25.69,76.74v-16.63h4.34v16.63h-4.34Z"/>
      <path class="cls-3" d="M51.81,85.77c-2.73-1.68-6.2-5.71-7.32-9.14-1.08,3.78-4.48,7.98-7.91,9.84l-2.66-3.18c5.36-3.47,8.23-8.72,8.23-15.3v-5.08h4.51v4.83c0,6.58,2.66,11.52,7.67,14.77l-2.52,3.25ZM56.82,93.3v-33.18h4.38v33.18h-4.38Z"/>
    </g>
    <g>
      <path class="cls-1" d="M171.42,330.28h2.62v2.72h-2.62v-2.72Z"/>
      <path class="cls-1" d="M197.5,338.15c-2.12-1.42-4.82-4.37-5.75-7.17-.82,2.9-3.1,5.77-5.8,7.7l-1.32-1.5c3.37-2.12,6.07-6.25,6.07-10.37v-4.3h2.08v4.22c0,4.25,2.77,8.02,5.97,9.9l-1.25,1.52ZM201.87,343.73v-13.25h-5.42v-1.7h5.42v-8.3h2.02v23.24h-2.02Z"/>
      <path class="cls-1" d="M209.47,343.5v-5.47h14v-2.02h-14.05v-1.62h7.05v-2.35h-9.45v-1.7h20.99v1.7h-9.52v2.35h7v5.17h-14v2.3h14.75v1.65h-16.77ZM217.55,328.93c-5.1,0-8.25-1.5-8.25-4.07s3.15-4.07,8.25-4.07,8.27,1.5,8.27,4.07-3.12,4.07-8.27,4.07ZM211.4,324.86c0,1.47,2.42,2.38,6.15,2.38s6.2-.9,6.2-2.38-2.45-2.4-6.2-2.4-6.15.92-6.15,2.4Z"/>
      <path class="cls-1" d="M237.75,337.88v-15h10.87v15h-10.87ZM246.6,324.56h-6.82v11.65h6.82v-11.65ZM254.9,331.53v12.2h-2.02v-23.24h2.02v9.35h3.8v1.7h-3.8Z"/>
      <path class="cls-1" d="M270.74,334.03v5.02h9.52v1.7h-21v-1.7h9.45v-5.02h-7.57v-1.7h3.8l-.65-6.22,2.1-.27.47,6.5h5.7l.82-6.47,2,.33-.92,6.15h3.8v1.7h-7.52ZM261.11,324.58v-1.7h17.17v1.7h-17.17Z"/>
      <path class="cls-1" d="M299.67,322.21c0,3.15-.08,6.7-.85,10.3h3.6v1.7h-9.5v9.52h-2.02v-9.52h-9.47v-1.7h15.37c.65-2.5.77-6.35.77-8.62h-13.67v-1.67h15.77Z"/>
      <path class="cls-1" d="M315.93,329.28v3.55h14.17v1.7h-7.2v4.52h9.52v1.7h-20.99v-1.7h9.45v-4.52h-6.97v-12.07h15.95v1.7h-13.92v3.42h13.22v1.7h-13.22Z"/>
      <path class="cls-1" d="M334.1,322.41h12.57v1.7h-5.22c0,.47,0,1,.03,1.27.17,3.15,3.15,5.67,6,6.52l-1.2,1.62c-2.42-.95-4.92-3.12-5.87-5.22-.62,2.17-3.42,4.97-5.92,6.05l-1.1-1.62c2.92-1.12,5.87-4.07,6-7.37.02-.25.02-.8.02-1.25h-5.3v-1.7ZM344.85,343.73c-4.97,0-7.77-1.7-7.77-4.42s2.8-4.45,7.77-4.45,7.8,1.7,7.8,4.45-2.8,4.42-7.8,4.42ZM339.12,339.3c0,1.72,2.15,2.72,5.72,2.72s5.75-1,5.75-2.72-2.12-2.75-5.75-2.75-5.72,1-5.72,2.75ZM345.77,328.21v-1.7h4.67v-6.02h2.02v14.42h-2.02v-6.7h-4.67Z"/>
      <path class="cls-1" d="M355.73,340.75v-1.7h9.45v-3.95h-6.85v-7.27h13.77v-3.72h-13.8v-1.7h15.82v7.1h-13.77v3.9h14.42v1.7h-7.57v3.95h9.52v1.7h-21Z"/>
      <path class="cls-1" d="M391.04,330.58v1.28c0,6.42-2.82,9.2-6.9,9.2-1.92,0-3.85-.62-4.65-1.15l.55-1.7c.9.52,2.47,1.02,3.95,1.02,3,0,4.9-2.15,4.9-6.77-.67.67-2.17,1.9-4.35,1.9-3.3,0-5.67-1.9-5.67-5.67,0-3.3,2.02-6.07,5.82-6.07,4.72,0,6.35,4.02,6.35,7.97ZM381.02,328.56c0,2.02.95,4.02,3.8,4.02,1.65,0,3.15-1.02,4.07-2.25v-.35c0-3.12-1.4-5.62-4.22-5.62-1.6,0-3.65.85-3.65,4.2Z"/>
      <path class="cls-1" d="M405.45,321.76c-.6,6.15-5.02,9.62-10.67,11.32l-1.05-1.67c5.1-1.3,8.57-4.27,9.4-7.95h-8.2v-1.7h10.52ZM397.38,343.55v-5.77h13v-2.42h-13.07v-1.65h15.1v5.62h-13v2.55h13.85v1.67h-15.87ZM410.4,332.26v-11.77h2.02v11.77h-2.02Z"/>
      <path class="cls-1" d="M424.43,339.48l4.25-4.4c3-3.05,4.22-4.6,4.22-7.2,0-2.4-1.28-3.45-3.6-3.45-1.52,0-2.95.7-4.05,1.47l-.6-1.67c1.3-.85,3.02-1.62,5.05-1.62,3.62,0,5.42,2.17,5.42,5.07,0,3.15-1.9,5.37-4.72,8.22l-3,3.02h8.17v1.8h-11.15v-1.25Z"/>
      <path class="cls-1" d="M171.42,375.28h2.62v2.72h-2.62v-2.72Z"/>
      <path class="cls-1" d="M194.27,388.73v-8.32h-9.45v-1.7h21v1.7h-9.52v8.32h-2.02ZM203.87,376.53c-3.8-.65-7.5-3-8.55-5.17-.95,2.17-4.55,4.57-8.52,5.22l-.92-1.7c3.8-.4,8.3-2.82,8.4-6.07h-7.52v-1.67h17.12v1.67h-7.47c.1,3.27,4.87,5.62,8.42,6.02l-.95,1.7Z"/>
      <path class="cls-1" d="M219.71,383.85c-2.35-1.12-4.97-3.8-5.8-6.22-.67,2.47-3.42,5.52-5.9,6.85l-1.2-1.5c2.88-1.4,6.02-4.97,6.02-9.27v-.83h-5.35v-1.67h12.8v1.67h-5.37v.8c0,4.25,3.27,7.6,5.97,8.62l-1.17,1.55ZM210.36,368.66v-1.72h7.02v1.72h-7.02ZM225.03,376.86v11.87h-2.02v-23.24h2.02v9.65h3.75v1.72h-3.75Z"/>
      <path class="cls-1" d="M230.56,379.18v-1.7h21v1.7h-21ZM233.31,388.2v-6.85h2.02v5.17h13.97v1.67h-16ZM233.39,374.58v-8.12h2.02v6.45h13.8v1.67h-15.82Z"/>
      <path class="cls-1" d="M263.09,388.33v-5.2h13.85v-1.85h-13.92v-1.65h7v-2.2h-9.45v-1.65h21v1.65h-9.52v2.2h6.92v5.07h-13.85v1.95h14.72v1.67h-16.75ZM263.24,374.08v-8h2.02v2.42h11.65v-2.42h2.02v8h-15.7ZM276.91,370.13h-11.65v2.32h11.65v-2.32Z"/>
      <path class="cls-1" d="M294.2,367.98c-.12,7.55-4.5,13-10.47,16.1l-1.25-1.57c5.8-2.7,9.12-7.6,9.55-12.82h-8.75v-1.7h10.92ZM300.23,375.16h3.8v1.72h-3.8v11.85h-2.02v-23.24h2.02v9.67Z"/>
      <path class="cls-1" d="M305.9,378.01v-1.67h21v1.67h-21ZM316.45,388.58c-5.07,0-8.15-1.52-8.15-4.32s3.07-4.32,8.12-4.32,8.17,1.55,8.17,4.32-3.1,4.32-8.15,4.32ZM308.82,373.81v-7.72h2.02v6.05h13.62v1.67h-15.65ZM310.35,384.25c0,1.8,2.42,2.65,6.07,2.65s6.12-.85,6.12-2.65-2.42-2.65-6.12-2.65-6.07.85-6.07,2.65Z"/>
      <path class="cls-1" d="M328.32,370.76v-1.65h13.55v1.65h-13.55ZM335.09,379.23c-3.15,0-5.4-1.47-5.4-3.75s2.2-3.77,5.4-3.77,5.4,1.42,5.4,3.77-2.25,3.75-5.4,3.75ZM331.67,388.55v-8.45h2.02v2.47h10.57v-2.5h2.02v8.47h-14.62ZM335.09,373.33c-1.8,0-3.4.77-3.4,2.15s1.62,2.15,3.4,2.15,3.37-.82,3.37-2.15-1.55-2.15-3.37-2.15ZM331.74,367.51v-1.7h6.7v1.7h-6.7ZM344.27,384.25h-10.57v2.6h10.57v-2.6ZM346.29,373.76v5.2h-2.02v-13.47h2.02v6.57h3.55v1.7h-3.55Z"/>
      <path class="cls-1" d="M365.83,381.93c-2.7.62-8.75,1.08-12.32,1.08h-1.03v-15.1h2.02v13.32c3,0,8.35-.42,11.12-1.05l.2,1.75ZM370,388.73h-2v-23.24h2v23.24Z"/>
      <path class="cls-1" d="M377.43,381.3c3,0,7.6-.27,9.82-.75l.23,1.67c-2.5.48-7.1.8-11.15.8h-2.27v-15.12h11.02v1.7h-9v11.7h1.35ZM391.05,374.71h3.77v1.7h-3.77v12.32h-2v-23.24h2v9.22Z"/>
      <path class="cls-1" d="M394.94,384.03h2.3v2.38h-2.3v-2.38Z"/>
    </g>
    <g>
      <path class="cls-1" d="M171.42,153.02h2.62v2.72h-2.62v-2.72Z"/>
      <path class="cls-1" d="M186.32,161.67h4.7v-13.85l-4.92,1.62v-1.7l5.82-2.27h1.17v16.2h4.2v1.8h-10.97v-1.8Z"/>
      <path class="cls-1" d="M207.93,159.67h-8.9v-1.47l9.35-12.62h1.55v12.37h3v1.72h-3v3.8h-2v-3.8ZM207.95,157.95v-8.92l-6.6,8.92h6.6Z"/>
      <path class="cls-1" d="M215.84,149.67h2.3v2.4h-2.3v-2.4ZM215.84,159.45h2.3v2.4h-2.3v-2.4Z"/>
      <path class="cls-1" d="M221.36,155.07v-1c0-5.65,2.07-8.72,6.1-8.72s6.07,3.05,6.07,8.7v1.02c0,5.67-2.05,8.72-6.07,8.72s-6.1-3.05-6.1-8.72ZM231.28,155.05v-.92c0-4.8-1.08-7.02-3.82-7.02s-3.85,2.2-3.85,7v.9c0,4.77,1.07,7.05,3.85,7.05s3.82-2.22,3.82-7Z"/>
      <path class="cls-1" d="M236.54,155.07v-1c0-5.65,2.07-8.72,6.1-8.72s6.07,3.05,6.07,8.7v1.02c0,5.67-2.05,8.72-6.07,8.72s-6.1-3.05-6.1-8.72ZM246.47,155.05v-.92c0-4.8-1.08-7.02-3.82-7.02s-3.85,2.2-3.85,7v.9c0,4.77,1.07,7.05,3.85,7.05s3.82-2.22,3.82-7Z"/>
      <path class="cls-1" d="M259.07,145.28h12.5v1.7h-5.2c0,1.05,0,1.55.03,1.87.17,2.97,3.05,5.65,5.7,6.52l-1.12,1.62c-2.22-.9-4.7-3.12-5.65-5.22-.62,2.17-3.32,4.7-5.82,5.77l-1.17-1.58c2.92-1.12,5.85-4.07,5.97-7.15.02-.3.02-.83.02-1.85h-5.25v-1.7ZM262.24,165.7v-7.15h2.02v5.45h13.62v1.7h-15.65ZM275.36,160.25v-8.87h-4.62v-1.7h4.62v-6.45h2.02v17.02h-2.02Z"/>
      <path class="cls-1" d="M293.49,160.87c-2.1-1.42-4.82-4.3-5.72-7.1-.85,2.9-3.25,5.75-5.95,7.67l-1.32-1.52c3.4-2.12,6.2-6.35,6.2-10.47v-4.2h2.05v4.12c0,4.25,2.82,8.05,6.02,9.95l-1.27,1.55ZM297.74,166.47v-23.24h2.03v23.24h-2.03Z"/>
      <path class="cls-1" d="M322.09,157.05v4.65h9.52v1.7h-21v-1.7h9.45v-4.65c-4.45-.33-7.35-2.62-7.35-6.07,0-3.67,3.35-6.1,8.37-6.1s8.4,2.42,8.4,6.1c0,3.45-2.92,5.77-7.4,6.07ZM321.09,146.57c-3.87,0-6.4,1.77-6.4,4.45s2.52,4.42,6.4,4.42,6.45-1.77,6.45-4.42-2.52-4.45-6.45-4.45Z"/>
      <path class="cls-1" d="M332.47,157.5v-1.7h20.99v1.7h-20.99ZM334.52,146.37v-1.67h16.77v1.67h-16.77ZM334.69,153.55v-1.67h3.52l-.6-4.37,2.1-.25.45,4.62h5.5l.53-4.65,2.1.22-.7,4.42h3.52v1.67h-16.42ZM335.09,165.75v-6.25h2.02v4.55h14.05v1.7h-16.07Z"/>
      <path class="cls-1" d="M364.34,144.08h1.75v22.12h-1.75v-22.12Z"/>
      <path class="cls-1" d="M378.46,161.67h4.7v-13.85l-4.92,1.62v-1.7l5.82-2.27h1.17v16.2h4.2v1.8h-10.97v-1.8Z"/>
      <path class="cls-1" d="M391.77,155.67v-1.17c0-6.32,3.27-9.15,6.9-9.15,1.72,0,3.55.45,4.6,1.08l-.53,1.7c-.77-.45-2.42-.97-3.85-.97-2.67,0-4.8,1.77-4.95,6.95,1.15-1.12,2.65-1.8,4.47-1.8,3.3,0,5.55,1.97,5.55,5.5,0,2.82-1.87,6-6.05,6-4.8,0-6.15-4.57-6.15-8.12ZM401.81,158.05c0-2.45-.95-3.97-3.75-3.97-1.67,0-3.22.97-4.12,2.15v.25c0,2.47.95,5.57,4.07,5.57,2.17,0,3.8-1.5,3.8-4Z"/>
      <path class="cls-1" d="M406.67,155.07v-1c0-5.65,2.07-8.72,6.1-8.72s6.07,3.05,6.07,8.7v1.02c0,5.67-2.05,8.72-6.07,8.72s-6.1-3.05-6.1-8.72ZM416.6,155.05v-.92c0-4.8-1.08-7.02-3.82-7.02s-3.85,2.2-3.85,7v.9c0,4.77,1.07,7.05,3.85,7.05s3.82-2.22,3.82-7Z"/>
      <path class="cls-1" d="M421.86,155.07v-1c0-5.65,2.07-8.72,6.1-8.72s6.07,3.05,6.07,8.7v1.02c0,5.67-2.05,8.72-6.07,8.72s-6.1-3.05-6.1-8.72ZM431.78,155.05v-.92c0-4.8-1.08-7.02-3.82-7.02s-3.85,2.2-3.85,7v.9c0,4.77,1.07,7.05,3.85,7.05s3.82-2.22,3.82-7Z"/>
      <path class="cls-1" d="M443.71,155.97v-1.67h8.65v-4.9h2.02v4.9h10.32v1.67h-20.99ZM454.16,166.24c-5.42,0-8.37-1.57-8.37-4.17s2.95-4.2,8.37-4.2,8.35,1.6,8.35,4.2-2.9,4.17-8.35,4.17ZM462.23,146.57c0,1.95-.3,4.75-.67,6.2l-1.97-.27c.35-1.27.52-3.37.55-4.45l.02-1.87h-14.12v-1.67h16.2v2.07ZM454.16,159.52c-3.92,0-6.35.95-6.35,2.55s2.42,2.55,6.35,2.55,6.35-.92,6.35-2.55-2.45-2.55-6.35-2.55Z"/>
      <path class="cls-1" d="M478.51,150.6c0,3.47-2.62,5.77-6.02,5.77s-6.05-2.27-6.05-5.75,2.62-5.82,6.02-5.82,6.05,2.35,6.05,5.8ZM468.42,150.6c0,2.35,1.77,4,4.07,4s4.05-1.65,4.05-3.97-1.65-4.05-4.07-4.05c-2.3,0-4.05,1.67-4.05,4.02ZM470.27,165.7v-7.07h2.02v5.4h13.5v1.67h-15.52ZM479.04,148.2v-1.67h4.22v-3.3h2.02v16.87h-2.02v-5.95h-4.22v-1.67h4.22v-4.27h-4.22Z"/>
      <path class="cls-1" d="M509.16,160.87c-2.1-1.42-4.82-4.3-5.72-7.1-.85,2.9-3.25,5.75-5.95,7.67l-1.32-1.52c3.4-2.12,6.2-6.35,6.2-10.47v-4.2h2.05v4.12c0,4.25,2.82,8.05,6.02,9.95l-1.27,1.55ZM513.41,166.47v-23.24h2.03v23.24h-2.03Z"/>
      <path class="cls-1" d="M518.95,144.9h12.67v1.7h-5.27c0,.57,0,1.02.03,1.27.17,2.97,2.95,5.52,5.6,6.4l-1.12,1.62c-2.22-.9-4.6-3-5.55-5.1-.62,2.17-3.35,4.67-5.85,5.75l-1.17-1.57c2.92-1.12,5.87-4.05,6-7.12,0-.22.02-.67.02-1.25h-5.35v-1.7ZM536.67,158.25v8.25h-2.02v-6.57h-12.97v-1.67h15ZM536.65,151.2v5.82h-2.02v-13.8h2.02v6.27h3.55v1.7h-3.55Z"/>
      <path class="cls-1" d="M550.67,144.08h1.75v22.12h-1.75v-22.12Z"/>
      <path class="cls-1" d="M564.3,162.22l4.25-4.4c3-3.05,4.22-4.6,4.22-7.2,0-2.4-1.27-3.45-3.6-3.45-1.52,0-2.95.7-4.05,1.47l-.6-1.67c1.3-.85,3.02-1.62,5.05-1.62,3.62,0,5.42,2.17,5.42,5.07,0,3.15-1.9,5.37-4.72,8.22l-3,3.02h8.17v1.8h-11.15v-1.25Z"/>
      <path class="cls-1" d="M579,161.67h4.7v-13.85l-4.92,1.62v-1.7l5.82-2.27h1.17v16.2h4.2v1.8h-10.97v-1.8Z"/>
      <path class="cls-1" d="M593.44,149.67h2.3v2.4h-2.3v-2.4ZM593.44,159.45h2.3v2.4h-2.3v-2.4Z"/>
      <path class="cls-1" d="M598.92,162.65l.58-1.7c1.02.62,2.87,1.02,4.17,1.02,2.95,0,4.8-1.3,4.8-3.52s-1.88-3.35-4.7-3.35h-1.77v-1.8h1.62c2.47,0,4.2-1.12,4.2-3.22s-1.72-2.92-3.9-2.92c-1.42,0-2.75.42-3.87,1.07l-.58-1.62c1.2-.75,2.95-1.25,4.85-1.25,3.55,0,5.67,1.62,5.67,4.42,0,2.2-1.22,3.75-3.42,4.27v.02c2.32.33,4.12,1.62,4.12,4.37,0,3.12-2.17,5.35-6.72,5.35-2.07,0-3.95-.47-5.05-1.15Z"/>
      <path class="cls-1" d="M613.58,155.07v-1c0-5.65,2.07-8.72,6.1-8.72s6.07,3.05,6.07,8.7v1.02c0,5.67-2.05,8.72-6.07,8.72s-6.1-3.05-6.1-8.72ZM623.5,155.05v-.92c0-4.8-1.08-7.02-3.82-7.02s-3.85,2.2-3.85,7v.9c0,4.77,1.07,7.05,3.85,7.05s3.82-2.22,3.82-7Z"/>
      <path class="cls-1" d="M642.2,144.98c3.85,0,6,3.3,6,8.22s-2.15,8.2-6,8.2-6-3.27-6-8.22,2.17-8.2,6-8.2ZM642.2,146.73c-2.45,0-4.07,2.65-4.07,6.47s1.62,6.45,4.07,6.45,4.07-2.65,4.07-6.45-1.6-6.47-4.07-6.47ZM652.53,166.47v-23.24h2.02v23.24h-2.02Z"/>
      <path class="cls-1" d="M658.36,156.02v-11.07h1.97v3.77h5.15v-3.77h1.97v4.62h3.07v-5.87h1.95v16.22h-1.95v-8.67h-3.07v4.77h-9.1ZM665.48,150.4h-5.15v3.95h5.15v-3.95ZM661.63,165.72v-7.2h2.02v5.5h13.85v1.7h-15.87ZM674.88,160.55v-17.32h2v17.32h-2Z"/>
      <path class="cls-1" d="M679.29,163.5v-1.7h20.99v1.7h-20.99ZM683.89,152.22v3.62h13.9v1.7h-15.92v-12.1h15.67v1.7h-13.65v3.37h13.2v1.7h-13.2Z"/>
      <path class="cls-1" d="M709.29,156.55v-1.7h9.47v-3.52h2.02v3.52h9.5v1.7h-20.99ZM728.31,152.67c-3.87-.62-7.37-2.67-8.52-4.8-.92,2.15-4.37,4.22-8.47,4.82l-.92-1.7c3.6-.33,7.55-2.17,8.25-4.9h-7.42v-1.67h17.15v1.67h-7.4c.75,2.75,5.05,4.57,8.27,4.87l-.92,1.7ZM719.79,166.4c-5.2,0-8.12-1.47-8.12-4s2.92-3.97,8.12-3.97,8.15,1.4,8.15,3.97-2.95,4-8.15,4ZM713.71,162.4c0,1.55,2.32,2.37,6.07,2.37s6.1-.82,6.1-2.37-2.32-2.35-6.1-2.35-6.07.85-6.07,2.35Z"/>
      <path class="cls-1" d="M746.54,157.3v4.5h5.72v1.7h-21v-1.7h5.87v-4.5h-3.3v-7.07h13.77v-3.57h-13.7v-1.7h15.72v6.95h-13.77v3.7h14.42v1.7h-3.75ZM739.15,161.8h5.4v-4.5h-5.4v4.5Z"/>
    </g>
    <g>
      <path class="cls-4" d="M186.02,87.07c7.28-4.75,10.98-7.92,10.98-13.17,0-4.62-3.03-7.58-7.55-7.58-5.39,0-8.42,4.08-8.52,8.86h-9.1c.27-9.03,7.11-16.14,17.72-16.14,10.01,0,16.44,6.27,16.44,14.86s-5.53,12.97-14.66,19c-3,1.99-4.82,3.57-6.37,5.05-.98.84-1.72.94-2.8.94h-.3c-2.05,0-3.44,1.55-3.44,3.27s1.41,3.17,3.2,3.17,3.23-1.42,3.23-3.13v-.44c0-.74.57-1.21,1.31-1.21h20.99v7.75h-35.78c.24-9.77,5.76-15.36,14.62-21.23Z"/>
      <path class="cls-4" d="M211.44,84.14c0-15.33,6.94-25.1,18.53-25.1s18.5,9.77,18.5,25.1-6.97,25.13-18.5,25.13-18.53-9.8-18.53-25.13ZM215.95,87.24c1.79,0,3.13-1.38,3.13-3.13s-1.35-3.17-3.13-3.17-3.13,1.38-3.13,3.17,1.38,3.13,3.13,3.13ZM229.97,101.83c6.06,0,9.47-5.79,9.47-17.69s-3.4-17.65-9.47-17.65-9.54,5.76-9.54,17.65,3.44,17.69,9.54,17.69ZM243.95,87.24c1.75,0,3.13-1.38,3.13-3.13s-1.38-3.17-3.13-3.17-3.13,1.38-3.13,3.17,1.38,3.13,3.13,3.13Z"/>
      <path class="cls-4" d="M267.26,87.07c7.28-4.75,10.98-7.92,10.98-13.17,0-4.62-3.03-7.58-7.55-7.58-5.39,0-8.42,4.08-8.52,8.86h-9.1c.27-9.03,7.11-16.14,17.72-16.14,10.01,0,16.44,6.27,16.44,14.86s-5.53,12.97-14.66,19c-3,1.99-4.82,3.57-6.37,5.05-.98.84-1.72.94-2.8.94h-.3c-2.06,0-3.44,1.55-3.44,3.27s1.42,3.17,3.2,3.17,3.23-1.42,3.23-3.13v-.44c0-.74.57-1.21,1.31-1.21h20.99v7.75h-35.78c.24-9.77,5.76-15.36,14.62-21.23Z"/>
      <path class="cls-4" d="M315.17,97.92h-23.65v-7.18l21.12-30.76h10.92v30.62h7.65v7.31h-7.65v10.38h-8.39v-10.38ZM313.35,90.61c.94,0,1.42.47,1.42,1.42v.61c0,1.85,1.52,3.34,3.33,3.34s3.44-1.38,3.44-3.34-1.55-3.37-3.44-3.37h-1.52c-.91,0-1.42-.5-1.42-1.42v-19.3l-15.06,22.07h13.24Z"/>
      <path class="cls-4" d="M336.07,98.9h9.27v9.4h-9.27v-9.4Z"/>
      <path class="cls-4" d="M376.4,75.75h1.15c1.92,0,3.4-1.48,3.4-3.37s-1.48-3.4-3.4-3.4c-1.82,0-3.37,1.48-3.37,3.4v.64c0,.88-.47,1.31-1.58,1.31h-7.65v-6.64c6.7-.17,10.71-2.86,11.12-7.71h7.48v48.31h-8.62v-31c0-1.01.4-1.55,1.48-1.55Z"/>
      <path class="cls-4" d="M390.78,84.14c0-15.33,6.94-25.1,18.53-25.1s18.5,9.77,18.5,25.1-6.97,25.13-18.5,25.13-18.53-9.8-18.53-25.13ZM395.3,87.24c1.79,0,3.13-1.38,3.13-3.13s-1.35-3.17-3.13-3.17-3.13,1.38-3.13,3.17,1.38,3.13,3.13,3.13ZM409.31,101.83c6.06,0,9.47-5.79,9.47-17.69s-3.4-17.65-9.47-17.65-9.53,5.76-9.53,17.65,3.44,17.69,9.53,17.69ZM423.3,87.24c1.75,0,3.13-1.38,3.13-3.13s-1.38-3.17-3.13-3.17-3.13,1.38-3.13,3.17,1.38,3.13,3.13,3.13Z"/>
      <path class="cls-4" d="M432.57,98.9h9.27v9.4h-9.27v-9.4Z"/>
      <path class="cls-4" d="M472.9,75.75h1.15c1.92,0,3.4-1.48,3.4-3.37s-1.48-3.4-3.4-3.4c-1.82,0-3.37,1.48-3.37,3.4v.64c0,.88-.47,1.31-1.58,1.31h-7.65v-6.64c6.7-.17,10.71-2.86,11.12-7.71h7.48v48.31h-8.62v-31c0-1.01.4-1.55,1.48-1.55Z"/>
      <path class="cls-4" d="M487.72,95.29h9c.37,3.91,3.17,6.64,7.95,6.64,5.09,0,9.23-3.54,10.14-12.8.13-1.21.71-1.82,1.92-1.82h.91c1.99,0,3.4-1.38,3.4-3.27s-1.45-3.27-3.27-3.27-3.07,1.28-3.64,3.54c-1.31,4.75-6.33,7.21-11.49,7.21-9.2,0-15.26-6.33-15.26-15.73,0-10.04,7.11-16.88,17.52-16.88,12.43,0,19.04,9.64,19.04,24.16,0,16.37-6.67,26.08-19.74,26.08-9.37,0-15.9-5.15-16.47-13.85ZM504.8,84.34c5.02,0,8.56-3.67,8.56-8.96s-3.5-8.96-8.56-8.96-8.49,3.74-8.49,8.96,3.4,8.96,8.49,8.96Z"/>
      <path class="cls-4" d="M528.73,98.9h9.27v9.4h-9.27v-9.4Z"/>
      <path class="cls-4" d="M558.48,86.5c0-12.47,4.82-23.42,10.41-31.06h7.21c-5.09,8.39-8.56,19.14-8.56,31s3.4,22.1,8.56,31.27h-7.21c-5.73-8.36-10.41-18.97-10.41-31.2ZM563.03,89.26c1.68,0,3.03-1.35,3.03-3.03s-1.35-3.07-3.03-3.07-3.03,1.42-3.03,3.07,1.35,3.03,3.03,3.03Z"/>
      <path class="cls-4" d="M576.89,93.2h9.06c.2,5.12,3.97,8.73,10.11,8.73,4.78,0,8.39-2.39,8.39-6.84,0-3.3-1.85-5.09-6.84-6.23l-6.43-1.45c-9-2.06-13.31-6-13.31-13.78,0-8.36,6.97-14.59,17.62-14.59s16.91,6.23,17.32,14.42h-9.03c-.17-4.01-2.96-7.18-8.56-7.18-4.68,0-8.29,2.59-8.29,6.6,0,3.03,1.95,4.95,6.97,6.1l7.14,1.65c7.01,1.58,12.43,5.19,12.43,13.34,0,9.43-6.77,15.3-17.55,15.3-11.35,0-18.87-5.86-19.04-16.07ZM595.92,87.34c1.89,0,3.37-1.52,3.37-3.44s-1.52-3.4-3.37-3.4-3.37,1.48-3.37,3.4,1.52,3.44,3.37,3.44Z"/>
      <path class="cls-4" d="M617.67,98.66c0-6.84,4.41-10.01,11.25-11.05l5.93-.91c3.74-.57,5.26-1.42,5.26-3.74s-1.82-4.72-5.93-4.72-6.5,2.19-6.7,5.73h-8.86c.27-7.01,6.27-12.03,15.46-12.03s14.66,4.95,14.66,13.17v15.03c0,2.9.4,6.3,1.38,7.08v1.08h-8.93c-.34-1.31-.61-2.96-.77-4.72-2.09,3.23-6,5.69-11.15,5.69-6.57,0-11.59-4.01-11.59-10.61ZM632.09,102.74c5.15,0,7.92-3.67,8.22-8.49l.03-.64c.1-.94.67-1.42,1.62-1.42h.74c1.72,0,3.17-1.35,3.17-3.17s-1.38-3.13-3.17-3.13-3.23,1.31-3.23,3.17v.54c0,1.28-.61,1.92-2.16,2.22l-1.55.3-3.5.71c-3.81.78-5.76,2.29-5.76,5.26s2.39,4.65,5.59,4.65Z"/>
      <path class="cls-4" d="M658.62,98.7v-19.17h-6.03v-6.6h.71c4.48,0,6.44-1.89,6.71-7.04l.17-3.47h6.97v7.88c0,.81-.44,1.28-1.25,1.28h-1.79c-1.85,0-3.27,1.38-3.27,3.13,0,1.85,1.42,3.27,3.27,3.27,1.75,0,3.13-1.42,3.13-3.27v-.57c0-.78.47-1.21,1.28-1.21h6.33v6.6h-7.71v18.26c0,3.23,1.79,4.25,4.41,4.25.88,0,1.82-.1,2.7-.3v6.57c-1.42.4-3.03.64-4.85.64-6.43,0-10.78-2.73-10.78-10.24Z"/>
      <path class="cls-4" d="M684.02,86.43c0-11.86-3.47-22.61-8.56-31h7.21c5.59,7.65,10.41,18.6,10.41,31.06s-4.68,22.84-10.41,31.2h-7.21c5.16-9.16,8.56-19.51,8.56-31.27ZM688.53,89.26c1.69,0,3.03-1.35,3.03-3.03s-1.35-3.07-3.03-3.07-3.03,1.42-3.03,3.07,1.35,3.03,3.03,3.03Z"/>
    </g>
    <g>
      <path class="cls-4" d="M169.48,238.77h39.55v8.05h-14.15c-.94,0-1.38-.5-1.38-1.31v-.2c0-2.39-1.85-4.25-4.28-4.25s-4.25,1.85-4.25,4.25v.2c0,.81-.44,1.31-1.38,1.31h-14.12v-8.05ZM189.29,245.88c2.46,0,4.38,1.92,4.38,4.45v36.76h-8.79v-36.76c0-2.53,1.92-4.45,4.41-4.45Z"/>
      <path class="cls-4" d="M213.31,238.77h8.32v15.83c0,.98-.54,1.55-1.52,1.55h-1.58c-1.79,0-3.23,1.31-3.23,3.1s1.28,3.13,3.07,3.13,2.73-1.11,3.3-3.13c1.65-5.36,4.99-8.52,10.92-8.52,6.87,0,11.02,4.78,11.02,12.06v24.29h-8.56v-23.48c0-3.91-1.99-6.17-5.76-6.17-4.62,0-7.41,3.67-7.41,10.48v19.17h-8.56v-48.31Z"/>
      <path class="cls-4" d="M250.56,238.47h9.2v8.22h-9.2v-8.22ZM250.86,251.71h8.56v35.38h-8.56v-35.38Z"/>
      <path class="cls-4" d="M266.9,238.77h8.56v48.31h-8.56v-48.31Z"/>
      <path class="cls-4" d="M281.22,277.45c0-6.84,4.41-10.01,11.25-11.05l5.93-.91c3.74-.57,5.26-1.42,5.26-3.74s-1.82-4.72-5.93-4.72-6.5,2.19-6.71,5.73h-8.86c.27-7.01,6.27-12.03,15.46-12.03s14.66,4.95,14.66,13.17v15.03c0,2.9.4,6.3,1.38,7.08v1.08h-8.93c-.34-1.31-.61-2.96-.78-4.72-2.09,3.23-6,5.69-11.15,5.69-6.57,0-11.59-4.01-11.59-10.61ZM295.64,281.53c5.16,0,7.92-3.67,8.22-8.49l.03-.64c.1-.94.67-1.42,1.62-1.42h.74c1.72,0,3.17-1.35,3.17-3.17s-1.38-3.13-3.17-3.13-3.23,1.31-3.23,3.17v.54c0,1.28-.61,1.92-2.16,2.22l-1.55.3-3.5.71c-3.81.78-5.76,2.29-5.76,5.26s2.39,4.65,5.59,4.65Z"/>
      <path class="cls-4" d="M333.95,263.17c0-15.7,8.52-25.34,22.34-25.34,10.75,0,18.97,6.13,19.58,17.18h-9.2c-.5-6.2-4.68-9.64-10.51-9.64-8.22,0-13.07,6.17-13.07,17.38s4.99,17.75,13.01,17.75c6.64,0,9.63-4.88,10.38-8.69.2-1.01.88-1.31,1.89-1.31h1.18c1.85,0,3.4-1.55,3.4-3.4s-1.55-3.37-3.4-3.37c-1.95,0-3.44,1.45-3.44,3.37v.44c0,.94-.47,1.35-1.52,1.35h-8.25v-6.91h19.44v25.1h-7.62v-6.23c-2.8,4.68-7.31,7.21-13.85,7.21-12.13,0-20.35-8.62-20.35-24.9ZM338.6,266.2c1.82,0,3.27-1.45,3.27-3.27s-1.45-3.27-3.27-3.27-3.3,1.45-3.3,3.27,1.45,3.27,3.3,3.27Z"/>
      <path class="cls-4" d="M383.67,251.71h7.95v3.33c0,.57-.47,1.11-1.11,1.11h-1.31c-1.72,0-3.23,1.25-3.23,3.1,0,1.75,1.28,3.13,3.03,3.13s2.66-1.28,3.1-3.13c.37-1.52.98-2.86,1.75-3.98,1.82-2.73,4.75-4.25,8.59-4.25.67,0,1.31.07,1.75.17v8.32c-.88-.2-1.75-.3-2.73-.3-5.22,0-9.23,3.4-9.23,10.71v17.15h-8.56v-35.38Z"/>
      <path class="cls-4" d="M406.85,269.36c0-11.42,6.67-18.63,16.85-18.63s16.81,7.21,16.81,18.63-6.64,18.7-16.81,18.7-16.85-7.24-16.85-18.7ZM411.33,272.43c1.65,0,3.07-1.31,3.07-3.03s-1.42-3.07-3.07-3.07-3.03,1.38-3.03,3.07,1.35,3.03,3.03,3.03ZM423.7,281.32c4.99,0,7.99-4.18,7.99-11.96s-3-11.89-7.99-11.89-7.99,4.14-7.99,11.89,3,11.96,7.99,11.96ZM436.03,272.43c1.68,0,3.03-1.31,3.03-3.03s-1.35-3.07-3.03-3.07-3.03,1.38-3.03,3.07,1.35,3.03,3.03,3.03Z"/>
      <path class="cls-4" d="M446.02,276.14v-24.43h8.56v23.42c0,3.84,1.99,6.2,5.9,6.2,4.55,0,7.31-3.71,7.31-10.24v-19.37h8.52v35.38h-7.88v-3.34c0-.74.4-1.15,1.08-1.15h1.62c1.82,0,3.23-1.35,3.23-3.1s-1.28-3.1-3.07-3.1-2.73,1.08-3.27,3.1c-1.52,5.29-4.65,8.56-10.58,8.56-7.18,0-11.42-4.51-11.42-11.93Z"/>
      <path class="cls-4" d="M483.77,251.71h7.92v3.3c0,.74-.44,1.15-1.11,1.15h-1.62c-1.79,0-3.2,1.31-3.2,3.1s1.28,3.13,3.03,3.13,2.73-1.11,3.23-3.13c1.52-5.42,4.82-8.52,10.85-8.52,7.01,0,11.19,4.85,11.19,12.13v24.22h-8.56v-23.48c0-3.91-1.99-6.17-5.76-6.17-4.65,0-7.41,3.67-7.41,10.48v19.17h-8.56v-35.38Z"/>
      <path class="cls-4" d="M552.87,238.77v48.31h-8.39v-5.26c-2.02,4.01-5.73,6.23-10.44,6.23-8.93,0-14.29-7.18-14.29-18.63s5.49-18.7,14.42-18.7c2.9,0,5.15.88,6.87,2.66,1.31,1.35,2.32,3.17,3.03,5.53.54,1.82,1.48,3.2,3.3,3.2,1.72,0,3.07-1.35,3.07-3.1s-1.31-3.07-3.13-3.07h-1.58c-.74,0-1.21-.47-1.21-1.31v-15.87h8.36ZM536.39,281.32c5.19,0,7.95-4.88,7.95-11.99s-2.76-11.93-7.95-11.93-7.82,4.85-7.82,11.93,2.63,11.99,7.82,11.99Z"/>
      <path class="cls-4" d="M564.24,287.09h-4.01v-9.4h9.27v8.89c0,7.78-3.98,12.33-11.15,12.33v-4.82c3.71-.07,5.9-2.7,5.9-7.01Z"/>
      <path class="cls-4" d="M588.36,238.77h39.55v8.05h-14.15c-.94,0-1.38-.5-1.38-1.31v-.2c0-2.39-1.85-4.25-4.28-4.25s-4.24,1.85-4.24,4.25v.2c0,.81-.44,1.31-1.38,1.31h-14.12v-8.05ZM608.17,245.88c2.46,0,4.38,1.92,4.38,4.45v36.76h-8.79v-36.76c0-2.53,1.92-4.45,4.41-4.45Z"/>
      <path class="cls-4" d="M632.19,238.77h8.32v15.83c0,.98-.54,1.55-1.52,1.55h-1.58c-1.79,0-3.23,1.31-3.23,3.1s1.28,3.13,3.07,3.13,2.73-1.11,3.3-3.13c1.65-5.36,4.99-8.52,10.92-8.52,6.87,0,11.02,4.78,11.02,12.06v24.29h-8.56v-23.48c0-3.91-1.99-6.17-5.76-6.17-4.62,0-7.41,3.67-7.41,10.48v19.17h-8.56v-48.31Z"/>
      <path class="cls-4" d="M669.43,238.47h9.2v8.22h-9.2v-8.22ZM669.74,251.71h8.56v35.38h-8.56v-35.38Z"/>
      <path class="cls-4" d="M685.78,238.77h8.56v48.31h-8.56v-48.31Z"/>
      <path class="cls-4" d="M700.1,277.45c0-6.84,4.41-10.01,11.25-11.05l5.93-.91c3.74-.57,5.26-1.42,5.26-3.74s-1.82-4.72-5.93-4.72-6.5,2.19-6.7,5.73h-8.86c.27-7.01,6.27-12.03,15.46-12.03s14.66,4.95,14.66,13.17v15.03c0,2.9.4,6.3,1.38,7.08v1.08h-8.93c-.34-1.31-.61-2.96-.77-4.72-2.09,3.23-6,5.69-11.15,5.69-6.57,0-11.59-4.01-11.59-10.61ZM714.52,281.53c5.15,0,7.92-3.67,8.22-8.49l.03-.64c.1-.94.67-1.42,1.62-1.42h.74c1.72,0,3.17-1.35,3.17-3.17s-1.38-3.13-3.17-3.13-3.23,1.31-3.23,3.17v.54c0,1.28-.61,1.92-2.16,2.22l-1.55.3-3.5.71c-3.81.78-5.76,2.29-5.76,5.26s2.39,4.65,5.59,4.65Z"/>
      <path class="cls-4" d="M750.94,273.51v-1.92h8.73v1.62c0,4.45,2.26,7.14,6.43,7.14s6.57-2.26,6.57-7.92v-33.66h8.79v33.86c0,10.04-6,15.36-15.4,15.36s-15.13-5.15-15.13-14.49ZM777.08,265.49c1.72,0,3.1-1.38,3.1-3.1s-1.38-3.13-3.1-3.13-3.13,1.42-3.13,3.13,1.41,3.1,3.13,3.1Z"/>
      <path class="cls-4" d="M789.08,238.47h9.2v8.22h-9.2v-8.22ZM789.39,251.71h8.56v35.38h-8.56v-35.38Z"/>
      <path class="cls-4" d="M805.42,238.77h8.32v15.83c0,.98-.54,1.55-1.52,1.55h-1.58c-1.79,0-3.23,1.31-3.23,3.1s1.28,3.13,3.07,3.13,2.73-1.11,3.3-3.13c1.65-5.36,4.99-8.52,10.92-8.52,6.87,0,11.02,4.78,11.02,12.06v24.29h-8.56v-23.48c0-3.91-1.99-6.17-5.76-6.17-4.62,0-7.41,3.67-7.41,10.48v19.17h-8.56v-48.31Z"/>
      <path class="cls-4" d="M841.16,277.45c0-6.84,4.41-10.01,11.25-11.05l5.93-.91c3.74-.57,5.26-1.42,5.26-3.74s-1.82-4.72-5.93-4.72-6.5,2.19-6.7,5.73h-8.86c.27-7.01,6.27-12.03,15.46-12.03s14.66,4.95,14.66,13.17v15.03c0,2.9.4,6.3,1.38,7.08v1.08h-8.93c-.34-1.31-.61-2.96-.77-4.72-2.09,3.23-6,5.69-11.15,5.69-6.57,0-11.59-4.01-11.59-10.61ZM855.58,281.53c5.15,0,7.92-3.67,8.22-8.49l.03-.64c.1-.94.67-1.42,1.62-1.42h.74c1.72,0,3.17-1.35,3.17-3.17s-1.38-3.13-3.17-3.13-3.23,1.31-3.23,3.17v.54c0,1.28-.61,1.92-2.16,2.22l-1.55.3-3.5.71c-3.81.78-5.76,2.29-5.76,5.26s2.39,4.65,5.59,4.65Z"/>
    </g>
    <g>
      <path class="cls-3" d="M173.31,564.53h6.57c.15,3.71,2.88,6.32,7.32,6.32,3.47,0,6.08-1.73,6.08-4.96,0-2.39-1.34-3.69-4.96-4.52l-4.66-1.05c-6.52-1.49-9.64-4.35-9.64-9.99,0-6.05,5.05-10.57,12.77-10.57s12.26,4.52,12.55,10.45h-6.54c-.12-2.91-2.15-5.2-6.2-5.2-3.39,0-6.01,1.88-6.01,4.79,0,2.2,1.42,3.59,5.05,4.42l5.18,1.2c5.08,1.15,9.01,3.76,9.01,9.67,0,6.84-4.91,11.08-12.72,11.08-8.23,0-13.67-4.25-13.79-11.65ZM187.1,560.28c1.37,0,2.44-1.1,2.44-2.49s-1.1-2.47-2.44-2.47-2.44,1.07-2.44,2.47,1.1,2.49,2.44,2.49Z"/>
      <path class="cls-3" d="M204.9,567.53v-17.7h6.2v16.97c0,2.78,1.44,4.49,4.27,4.49,3.3,0,5.3-2.69,5.3-7.42v-14.04h6.18v25.63h-5.71v-2.42c0-.54.29-.83.78-.83h1.17c1.32,0,2.34-.98,2.34-2.25s-.93-2.25-2.22-2.25-1.98.78-2.37,2.25c-1.1,3.83-3.37,6.2-7.67,6.2-5.2,0-8.28-3.27-8.28-8.64Z"/>
      <path class="cls-3" d="M233.34,549.83h5.74v2.39c0,.54-.32.83-.81.83h-1.17c-1.29,0-2.32.95-2.32,2.25s.93,2.27,2.2,2.27,1.98-.81,2.34-2.27c1.1-3.93,3.49-6.18,7.86-6.18,5.08,0,8.11,3.52,8.11,8.79v17.55h-6.2v-17.02c0-2.83-1.44-4.47-4.17-4.47-3.37,0-5.37,2.66-5.37,7.59v13.89h-6.2v-25.63Z"/>
      <path class="cls-3" d="M175.16,606.45h11.62c10.28,0,15.94,6.98,15.94,17.07,0,10.67-6.25,17.94-16.28,17.94h-11.28v-35.01ZM179.61,639.76c1.37,0,2.51-1.1,2.51-2.54v-.32c0-.51.34-.85.81-.85h3.25c7.3,0,9.94-6.25,9.94-12.52,0-6.81-2.93-11.65-10.03-11.65h-3.15c-.46,0-.81-.34-.81-.88v-.22c0-1.44-1.15-2.54-2.51-2.54s-2.54,1.1-2.54,2.54,1.12,2.49,2.54,2.49h1.1c.46,0,.83.37.83.83v19.8c0,.46-.37.83-.85.83h-1.07c-1.42,0-2.54,1.12-2.54,2.49,0,1.44,1.12,2.54,2.54,2.54Z"/>
      <path class="cls-3" d="M206.53,634.48c0-4.96,3.2-7.25,8.15-8.01l4.3-.66c2.71-.42,3.81-1.03,3.81-2.71s-1.32-3.42-4.3-3.42-4.71,1.59-4.86,4.15h-6.42c.2-5.08,4.54-8.72,11.21-8.72s10.62,3.59,10.62,9.55v10.89c0,2.1.29,4.57,1,5.13v.78h-6.47c-.24-.95-.44-2.15-.56-3.42-1.51,2.34-4.35,4.13-8.08,4.13-4.76,0-8.4-2.91-8.4-7.69ZM216.98,637.44c3.74,0,5.74-2.66,5.96-6.15l.02-.46c.07-.68.49-1.03,1.17-1.03h.54c1.25,0,2.29-.98,2.29-2.29s-1-2.27-2.29-2.27-2.34.95-2.34,2.29v.39c0,.93-.44,1.39-1.56,1.61l-1.12.22-2.54.51c-2.76.56-4.17,1.66-4.17,3.81s1.73,3.37,4.05,3.37Z"/>
      <path class="cls-3" d="M235.34,615.83h5.74v2.39c0,.54-.32.83-.81.83h-1.17c-1.29,0-2.32.95-2.32,2.25s.93,2.27,2.2,2.27,1.98-.81,2.34-2.27c1.1-3.93,3.49-6.18,7.86-6.18,5.08,0,8.11,3.52,8.11,8.79v17.55h-6.2v-17.02c0-2.83-1.44-4.47-4.17-4.47-3.37,0-5.37,2.66-5.37,7.59v13.89h-6.2v-25.63Z"/>
      <path class="cls-3" d="M263.59,615.83h5.74v2.39c0,.54-.32.83-.81.83h-1.17c-1.29,0-2.32.95-2.32,2.25s.93,2.27,2.2,2.27,1.98-.81,2.34-2.27c1.1-3.93,3.49-6.18,7.86-6.18,5.08,0,8.11,3.52,8.11,8.79v17.55h-6.2v-17.02c0-2.83-1.44-4.47-4.17-4.47-3.37,0-5.37,2.66-5.37,7.59v13.89h-6.2v-25.63Z"/>
      <path class="cls-3" d="M290.62,650.69v-5.32c.9.37,1.9.46,2.69.46,2.39,0,3.76-1.12,5.05-4.27l-9.52-25.73h6.69l5.25,15.77c.2.61.15,1.1-.29,1.56l-.54.56c-.49.54-.78,1.15-.78,1.76,0,1.37,1.07,2.44,2.39,2.44s2.42-1.07,2.42-2.44c0-.61-.27-1.2-.78-1.76l-.56-.56c-.46-.49-.54-.95-.37-1.56l4.83-15.77h6.47l-9.23,26.73c-2.03,5.91-5.18,8.62-10.08,8.62-1.39,0-2.61-.17-3.64-.49Z"/>
      <path class="cls-3" d="M335.05,606.45h8.4l11.91,35.01h-6.79l-2.91-8.84c-.22-.68.02-1.22.63-1.42l.81-.27c1.37-.44,2.08-1.88,1.56-3.34-.51-1.42-1.71-1.83-3.05-1.46l-.78.22c-.66.22-1.15-.1-1.34-.78l-4.35-13.45-4.39,13.45c-.17.63-.66,1-1.37.81l-.59-.2c-1.46-.42-2.83.15-3.3,1.59-.42,1.37.37,2.71,1.78,3.2l.76.27c.59.2.76.71.54,1.39l-2.98,8.84h-6.67l12.11-35.01ZM335.59,626.72h7.25c1.56,0,2.78,1.2,2.78,2.73s-1.22,2.64-2.78,2.64h-7.25c-1.59,0-2.81-1.12-2.81-2.64s1.22-2.73,2.81-2.73Z"/>
      <path class="cls-3" d="M359.15,615.83h5.76v2.42c0,.42-.34.81-.81.81h-.95c-1.25,0-2.34.9-2.34,2.25,0,1.27.93,2.27,2.2,2.27s1.93-.93,2.25-2.27c.27-1.1.71-2.08,1.27-2.88,1.32-1.98,3.44-3.08,6.23-3.08.49,0,.95.05,1.27.12v6.03c-.63-.15-1.27-.22-1.98-.22-3.78,0-6.69,2.47-6.69,7.76v12.43h-6.2v-25.63Z"/>
      <path class="cls-3" d="M376.77,628.62c0-8.47,5.3-13.5,12.38-13.5s11.69,4.61,11.69,13.11c0,.66,0,1.29-.02,1.9h-15.45c-1.32,0-2.25-.9-2.25-2.15s.93-2.15,2.25-2.15h9.06c-.24-4.2-2.15-6.13-5.3-6.13-2.93,0-5.05,1.9-5.69,5.3-.12.56-.44.81-1.07.81h-.44c-1.25,0-2.2.85-2.2,2.1s.95,2.1,2.2,2.1h.46c.56,0,.85.22.9.83.29,4.44,2.69,6.67,6.08,6.67,2.76,0,4.69-1.61,5.1-4.57h6.25c-.66,5.62-4.93,9.23-11.57,9.23-7.25,0-12.38-4.35-12.38-13.55Z"/>
      <path class="cls-3" d="M406.12,615.83h5.74v2.39c0,.54-.32.83-.81.83h-1.17c-1.29,0-2.32.95-2.32,2.25s.93,2.27,2.2,2.27,1.98-.81,2.34-2.27c1.1-3.93,3.49-6.18,7.86-6.18,5.08,0,8.11,3.52,8.11,8.79v17.55h-6.2v-17.02c0-2.83-1.44-4.47-4.17-4.47-3.37,0-5.37,2.66-5.37,7.59v13.89h-6.2v-25.63Z"/>
      <path class="cls-3" d="M432.83,633.33h6.49c.1,2.78,2.22,4.32,5.27,4.32,2.71,0,4.42-1.2,4.42-3.15,0-1.66-1.15-2.44-3.66-2.95l-4.44-.88c-5.3-1.05-7.54-3.44-7.54-7.18,0-4.81,3.96-8.37,10.79-8.37s10.6,3.76,10.82,8.47h-6.37c-.1-2.51-1.81-4.03-4.57-4.03-2.59,0-4.3,1.29-4.3,3.15,0,1.44,1.03,2.27,3.22,2.71l4.79.9c5.15,1,7.64,3.37,7.64,7.32,0,5.69-4.79,8.52-10.89,8.52-7.1,0-11.55-3.27-11.67-8.84ZM444.55,630.48c1.07,0,1.98-.9,1.98-2s-.95-2-2-2-2.03.9-2.03,2,.98,2,2.05,2Z"/>
      <path class="cls-3" d="M469.55,632.11c0-4.74,2.61-7.69,6.79-10.01-2.73-2.91-4-4.59-4-7.76,0-4.81,3.86-8.57,10.11-8.57,5.64,0,9.86,3.3,9.86,8.35,0,4.2-3.34,7.4-7.08,9.28l6.62,6.81c.76-1.88,1.2-4.13,1.27-6.59h5.69c-.05,4.08-1.05,7.79-2.83,10.77l6.86,7.08h-7.84l-2.71-2.83c-2.69,2.22-6.13,3.54-10.11,3.54-7.32,0-12.62-3.59-12.62-10.06ZM482.46,636.97c1.86,0,3.52-.56,4.76-1.37.44-.27.73-.39,1.07-.39.42,0,.63.15.98.39l.46.34c.49.37.98.54,1.54.54,1.2,0,2.29-.98,2.29-2.29s-1.03-2.27-2.29-2.27c-.73,0-1.25.24-1.81.73l-.46.39c-.34.27-.68.46-1.1.46-.34,0-.73-.15-1.12-.54l-6.96-7.28c-2.83,1.61-3.93,3.42-3.93,5.86,0,3.27,2.83,5.42,6.57,5.42ZM480.73,618.91c.27.27.37.46.37.76,0,.27-.07.44-.39.73l-.37.37c-.51.46-.71.95-.71,1.61,0,1.22.95,2.12,2.2,2.12,1.17,0,2.12-.9,2.12-2.12,0-.59-.2-1.07-.54-1.46l-.34-.37c-.22-.27-.34-.44-.34-.73s.15-.56.49-.78c1.64-1.1,3.1-2.39,3.1-4.74s-1.71-3.88-4.05-3.88-4.08,1.54-4.08,3.93c0,1.73.83,2.88,2.54,4.57Z"/>
      <path class="cls-3" d="M513.66,624.13c0-11.38,6.18-18.36,16.19-18.36,7.79,0,13.75,4.44,14.18,12.45h-6.67c-.37-4.49-3.39-6.98-7.62-6.98-5.96,0-9.47,4.47-9.47,12.6s3.61,12.87,9.42,12.87c4.81,0,6.98-3.54,7.52-6.3.15-.73.63-.95,1.37-.95h.85c1.34,0,2.47-1.12,2.47-2.47s-1.12-2.44-2.47-2.44c-1.42,0-2.49,1.05-2.49,2.44v.32c0,.68-.34.98-1.1.98h-5.98v-5h14.09v18.19h-5.52v-4.52c-2.03,3.39-5.3,5.22-10.03,5.22-8.79,0-14.75-6.25-14.75-18.04ZM517.03,626.33c1.32,0,2.37-1.05,2.37-2.37s-1.05-2.37-2.37-2.37-2.39,1.05-2.39,2.37,1.05,2.37,2.39,2.37Z"/>
      <path class="cls-3" d="M548.97,634.48c0-4.96,3.2-7.25,8.15-8.01l4.3-.66c2.71-.42,3.81-1.03,3.81-2.71s-1.32-3.42-4.3-3.42-4.71,1.59-4.86,4.15h-6.42c.2-5.08,4.54-8.72,11.21-8.72s10.62,3.59,10.62,9.55v10.89c0,2.1.29,4.57,1,5.13v.78h-6.47c-.24-.95-.44-2.15-.56-3.42-1.51,2.34-4.35,4.13-8.08,4.13-4.76,0-8.4-2.91-8.4-7.69ZM559.42,637.44c3.74,0,5.74-2.66,5.96-6.15l.02-.46c.07-.68.49-1.03,1.17-1.03h.54c1.25,0,2.29-.98,2.29-2.29s-1-2.27-2.29-2.27-2.34.95-2.34,2.29v.39c0,.93-.44,1.39-1.56,1.61l-1.12.22-2.54.51c-2.76.56-4.17,1.66-4.17,3.81s1.73,3.37,4.05,3.37Z"/>
      <path class="cls-3" d="M576.58,636.61l11.04-13.4c.71-.85,1.32-1.2,2.27-1.2h.93c1.25,0,2.25-1,2.25-2.22,0-1.29-1-2.27-2.25-2.27s-2.12.85-2.25,2.12c-.07.81-.42,1.07-1.29,1.07h-10.72v-4.88h20.8v4.93l-11.35,13.62c-.49.56-1.07.85-1.88.85h-1.2c-1.25,0-2.22,1-2.22,2.22,0,1.29.98,2.25,2.22,2.25s2.1-.9,2.25-2c.1-.73.44-1.12,1.22-1.12h11.4v4.88h-21.22v-4.86Z"/>
      <path class="cls-3" d="M601.21,634.48c0-4.96,3.2-7.25,8.15-8.01l4.3-.66c2.71-.42,3.81-1.03,3.81-2.71s-1.32-3.42-4.3-3.42-4.71,1.59-4.86,4.15h-6.42c.2-5.08,4.54-8.72,11.21-8.72s10.62,3.59,10.62,9.55v10.89c0,2.1.29,4.57,1,5.13v.78h-6.47c-.24-.95-.44-2.15-.56-3.42-1.51,2.34-4.35,4.13-8.08,4.13-4.76,0-8.4-2.91-8.4-7.69ZM611.66,637.44c3.74,0,5.74-2.66,5.96-6.15l.02-.46c.07-.68.49-1.03,1.17-1.03h.54c1.25,0,2.29-.98,2.29-2.29s-1-2.27-2.29-2.27-2.34.95-2.34,2.29v.39c0,.93-.44,1.39-1.56,1.61l-1.12.22-2.54.51c-2.76.56-4.17,1.66-4.17,3.81s1.73,3.37,4.05,3.37Z"/>
      <path class="cls-3" d="M628.68,628.62c0-8.47,5.3-13.5,12.38-13.5s11.69,4.61,11.69,13.11c0,.66,0,1.29-.02,1.9h-15.45c-1.32,0-2.25-.9-2.25-2.15s.93-2.15,2.25-2.15h9.06c-.24-4.2-2.15-6.13-5.3-6.13-2.93,0-5.05,1.9-5.69,5.3-.12.56-.44.81-1.07.81h-.44c-1.25,0-2.2.85-2.2,2.1s.95,2.1,2.2,2.1h.46c.56,0,.85.22.9.83.29,4.44,2.69,6.67,6.08,6.67,2.76,0,4.69-1.61,5.1-4.57h6.25c-.66,5.62-4.93,9.23-11.57,9.23-7.25,0-12.38-4.35-12.38-13.55Z"/>
      <path class="cls-3" d="M664.1,637.68v3.78h-6.08v-35.01h6.08v11.5c0,.61-.34.95-.88.95h-1.15c-1.34,0-2.29.98-2.29,2.22s.98,2.22,2.25,2.22,1.98-.98,2.37-2.29c.34-1.07.76-2,1.32-2.81,1.39-2.03,3.49-3.12,6.28-3.12,6.25,0,10.06,5.18,10.06,13.53s-4.03,13.53-10.47,13.53c-3.32,0-5.96-1.49-7.47-4.49ZM669.96,637.29c3.76,0,5.69-3.49,5.69-8.62s-1.93-8.69-5.69-8.69-5.74,3.56-5.74,8.69,2,8.62,5.74,8.62Z"/>
      <path class="cls-3" d="M685.73,634.48c0-4.96,3.2-7.25,8.15-8.01l4.3-.66c2.71-.42,3.81-1.03,3.81-2.71s-1.32-3.42-4.3-3.42-4.71,1.59-4.86,4.15h-6.42c.2-5.08,4.54-8.72,11.21-8.72s10.62,3.59,10.62,9.55v10.89c0,2.1.29,4.57,1,5.13v.78h-6.47c-.24-.95-.44-2.15-.56-3.42-1.51,2.34-4.35,4.13-8.08,4.13-4.76,0-8.4-2.91-8.4-7.69ZM696.18,637.44c3.74,0,5.74-2.66,5.96-6.15l.02-.46c.07-.68.49-1.03,1.17-1.03h.54c1.25,0,2.29-.98,2.29-2.29s-1-2.27-2.29-2.27-2.34.95-2.34,2.29v.39c0,.93-.44,1.39-1.56,1.61l-1.12.22-2.54.51c-2.76.56-4.17,1.66-4.17,3.81s1.73,3.37,4.05,3.37Z"/>
      <path class="cls-3" d="M714.54,606.45h6.2v35.01h-6.2v-35.01Z"/>
      <path class="cls-3" d="M173.31,696.53h6.57c.15,3.71,2.88,6.32,7.32,6.32,3.47,0,6.08-1.73,6.08-4.96,0-2.39-1.34-3.69-4.96-4.52l-4.66-1.05c-6.52-1.49-9.64-4.35-9.64-9.99,0-6.05,5.05-10.57,12.77-10.57s12.26,4.52,12.55,10.45h-6.54c-.12-2.91-2.15-5.2-6.2-5.2-3.39,0-6.01,1.88-6.01,4.79,0,2.2,1.42,3.59,5.05,4.42l5.18,1.2c5.08,1.15,9.01,3.76,9.01,9.67,0,6.84-4.91,11.08-12.72,11.08-8.23,0-13.67-4.25-13.79-11.65ZM187.1,692.28c1.37,0,2.44-1.1,2.44-2.49s-1.1-2.47-2.44-2.47-2.44,1.07-2.44,2.47,1.1,2.49,2.44,2.49Z"/>
      <path class="cls-3" d="M203.75,694.62c0-8.47,5.3-13.5,12.38-13.5s11.69,4.61,11.69,13.11c0,.66,0,1.29-.02,1.9h-15.45c-1.32,0-2.25-.9-2.25-2.15s.93-2.15,2.25-2.15h9.06c-.24-4.2-2.15-6.13-5.3-6.13-2.93,0-5.05,1.9-5.69,5.3-.12.56-.44.81-1.07.81h-.44c-1.25,0-2.2.85-2.2,2.1s.95,2.1,2.2,2.1h.46c.56,0,.85.22.9.83.29,4.44,2.69,6.67,6.08,6.67,2.76,0,4.69-1.61,5.1-4.57h6.25c-.66,5.62-4.93,9.23-11.57,9.23-7.25,0-12.38-4.35-12.38-13.55Z"/>
      <path class="cls-3" d="M231.75,694.62c0-8.28,4.83-13.5,12.21-13.5s12.18,5.22,12.18,13.5-4.81,13.55-12.18,13.55-12.21-5.25-12.21-13.55ZM235,696.84c1.2,0,2.22-.95,2.22-2.2s-1.03-2.22-2.22-2.22-2.2,1-2.2,2.22.98,2.2,2.2,2.2ZM243.96,703.29c3.61,0,5.79-3.03,5.79-8.67s-2.17-8.62-5.79-8.62-5.79,3-5.79,8.62,2.17,8.67,5.79,8.67ZM252.9,696.84c1.22,0,2.2-.95,2.2-2.2s-.98-2.22-2.2-2.22-2.2,1-2.2,2.22.98,2.2,2.2,2.2Z"/>
      <path class="cls-3" d="M272.26,672.45h10.94l5.83,24.95c.15.68.1,1.22-.46,1.68-.83.71-1.25,1.37-1.25,2.29,0,1.39,1.07,2.44,2.42,2.44s2.42-1.1,2.42-2.47c0-1.03-.46-1.61-1.25-2.29-.54-.44-.61-.98-.46-1.66l5.86-24.95h10.89v35.01h-5.96v-27.05c0-.51.27-.93.78-.93h.17c1.32,0,2.34-1.05,2.34-2.34s-1.05-2.29-2.32-2.29-2.34,1-2.34,2.47v.88c0,.95-.1,1.73-.42,3.12l-6.18,26.15h-7.13l-6.18-26.32c-.17-.76-.42-1.66-.42-2.71v-1.1c0-1.46-1.07-2.49-2.34-2.49s-2.29.95-2.29,2.29,1.05,2.34,2.34,2.34h.12c.59,0,.83.34.83.9v27.08h-5.96v-35.01Z"/>
      <path class="cls-3" d="M313.96,672.24h6.67v5.96h-6.67v-5.96ZM314.18,681.83h6.2v25.63h-6.2v-25.63Z"/>
      <path class="cls-3" d="M326.87,681.83h5.74v2.39c0,.54-.32.83-.81.83h-1.17c-1.29,0-2.32.95-2.32,2.25s.93,2.27,2.2,2.27,1.98-.81,2.34-2.27c1.1-3.93,3.49-6.18,7.86-6.18,5.08,0,8.11,3.52,8.11,8.79v17.55h-6.2v-17.02c0-2.83-1.44-4.47-4.17-4.47-3.37,0-5.37,2.66-5.37,7.59v13.89h-6.2v-25.63Z"/>
      <path class="cls-3" d="M351.46,672.45h6.45l4.69,24.19c.15.68.07,1.03-.32,1.44l-.63.66c-.49.51-.78,1.12-.78,1.83,0,1.39,1.12,2.51,2.51,2.51s2.49-1.12,2.49-2.51c0-.71-.24-1.32-.76-1.83l-.63-.66c-.42-.42-.44-.76-.29-1.39l5.15-24.24h8.18l4.54,24.24c.12.63.12.98-.29,1.39l-.66.66c-.51.51-.76,1.12-.76,1.83,0,1.39,1.12,2.51,2.51,2.51s2.51-1.12,2.51-2.51c0-.71-.29-1.32-.78-1.83l-.66-.66c-.42-.44-.44-.78-.32-1.44l5.03-24.19h6.27l-7.81,35.01h-8.67l-4.47-24.78c-.1-.56-.07-.9.32-1.29l.78-.76c.51-.54.71-1.15.71-1.81,0-1.42-1.1-2.49-2.49-2.49s-2.51,1.07-2.51,2.49c0,.66.24,1.29.73,1.81l.73.73c.34.37.42.76.29,1.29l-5.25,24.8h-8.28l-7.54-35.01Z"/>
      <path class="cls-3" d="M396.13,694.62c0-8.28,4.83-13.5,12.21-13.5s12.18,5.22,12.18,13.5-4.81,13.55-12.18,13.55-12.21-5.25-12.21-13.55ZM399.38,696.84c1.2,0,2.22-.95,2.22-2.2s-1.03-2.22-2.22-2.22-2.2,1-2.2,2.22.98,2.2,2.2,2.2ZM408.34,703.29c3.61,0,5.79-3.03,5.79-8.67s-2.17-8.62-5.79-8.62-5.79,3-5.79,8.62,2.17,8.67,5.79,8.67ZM417.28,696.84c1.22,0,2.2-.95,2.2-2.2s-.98-2.22-2.2-2.22-2.2,1-2.2,2.22.98,2.2,2.2,2.2Z"/>
      <path class="cls-3" d="M424.33,694.62c0-8.28,4.83-13.5,12.21-13.5s12.18,5.22,12.18,13.5-4.81,13.55-12.18,13.55-12.21-5.25-12.21-13.55ZM427.58,696.84c1.2,0,2.22-.95,2.22-2.2s-1.03-2.22-2.22-2.22-2.2,1-2.2,2.22.98,2.2,2.2,2.2ZM436.54,703.29c3.61,0,5.79-3.03,5.79-8.67s-2.17-8.62-5.79-8.62-5.79,3-5.79,8.62,2.17,8.67,5.79,8.67ZM445.47,696.84c1.22,0,2.2-.95,2.2-2.2s-.98-2.22-2.2-2.22-2.2,1-2.2,2.22.98,2.2,2.2,2.2Z"/>
      <path class="cls-3" d="M183,760.18l-11.01-21.73h7.2l5.98,12.82c.29.61.32,1.2-.15,1.66l-.56.56c-.51.49-.73,1.12-.73,1.81,0,1.44,1.12,2.54,2.54,2.54s2.54-1.15,2.54-2.61c0-.68-.29-1.29-.78-1.78l-.54-.51c-.46-.49-.44-1.07-.15-1.71l6.08-12.77h6.86l-10.91,21.7v13.31h-6.37v-13.28Z"/>
      <path class="cls-3" d="M199.09,760.62c0-8.28,4.83-13.5,12.21-13.5s12.18,5.22,12.18,13.5-4.81,13.55-12.18,13.55-12.21-5.25-12.21-13.55ZM202.33,762.84c1.2,0,2.22-.95,2.22-2.2s-1.03-2.22-2.22-2.22-2.2,1-2.2,2.22.98,2.2,2.2,2.2ZM211.29,769.29c3.61,0,5.79-3.03,5.79-8.67s-2.17-8.62-5.79-8.62-5.79,3-5.79,8.62,2.17,8.67,5.79,8.67ZM220.23,762.84c1.22,0,2.2-.95,2.2-2.2s-.98-2.22-2.2-2.22-2.2,1-2.2,2.22.98,2.2,2.2,2.2Z"/>
      <path class="cls-3" d="M227.29,760.62c0-8.28,4.83-13.5,12.21-13.5s12.18,5.22,12.18,13.5-4.81,13.55-12.18,13.55-12.21-5.25-12.21-13.55ZM230.53,762.84c1.2,0,2.22-.95,2.22-2.2s-1.03-2.22-2.22-2.22-2.2,1-2.2,2.22.98,2.2,2.2,2.2ZM239.49,769.29c3.61,0,5.79-3.03,5.79-8.67s-2.17-8.62-5.79-8.62-5.79,3-5.79,8.62,2.17,8.67,5.79,8.67ZM248.43,762.84c1.22,0,2.2-.95,2.2-2.2s-.98-2.22-2.2-2.22-2.2,1-2.2,2.22.98,2.2,2.2,2.2Z"/>
      <path class="cls-3" d="M256.83,738.45h6.2v35.01h-6.2v-35.01Z"/>
      <path class="cls-3" d="M268.18,760.62c0-8.47,5.3-13.5,12.38-13.5s11.69,4.61,11.69,13.11c0,.66,0,1.29-.02,1.9h-15.45c-1.32,0-2.25-.9-2.25-2.15s.93-2.15,2.25-2.15h9.06c-.24-4.2-2.15-6.13-5.3-6.13-2.93,0-5.05,1.9-5.69,5.3-.12.56-.44.81-1.07.81h-.44c-1.25,0-2.2.85-2.2,2.1s.95,2.1,2.2,2.1h.46c.56,0,.85.22.9.83.29,4.44,2.69,6.67,6.08,6.67,2.76,0,4.69-1.61,5.1-4.57h6.25c-.66,5.62-4.93,9.23-11.57,9.23-7.25,0-12.38-4.35-12.38-13.55Z"/>
      <path class="cls-3" d="M297.53,738.45h6.03v11.47c0,.71-.39,1.12-1.1,1.12h-1.15c-1.29,0-2.34.95-2.34,2.25s.93,2.27,2.22,2.27,1.98-.81,2.39-2.27c1.2-3.88,3.61-6.18,7.91-6.18,4.98,0,7.98,3.47,7.98,8.74v17.6h-6.2v-17.02c0-2.83-1.44-4.47-4.17-4.47-3.34,0-5.37,2.66-5.37,7.59v13.89h-6.2v-35.01Z"/>
      <path class="cls-3" d="M175.16,804.45h10.94l5.83,24.95c.15.68.1,1.22-.46,1.68-.83.71-1.25,1.37-1.25,2.29,0,1.39,1.07,2.44,2.42,2.44s2.42-1.1,2.42-2.47c0-1.03-.46-1.61-1.25-2.29-.54-.44-.61-.98-.46-1.66l5.86-24.95h10.89v35.01h-5.96v-27.05c0-.51.27-.93.78-.93h.17c1.32,0,2.34-1.05,2.34-2.34s-1.05-2.29-2.32-2.29-2.34,1-2.34,2.47v.88c0,.95-.1,1.73-.42,3.12l-6.18,26.15h-7.13l-6.18-26.32c-.17-.76-.42-1.66-.42-2.71v-1.1c0-1.46-1.07-2.49-2.34-2.49s-2.29.95-2.29,2.29,1.05,2.34,2.34,2.34h.12c.59,0,.83.34.83.9v27.08h-5.96v-35.01Z"/>
      <path class="cls-3" d="M216.86,804.24h6.67v5.96h-6.67v-5.96ZM217.08,813.83h6.2v25.63h-6.2v-25.63Z"/>
      <path class="cls-3" d="M229.78,813.83h5.74v2.39c0,.54-.32.83-.81.83h-1.17c-1.29,0-2.32.95-2.32,2.25s.93,2.27,2.2,2.27,1.98-.81,2.34-2.27c1.1-3.93,3.49-6.18,7.86-6.18,5.08,0,8.11,3.52,8.11,8.79v17.55h-6.2v-17.02c0-2.83-1.44-4.47-4.17-4.47-3.37,0-5.37,2.66-5.37,7.59v13.89h-6.2v-25.63Z"/>
      <path class="cls-3" d="M257.32,840.56h6.3c.2,2.69,2.29,4.03,5.22,4.03,3.71,0,5.69-2.27,5.69-6.15v-1.9c0-.59.37-.98.9-.98h1.05c1.29,0,2.37-.9,2.37-2.25s-.9-2.25-2.22-2.25-2.08.93-2.44,2.27c-.32,1.07-.71,1.95-1.25,2.66-1.15,1.59-3,2.44-5.83,2.44-6.47,0-10.35-5.15-10.35-12.6s3.91-12.72,10.4-12.72c3.37,0,5.96,1.49,7.45,4.27v-3.56h6.2v24.17c0,7.37-4.79,11.23-12.08,11.23s-11.3-3.47-11.4-8.67ZM268.84,833.65c3.71,0,5.71-3.2,5.71-7.84s-2-7.81-5.71-7.81-5.62,3.15-5.62,7.81,1.93,7.84,5.62,7.84Z"/>
      <path class="cls-3" d="M287.27,804.45h6.2v16.82c0,.49-.34.85-.85.85h-.66c-1.42,0-2.49,1.1-2.49,2.42s1.07,2.37,2.42,2.37c1.25,0,2.32-1.05,2.32-2.39v-.81c0-.73.27-1.17.78-1.76l7.3-8.13h7.64l-9.23,9.91,10.08,15.72h-7.32l-6.84-11.33-3.15,3.37v7.96h-6.2v-35.01Z"/>
      <path class="cls-3" d="M311.42,826.62c0-8.28,4.83-13.5,12.21-13.5s12.18,5.22,12.18,13.5-4.81,13.55-12.18,13.55-12.21-5.25-12.21-13.55ZM314.66,828.84c1.2,0,2.22-.95,2.22-2.2s-1.03-2.22-2.22-2.22-2.2,1-2.2,2.22.98,2.2,2.2,2.2ZM323.62,835.29c3.61,0,5.79-3.03,5.79-8.67s-2.17-8.62-5.79-8.62-5.79,3-5.79,8.62,2.17,8.67,5.79,8.67ZM332.56,828.84c1.22,0,2.2-.95,2.2-2.2s-.98-2.22-2.2-2.22-2.2,1-2.2,2.22.98,2.2,2.2,2.2Z"/>
      <path class="cls-3" d="M339.62,826.62c0-8.28,4.83-13.5,12.21-13.5s12.18,5.22,12.18,13.5-4.81,13.55-12.18,13.55-12.21-5.25-12.21-13.55ZM342.86,828.84c1.2,0,2.22-.95,2.22-2.2s-1.03-2.22-2.22-2.22-2.2,1-2.2,2.22.98,2.2,2.2,2.2ZM351.82,835.29c3.61,0,5.79-3.03,5.79-8.67s-2.17-8.62-5.79-8.62-5.79,3-5.79,8.62,2.17,8.67,5.79,8.67ZM360.76,828.84c1.22,0,2.2-.95,2.2-2.2s-.98-2.22-2.2-2.22-2.2,1-2.2,2.22.98,2.2,2.2,2.2Z"/>
      <path class="cls-3" d="M183.98,870.45h8.4l11.91,35.01h-6.79l-2.91-8.84c-.22-.68.02-1.22.63-1.42l.81-.27c1.37-.44,2.08-1.88,1.56-3.34-.51-1.42-1.71-1.83-3.05-1.46l-.78.22c-.66.22-1.15-.1-1.34-.78l-4.35-13.45-4.39,13.45c-.17.63-.66,1-1.37.81l-.59-.2c-1.46-.42-2.83.15-3.3,1.59-.42,1.37.37,2.71,1.78,3.2l.76.27c.59.2.76.71.54,1.39l-2.98,8.84h-6.67l12.11-35.01ZM184.51,890.72h7.25c1.56,0,2.78,1.2,2.78,2.73s-1.22,2.64-2.78,2.64h-7.25c-1.59,0-2.81-1.12-2.81-2.64s1.22-2.73,2.81-2.73Z"/>
      <path class="cls-3" d="M208.07,879.83h5.74v2.39c0,.54-.32.83-.81.83h-1.17c-1.29,0-2.32.95-2.32,2.25s.93,2.27,2.2,2.27,2-.81,2.34-2.27c1.1-4.17,3.74-6.18,7.76-6.18,3.17,0,5.59,1.81,6.62,4.81,1.49-3.03,4.35-4.81,8.25-4.81,5.05,0,7.93,3.52,7.93,8.79v17.55h-6.18v-17.07c0-2.81-1.32-4.42-3.83-4.42-3.08,0-5.15,2.39-5.15,6.76v14.72h-6.2v-17.07c0-2.81-1.37-4.42-3.91-4.42-3.17,0-5.08,2.64-5.08,7.45v14.04h-6.2v-25.63Z"/>
      <path class="cls-3" d="M249.6,892.62c0-8.47,5.3-13.5,12.38-13.5s11.69,4.61,11.69,13.11c0,.66,0,1.29-.02,1.9h-15.45c-1.32,0-2.25-.9-2.25-2.15s.93-2.15,2.25-2.15h9.06c-.24-4.2-2.15-6.13-5.3-6.13-2.93,0-5.05,1.9-5.69,5.3-.12.56-.44.81-1.07.81h-.44c-1.25,0-2.2.85-2.2,2.1s.95,2.1,2.2,2.1h.46c.56,0,.85.22.9.83.29,4.44,2.69,6.67,6.08,6.67,2.76,0,4.69-1.61,5.1-4.57h6.25c-.66,5.62-4.93,9.23-11.57,9.23-7.25,0-12.38-4.35-12.38-13.55Z"/>
      <path class="cls-3" d="M278.95,879.83h5.76v2.42c0,.42-.34.81-.81.81h-.95c-1.25,0-2.34.9-2.34,2.25,0,1.27.93,2.27,2.2,2.27s1.93-.93,2.25-2.27c.27-1.1.71-2.08,1.27-2.88,1.32-1.98,3.44-3.08,6.23-3.08.49,0,.95.05,1.27.12v6.03c-.63-.15-1.27-.22-1.98-.22-3.78,0-6.69,2.47-6.69,7.76v12.43h-6.2v-25.63Z"/>
      <path class="cls-3" d="M297.7,870.24h6.67v5.96h-6.67v-5.96ZM297.92,879.83h6.2v25.63h-6.2v-25.63Z"/>
      <path class="cls-3" d="M309.27,892.74c0-8.62,4.98-13.62,11.99-13.62,6.23,0,10.79,3.42,11.25,10.21h-6.35c-.17-3.56-2.08-5.35-4.81-5.35-3.42,0-5.66,2.83-5.66,8.64s2.17,8.67,5.62,8.67c2.64,0,4.57-1.76,4.86-5.37h6.35c-.56,6.81-5.2,10.25-11.3,10.25-7.13,0-11.94-4.71-11.94-13.43ZM312.52,894.87c1.22,0,2.25-.98,2.25-2.22s-1.03-2.25-2.25-2.25-2.22,1.03-2.22,2.25.98,2.22,2.22,2.22Z"/>
      <path class="cls-3" d="M336,898.48c0-4.96,3.2-7.25,8.15-8.01l4.3-.66c2.71-.42,3.81-1.03,3.81-2.71s-1.32-3.42-4.3-3.42-4.71,1.59-4.86,4.15h-6.42c.2-5.08,4.54-8.72,11.21-8.72s10.62,3.59,10.62,9.55v10.89c0,2.1.29,4.57,1,5.13v.78h-6.47c-.24-.95-.44-2.15-.56-3.42-1.51,2.34-4.35,4.13-8.08,4.13-4.76,0-8.4-2.91-8.4-7.69ZM346.45,901.44c3.74,0,5.74-2.66,5.96-6.15l.02-.46c.07-.68.49-1.03,1.17-1.03h.54c1.25,0,2.29-.98,2.29-2.29s-1-2.27-2.29-2.27-2.34.95-2.34,2.29v.39c0,.93-.44,1.39-1.56,1.61l-1.12.22-2.54.51c-2.76.56-4.17,1.66-4.17,3.81s1.73,3.37,4.05,3.37Z"/>
      <path class="cls-3" d="M364.81,879.83h5.74v2.39c0,.54-.32.83-.81.83h-1.17c-1.29,0-2.32.95-2.32,2.25s.93,2.27,2.2,2.27,1.98-.81,2.34-2.27c1.1-3.93,3.49-6.18,7.86-6.18,5.08,0,8.11,3.52,8.11,8.79v17.55h-6.2v-17.02c0-2.83-1.44-4.47-4.17-4.47-3.37,0-5.37,2.66-5.37,7.59v13.89h-6.2v-25.63Z"/>
      <path class="cls-3" d="M411.51,870.45h8.4l11.91,35.01h-6.79l-2.91-8.84c-.22-.68.02-1.22.63-1.42l.81-.27c1.37-.44,2.08-1.88,1.56-3.34-.51-1.42-1.71-1.83-3.05-1.46l-.78.22c-.66.22-1.15-.1-1.34-.78l-4.35-13.45-4.39,13.45c-.17.63-.66,1-1.37.81l-.59-.2c-1.46-.42-2.83.15-3.3,1.59-.42,1.37.37,2.71,1.78,3.2l.76.27c.59.2.76.71.54,1.39l-2.98,8.84h-6.67l12.11-35.01ZM412.05,890.72h7.25c1.56,0,2.78,1.2,2.78,2.73s-1.22,2.64-2.78,2.64h-7.25c-1.59,0-2.81-1.12-2.81-2.64s1.22-2.73,2.81-2.73Z"/>
      <path class="cls-3" d="M435.61,879.83h5.76v2.42c0,.42-.34.81-.81.81h-.95c-1.25,0-2.34.9-2.34,2.25,0,1.27.93,2.27,2.2,2.27s1.93-.93,2.25-2.27c.27-1.1.71-2.08,1.27-2.88,1.32-1.98,3.44-3.08,6.23-3.08.49,0,.95.05,1.27.12v6.03c-.63-.15-1.27-.22-1.98-.22-3.78,0-6.69,2.47-6.69,7.76v12.43h-6.2v-25.63Z"/>
      <path class="cls-3" d="M456.8,898.51v-13.89h-4.37v-4.79h.51c3.25,0,4.66-1.37,4.86-5.1l.12-2.51h5.05v5.71c0,.59-.32.93-.9.93h-1.29c-1.34,0-2.37,1-2.37,2.27,0,1.34,1.03,2.37,2.37,2.37,1.27,0,2.27-1.03,2.27-2.37v-.42c0-.56.34-.88.93-.88h4.59v4.79h-5.59v13.23c0,2.34,1.29,3.08,3.2,3.08.63,0,1.32-.07,1.95-.22v4.76c-1.03.29-2.2.46-3.52.46-4.66,0-7.81-1.98-7.81-7.42Z"/>
      <path class="cls-3" d="M473.09,870.24h6.67v5.96h-6.67v-5.96ZM473.31,879.83h6.2v25.63h-6.2v-25.63Z"/>
      <path class="cls-3" d="M484.46,897.33h6.49c.1,2.78,2.22,4.32,5.27,4.32,2.71,0,4.42-1.2,4.42-3.15,0-1.66-1.15-2.44-3.66-2.95l-4.44-.88c-5.3-1.05-7.54-3.44-7.54-7.18,0-4.81,3.96-8.37,10.79-8.37s10.6,3.76,10.82,8.47h-6.37c-.1-2.51-1.81-4.03-4.57-4.03-2.59,0-4.3,1.29-4.3,3.15,0,1.44,1.03,2.27,3.22,2.71l4.79.9c5.15,1,7.64,3.37,7.64,7.32,0,5.69-4.79,8.52-10.89,8.52-7.1,0-11.55-3.27-11.67-8.84ZM496.18,894.48c1.07,0,1.98-.9,1.98-2s-.95-2-2-2-2.03.9-2.03,2,.98,2,2.05,2Z"/>
      <path class="cls-3" d="M514.05,898.51v-13.89h-4.37v-4.79h.51c3.25,0,4.66-1.37,4.86-5.1l.12-2.51h5.05v5.71c0,.59-.32.93-.9.93h-1.29c-1.34,0-2.37,1-2.37,2.27,0,1.34,1.03,2.37,2.37,2.37,1.27,0,2.27-1.03,2.27-2.37v-.42c0-.56.34-.88.93-.88h4.59v4.79h-5.59v13.23c0,2.34,1.29,3.08,3.2,3.08.63,0,1.32-.07,1.95-.22v4.76c-1.03.29-2.2.46-3.52.46-4.66,0-7.81-1.98-7.81-7.42Z"/>
      <path class="cls-3" d="M175.16,936.45h14.7c6.84,0,11.18,3.69,11.18,9.42,0,4.88-2.54,8.18-7.03,9.57,3.83.63,5.83,2.91,6.47,7.45l1.17,8.57h-6.54l-.85-7.37c-.49-4.03-2.25-5.74-6.47-5.74h-4.39c-1.54,0-2.71-1.2-2.71-2.64s1.17-2.69,2.71-2.69h4.2c4.37,0,7.06-2.22,7.06-5.96,0-3.42-2.2-5.2-6.03-5.2h-5.37c-.63,0-1.03-.42-1.03-1.05v-.17c0-1.34-1.07-2.39-2.37-2.39-1.37,0-2.42,1.05-2.42,2.39s1.05,2.37,2.42,2.37h.63c.68,0,1.05.42,1.05,1.07v7.93c0,.68-.37,1.05-1.05,1.05h-.61c-1.44,0-2.56,1.12-2.56,2.59s1.12,2.51,2.56,2.51h.61c.68,0,1.05.39,1.05,1.07v12.21h-6.37v-35.01Z"/>
      <path class="cls-3" d="M206.8,936.24h6.67v5.96h-6.67v-5.96ZM207.02,945.83h6.2v25.63h-6.2v-25.63Z"/>
      <path class="cls-3" d="M218.18,963.33h6.49c.1,2.78,2.22,4.32,5.27,4.32,2.71,0,4.42-1.2,4.42-3.15,0-1.66-1.15-2.44-3.66-2.95l-4.44-.88c-5.3-1.05-7.54-3.44-7.54-7.18,0-4.81,3.96-8.37,10.79-8.37s10.6,3.76,10.82,8.47h-6.37c-.1-2.51-1.81-4.03-4.57-4.03-2.59,0-4.3,1.29-4.3,3.15,0,1.44,1.03,2.27,3.22,2.71l4.79.9c5.15,1,7.64,3.37,7.64,7.32,0,5.69-4.79,8.52-10.89,8.52-7.1,0-11.55-3.27-11.67-8.84ZM229.9,960.48c1.07,0,1.98-.9,1.98-2s-.95-2-2-2-2.03.9-2.03,2,.98,2,2.05,2Z"/>
      <path class="cls-3" d="M244.33,964.48c0-4.96,3.2-7.25,8.15-8.01l4.3-.66c2.71-.42,3.81-1.03,3.81-2.71s-1.32-3.42-4.3-3.42-4.71,1.59-4.86,4.15h-6.42c.2-5.08,4.54-8.72,11.21-8.72s10.62,3.59,10.62,9.55v10.89c0,2.1.29,4.57,1,5.13v.78h-6.47c-.24-.95-.44-2.15-.56-3.42-1.51,2.34-4.35,4.13-8.08,4.13-4.76,0-8.4-2.91-8.4-7.69ZM254.78,967.44c3.74,0,5.74-2.66,5.96-6.15l.02-.46c.07-.68.49-1.03,1.17-1.03h.54c1.25,0,2.29-.98,2.29-2.29s-1-2.27-2.29-2.27-2.34.95-2.34,2.29v.39c0,.93-.44,1.39-1.56,1.61l-1.12.22-2.54.51c-2.76.56-4.17,1.66-4.17,3.81s1.73,3.37,4.05,3.37Z"/>
      <path class="cls-3" d="M273.14,945.83h5.76v2.42c0,.42-.34.81-.81.81h-.95c-1.25,0-2.34.9-2.34,2.25,0,1.27.93,2.27,2.2,2.27s1.93-.93,2.25-2.27c.27-1.1.71-2.08,1.27-2.88,1.32-1.98,3.44-3.08,6.23-3.08.49,0,.95.05,1.27.12v6.03c-.63-.15-1.27-.22-1.98-.22-3.78,0-6.69,2.47-6.69,7.76v12.43h-6.2v-25.63Z"/>
      <path class="cls-3" d="M291.89,936.24h6.67v5.96h-6.67v-5.96ZM292.11,945.83h6.2v25.63h-6.2v-25.63Z"/>
      <path class="cls-3" d="M311.03,967.97v12.5h-6.23v-34.64h6.08v2.12c0,.61-.34.95-.88.95h-1.15c-1.34,0-2.29.98-2.29,2.22s.98,2.22,2.25,2.22,1.98-.98,2.37-2.29c.34-1.07.76-2,1.32-2.81,1.39-2.03,3.49-3.12,6.27-3.12,6.25,0,10.06,5.18,10.06,13.53s-4.03,13.53-10.47,13.53c-3.22,0-5.79-1.39-7.32-4.2ZM316.74,967.29c3.76,0,5.69-3.49,5.69-8.62s-1.93-8.69-5.69-8.69-5.74,3.56-5.74,8.69,2,8.62,5.74,8.62Z"/>
      <path class="cls-3" d="M332.51,964.48c0-4.96,3.2-7.25,8.15-8.01l4.3-.66c2.71-.42,3.81-1.03,3.81-2.71s-1.32-3.42-4.3-3.42-4.71,1.59-4.86,4.15h-6.42c.2-5.08,4.54-8.72,11.21-8.72s10.62,3.59,10.62,9.55v10.89c0,2.1.29,4.57,1,5.13v.78h-6.47c-.24-.95-.44-2.15-.56-3.42-1.51,2.34-4.35,4.13-8.08,4.13-4.76,0-8.4-2.91-8.4-7.69ZM342.96,967.44c3.74,0,5.74-2.66,5.96-6.15l.02-.46c.07-.68.49-1.03,1.17-1.03h.54c1.25,0,2.29-.98,2.29-2.29s-1-2.27-2.29-2.27-2.34.95-2.34,2.29v.39c0,.93-.44,1.39-1.56,1.61l-1.12.22-2.54.51c-2.76.56-4.17,1.66-4.17,3.81s1.73,3.37,4.05,3.37Z"/>
      <path class="cls-3" d="M369.01,949.08v-.81h3.69v.68c0,1.88.95,3.02,2.72,3.02s2.78-.95,2.78-3.34v-14.22h3.72v14.31c0,4.24-2.53,6.49-6.51,6.49s-6.39-2.18-6.39-6.12ZM380.05,945.69c.73,0,1.31-.58,1.31-1.31s-.58-1.32-1.31-1.32-1.32.6-1.32,1.32.6,1.31,1.32,1.31Z"/>
      <path class="cls-3" d="M386.14,934.4h7.99c4.21,0,6.79,2.49,6.79,6.45s-2.7,6.48-6.78,6.48h-3.17c-.88,0-1.61-.68-1.61-1.57s.73-1.59,1.61-1.59h2.45c2.41,0,3.8-1.12,3.8-3.32s-1.4-3.29-3.82-3.29h-2.65c-.37,0-.6-.23-.6-.58v-.13c0-.8-.65-1.44-1.44-1.44s-1.44.63-1.44,1.44.64,1.42,1.45,1.42h.47c.4,0,.65.27.65.64v4.7c0,.4-.26.64-.65.64h-.41c-.85,0-1.54.68-1.54,1.54s.68,1.51,1.54,1.51h.47c.38,0,.6.24.6.6v6.92h-3.72v-20.42Z"/>
      <path class="cls-3" d="M174.65,1011.83h5.76v2.42c0,.42-.34.81-.81.81h-.95c-1.25,0-2.34.9-2.34,2.25,0,1.27.93,2.27,2.2,2.27s1.93-.93,2.25-2.27c.27-1.1.71-2.08,1.27-2.88,1.32-1.98,3.44-3.08,6.23-3.08.49,0,.95.05,1.27.12v6.03c-.63-.15-1.27-.22-1.98-.22-3.78,0-6.69,2.47-6.69,7.76v12.43h-6.2v-25.63Z"/>
      <path class="cls-3" d="M193.4,1002.24h6.67v5.96h-6.67v-5.96ZM193.62,1011.83h6.2v25.63h-6.2v-25.63Z"/>
      <path class="cls-3" d="M206.31,1011.83h5.76v2.42c0,.42-.34.81-.81.81h-.95c-1.25,0-2.34.9-2.34,2.25,0,1.27.93,2.27,2.2,2.27s1.93-.93,2.25-2.27c.27-1.1.71-2.08,1.27-2.88,1.32-1.98,3.44-3.08,6.23-3.08.49,0,.95.05,1.27.12v6.03c-.63-.15-1.27-.22-1.98-.22-3.78,0-6.69,2.47-6.69,7.76v12.43h-6.2v-25.63Z"/>
      <path class="cls-3" d="M223.01,1024.62c0-8.28,4.83-13.5,12.21-13.5s12.18,5.22,12.18,13.5-4.81,13.55-12.18,13.55-12.21-5.25-12.21-13.55ZM226.26,1026.84c1.2,0,2.22-.95,2.22-2.2s-1.03-2.22-2.22-2.22-2.2,1-2.2,2.22.98,2.2,2.2,2.2ZM235.22,1033.29c3.61,0,5.79-3.03,5.79-8.67s-2.17-8.62-5.79-8.62-5.79,3-5.79,8.62,2.17,8.67,5.79,8.67ZM244.16,1026.84c1.22,0,2.2-.95,2.2-2.2s-.98-2.22-2.2-2.22-2.2,1-2.2,2.22.98,2.2,2.2,2.2Z"/>
      <path class="cls-3" d="M252.55,1011.83h5.74v2.39c0,.54-.32.83-.81.83h-1.17c-1.29,0-2.32.95-2.32,2.25s.93,2.27,2.2,2.27,1.98-.81,2.34-2.27c1.1-3.93,3.49-6.18,7.86-6.18,5.08,0,8.11,3.52,8.11,8.79v17.55h-6.2v-17.02c0-2.83-1.44-4.47-4.17-4.47-3.37,0-5.37,2.66-5.37,7.59v13.89h-6.2v-25.63Z"/>
      <path class="cls-3" d="M280.09,1038.56h6.3c.2,2.69,2.29,4.03,5.22,4.03,3.71,0,5.69-2.27,5.69-6.15v-1.9c0-.59.37-.98.9-.98h1.05c1.29,0,2.37-.9,2.37-2.25s-.9-2.25-2.22-2.25-2.08.93-2.44,2.27c-.32,1.07-.71,1.95-1.25,2.66-1.15,1.59-3,2.44-5.83,2.44-6.47,0-10.35-5.15-10.35-12.6s3.91-12.72,10.4-12.72c3.37,0,5.96,1.49,7.45,4.27v-3.56h6.2v24.17c0,7.37-4.79,11.23-12.08,11.23s-11.3-3.47-11.4-8.67ZM291.62,1031.65c3.71,0,5.71-3.2,5.71-7.84s-2-7.81-5.71-7.81-5.62,3.15-5.62,7.81,1.93,7.84,5.62,7.84Z"/>
      <path class="cls-3" d="M309.34,1038.56h6.3c.2,2.69,2.29,4.03,5.22,4.03,3.71,0,5.69-2.27,5.69-6.15v-1.9c0-.59.37-.98.9-.98h1.05c1.29,0,2.37-.9,2.37-2.25s-.9-2.25-2.22-2.25-2.08.93-2.44,2.27c-.32,1.07-.71,1.95-1.25,2.66-1.15,1.59-3,2.44-5.83,2.44-6.47,0-10.35-5.15-10.35-12.6s3.91-12.72,10.4-12.72c3.37,0,5.96,1.49,7.45,4.27v-3.56h6.2v24.17c0,7.37-4.79,11.23-12.08,11.23s-11.3-3.47-11.4-8.67ZM320.87,1031.65c3.71,0,5.71-3.2,5.71-7.84s-2-7.81-5.71-7.81-5.62,3.15-5.62,7.81,1.93,7.84,5.62,7.84Z"/>
      <path class="cls-3" d="M346.98,1015.08v-.81h3.69v.68c0,1.88.95,3.02,2.72,3.02s2.78-.95,2.78-3.34v-14.22h3.72v14.31c0,4.24-2.53,6.49-6.51,6.49s-6.39-2.18-6.39-6.12ZM358.03,1011.69c.73,0,1.31-.58,1.31-1.31s-.58-1.32-1.31-1.32-1.32.6-1.32,1.32.6,1.31,1.32,1.31Z"/>
      <path class="cls-3" d="M364.12,1000.4h7.99c4.21,0,6.79,2.49,6.79,6.45s-2.7,6.48-6.78,6.48h-3.17c-.88,0-1.61-.68-1.61-1.57s.73-1.59,1.61-1.59h2.45c2.41,0,3.8-1.12,3.8-3.32s-1.4-3.29-3.82-3.29h-2.65c-.37,0-.6-.23-.6-.58v-.13c0-.8-.65-1.44-1.44-1.44s-1.44.63-1.44,1.44.64,1.42,1.45,1.42h.47c.4,0,.65.27.65.64v4.7c0,.4-.26.64-.65.64h-.41c-.85,0-1.54.68-1.54,1.54s.68,1.51,1.54,1.51h.47c.38,0,.6.24.6.6v6.92h-3.72v-20.42Z"/>
      <path class="cls-3" d="M175.16,1068.45h13.7c7.23,0,11.65,4.27,11.65,11.06s-4.64,11.11-11.62,11.11h-5.44c-1.51,0-2.76-1.17-2.76-2.69s1.25-2.73,2.76-2.73h4.2c4.13,0,6.52-1.93,6.52-5.69s-2.39-5.64-6.54-5.64h-4.54c-.63,0-1.03-.39-1.03-1v-.22c0-1.37-1.12-2.47-2.47-2.47s-2.47,1.07-2.47,2.47,1.1,2.44,2.49,2.44h.81c.68,0,1.12.46,1.12,1.1v8.06c0,.68-.44,1.1-1.12,1.1h-.71c-1.46,0-2.64,1.17-2.64,2.64s1.17,2.59,2.64,2.59h.81c.66,0,1.03.42,1.03,1.03v11.87h-6.37v-35.01Z"/>
      <path class="cls-3" d="M198.77,1096.65h6.71v6.81h-6.71v-6.81Z"/>
      <path class="cls-3" d="M208.88,1085.96c0-11.13,6.01-18.19,15.33-18.19s15.36,7.08,15.36,18.19-5.91,18.21-15.36,18.21-15.33-7.08-15.33-18.21ZM212.25,1088.33c1.32,0,2.37-1.05,2.37-2.37s-1.05-2.37-2.37-2.37-2.39,1.05-2.39,2.37,1.05,2.37,2.39,2.37ZM224.21,1098.68c5.44,0,8.74-4.57,8.74-12.72s-3.32-12.72-8.74-12.72-8.72,4.61-8.72,12.72,3.32,12.72,8.72,12.72ZM236.22,1088.33c1.34,0,2.39-1.05,2.39-2.37s-1.05-2.37-2.39-2.37-2.37,1.05-2.37,2.37,1.05,2.37,2.37,2.37Z"/>
      <path class="cls-3" d="M242.98,1096.65h6.71v6.81h-6.71v-6.81Z"/>
      <path class="cls-3" d="M249.41,1068.45h6.71l7.18,25.27c.17.66.2,1.15-.27,1.61l-.49.51c-.54.56-.81,1.22-.81,1.9,0,1.42,1.05,2.54,2.49,2.54s2.49-1.12,2.49-2.54c0-.68-.27-1.34-.78-1.86l-.49-.51c-.46-.46-.51-.95-.32-1.61l7.47-25.32h6.45l-10.86,35.01h-8.11l-10.67-35.01Z"/>
      <path class="cls-3" d="M278.68,1096.65h6.71v6.81h-6.71v-6.81Z"/>
      <path class="cls-3" d="M297.67,1081.08v-.81h3.69v.68c0,1.88.95,3.02,2.72,3.02s2.78-.95,2.78-3.34v-14.22h3.72v14.31c0,4.24-2.53,6.49-6.51,6.49s-6.39-2.18-6.39-6.12ZM308.72,1077.69c.73,0,1.31-.58,1.31-1.31s-.58-1.32-1.31-1.32-1.32.6-1.32,1.32.6,1.31,1.32,1.31Z"/>
      <path class="cls-3" d="M314.81,1066.4h7.99c4.21,0,6.79,2.49,6.79,6.45s-2.7,6.48-6.78,6.48h-3.17c-.88,0-1.61-.68-1.61-1.57s.73-1.59,1.61-1.59h2.45c2.41,0,3.8-1.12,3.8-3.32s-1.4-3.29-3.82-3.29h-2.65c-.37,0-.6-.23-.6-.58v-.13c0-.8-.65-1.44-1.44-1.44s-1.44.63-1.44,1.44.64,1.42,1.45,1.42h.47c.4,0,.65.27.65.64v4.7c0,.4-.26.64-.65.64h-.41c-.85,0-1.54.68-1.54,1.54s.68,1.51,1.54,1.51h.47c.38,0,.6.24.6.6v6.92h-3.72v-20.42Z"/>
      <path class="cls-3" d="M175.16,1134.45h11.62c10.28,0,15.94,6.98,15.94,17.07,0,10.67-6.25,17.94-16.28,17.94h-11.28v-35.01ZM179.61,1167.76c1.37,0,2.51-1.1,2.51-2.54v-.32c0-.51.34-.85.81-.85h3.25c7.3,0,9.94-6.25,9.94-12.52,0-6.81-2.93-11.65-10.03-11.65h-3.15c-.46,0-.81-.34-.81-.88v-.22c0-1.44-1.15-2.54-2.51-2.54s-2.54,1.1-2.54,2.54,1.12,2.49,2.54,2.49h1.1c.46,0,.83.37.83.83v19.8c0,.46-.37.83-.85.83h-1.07c-1.42,0-2.54,1.12-2.54,2.49,0,1.44,1.12,2.54,2.54,2.54Z"/>
      <path class="cls-3" d="M203.12,1178.64v-4.74c.49.1,1.07.2,1.83.2,1.9,0,3.08-.63,3.08-2.73v-27.54h6.2v27.47c0,6.08-3.42,7.71-7.91,7.71-1.07,0-2.25-.1-3.2-.37ZM207.78,1134.24h6.67v5.96h-6.67v-5.96Z"/>
      <path class="cls-3" d="M220.5,1134.24h6.67v5.96h-6.67v-5.96ZM220.72,1143.83h6.2v25.63h-6.2v-25.63Z"/>
      <path class="cls-3" d="M233.41,1134.45h6.2v35.01h-6.2v-35.01Z"/>
      <path class="cls-3" d="M244.77,1156.62c0-8.28,4.83-13.5,12.21-13.5s12.18,5.22,12.18,13.5-4.81,13.55-12.18,13.55-12.21-5.25-12.21-13.55ZM248.01,1158.84c1.2,0,2.22-.95,2.22-2.2s-1.03-2.22-2.22-2.22-2.2,1-2.2,2.22.98,2.2,2.2,2.2ZM256.97,1165.29c3.61,0,5.79-3.03,5.79-8.67s-2.17-8.62-5.79-8.62-5.79,3-5.79,8.62,2.17,8.67,5.79,8.67ZM265.91,1158.84c1.22,0,2.2-.95,2.2-2.2s-.98-2.22-2.2-2.22-2.2,1-2.2,2.22.98,2.2,2.2,2.2Z"/>
      <path class="cls-3" d="M273.6,1170.56h6.3c.2,2.69,2.29,4.03,5.22,4.03,3.71,0,5.69-2.27,5.69-6.15v-1.9c0-.59.37-.98.9-.98h1.05c1.29,0,2.37-.9,2.37-2.25s-.9-2.25-2.22-2.25-2.08.93-2.44,2.27c-.32,1.07-.71,1.95-1.25,2.66-1.15,1.59-3,2.44-5.83,2.44-6.47,0-10.35-5.15-10.35-12.6s3.91-12.72,10.4-12.72c3.37,0,5.96,1.49,7.45,4.27v-3.56h6.2v24.17c0,7.37-4.79,11.23-12.08,11.23s-11.3-3.47-11.4-8.67ZM285.12,1163.65c3.71,0,5.71-3.2,5.71-7.84s-2-7.81-5.71-7.81-5.62,3.15-5.62,7.81,1.93,7.84,5.62,7.84Z"/>
      <path class="cls-3" d="M303.36,1161.53v-17.7h6.2v16.97c0,2.78,1.44,4.49,4.27,4.49,3.3,0,5.3-2.69,5.3-7.42v-14.04h6.18v25.63h-5.71v-2.42c0-.54.29-.83.78-.83h1.17c1.32,0,2.34-.98,2.34-2.25s-.93-2.25-2.22-2.25-1.98.78-2.37,2.25c-1.1,3.83-3.37,6.2-7.67,6.2-5.2,0-8.28-3.27-8.28-8.64Z"/>
      <path class="cls-3" d="M330.46,1156.62c0-8.47,5.3-13.5,12.38-13.5s11.69,4.61,11.69,13.11c0,.66,0,1.29-.02,1.9h-15.45c-1.32,0-2.25-.9-2.25-2.15s.93-2.15,2.25-2.15h9.06c-.24-4.2-2.15-6.13-5.3-6.13-2.93,0-5.05,1.9-5.69,5.3-.12.56-.44.81-1.07.81h-.44c-1.25,0-2.2.85-2.2,2.1s.95,2.1,2.2,2.1h.46c.56,0,.85.22.9.83.29,4.44,2.69,6.67,6.08,6.67,2.76,0,4.69-1.61,5.1-4.57h6.25c-.66,5.62-4.93,9.23-11.57,9.23-7.25,0-12.38-4.35-12.38-13.55Z"/>
    </g>
    <g>
      <g>
        <path class="cls-3" d="M772.06,1017.96h7.34c3.87,0,6.24,2.29,6.24,5.92s-2.48,5.95-6.22,5.95h-2.92c-.81,0-1.48-.63-1.48-1.44s.67-1.46,1.48-1.46h2.25c2.21,0,3.49-1.03,3.49-3.05s-1.28-3.02-3.5-3.02h-2.43c-.34,0-.55-.21-.55-.54v-.12c0-.73-.6-1.32-1.32-1.32s-1.32.58-1.32,1.32.59,1.31,1.33,1.31h.43c.37,0,.6.25.6.59v4.32c0,.37-.24.59-.6.59h-.38c-.78,0-1.41.63-1.41,1.41s.63,1.39,1.41,1.39h.43c.35,0,.55.22.55.55v6.36h-3.41v-18.75Z"/>
        <path class="cls-3" d="M787.03,1032.98c0-2.65,1.71-3.88,4.37-4.29l2.3-.35c1.45-.22,2.04-.55,2.04-1.45s-.71-1.83-2.3-1.83-2.52.85-2.6,2.22h-3.44c.1-2.72,2.43-4.67,6-4.67s5.69,1.92,5.69,5.11v5.83c0,1.12.16,2.45.54,2.75v.42h-3.46c-.13-.51-.24-1.15-.3-1.83-.81,1.26-2.33,2.21-4.33,2.21-2.55,0-4.5-1.56-4.5-4.12ZM792.63,1034.56c2,0,3.07-1.43,3.19-3.3v-.25c.05-.37.27-.55.64-.55h.29c.67,0,1.23-.52,1.23-1.23s-.54-1.22-1.23-1.22-1.25.51-1.25,1.23v.21c0,.5-.24.75-.84.86l-.6.12-1.36.27c-1.48.3-2.24.89-2.24,2.04s.93,1.8,2.17,1.8Z"/>
        <path class="cls-3" d="M802.29,1022.99h3.09v1.29c0,.22-.18.43-.43.43h-.51c-.67,0-1.25.48-1.25,1.2,0,.68.5,1.22,1.18,1.22s1.03-.5,1.2-1.22c.14-.59.38-1.11.68-1.54.71-1.06,1.84-1.65,3.33-1.65.26,0,.51.03.68.07v3.23c-.34-.08-.68-.12-1.06-.12-2.03,0-3.58,1.32-3.58,4.16v6.66h-3.32v-13.73Z"/>
        <path class="cls-3" d="M813.97,1032.99v-7.44h-2.34v-2.56h.27c1.74,0,2.5-.73,2.6-2.73l.07-1.35h2.71v3.06c0,.31-.17.5-.48.5h-.69c-.72,0-1.27.54-1.27,1.22,0,.72.55,1.27,1.27,1.27.68,0,1.22-.55,1.22-1.27v-.22c0-.3.18-.47.5-.47h2.46v2.56h-2.99v7.09c0,1.26.69,1.65,1.71,1.65.34,0,.71-.04,1.05-.12v2.55c-.55.16-1.18.25-1.88.25-2.5,0-4.18-1.06-4.18-3.97Z"/>
        <path class="cls-3" d="M822.45,1022.99h3.07v1.28c0,.29-.17.44-.43.44h-.63c-.69,0-1.24.51-1.24,1.2s.5,1.22,1.18,1.22,1.06-.43,1.25-1.22c.59-2.11,1.87-3.31,4.21-3.31,2.72,0,4.34,1.88,4.34,4.71v9.4h-3.32v-9.11c0-1.52-.77-2.39-2.24-2.39-1.8,0-2.88,1.43-2.88,4.07v7.44h-3.32v-13.73Z"/>
        <path class="cls-3" d="M836.69,1029.84c0-4.54,2.84-7.23,6.63-7.23s6.26,2.47,6.26,7.02c0,.35,0,.69-.01,1.02h-8.28c-.71,0-1.2-.48-1.2-1.15s.5-1.15,1.2-1.15h4.85c-.13-2.25-1.15-3.28-2.84-3.28-1.57,0-2.71,1.02-3.05,2.84-.07.3-.24.43-.58.43h-.24c-.67,0-1.18.46-1.18,1.12s.51,1.12,1.18,1.12h.25c.3,0,.46.12.48.44.16,2.38,1.44,3.57,3.26,3.57,1.48,0,2.51-.86,2.73-2.45h3.35c-.35,3.01-2.64,4.94-6.2,4.94-3.88,0-6.63-2.33-6.63-7.26Z"/>
        <path class="cls-3" d="M852.24,1022.99h3.09v1.29c0,.22-.18.43-.43.43h-.51c-.67,0-1.25.48-1.25,1.2,0,.68.5,1.22,1.18,1.22s1.03-.5,1.2-1.22c.14-.59.38-1.11.68-1.54.71-1.06,1.84-1.65,3.33-1.65.26,0,.51.03.68.07v3.23c-.34-.08-.68-.12-1.06-.12-2.03,0-3.58,1.32-3.58,4.16v6.66h-3.32v-13.73Z"/>
        <path class="cls-3" d="M861.65,1032.36h3.48c.05,1.49,1.19,2.31,2.82,2.31,1.45,0,2.37-.64,2.37-1.69,0-.89-.61-1.31-1.96-1.58l-2.38-.47c-2.84-.56-4.04-1.84-4.04-3.84,0-2.58,2.12-4.49,5.78-4.49s5.68,2.01,5.79,4.54h-3.41c-.05-1.35-.97-2.16-2.45-2.16-1.39,0-2.3.69-2.3,1.69,0,.77.55,1.22,1.73,1.45l2.56.48c2.76.54,4.09,1.8,4.09,3.92,0,3.05-2.56,4.56-5.83,4.56-3.81,0-6.19-1.75-6.25-4.73ZM867.92,1030.83c.58,0,1.06-.48,1.06-1.07s-.51-1.07-1.07-1.07-1.08.48-1.08,1.07.52,1.07,1.1,1.07Z"/>
      </g>
      <g>
        <path class="cls-3" d="M832.36,1159.68c.43-.26.88-.5,1.28-.8,2.42-1.82,5.06-3.18,7.97-4,1.47-.42,2.96-.82,4.51-.73.5.03,1.03.17,1.48.38.82.39,1,1.16.54,1.94-.47.8-1.11,1.45-1.81,2.03-2.06,1.71-4.35,3.05-6.76,4.18-.62.29-1.26.55-1.9.83-.13.06-.25.12-.37.2-.2.14-.19.28.02.39.21.11.43.2.65.29,1.11.45,1.51,1.34,1.03,2.47-.24.57-.59,1.08-.88,1.63-.1.19-.2.39-.27.59-.23.69.06,1.22.77,1.37.61.13,1.22.05,1.83-.09,1.64-.38,3.16-1.09,4.63-1.89,1.66-.9,3.25-1.92,4.7-3.16.8-.69,1.43-1.47,1.63-2.55.05-.26.16-.52.28-.76.24-.5.77-.74,1.3-.63.44.09.73.53.69,1.04-.03.48-.27.87-.55,1.23-.78.99-1.78,1.73-2.77,2.49-2.38,1.83-5.02,3.2-7.77,4.37-.89.38-1.78.81-2.71,1.06-1.44.38-2.93.55-4.4.07-.65-.21-1.12-.64-1.44-1.23-.29-.54-.29-1.09.04-1.61.19-.31.44-.59.68-.87.32-.37.68-.7.99-1.08.3-.36.52-.76.33-1.26-.21-.54-.68-.73-1.19-.82-.79-.13-1.5.17-2.23.41-.44.14-.88.3-1.33.4-.23.05-.5.02-.73-.04-.3-.08-.49-.3-.54-.63-.05-.35.08-.61.39-.74.24-.11.51-.22.77-.22,2.72.06,5.04-1.1,7.32-2.39,1.71-.97,3.32-2.07,4.68-3.51.35-.37.68-.79.93-1.24.38-.66.1-1.14-.66-1.1-.67.03-1.37.09-2,.32-1.16.42-2.31.91-3.41,1.47-3.05,1.57-5.84,3.53-8.45,5.76-1.82,1.55-3.54,3.21-5.14,4.99-.86.95-1.74,1.88-2.62,2.8-.44.46-.98.74-1.65.65-.65-.08-.96-.52-.65-1.09.35-.64.81-1.22,1.25-1.81.26-.35.56-.66.84-.99.08-.1.14-.22.21-.33-.02-.03-.05-.06-.07-.09-.27.13-.56.24-.82.39-1.33.78-2.63,1.61-4,2.34-1.81.96-3.74,1.63-5.8,1.82-1.86.17-3.71.1-5.46-.69-1.6-.72-2.53-2.1-2.47-3.74.02-.52.13-1.03.19-1.55.04-.39-.08-.49-.41-.29-.91.56-1.81,1.14-2.7,1.73-2.34,1.55-4.71,3.02-7.4,3.89-1.26.4-2.54.62-3.85.28-1.05-.27-1.84-1.11-1.96-2.13-.08-.69.16-1.33.43-1.95.09-.2.18-.4.24-.6.02-.08,0-.2-.04-.26-.03-.04-.17-.03-.24,0-.25.13-.5.26-.73.42-2.43,1.67-4.99,3.11-7.74,4.16-1.45.56-2.94.99-4.5.94-1.8-.07-3.3-.75-4.11-2.49-.48-1.03-.5-2.14-.05-3.17,1.97-4.49,4.58-8.58,7.65-12.39,1.73-2.16,3.6-4.19,5.59-6.11,2.57-2.48,5.29-4.8,8.25-6.81,1.88-1.28,3.8-2.52,5.73-3.75.91-.58,1.9-1.04,2.98-1.22.58-.1,1.15-.07,1.72.14.67.25.99.97.94,1.62-.08.88-.43,1.67-.93,2.37-.82,1.14-1.66,2.28-2.59,3.33-1.3,1.45-2.67,2.84-4.06,4.21-4.26,4.2-8.74,8.14-13.62,11.6-1.47,1.04-3,1.96-4.63,2.72-.34.16-.68.34-1.01.52-.53.29-.93.72-1.16,1.28-.51,1.24-.73,2.53-.52,3.86.27,1.69,1.46,2.57,3.15,2.4,1.16-.12,2.21-.57,3.24-1.07,3.62-1.79,6.95-4.03,9.99-6.7,1.23-1.08,2.39-2.22,3.6-3.32,1.15-1.05,2.32-2.07,3.48-3.11.52-.47,1-.99,1.55-1.43.29-.24.67-.4,1.03-.51.18-.05.5.02.6.16.1.13.06.46-.04.62-.25.4-.56.77-.88,1.12-2.01,2.2-4.08,4.34-5.86,6.74-.97,1.3-1.83,2.66-2.23,4.26-.13.54-.26,1.08-.1,1.64.2.74.78,1.12,1.54,1.01.92-.13,1.72-.56,2.52-.99,2.87-1.54,5.51-3.42,8.08-5.4.64-.49,1.19-1.1,1.74-1.69,1.36-1.46,2.9-2.7,4.56-3.78,1.96-1.29,4.05-2.32,6.33-2.89,1-.25,2-.45,3.04-.23.63.13,1.22.37,1.65.89.3.37.44.8.35,1.25-.41,2.06-1.57,3.54-3.48,4.38-.53.23-1.1.17-1.64-.05-1-.41-.87-1.72-.23-2.14.4-.26.87-.4,1.33-.55.59-.19,1.19-.33,1.58-.88.08-.11.16-.23.22-.36.37-.73.03-1.42-.77-1.56-.69-.13-1.35,0-2,.22-1.29.42-2.4,1.18-3.47,1.99-1.82,1.38-3.42,2.99-4.69,4.91-.71,1.08-1.28,2.22-1.45,3.52-.16,1.24.04,2.41.86,3.39.56.66,1.3,1,2.15,1.06,1.73.12,3.35-.36,4.93-1,2.18-.89,4.18-2.11,6.13-3.41,1.37-.92,2.74-1.87,3.97-2.96,1.26-1.11,2.37-2.4,3.51-3.64,1.21-1.3,2.38-2.63,3.57-3.95.35-.39.7-.77,1.02-1.17.21-.27.16-.41-.18-.47-.62-.12-1.26-.18-1.88-.32-.88-.19-1.54-.71-1.93-1.54-.17-.37-.21-.75-.09-1.14.15-.47.43-.82.94-.88.51-.06.9.17,1.19.58.11.16.21.33.27.51.5,1.32,1.53,1.41,2.46,1.27.77-.12,1.35-.57,1.84-1.14,2.07-2.36,4.11-4.74,6.2-7.08,1.51-1.7,3.06-3.37,4.64-5,1.07-1.11,2.28-2.07,3.74-2.63.82-.32,1.66-.55,2.55-.38.7.13,1.11.61,1.14,1.33.05,1.07-.37,2-.86,2.9-.73,1.33-1.74,2.45-2.73,3.59-1.59,1.84-3.38,3.47-5.33,4.91-1.9,1.4-3.94,2.53-6.07,3.53-1.03.49-2.04,1-2.81,1.88-.84.97-1.66,1.97-2.5,2.95-.62.72-1.25,1.43-1.88,2.14.02.03.04.06.06.09ZM801.36,1138.92c.02-.63-.44-1-1.01-.96-1.05.08-1.99.49-2.85,1.07-1.08.73-2.12,1.53-3.17,2.31-3.47,2.58-6.76,5.36-9.77,8.48-1.54,1.6-3.02,3.25-4.37,5.01-1.44,1.87-2.72,3.83-3.72,5.98-.07.15-.06.34-.09.52.17,0,.36.02.52-.03,1.09-.37,2.1-.93,3-1.63,2.79-2.16,5.6-4.29,8.3-6.54,2.22-1.85,4.33-3.86,6.44-5.83,1.12-1.04,2.17-2.16,3.21-3.27,1.02-1.08,1.98-2.21,2.78-3.47.34-.53.64-1.08.7-1.64ZM839.47,1151.13s.04.05.05.07c.15-.05.3-.1.44-.17,3.84-1.8,7.2-4.26,9.96-7.52.84-.99,1.6-2.04,2.34-3.11.37-.54.66-1.15.57-1.86-.05-.44-.37-.68-.8-.59-.17.03-.34.08-.49.17-.43.25-.87.49-1.25.8-1.49,1.18-2.79,2.56-4.01,4.01-2.03,2.41-4.04,4.83-6.05,7.25-.26.31-.52.62-.77.93Z"/>
        <path class="cls-3" d="M914.04,1156.21c.24-.08.39-.11.53-.17.88-.37,1.75-.8,2.65-1.12,1.16-.41,2.37-.56,3.59-.27,1.49.36,2.4,1.54,2.43,3.09.03,1.79-.46,3.47-1.19,5.06-1.73,3.78-4.5,6.57-8.17,8.45-1.47.75-3.03,1.19-4.71,1.03-1.82-.18-3.1-1.62-3.12-3.46-.01-.87.22-1.63.78-2.28.37-.43.85-.55,1.38-.43.4.09.67.37.75.77.1.48-.03.92-.29,1.33-.2.3-.4.6-.56.91-.27.51-.08.94.46,1.13.42.14.83.04,1.24-.08,1.3-.39,2.42-1.13,3.48-1.95,2.45-1.92,4.51-4.19,6.08-6.9.62-1.08,1.12-2.21,1.25-3.46.06-.59.11-1.21-.33-1.71-.45-.51-1.05-.61-1.66-.48-.58.12-1.15.29-1.69.54-1.77.8-3.48,1.73-5.02,2.94-1.08.84-1.92,1.9-2.78,2.94-3.33,3.99-6.45,8.15-9.61,12.28-1.49,1.95-3.03,3.87-4.59,5.77-1.35,1.65-2.72,3.29-4.15,4.86-.97,1.06-2.08,2-3.28,2.79-.93.61-1.95.91-3.07.71-.91-.17-1.29-.89-1.22-1.75.11-1.26.68-2.34,1.44-3.29,1.21-1.51,2.47-2.99,3.77-4.42,1.08-1.2,2.22-2.35,3.38-3.47,1.56-1.51,3.18-2.97,4.76-4.46.61-.58,1.2-1.19,1.79-1.79.09-.1.15-.23.23-.34-.01-.03-.03-.05-.04-.08-.13.04-.28.05-.4.11-.8.43-1.58.88-2.39,1.31-1.37.72-2.76,1.38-4.32,1.58-.95.12-1.87.04-2.74-.39-1.15-.58-1.65-1.6-1.36-2.86.12-.5.35-.97.54-1.46.05-.13.1-.25.09-.44-.13.06-.27.1-.39.17-1.97,1.16-3.92,2.36-5.93,3.46-1.03.57-2.16.98-3.26,1.43-.6.24-1.24.2-1.82-.09-.62-.31-1.21-.26-1.85-.06-1.45.47-2.93.65-4.43.34-1.54-.32-2.81-1.06-3.49-2.57-.6-1.34-.48-2.69.03-4.02.34-.89.86-1.65,1.7-2.15.42-.25.88-.4,1.39-.29.51.11.86.4,1.02.89.17.51.03.99-.35,1.34-.3.27-.67.47-1.03.65-.59.29-1.17.58-1.45,1.23-.78,1.82.65,3.36,2.04,3.56,1.03.14,1.95-.22,2.78-.76,2.12-1.36,3.71-3.19,4.7-5.53.48-1.14.37-2.31.17-3.5-.14-.82-.28-1.65-.35-2.48-.21-2.4,1.58-4.33,3.98-4.35,1.62,0,2.85.66,3.67,2.06.73,1.25.27,2.96-.97,3.67-.38.22-.79.23-1.17-.01-.32-.21-.43-.55-.33-.89.08-.26.27-.51.46-.72.29-.32.65-.57.78-1.02.26-.93-.42-1.93-1.47-2.16-1.17-.26-2.27.26-2.98,1.41-.6.97-.65,2.01-.38,3.07.22.87.5,1.73.75,2.59.61,2.12.44,4.15-.76,6.03-.36.56-.77,1.1-1.16,1.64-.16.22-.42.43-.26.71.17.3.53.28.79.19.84-.3,1.72-.55,2.49-.99,2.16-1.23,4.29-2.5,6.38-3.84,1.91-1.23,3.67-2.66,5.32-4.24,1.56-1.51,3.22-2.92,4.82-4.39.78-.72,1.52-1.48,2.3-2.2.37-.35.79-.64,1.31-.73.13-.02.26-.04.38-.03.38.03.56.34.37.67-.14.26-.34.5-.53.74-1.58,1.9-3.16,3.79-4.74,5.69-1.09,1.31-2.2,2.62-3.26,3.96-.73.92-1.29,1.95-1.63,3.09-.11.36-.16.75-.14,1.12.03.56.36.83.92.83.84.01,1.61-.3,2.36-.62,2.06-.85,3.98-1.98,5.84-3.2,1.35-.88,2.68-1.79,4.01-2.69,1.51-1.01,2.64-2.39,3.69-3.85,1-1.38,1.95-2.79,2.96-4.15.37-.5.84-.92,1.32-1.33.32-.27.74-.35,1.16-.23.5.14.73.51.61,1.02-.07.3-.17.6-.28,1.01ZM903.99,1165.54s-.05-.05-.08-.07c-.38.34-.76.66-1.12,1.01-2.02,1.98-4.03,3.96-6.04,5.95-1.14,1.13-2.26,2.27-3.37,3.43-1.77,1.85-3.54,3.69-5.26,5.57-.8.87-1.52,1.83-2.25,2.77-.19.25-.31.57-.4.88-.14.51.14.81.64.66.51-.15,1.05-.33,1.46-.64.79-.6,1.54-1.26,2.23-1.97,1.43-1.47,2.85-2.96,4.21-4.51,2.96-3.37,5.66-6.94,8.25-10.61.58-.82,1.15-1.65,1.73-2.47Z"/>
        <path class="cls-3" d="M805.11,1150.84c0,.5-.36.87-.88.88-.48,0-.85-.37-.86-.86,0-.53.36-.9.89-.9.47,0,.84.38.84.89Z"/>
        <path class="cls-3" d="M904.61,1151.72c-.5,0-.84-.38-.83-.92,0-.47.4-.84.89-.84.47,0,.86.42.87.92,0,.46-.43.86-.93.85Z"/>
      </g>
      <g>
        <g>
          <path class="cls-3" d="M783.31,1096.62c0,6.36-2.29,10.14-6.07,10.14-5.6,0-6.84-6.58-6.84-10.18v-13.38c0-1.56-.36-2.22-.36-2.22h2.62s-.36.65-.36,2.22v13.38c0,2.44.47,8.98,4.94,8.98,2.54,0,4.83-2.18,4.87-8.69.07-7.13-1.24-7.05-.55-15.89h2.25c-1.49,6.58-.51,8-.51,15.63Z"/>
          <path class="cls-3" d="M789.3,1106.44h-2.58s.36-.69.36-2.25v-20.98c0-1.56-.36-2.22-.36-2.22l2.22-.36v23.56c0,1.56.36,2.25.36,2.25Z"/>
          <path class="cls-3" d="M795.52,1106.44h-2.58s.36-.69.36-2.25v-20.98c0-1.56-.36-2.22-.36-2.22l2.22-.36v23.56c0,1.56.36,2.25.36,2.25Z"/>
          <path class="cls-3" d="M808.31,1101.68l1.35,1.31c-.8,2.11-2.36,3.78-5.35,3.78-5.6,0-6.07-6.58-6.07-10.18s.47-10.18,6.07-10.18c4,0,6.94,4.07,5.27,7.53-2.25,4.58-9.78,2.76-8.94,7.89.47,2.25,1.49,4.25,3.67,4.25,2.55,0,3.74-2.07,4-4.4ZM800.28,1099.13c1.45-2.84,6.44-2.11,7.63-5.38,1.16-3.13-.62-6.65-3.6-6.65-4.11,0-4.07,7.05-4.07,9.49,0,.62,0,1.53.04,2.54Z"/>
          <path class="cls-3" d="M823.39,1098.77c0,4.65-1.27,8-5.05,8-5.6,0-5.93-6.58-5.93-10.18v-7.6c0-1.56-.36-2.22-.36-2.22h2.58s-.36.65-.36,2.22v7.6c0,3.16.18,9.05,4.07,9.05,2.84,0,3.93-2.8,3.93-6.76,0-3.71-.47-5.13-.29-12.11h2.11c-1.2,4.4-.69,7.05-.69,12Z"/>
          <path class="cls-3" d="M837.92,1106.44h-2.07c-.18-7.02.29-8.4.29-12.14,0-3.96-1.09-6.73-3.96-6.73-3.89,0-4.07,5.85-4.07,9.02v7.6c0,1.56.36,2.25.36,2.25h-2.58s.36-.69.36-2.25v-7.6c0-3.6.36-10.18,5.96-10.18,3.78,0,5.05,3.38,5.05,8,0,4.98-.51,7.6.66,12.03Z"/>
          <path class="cls-3" d="M852.24,1088.84v11.49c0,4.11-.25,10.83-5.96,10.83-2.8,0-4.33-1.34-5.05-3.02l1.2-1.27c.44,1.78,1.56,3.49,3.85,3.49,3.27,0,3.96-3.13,4.07-6.43-.69,1.64-1.93,2.83-4.18,2.83-5.6,0-6.07-6.58-6.07-10.18s.47-10.18,6.07-10.18c2.29,0,3.53,1.24,4.22,2.95v-.18c0-1.56-.36-2.22-.36-2.22l2.22-.36v2.25ZM850.39,1097.5v-1.78c-.04-4.11-.4-8.51-4.22-8.51-4.11,0-4.11,6.94-4.11,9.38s0,9.42,4.11,9.42c3.82,0,4.18-4.44,4.22-8.51Z"/>
        </g>
        <g>
          <path class="cls-3" d="M875.06,1098.08c0,5.53-3.16,8.36-10.03,8.36h-2.25s.36-.69.36-2.25v-20.98c0-1.56-.36-2.22-.36-2.22h2.25c7.45.04,9.16,2.62,7.89,6.22-.69,1.93-2.65,3.31-4.51,4.76,2.8-.4,6.65,1.93,6.65,6.11ZM865.03,1094.33c1.85-2.54,5.16-4.36,6-7.27.65-2.18.8-5.35-6-5.38v12.65ZM873.2,1098.3c-.18-4.87-4.44-6.8-6.51-4.87-.69.65-1.27,1.34-1.67,2.11v10.22c6.03,0,8.36-2.8,8.18-7.45Z"/>
          <path class="cls-3" d="M879.99,1101.42v2.76c0,1.56.36,2.25.36,2.25h-2.58s.36-.69.36-2.25v-15.2c0-1.56-.36-2.22-.36-2.22l2.22-.36v5.42c.4-3.56,2.33-6.54,5.56-4.91v1.78c-4.94-2.62-5.56,4.04-5.56,12.72Z"/>
          <path class="cls-3" d="M896.53,1101.68l1.35,1.31c-.8,2.11-2.36,3.78-5.35,3.78-5.6,0-6.07-6.58-6.07-10.18s.47-10.18,6.07-10.18c4,0,6.94,4.07,5.27,7.53-2.25,4.58-9.78,2.76-8.94,7.89.47,2.25,1.49,4.25,3.67,4.25,2.55,0,3.74-2.07,4-4.4ZM888.5,1099.13c1.45-2.84,6.44-2.11,7.63-5.38,1.16-3.13-.62-6.65-3.6-6.65-4.11,0-4.07,7.05-4.07,9.49,0,.62,0,1.53.04,2.54Z"/>
          <path class="cls-3" d="M913.75,1086.77h2.07c-1.31,3.13-1.82,7.09-2,9.82-.4,4.98-1.42,7.82-2.44,9.42.11.29.22.44.22.44h-2.55s.29-.69.07-2.25c-.07-.62-1.42-9.74-1.93-13.56-.33,2.07-.51,4.18-.58,5.96-.18,5.02-.98,7.89-2,9.45.11.25.22.4.22.4h-2.54s.29-.69.07-2.25c-.11-.76-2.04-14.43-2.15-15.16-.22-1.6-.69-2.25-.69-2.25h2.54s-.29.65-.07,2.25c.11.73,2.07,14.4,2.15,15.16.07.33.11.66.18.91.76-1.49,1.35-4.07,1.6-8.51.11-2.29.29-5.27.95-8.14-.22-1.16-.58-1.67-.58-1.67h2.54s-.29.65-.07,2.25c.11.73,2.07,14.4,2.14,15.16.07.33.11.66.18.91.84-1.49,1.75-4.07,1.85-8.51.04-2.73.07-6.33.8-9.82Z"/>
          <path class="cls-3" d="M927.16,1101.68l1.34,1.31c-.8,2.11-2.36,3.78-5.34,3.78-5.6,0-6.07-6.58-6.07-10.18s.47-10.18,6.07-10.18c4,0,6.94,4.07,5.27,7.53-2.25,4.58-9.78,2.76-8.94,7.89.47,2.25,1.49,4.25,3.67,4.25,2.55,0,3.74-2.07,4-4.4ZM919.13,1099.13c1.45-2.84,6.44-2.11,7.64-5.38,1.16-3.13-.62-6.65-3.6-6.65-4.11,0-4.07,7.05-4.07,9.49,0,.62,0,1.53.04,2.54Z"/>
          <path class="cls-3" d="M933.48,1101.42v2.76c0,1.56.36,2.25.36,2.25h-2.58s.36-.69.36-2.25v-15.2c0-1.56-.36-2.22-.36-2.22l2.22-.36v5.42c.4-3.56,2.33-6.54,5.56-4.91v1.78c-4.94-2.62-5.56,4.04-5.56,12.72Z"/>
          <path class="cls-3" d="M948.56,1098.7c-1.49,7.67-4.11,12.47-8.51,12.47l-.66-1.6c.87.25,2.29-.07,3.45-.8.69-.4,1.31-.95,1.82-1.64.4-.54.54-.84.4-1.45-.15-.73-3.78-15.92-3.93-16.69-.4-1.56-.91-2.22-.91-2.22h2.54s-.18.65.18,2.22c.15.58,2.44,10.32,3.49,14.69.47-1.38.87-3.02,1.2-4.84.76-4.03,1.38-8.07,2.94-12.07h2.11c-2.36,4-3.16,6.91-4.14,11.92Z"/>
        </g>
      </g>
    </g>
    <g>
      <path class="cls-3" d="M7.54,540.67h4.5l6.38,18.75h-3.64l-1.56-4.73c-.12-.37.01-.65.34-.76l.43-.14c.73-.24,1.11-1.01.84-1.79-.27-.76-.92-.98-1.63-.78l-.42.12c-.35.12-.61-.05-.72-.42l-2.33-7.21-2.35,7.21c-.09.34-.35.54-.73.43l-.31-.11c-.78-.22-1.52.08-1.77.85-.22.73.2,1.45.95,1.71l.41.14c.31.1.41.38.29.75l-1.6,4.73H1.06l6.49-18.75ZM7.83,551.53h3.88c.84,0,1.49.64,1.49,1.46s-.65,1.41-1.49,1.41h-3.88c-.85,0-1.5-.6-1.5-1.41s.65-1.46,1.5-1.46Z"/>
      <path class="cls-3" d="M20.43,545.7h3.09v1.29c0,.22-.18.43-.43.43h-.51c-.67,0-1.26.48-1.26,1.2,0,.68.5,1.22,1.18,1.22s1.03-.5,1.2-1.22c.14-.59.38-1.11.68-1.54.71-1.06,1.84-1.65,3.33-1.65.26,0,.51.03.68.07v3.23c-.34-.08-.68-.12-1.06-.12-2.03,0-3.58,1.32-3.58,4.16v6.66h-3.32v-13.73Z"/>
      <path class="cls-3" d="M32.12,555.7v-7.44h-2.34v-2.56h.27c1.74,0,2.5-.73,2.6-2.73l.07-1.35h2.71v3.06c0,.31-.17.5-.48.5h-.69c-.72,0-1.27.54-1.27,1.22,0,.72.55,1.27,1.27,1.27.68,0,1.22-.55,1.22-1.27v-.22c0-.3.18-.47.5-.47h2.46v2.56h-2.99v7.09c0,1.26.69,1.65,1.71,1.65.34,0,.71-.04,1.05-.12v2.55c-.55.16-1.18.25-1.88.25-2.5,0-4.18-1.06-4.18-3.97Z"/>
      <path class="cls-3" d="M40.48,540.56h3.57v3.19h-3.57v-3.19ZM40.6,545.7h3.32v13.73h-3.32v-13.73Z"/>
      <path class="cls-3" d="M46.41,555.07h3.48c.05,1.49,1.19,2.31,2.82,2.31,1.45,0,2.37-.64,2.37-1.69,0-.89-.61-1.31-1.96-1.58l-2.38-.47c-2.84-.56-4.04-1.84-4.04-3.84,0-2.58,2.12-4.49,5.78-4.49s5.68,2.01,5.79,4.54h-3.41c-.05-1.35-.97-2.16-2.45-2.16-1.39,0-2.3.69-2.3,1.69,0,.77.55,1.22,1.73,1.45l2.56.48c2.76.54,4.09,1.8,4.09,3.92,0,3.05-2.56,4.56-5.83,4.56-3.81,0-6.19-1.75-6.25-4.73ZM52.69,553.54c.58,0,1.06-.48,1.06-1.07s-.51-1.07-1.07-1.07-1.09.48-1.09,1.07.52,1.07,1.1,1.07Z"/>
      <path class="cls-3" d="M62.26,555.7v-7.44h-2.34v-2.56h.27c1.74,0,2.5-.73,2.6-2.73l.07-1.35h2.71v3.06c0,.31-.17.5-.48.5h-.69c-.72,0-1.27.54-1.27,1.22,0,.72.55,1.27,1.27,1.27.68,0,1.22-.55,1.22-1.27v-.22c0-.3.18-.47.5-.47h2.46v2.56h-2.99v7.09c0,1.26.69,1.65,1.71,1.65.34,0,.71-.04,1.05-.12v2.55c-.55.16-1.18.25-1.88.25-2.5,0-4.18-1.06-4.18-3.97Z"/>
      <path class="cls-3" d="M70.13,555.07h3.48c.05,1.49,1.19,2.31,2.82,2.31,1.45,0,2.37-.64,2.37-1.69,0-.89-.61-1.31-1.96-1.58l-2.38-.47c-2.84-.56-4.04-1.84-4.04-3.84,0-2.58,2.12-4.49,5.78-4.49s5.68,2.01,5.79,4.54h-3.41c-.05-1.35-.97-2.16-2.45-2.16-1.39,0-2.3.69-2.3,1.69,0,.77.55,1.22,1.73,1.45l2.56.48c2.76.54,4.09,1.8,4.09,3.92,0,3.05-2.56,4.56-5.83,4.56-3.81,0-6.19-1.75-6.25-4.73ZM76.4,553.54c.58,0,1.06-.48,1.06-1.07s-.51-1.07-1.07-1.07-1.09.48-1.09,1.07.52,1.07,1.1,1.07Z"/>
    </g>
    <line class="cls-2" x1=".81" y1="510.94" x2="967.85" y2="510.94"/>
  </g>
</svg>