<?xml version="1.0" encoding="UTF-8"?>
<svg id="_레이어_1" data-name="레이어 1" xmlns="http://www.w3.org/2000/svg" version="1.1" viewBox="0 0 331.83 59.51">
  <defs>
    <style>
      .cls-1 {
        fill: #fff;
        stroke-width: 0px;
      }
    </style>
  </defs>
  <g>
    <path class="cls-1" d="M0,11.87h8.04c4.24,0,6.83,2.51,6.83,6.49s-2.72,6.52-6.82,6.52h-3.2c-.89,0-1.62-.69-1.62-1.58s.73-1.61,1.62-1.61h2.46c2.42,0,3.83-1.13,3.83-3.34s-1.4-3.31-3.84-3.31h-2.67c-.37,0-.6-.23-.6-.59v-.13c0-.8-.66-1.45-1.45-1.45s-1.45.63-1.45,1.45.65,1.43,1.46,1.43h.47c.4,0,.66.27.66.65v4.73c0,.4-.26.64-.66.64h-.42c-.86,0-1.55.69-1.55,1.55s.69,1.52,1.55,1.52h.47c.39,0,.6.24.6.6v6.96H0V11.87Z"/>
    <path class="cls-1" d="M16.37,28.32c0-2.91,1.88-4.26,4.79-4.7l2.52-.39c1.59-.24,2.24-.6,2.24-1.59s-.77-2.01-2.52-2.01-2.77.93-2.85,2.44h-3.77c.11-2.98,2.67-5.12,6.58-5.12s6.23,2.11,6.23,5.6v6.39c0,1.23.17,2.68.59,3.01v.46h-3.8c-.14-.56-.26-1.26-.33-2.01-.89,1.38-2.55,2.42-4.74,2.42-2.79,0-4.93-1.7-4.93-4.51ZM22.5,30.05c2.19,0,3.37-1.56,3.5-3.61v-.27c.06-.4.3-.6.7-.6h.31c.73,0,1.35-.57,1.35-1.35s-.59-1.33-1.35-1.33-1.38.56-1.38,1.35v.23c0,.54-.26.82-.92.95l-.66.13-1.49.3c-1.62.33-2.45.97-2.45,2.23s1.02,1.98,2.38,1.98Z"/>
    <path class="cls-1" d="M33.04,17.37h3.38v1.42c0,.24-.2.47-.47.47h-.56c-.73,0-1.38.53-1.38,1.32,0,.75.54,1.33,1.29,1.33s1.13-.54,1.32-1.33c.16-.64.42-1.22.75-1.69.77-1.16,2.02-1.81,3.65-1.81.29,0,.56.03.75.07v3.54c-.37-.09-.75-.13-1.16-.13-2.22,0-3.93,1.45-3.93,4.56v7.29h-3.64v-15.04Z"/>
    <path class="cls-1" d="M45.82,28.33v-8.15h-2.56v-2.81h.3c1.91,0,2.74-.8,2.85-3l.07-1.48h2.97v3.35c0,.34-.19.54-.53.54h-.76c-.79,0-1.39.59-1.39,1.33,0,.79.6,1.39,1.39,1.39.74,0,1.33-.6,1.33-1.39v-.24c0-.33.2-.52.54-.52h2.69v2.81h-3.28v7.77c0,1.38.76,1.81,1.88,1.81.37,0,.77-.04,1.15-.13v2.79c-.6.17-1.29.27-2.06.27-2.74,0-4.58-1.16-4.58-4.36Z"/>
    <path class="cls-1" d="M55.08,17.37h3.37v1.4c0,.32-.19.49-.47.49h-.69c-.76,0-1.36.56-1.36,1.32s.54,1.33,1.29,1.33,1.16-.47,1.38-1.33c.64-2.31,2.05-3.62,4.61-3.62,2.98,0,4.76,2.06,4.76,5.16v10.3h-3.64v-9.99c0-1.66-.85-2.62-2.45-2.62-1.98,0-3.15,1.56-3.15,4.46v8.15h-3.64v-15.04Z"/>
    <path class="cls-1" d="M70.63,24.88c0-4.97,3.11-7.92,7.26-7.92s6.86,2.71,6.86,7.69c0,.39,0,.76-.01,1.12h-9.07c-.77,0-1.32-.53-1.32-1.26s.54-1.26,1.32-1.26h5.32c-.14-2.46-1.26-3.6-3.11-3.6-1.72,0-2.97,1.12-3.34,3.11-.07.33-.26.47-.63.47h-.26c-.73,0-1.29.5-1.29,1.23s.56,1.23,1.29,1.23h.27c.33,0,.5.13.53.49.17,2.61,1.58,3.91,3.57,3.91,1.62,0,2.75-.95,2.99-2.68h3.67c-.39,3.29-2.89,5.42-6.79,5.42-4.26,0-7.26-2.55-7.26-7.95Z"/>
    <path class="cls-1" d="M87.64,17.37h3.38v1.42c0,.24-.2.47-.47.47h-.56c-.73,0-1.38.53-1.38,1.32,0,.75.54,1.33,1.29,1.33s1.13-.54,1.32-1.33c.16-.64.42-1.22.75-1.69.77-1.16,2.02-1.81,3.65-1.81.29,0,.56.03.75.07v3.54c-.37-.09-.75-.13-1.16-.13-2.22,0-3.93,1.45-3.93,4.56v7.29h-3.64v-15.04Z"/>
    <path class="cls-1" d="M97.91,27.65h3.81c.06,1.63,1.3,2.54,3.1,2.54,1.59,0,2.59-.7,2.59-1.85,0-.97-.67-1.43-2.15-1.73l-2.61-.52c-3.11-.62-4.43-2.02-4.43-4.21,0-2.82,2.32-4.91,6.33-4.91s6.22,2.21,6.35,4.97h-3.74c-.06-1.48-1.06-2.36-2.68-2.36-1.52,0-2.52.76-2.52,1.85,0,.85.6,1.33,1.89,1.59l2.81.53c3.02.59,4.48,1.98,4.48,4.3,0,3.34-2.81,5-6.39,5-4.17,0-6.78-1.92-6.85-5.19ZM104.79,25.97c.63,0,1.16-.53,1.16-1.17s-.56-1.18-1.17-1.18-1.19.53-1.19,1.18.57,1.17,1.2,1.17Z"/>
  </g>
  <g>
    <path class="cls-1" d="M228.61,26.73c.49-.3,1-.56,1.45-.91,2.74-2.07,5.75-3.61,9.05-4.55,1.67-.47,3.37-.93,5.13-.83.57.03,1.17.19,1.68.43.93.44,1.14,1.32.61,2.2-.53.9-1.26,1.64-2.06,2.3-2.34,1.94-4.94,3.46-7.68,4.75-.71.33-1.44.63-2.15.95-.15.06-.29.14-.42.23-.22.15-.22.32.03.45.24.12.49.22.74.32,1.26.51,1.71,1.53,1.17,2.8-.27.64-.67,1.23-1,1.85-.12.22-.23.44-.31.67-.27.78.07,1.38.87,1.55.7.15,1.39.05,2.07-.11,1.86-.44,3.59-1.24,5.26-2.14,1.89-1.03,3.7-2.18,5.34-3.59.91-.78,1.62-1.67,1.85-2.89.06-.3.18-.59.31-.86.27-.57.87-.84,1.47-.71.5.11.83.6.79,1.18-.04.54-.3.98-.63,1.39-.88,1.13-2.02,1.97-3.14,2.83-2.71,2.08-5.71,3.63-8.82,4.97-1.01.43-2.02.92-3.08,1.2-1.64.43-3.32.62-5,.07-.73-.24-1.28-.72-1.64-1.4-.33-.61-.32-1.24.04-1.83.22-.35.5-.67.77-.99.36-.42.77-.8,1.12-1.22.34-.41.59-.87.37-1.43-.24-.62-.77-.83-1.36-.93-.89-.15-1.71.19-2.53.46-.5.16-1,.34-1.51.45-.26.06-.56.02-.83-.05-.34-.09-.56-.35-.61-.71-.06-.39.09-.69.45-.85.28-.12.58-.25.87-.24,3.09.07,5.73-1.25,8.31-2.71,1.94-1.1,3.77-2.36,5.32-3.99.4-.42.77-.9,1.06-1.41.43-.75.11-1.29-.75-1.25-.76.03-1.56.1-2.27.36-1.32.48-2.62,1.03-3.87,1.68-3.46,1.78-6.63,4.01-9.6,6.54-2.07,1.76-4.02,3.65-5.84,5.67-.97,1.08-1.97,2.13-2.98,3.18-.5.53-1.12.84-1.88.74-.74-.09-1.09-.59-.74-1.24.39-.73.92-1.39,1.42-2.06.29-.39.64-.75.95-1.12.09-.11.16-.25.24-.38-.03-.04-.05-.07-.08-.11-.31.15-.64.27-.93.45-1.51.88-2.99,1.83-4.54,2.66-2.06,1.1-4.25,1.85-6.58,2.07-2.11.19-4.21.11-6.2-.78-1.82-.81-2.88-2.38-2.81-4.25.02-.59.15-1.17.21-1.76.05-.44-.09-.55-.46-.32-1.04.63-2.06,1.29-3.07,1.96-2.65,1.76-5.35,3.43-8.4,4.42-1.43.46-2.88.71-4.37.32-1.2-.31-2.09-1.26-2.23-2.42-.09-.78.18-1.51.49-2.21.1-.23.2-.45.27-.69.03-.09,0-.23-.05-.3-.04-.04-.19-.03-.27,0-.28.15-.57.3-.83.48-2.76,1.9-5.67,3.53-8.8,4.73-1.64.63-3.33,1.13-5.11,1.06-2.05-.08-3.75-.85-4.67-2.83-.55-1.17-.57-2.43-.05-3.6,2.24-5.09,5.21-9.74,8.68-14.07,1.97-2.45,4.09-4.76,6.35-6.94,2.92-2.82,6.01-5.45,9.37-7.73,2.14-1.46,4.32-2.86,6.5-4.25,1.04-.66,2.15-1.18,3.38-1.39.66-.11,1.31-.08,1.95.16.77.28,1.13,1.1,1.06,1.84-.09,1-.48,1.9-1.05,2.69-.93,1.3-1.88,2.59-2.94,3.78-1.48,1.65-3.04,3.23-4.61,4.78-4.84,4.77-9.92,9.24-15.47,13.17-1.67,1.18-3.41,2.23-5.26,3.09-.39.18-.77.38-1.14.59-.6.33-1.06.82-1.32,1.45-.58,1.4-.83,2.87-.59,4.38.3,1.92,1.66,2.92,3.58,2.73,1.31-.13,2.51-.64,3.68-1.22,4.11-2.03,7.89-4.58,11.34-7.61,1.39-1.22,2.72-2.52,4.09-3.77,1.31-1.19,2.64-2.35,3.95-3.54.59-.54,1.14-1.13,1.76-1.63.33-.27.76-.45,1.17-.58.2-.06.57.02.68.18.11.15.07.52-.05.7-.29.45-.64.87-1,1.27-2.28,2.5-4.63,4.93-6.66,7.65-1.1,1.47-2.08,3.02-2.54,4.84-.15.61-.29,1.23-.12,1.86.23.85.89,1.27,1.75,1.14,1.04-.15,1.95-.63,2.86-1.12,3.26-1.74,6.25-3.88,9.18-6.13.72-.56,1.35-1.25,1.98-1.92,1.55-1.65,3.29-3.06,5.18-4.3,2.23-1.46,4.6-2.63,7.19-3.28,1.13-.28,2.28-.51,3.45-.26.72.15,1.38.42,1.87,1.01.34.41.5.91.4,1.42-.46,2.34-1.78,4.02-3.96,4.98-.6.27-1.24.19-1.86-.06-1.13-.46-.99-1.95-.26-2.43.45-.29.99-.46,1.51-.63.67-.22,1.35-.38,1.79-1,.09-.13.18-.27.25-.41.42-.83.04-1.61-.88-1.78-.78-.14-1.54,0-2.28.25-1.47.48-2.72,1.34-3.94,2.26-2.07,1.57-3.88,3.39-5.33,5.57-.81,1.22-1.45,2.52-1.65,4-.19,1.41.04,2.73.98,3.85.63.76,1.48,1.14,2.44,1.21,1.96.14,3.81-.41,5.6-1.14,2.48-1.01,4.75-2.4,6.97-3.88,1.56-1.04,3.11-2.12,4.51-3.36,1.43-1.27,2.69-2.73,3.99-4.14,1.37-1.48,2.71-2.99,4.06-4.48.39-.44.79-.87,1.16-1.33.24-.3.18-.46-.2-.53-.71-.14-1.43-.21-2.13-.36-1-.22-1.75-.8-2.19-1.75-.19-.42-.24-.85-.1-1.3.17-.53.49-.93,1.06-1,.58-.07,1.02.2,1.35.66.13.18.23.38.31.58.57,1.49,1.74,1.6,2.79,1.44.87-.13,1.53-.65,2.09-1.29,2.35-2.68,4.67-5.39,7.04-8.04,1.72-1.93,3.48-3.82,5.28-5.67,1.22-1.26,2.59-2.35,4.25-2.99.93-.36,1.88-.63,2.9-.43.79.15,1.26.7,1.29,1.51.05,1.21-.42,2.27-.97,3.29-.83,1.51-1.98,2.78-3.1,4.07-1.81,2.09-3.83,3.95-6.06,5.58-2.16,1.59-4.48,2.88-6.89,4.01-1.17.55-2.32,1.14-3.19,2.14-.96,1.11-1.89,2.24-2.84,3.35-.7.82-1.42,1.62-2.14,2.43.02.03.05.07.07.1ZM193.39,3.15c.02-.71-.5-1.14-1.14-1.09-1.2.09-2.26.56-3.23,1.21-1.23.83-2.41,1.74-3.6,2.63-3.94,2.93-7.68,6.09-11.09,9.64-1.75,1.82-3.43,3.69-4.97,5.69-1.64,2.12-3.09,4.35-4.22,6.79-.08.17-.07.39-.1.59.2,0,.41.03.59-.03,1.24-.42,2.38-1.06,3.41-1.85,3.16-2.45,6.36-4.87,9.43-7.43,2.52-2.11,4.91-4.38,7.32-6.63,1.27-1.18,2.46-2.45,3.65-3.71,1.16-1.23,2.25-2.51,3.16-3.94.38-.61.73-1.23.8-1.87ZM236.68,17.02s.04.05.06.08c.17-.06.34-.11.5-.19,4.37-2.05,8.18-4.84,11.32-8.54.95-1.12,1.82-2.32,2.66-3.53.42-.61.74-1.31.65-2.11-.06-.5-.42-.77-.91-.67-.19.04-.39.09-.55.19-.48.29-.98.56-1.42.91-1.7,1.34-3.17,2.91-4.55,4.56-2.3,2.74-4.58,5.49-6.87,8.24-.29.35-.59.71-.88,1.06Z"/>
    <path class="cls-1" d="M321.38,22.79c.27-.09.44-.12.6-.19,1-.42,1.98-.91,3.01-1.27,1.32-.47,2.69-.63,4.08-.3,1.69.41,2.73,1.75,2.76,3.51.03,2.03-.52,3.94-1.36,5.75-1.97,4.29-5.11,7.46-9.28,9.59-1.67.86-3.44,1.35-5.35,1.16-2.06-.2-3.52-1.84-3.54-3.93-.01-.98.25-1.85.89-2.59.42-.49.96-.63,1.56-.49.45.1.76.42.85.88.11.54-.03,1.05-.33,1.51-.22.34-.45.68-.64,1.04-.3.57-.09,1.07.53,1.28.48.16.95.05,1.41-.09,1.48-.45,2.75-1.28,3.96-2.22,2.79-2.18,5.12-4.76,6.9-7.84.71-1.22,1.28-2.51,1.43-3.93.07-.67.12-1.37-.38-1.94-.51-.58-1.19-.7-1.89-.55-.65.14-1.31.33-1.92.61-2.01.91-3.95,1.96-5.7,3.34-1.22.96-2.18,2.16-3.16,3.34-3.79,4.53-7.33,9.26-10.91,13.95-1.7,2.22-3.44,4.4-5.21,6.56-1.53,1.87-3.09,3.73-4.72,5.52-1.1,1.21-2.36,2.27-3.73,3.17-1.06.69-2.22,1.04-3.49.8-1.04-.19-1.47-1.01-1.38-1.99.12-1.43.77-2.66,1.64-3.74,1.38-1.72,2.81-3.39,4.28-5.02,1.23-1.36,2.52-2.67,3.84-3.94,1.77-1.72,3.61-3.37,5.4-5.07.7-.66,1.36-1.35,2.03-2.04.11-.11.17-.26.26-.39-.02-.03-.03-.06-.05-.09-.15.04-.32.05-.45.13-.91.49-1.8,1-2.71,1.48-1.55.82-3.14,1.56-4.91,1.79-1.08.14-2.13.05-3.12-.45-1.3-.66-1.88-1.81-1.54-3.25.13-.57.4-1.11.61-1.66.05-.14.11-.29.1-.5-.15.06-.31.11-.44.19-2.24,1.32-4.46,2.68-6.73,3.94-1.18.65-2.45,1.12-3.7,1.62-.68.28-1.41.22-2.07-.1-.7-.35-1.38-.3-2.1-.07-1.64.53-3.32.74-5.03.39-1.75-.37-3.19-1.21-3.97-2.92-.69-1.52-.54-3.05.03-4.57.39-1.01.98-1.88,1.93-2.44.48-.29,1-.46,1.58-.33.58.12.98.46,1.16,1.02.19.58.04,1.13-.4,1.52-.34.3-.76.53-1.17.74-.67.33-1.33.65-1.65,1.39-.88,2.07.74,3.82,2.32,4.04,1.17.16,2.21-.25,3.16-.86,2.41-1.54,4.22-3.63,5.34-6.28.54-1.29.42-2.63.19-3.97-.16-.93-.32-1.87-.4-2.82-.24-2.72,1.79-4.92,4.52-4.94,1.84-.01,3.24.75,4.17,2.34.83,1.41.31,3.36-1.1,4.17-.44.25-.89.27-1.33-.01-.37-.24-.48-.63-.37-1.01.09-.3.31-.57.52-.81.32-.36.74-.65.88-1.16.3-1.05-.47-2.19-1.67-2.46-1.33-.29-2.58.3-3.38,1.6-.68,1.1-.74,2.28-.43,3.49.25.99.57,1.96.85,2.95.7,2.41.5,4.71-.87,6.85-.41.64-.87,1.25-1.31,1.87-.18.25-.47.49-.3.81.19.34.6.32.9.21.96-.34,1.95-.62,2.83-1.12,2.45-1.4,4.88-2.84,7.25-4.37,2.17-1.39,4.17-3.02,6.04-4.82,1.78-1.71,3.66-3.32,5.47-4.99.89-.81,1.73-1.68,2.61-2.5.42-.4.9-.73,1.49-.83.14-.02.29-.04.44-.03.43.04.63.38.42.76-.16.3-.38.57-.6.84-1.79,2.16-3.59,4.31-5.38,6.46-1.24,1.49-2.49,2.98-3.7,4.5-.83,1.05-1.47,2.22-1.85,3.51-.12.4-.18.85-.16,1.27.03.64.41.94,1.04.95.96.01,1.82-.34,2.68-.7,2.34-.97,4.52-2.25,6.64-3.63,1.53-1,3.04-2.03,4.56-3.06,1.71-1.15,2.99-2.72,4.19-4.37,1.13-1.56,2.21-3.17,3.36-4.72.42-.56.96-1.05,1.5-1.51.36-.31.84-.4,1.32-.26.56.16.82.58.69,1.15-.08.34-.19.68-.32,1.15ZM309.96,33.39s-.06-.05-.09-.08c-.43.38-.87.75-1.28,1.15-2.29,2.25-4.58,4.5-6.86,6.76-1.29,1.28-2.57,2.58-3.83,3.9-2.01,2.1-4.02,4.19-5.98,6.33-.91.99-1.73,2.07-2.55,3.14-.22.28-.36.65-.46,1-.16.58.16.92.73.75.58-.18,1.19-.37,1.66-.73.9-.68,1.75-1.43,2.53-2.24,1.63-1.68,3.24-3.37,4.78-5.12,3.36-3.83,6.43-7.89,9.37-12.05.66-.93,1.31-1.87,1.96-2.81Z"/>
    <path class="cls-1" d="M197.65,16.69c0,.57-.41.99-1,1-.54.01-.97-.42-.97-.98,0-.6.41-1.02,1.01-1.03.53,0,.95.44.96,1.01Z"/>
    <path class="cls-1" d="M310.67,17.69c-.57,0-.95-.43-.94-1.05.01-.54.45-.96,1.01-.96.53,0,.98.48.99,1.04,0,.52-.49.98-1.05.97Z"/>
  </g>
</svg>